;TYPE=PLATED
;Layer: PTH_Through_Via
;EasyEDA Pro v2.1.44.1.245b18d5.fca1f9, 2024-01-18 14:01:25
;Gerber Generator version 0.3
M48
METRIC,LZ,000.00000
;Hole size 1 = 0.30500 METRIC
T01C0.30500
%
G05
G90
T01
X00127000Y-01549400
X01905000Y-01765300
X01168400Y-00609600
X01079500Y-00609600
X00508000Y-00927100
X01358900Y-01270000
X-00635000Y01092200
X-00736600Y01092200
X-00850900Y01092200
X01104900Y-00063500
X01016000Y-00114300
X00393700Y-00266700
X-00990600Y00523584
X-00711200Y00444500
X00508000Y-00774700
X-00596900Y00444500
X-00863600Y00457200
X01282700Y-00063500
X01524000Y-00190500
X02769431Y00786242
X02349500Y00508000
X02844800Y01130300
X02603500Y01041400
X02768600Y01041400
X02463800Y00571500
X02743200Y00571500
X01079500Y-00393700
X01206500Y-00393700
X-00050800Y-01739900
X-00825500Y-02743200
X-00685800Y-03009900
X-00762626Y-02451726
X-00774700Y-03136900
X-00454429Y-02226175
X-00280120Y-02147531
X02603500Y-03022600
X02324100Y-02514600
X02692400Y-02501900
X02933700Y-02425700
X02590800Y-02540000
X02679700Y-03073400
X02566939Y-02782468
X02857500Y-02514600
X02788433Y-02782458
X-00584200Y-03009900
X01778000Y-00965200
X01905000Y-01562100
X00863600Y-01320800
X00228600Y-01943100
X00762000Y-01625600
M30