G04 Layer: BottomPasteMaskLayer*
G04 EasyEDA Pro v2.1.44.1.245b18d5.fca1f9, 2024-01-18 14:01:25*
G04 Gerber Generator version 0.3*
G04 Scale: 100 percent, Rotated: No, Reflected: No*
G04 Dimensions in millimeters*
G04 Leading zeros omitted, absolute positions, 3 integers and 5 decimals*
%FSLAX35Y35*%
%MOMM*%
%ADD10R,1.575X0.67201*%
%ADD11R,1.575X0.67201*%
%ADD12R,0.4X0.8*%
%ADD13R,0.3X0.8*%
%ADD14R,0.4X1.65001*%
G75*


G04 PolygonModel Start*
G36*
G01X261396Y-1686202D02*
G01X261396Y-1641201D01*
G01X254399Y-1636202D01*
G01X206398D01*
G01X201397Y-1641201D01*
G01Y-1686202D01*
G01X206398Y-1691201D01*
G01X254399D01*
G01X261396Y-1686202D01*
G37*
G36*
G01X357398Y-1686202D02*
G01X357398Y-1641201D01*
G01X352397Y-1636202D01*
G01X304399D01*
G01X297398Y-1641201D01*
G01Y-1686202D01*
G01X304399Y-1691201D01*
G01X352397D01*
G01X357398Y-1686202D01*
G37*
G36*
G01X297404Y-1031598D02*
G01X297404Y-1076599D01*
G01X304401Y-1081598D01*
G01X352402D01*
G01X357403Y-1076599D01*
G01Y-1031598D01*
G01X352402Y-1026599D01*
G01X304401D01*
G01X297404Y-1031598D01*
G37*
G36*
G01X201402Y-1031598D02*
G01X201402Y-1076599D01*
G01X206403Y-1081598D01*
G01X254401D01*
G01X261402Y-1076599D01*
G01Y-1031598D01*
G01X254401Y-1026599D01*
G01X206403D01*
G01X201402Y-1031598D01*
G37*
G36*
G01X1719804Y-1044298D02*
G01X1719804Y-1089299D01*
G01X1726801Y-1094298D01*
G01X1774802D01*
G01X1779803Y-1089299D01*
G01Y-1044298D01*
G01X1774802Y-1039299D01*
G01X1726801D01*
G01X1719804Y-1044298D01*
G37*
G36*
G01X1623802Y-1044298D02*
G01X1623802Y-1089299D01*
G01X1628803Y-1094298D01*
G01X1676801D01*
G01X1683802Y-1089299D01*
G01Y-1044298D01*
G01X1676801Y-1039299D01*
G01X1628803D01*
G01X1623802Y-1044298D01*
G37*
G36*
G01X1683796Y-1698902D02*
G01X1683796Y-1653901D01*
G01X1676799Y-1648902D01*
G01X1628798D01*
G01X1623797Y-1653901D01*
G01Y-1698902D01*
G01X1628798Y-1703901D01*
G01X1676799D01*
G01X1683796Y-1698902D01*
G37*
G36*
G01X1779798Y-1698902D02*
G01X1779798Y-1653901D01*
G01X1774797Y-1648902D01*
G01X1726799D01*
G01X1719798Y-1653901D01*
G01Y-1698902D01*
G01X1726799Y-1703901D01*
G01X1774797D01*
G01X1779798Y-1698902D01*
G37*
G36*
G01X-917298Y-2900904D02*
G01X-962299Y-2900904D01*
G01X-967298Y-2907901D01*
G01Y-2955902D01*
G01X-962299Y-2960903D01*
G01X-917298D01*
G01X-912299Y-2955902D01*
G01Y-2907901D01*
G01X-917298Y-2900904D01*
G37*
G36*
G01X-917298Y-2804902D02*
G01X-962299Y-2804902D01*
G01X-967298Y-2809903D01*
G01Y-2857901D01*
G01X-962299Y-2864902D01*
G01X-917298D01*
G01X-912299Y-2857901D01*
G01Y-2809903D01*
G01X-917298Y-2804902D01*
G37*
G36*
G01X2905402Y-2710404D02*
G01X2860401Y-2710404D01*
G01X2855402Y-2717401D01*
G01Y-2765402D01*
G01X2860401Y-2770403D01*
G01X2905402D01*
G01X2910401Y-2765402D01*
G01Y-2717401D01*
G01X2905402Y-2710404D01*
G37*
G36*
G01X2905402Y-2614402D02*
G01X2860401Y-2614402D01*
G01X2855402Y-2619403D01*
G01Y-2667401D01*
G01X2860401Y-2674402D01*
G01X2905402D01*
G01X2910401Y-2667401D01*
G01Y-2619403D01*
G01X2905402Y-2614402D01*
G37*
G36*
G01X-708302Y691104D02*
G01X-663301Y691104D01*
G01X-658302Y698101D01*
G01Y746102D01*
G01X-663301Y751103D01*
G01X-708302D01*
G01X-713301Y746102D01*
G01Y698101D01*
G01X-708302Y691104D01*
G37*
G36*
G01X-708302Y595102D02*
G01X-663301Y595102D01*
G01X-658302Y600103D01*
G01Y648101D01*
G01X-663301Y655102D01*
G01X-708302D01*
G01X-713301Y648101D01*
G01Y600103D01*
G01X-708302Y595102D01*
G37*
G36*
G01X2901693Y752988D02*
G01X2856692Y752988D01*
G01X2851694Y745990D01*
G01Y697989D01*
G01X2856692Y692988D01*
G01X2901693D01*
G01X2906692Y697989D01*
G01Y745990D01*
G01X2901693Y752988D01*
G37*
G36*
G01X2901693Y848990D02*
G01X2856692Y848990D01*
G01X2851694Y843989D01*
G01Y795990D01*
G01X2856692Y788990D01*
G01X2901693D01*
G01X2906692Y795990D01*
G01Y843989D01*
G01X2901693Y848990D01*
G37*
G36*
G01X1546502Y-551404D02*
G01X1501501Y-551404D01*
G01X1496502Y-558401D01*
G01Y-606402D01*
G01X1501501Y-611403D01*
G01X1546502D01*
G01X1551501Y-606402D01*
G01Y-558401D01*
G01X1546502Y-551404D01*
G37*
G36*
G01X1546502Y-455402D02*
G01X1501501Y-455402D01*
G01X1496502Y-460403D01*
G01Y-508401D01*
G01X1501501Y-515402D01*
G01X1546502D01*
G01X1551501Y-508401D01*
G01Y-460403D01*
G01X1546502Y-455402D01*
G37*
G36*
G01X2669400Y-2894800D02*
G01X2715400Y-2894800D01*
G01X2719400Y-2890799D01*
G01Y-2840736D01*
G01X2715400Y-2836735D01*
G01X2669400D01*
G01X2665400Y-2840736D01*
G01Y-2890799D01*
G01X2669400Y-2894800D01*
G37*
G36*
G01X2669400Y-2921800D02*
G01X2715400Y-2921800D01*
G01X2719400Y-2925801D01*
G01Y-2975864D01*
G01X2715400Y-2979864D01*
G01X2669400D01*
G01X2665400Y-2975864D01*
G01Y-2925801D01*
G01X2669400Y-2921800D01*
G37*
G36*
G01X2859900Y-2894800D02*
G01X2905900Y-2894800D01*
G01X2909900Y-2890799D01*
G01Y-2840736D01*
G01X2905900Y-2836735D01*
G01X2859900D01*
G01X2855900Y-2840736D01*
G01Y-2890799D01*
G01X2859900Y-2894800D01*
G37*
G36*
G01X2859900Y-2921800D02*
G01X2905900Y-2921800D01*
G01X2909900Y-2925801D01*
G01Y-2975864D01*
G01X2905900Y-2979864D01*
G01X2859900D01*
G01X2855900Y-2975864D01*
G01Y-2925801D01*
G01X2859900Y-2921800D01*
G37*
G36*
G01X2669400Y-2678900D02*
G01X2715400Y-2678900D01*
G01X2719400Y-2674899D01*
G01Y-2624836D01*
G01X2715400Y-2620835D01*
G01X2669400D01*
G01X2665400Y-2624836D01*
G01Y-2674899D01*
G01X2669400Y-2678900D01*
G37*
G36*
G01X2669400Y-2705900D02*
G01X2715400Y-2705900D01*
G01X2719400Y-2709901D01*
G01Y-2759964D01*
G01X2715400Y-2763964D01*
G01X2669400D01*
G01X2665400Y-2759964D01*
G01Y-2709901D01*
G01X2669400Y-2705900D01*
G37*
G36*
G01X-662800Y-2655100D02*
G01X-708800Y-2655100D01*
G01X-712800Y-2659101D01*
G01Y-2709164D01*
G01X-708800Y-2713164D01*
G01X-662800D01*
G01X-658800Y-2709164D01*
G01Y-2659101D01*
G01X-662800Y-2655100D01*
G37*
G36*
G01X-662800Y-2628100D02*
G01X-708800Y-2628100D01*
G01X-712800Y-2624099D01*
G01Y-2574036D01*
G01X-708800Y-2570035D01*
G01X-662800D01*
G01X-658800Y-2574036D01*
G01Y-2624099D01*
G01X-662800Y-2628100D01*
G37*
G36*
G01X-916800Y-2667800D02*
G01X-962800Y-2667800D01*
G01X-966800Y-2671801D01*
G01Y-2721864D01*
G01X-962800Y-2725864D01*
G01X-916800D01*
G01X-912800Y-2721864D01*
G01Y-2671801D01*
G01X-916800Y-2667800D01*
G37*
G36*
G01X-916800Y-2640800D02*
G01X-962800Y-2640800D01*
G01X-966800Y-2636799D01*
G01Y-2586736D01*
G01X-962800Y-2582735D01*
G01X-916800D01*
G01X-912800Y-2586736D01*
G01Y-2636799D01*
G01X-916800Y-2640800D01*
G37*
G36*
G01X-708800Y-2844000D02*
G01X-662800Y-2844000D01*
G01X-658800Y-2839999D01*
G01Y-2789936D01*
G01X-662800Y-2785935D01*
G01X-708800D01*
G01X-712800Y-2789936D01*
G01Y-2839999D01*
G01X-708800Y-2844000D01*
G37*
G36*
G01X-708800Y-2871000D02*
G01X-662800Y-2871000D01*
G01X-658800Y-2875001D01*
G01Y-2925064D01*
G01X-662800Y-2929064D01*
G01X-708800D01*
G01X-712800Y-2925064D01*
G01Y-2875001D01*
G01X-708800Y-2871000D01*
G37*
G36*
G01X-662800Y888200D02*
G01X-708800Y888200D01*
G01X-712800Y884199D01*
G01Y834136D01*
G01X-708800Y830136D01*
G01X-662800D01*
G01X-658800Y834136D01*
G01Y884199D01*
G01X-662800Y888200D01*
G37*
G36*
G01X-662800Y915200D02*
G01X-708800Y915200D01*
G01X-712800Y919201D01*
G01Y969264D01*
G01X-708800Y973265D01*
G01X-662800D01*
G01X-658800Y969264D01*
G01Y919201D01*
G01X-662800Y915200D01*
G37*
G36*
G01X-807682Y893382D02*
G01X-853681Y893382D01*
G01X-857682Y889381D01*
G01Y839318D01*
G01X-853681Y835317D01*
G01X-807682D01*
G01X-803681Y839318D01*
G01Y889381D01*
G01X-807682Y893382D01*
G37*
G36*
G01X-807682Y920382D02*
G01X-853681Y920382D01*
G01X-857682Y924382D01*
G01Y974446D01*
G01X-853681Y978446D01*
G01X-807682D01*
G01X-803681Y974446D01*
G01Y924382D01*
G01X-807682Y920382D01*
G37*
G36*
G01X-848500Y699300D02*
G01X-802500Y699300D01*
G01X-798500Y703301D01*
G01Y753364D01*
G01X-802500Y757365D01*
G01X-848500D01*
G01X-852500Y753364D01*
G01Y703301D01*
G01X-848500Y699300D01*
G37*
G36*
G01X-848500Y672300D02*
G01X-802500Y672300D01*
G01X-798500Y668299D01*
G01Y618236D01*
G01X-802500Y614236D01*
G01X-848500D01*
G01X-852500Y618236D01*
G01Y668299D01*
G01X-848500Y672300D01*
G37*
G36*
G01X2646718Y517055D02*
G01X2600719Y517055D01*
G01X2596718Y513055D01*
G01Y462991D01*
G01X2600719Y458991D01*
G01X2646718D01*
G01X2650719Y462991D01*
G01Y513055D01*
G01X2646718Y517055D01*
G37*
G36*
G01X2646718Y544055D02*
G01X2600719Y544055D01*
G01X2596718Y548056D01*
G01Y598119D01*
G01X2600719Y602120D01*
G01X2646718D01*
G01X2650719Y598119D01*
G01Y548056D01*
G01X2646718Y544055D01*
G37*
G36*
G01X2903414Y510858D02*
G01X2857415Y510858D01*
G01X2853414Y506857D01*
G01Y456794D01*
G01X2857415Y452793D01*
G01X2903414D01*
G01X2907415Y456794D01*
G01Y506857D01*
G01X2903414Y510858D01*
G37*
G36*
G01X2903414Y537858D02*
G01X2857415Y537858D01*
G01X2853414Y541858D01*
G01Y591922D01*
G01X2857415Y595922D01*
G01X2903414D01*
G01X2907415Y591922D01*
G01Y541858D01*
G01X2903414Y537858D01*
G37*
G36*
G01X2634018Y753682D02*
G01X2588019Y753682D01*
G01X2584018Y749681D01*
G01Y699618D01*
G01X2588019Y695617D01*
G01X2634018D01*
G01X2638019Y699618D01*
G01Y749681D01*
G01X2634018Y753682D01*
G37*
G36*
G01X2634018Y780682D02*
G01X2588019Y780682D01*
G01X2584018Y784682D01*
G01Y834746D01*
G01X2588019Y838746D01*
G01X2634018D01*
G01X2638019Y834746D01*
G01Y784682D01*
G01X2634018Y780682D01*
G37*
G36*
G01X535800Y-187363D02*
G01X581800Y-187363D01*
G01X585800Y-183363D01*
G01Y-133299D01*
G01X581800Y-129299D01*
G01X535800D01*
G01X531800Y-133299D01*
G01Y-183363D01*
G01X535800Y-187363D01*
G37*
G36*
G01X535800Y-214363D02*
G01X581800Y-214363D01*
G01X585800Y-218364D01*
G01Y-268427D01*
G01X581800Y-272428D01*
G01X535800D01*
G01X531800Y-268427D01*
G01Y-218364D01*
G01X535800Y-214363D01*
G37*
G36*
G01X1004100Y-1399400D02*
G01X1004100Y-1445400D01*
G01X1008101Y-1449400D01*
G01X1058164D01*
G01X1062165Y-1445400D01*
G01Y-1399400D01*
G01X1058164Y-1395400D01*
G01X1008101D01*
G01X1004100Y-1399400D01*
G37*
G36*
G01X977100Y-1399400D02*
G01X977100Y-1445400D01*
G01X973099Y-1449400D01*
G01X923036D01*
G01X919036Y-1445400D01*
G01Y-1399400D01*
G01X923036Y-1395400D01*
G01X973099D01*
G01X977100Y-1399400D01*
G37*
G36*
G01X581800Y-534200D02*
G01X535800Y-534200D01*
G01X531800Y-538201D01*
G01Y-588264D01*
G01X535800Y-592264D01*
G01X581800D01*
G01X585800Y-588264D01*
G01Y-538201D01*
G01X581800Y-534200D01*
G37*
G36*
G01X581800Y-507200D02*
G01X535800Y-507200D01*
G01X531800Y-503199D01*
G01Y-453136D01*
G01X535800Y-449135D01*
G01X581800D01*
G01X585800Y-453136D01*
G01Y-503199D01*
G01X581800Y-507200D01*
G37*
G04 PolygonModel End*

G04 Pad Start*
G54D10*
G01X491223Y-1208900D03*
G01X491223Y-1508900D03*
G36*
G01X127279Y-1453883D02*
G01X312699Y-1453883D01*
G01X317152Y-1453777D01*
G01X321594Y-1453464D01*
G01X326019Y-1452943D01*
G01X330413Y-1452217D01*
G01X334769Y-1451282D01*
G01X339075Y-1450147D01*
G01X343324Y-1448811D01*
G01X347505Y-1447277D01*
G01X351610Y-1445547D01*
G01X355630Y-1443629D01*
G01X359555Y-1441524D01*
G01X363377Y-1439235D01*
G01X367088Y-1436771D01*
G01X370680Y-1434137D01*
G01X374142Y-1431338D01*
G01X377472Y-1428377D01*
G01X380657Y-1425265D01*
G01X383695Y-1422006D01*
G01X386575Y-1418610D01*
G01X389293Y-1415082D01*
G01X391843Y-1411430D01*
G01X394218Y-1407663D01*
G01X396415Y-1403787D01*
G01X398429Y-1399814D01*
G01X400253Y-1391884D01*
G01X569986D01*
G01Y-1325885D01*
G01X400253D01*
G01X398429Y-1317950D01*
G01X396415Y-1313978D01*
G01X394218Y-1310102D01*
G01X391843Y-1306335D01*
G01X389293Y-1302682D01*
G01X386575Y-1299154D01*
G01X383695Y-1295758D01*
G01X380657Y-1292499D01*
G01X377472Y-1289388D01*
G01X374142Y-1286426D01*
G01X370680Y-1283627D01*
G01X367088Y-1280993D01*
G01X363377Y-1278529D01*
G01X359555Y-1276241D01*
G01X355630Y-1274135D01*
G01X351610Y-1272217D01*
G01X347505Y-1270488D01*
G01X343324Y-1268954D01*
G01X339075Y-1267617D01*
G01X334769Y-1266482D01*
G01X330413Y-1265547D01*
G01X326019Y-1264821D01*
G01X321594Y-1264300D01*
G01X317152Y-1263988D01*
G01X312699Y-1263881D01*
G01X127279D01*
G01X122827Y-1263988D01*
G01X118384Y-1264300D01*
G01X113960Y-1264821D01*
G01X109565Y-1265547D01*
G01X105209Y-1266482D01*
G01X100904Y-1267617D01*
G01X96655Y-1268954D01*
G01X92474Y-1270488D01*
G01X88369Y-1272217D01*
G01X84348Y-1274135D01*
G01X80424Y-1276241D01*
G01X76601Y-1278529D01*
G01X72890Y-1280993D01*
G01X69299Y-1283627D01*
G01X65837Y-1286426D01*
G01X62507Y-1289388D01*
G01X59322Y-1292499D01*
G01X56284Y-1295758D01*
G01X53404Y-1299154D01*
G01X50686Y-1302682D01*
G01X48136Y-1306335D01*
G01X45761Y-1310102D01*
G01X43564Y-1313978D01*
G01X41549Y-1317950D01*
G01X39726Y-1322014D01*
G01X38092Y-1326157D01*
G01X36657Y-1330373D01*
G01X35420Y-1334653D01*
G01X34387Y-1338986D01*
G01X33556Y-1343360D01*
G01X32931Y-1347772D01*
G01X32515Y-1352207D01*
G01X32306Y-1356655D01*
G01Y-1361110D01*
G01X32515Y-1365557D01*
G01X32931Y-1369992D01*
G01X33556Y-1374404D01*
G01X34387Y-1378778D01*
G01X35420Y-1383111D01*
G01X36657Y-1387391D01*
G01X38092Y-1391608D01*
G01X39726Y-1395750D01*
G01X41549Y-1399814D01*
G01X43564Y-1403787D01*
G01X45761Y-1407663D01*
G01X48136Y-1411430D01*
G01X50686Y-1415082D01*
G01X53404Y-1418610D01*
G01X56284Y-1422006D01*
G01X59322Y-1425265D01*
G01X62507Y-1428377D01*
G01X65837Y-1431338D01*
G01X69299Y-1434137D01*
G01X72890Y-1436771D01*
G01X76601Y-1439235D01*
G01X80424Y-1441524D01*
G01X84348Y-1443629D01*
G01X88369Y-1445547D01*
G01X92474Y-1447277D01*
G01X96655Y-1448811D01*
G01X100904Y-1450147D01*
G01X105209Y-1451282D01*
G01X109565Y-1452217D01*
G01X113960Y-1452943D01*
G01X118384Y-1453464D01*
G01X122827Y-1453777D01*
G01X127279Y-1453883D01*
G37*
G54D11*
G01X1489977Y-1521600D03*
G01X1489977Y-1221600D03*
G36*
G01X1853921Y-1276617D02*
G01X1668501Y-1276617D01*
G01X1664048Y-1276723D01*
G01X1659606Y-1277036D01*
G01X1655181Y-1277556D01*
G01X1650787Y-1278283D01*
G01X1646431Y-1279218D01*
G01X1642125Y-1280353D01*
G01X1637876Y-1281689D01*
G01X1633695Y-1283223D01*
G01X1629590Y-1284953D01*
G01X1625570Y-1286871D01*
G01X1621645Y-1288976D01*
G01X1617823Y-1291265D01*
G01X1614112Y-1293729D01*
G01X1610520Y-1296363D01*
G01X1607058Y-1299162D01*
G01X1603728Y-1302123D01*
G01X1600543Y-1305235D01*
G01X1597505Y-1308494D01*
G01X1594625Y-1311890D01*
G01X1591907Y-1315418D01*
G01X1589357Y-1319070D01*
G01X1586982Y-1322837D01*
G01X1584785Y-1326713D01*
G01X1582771Y-1330686D01*
G01X1580947Y-1338616D01*
G01X1411214D01*
G01Y-1404615D01*
G01X1580947D01*
G01X1582771Y-1412550D01*
G01X1584785Y-1416522D01*
G01X1586982Y-1420398D01*
G01X1589357Y-1424165D01*
G01X1591907Y-1427818D01*
G01X1594625Y-1431346D01*
G01X1597505Y-1434742D01*
G01X1600543Y-1438001D01*
G01X1603728Y-1441112D01*
G01X1607058Y-1444074D01*
G01X1610520Y-1446873D01*
G01X1614112Y-1449507D01*
G01X1617823Y-1451971D01*
G01X1621645Y-1454259D01*
G01X1625570Y-1456365D01*
G01X1629590Y-1458283D01*
G01X1633695Y-1460012D01*
G01X1637876Y-1461546D01*
G01X1642125Y-1462883D01*
G01X1646431Y-1464018D01*
G01X1650787Y-1464953D01*
G01X1655181Y-1465679D01*
G01X1659606Y-1466200D01*
G01X1664048Y-1466512D01*
G01X1668501Y-1466619D01*
G01X1853921D01*
G01X1858373Y-1466512D01*
G01X1862816Y-1466200D01*
G01X1867240Y-1465679D01*
G01X1871635Y-1464953D01*
G01X1875991Y-1464018D01*
G01X1880296Y-1462883D01*
G01X1884545Y-1461546D01*
G01X1888726Y-1460012D01*
G01X1892831Y-1458283D01*
G01X1896852Y-1456365D01*
G01X1900776Y-1454259D01*
G01X1904599Y-1451971D01*
G01X1908310Y-1449507D01*
G01X1911901Y-1446873D01*
G01X1915363Y-1444074D01*
G01X1918693Y-1441112D01*
G01X1921878Y-1438001D01*
G01X1924916Y-1434742D01*
G01X1927797Y-1431346D01*
G01X1930514Y-1427818D01*
G01X1933064Y-1424165D01*
G01X1935439Y-1420398D01*
G01X1937636Y-1416522D01*
G01X1939651Y-1412550D01*
G01X1941474Y-1408486D01*
G01X1943108Y-1404343D01*
G01X1944543Y-1400127D01*
G01X1945780Y-1395847D01*
G01X1946813Y-1391514D01*
G01X1947644Y-1387140D01*
G01X1948269Y-1382728D01*
G01X1948685Y-1378293D01*
G01X1948894Y-1373845D01*
G01Y-1369390D01*
G01X1948685Y-1364943D01*
G01X1948269Y-1360508D01*
G01X1947644Y-1356096D01*
G01X1946813Y-1351722D01*
G01X1945780Y-1347389D01*
G01X1944543Y-1343109D01*
G01X1943108Y-1338892D01*
G01X1941474Y-1334750D01*
G01X1939651Y-1330686D01*
G01X1937636Y-1326713D01*
G01X1935439Y-1322837D01*
G01X1933064Y-1319070D01*
G01X1930514Y-1315418D01*
G01X1927797Y-1311890D01*
G01X1924916Y-1308494D01*
G01X1921878Y-1305235D01*
G01X1918693Y-1302123D01*
G01X1915363Y-1299162D01*
G01X1911901Y-1296363D01*
G01X1908310Y-1293729D01*
G01X1904599Y-1291265D01*
G01X1900776Y-1288976D01*
G01X1896852Y-1286871D01*
G01X1892831Y-1284953D01*
G01X1888726Y-1283223D01*
G01X1884545Y-1281689D01*
G01X1880296Y-1280353D01*
G01X1875991Y-1279218D01*
G01X1871635Y-1278283D01*
G01X1867240Y-1277556D01*
G01X1862816Y-1277036D01*
G01X1858373Y-1276723D01*
G01X1853921Y-1276617D01*
G37*
G54D12*
G01X1175006Y-1890306D03*
G54D13*
G01X924994Y-1640294D03*
G01X975006Y-1640294D03*
G01X1024994Y-1640294D03*
G01X1075006Y-1640294D03*
G54D12*
G01X824994Y-1890306D03*
G54D14*
G01X1021613Y-243840D03*
G01X956615Y-243840D03*
G01X891616Y-243840D03*
G01X826618Y-243840D03*
G01X761619Y-243840D03*
G01X696620Y-243840D03*
G01X1086587Y-243840D03*
G01X1411580Y-243840D03*
G01X1346606Y-243840D03*
G01X1281608Y-243840D03*
G01X1216609Y-243840D03*
G01X1151611Y-243840D03*
G01X956615Y-848360D03*
G01X891616Y-848360D03*
G01X826618Y-848360D03*
G01X761619Y-848360D03*
G01X696620Y-848360D03*
G01X1021613Y-848360D03*
G01X1411580Y-848360D03*
G01X1346606Y-848360D03*
G01X1281608Y-848360D03*
G01X1216609Y-848360D03*
G01X1151611Y-848360D03*
G01X1086587Y-848360D03*
G04 Pad End*

M02*
