G04 Layer: TopSolderMaskLayer*
G04 EasyEDA Pro v2.1.44.1.245b18d5.fca1f9, 2024-01-18 14:01:25*
G04 Gerber Generator version 0.3*
G04 Scale: 100 percent, Rotated: No, Reflected: No*
G04 Dimensions in millimeters*
G04 Leading zeros omitted, absolute positions, 3 integers and 5 decimals*
%FSLAX35Y35*%
%MOMM*%
%AMRoundRect*1,1,$1,$2,$3*1,1,$1,$4,$5*1,1,$1,0-$2,0-$3*1,1,$1,0-$4,0-$5*20,1,$1,$2,$3,$4,$5,0*20,1,$1,$4,$5,0-$2,0-$3,0*20,1,$1,0-$2,0-$3,0-$4,0-$5,0*20,1,$1,0-$4,0-$5,$2,$3,0*4,1,4,$2,$3,$4,$5,0-$2,0-$3,0-$4,0-$5,$2,$3,0*%
%ADD10C,0.6516*%
%ADD11RoundRect,0.08184X0.1841X0.3841X0.1841X-0.3841*%
%ADD12RoundRect,0.08184X-0.1841X-0.3841X-0.1841X0.3841*%
%ADD13RoundRect,0.08771X-0.40199X0.27695X0.40199X0.27695*%
%ADD14RoundRect,0.08771X-0.28977X0.27695X0.28977X0.27695*%
%ADD15RoundRect,0.08771X0.28977X-0.27695X-0.28977X-0.27695*%
%ADD16RoundRect,0.08771X-0.27695X-0.28977X-0.27695X0.28977*%
G75*


G04 Pad Start*
G54D10*
G01X698500Y-508000D03*
G01X1071661Y-998842D03*
G54D11*
G01X759995Y-1120002D03*
G01X840005Y-1120002D03*
G01X920015Y-1120002D03*
G01X1000000Y-1120002D03*
G01X1080010Y-1120002D03*
G01X1160020Y-1120002D03*
G01X1240005Y-1120002D03*
G01X760021Y-879998D03*
G01X840005Y-879998D03*
G01X920015Y-879998D03*
G01X1000000Y-879998D03*
G01X1080010Y-879998D03*
G01X1159995Y-879998D03*
G01X1240005Y-879998D03*
G01X-1014705Y-2901302D03*
G01X-934695Y-2901302D03*
G01X-854685Y-2901302D03*
G01X-774700Y-2901302D03*
G01X-694690Y-2901302D03*
G01X-614680Y-2901302D03*
G01X-534695Y-2901302D03*
G01X-1014679Y-2661298D03*
G01X-934695Y-2661298D03*
G01X-854685Y-2661298D03*
G01X-774700Y-2661298D03*
G01X-694690Y-2661298D03*
G01X-614705Y-2661298D03*
G01X-534695Y-2661298D03*
G54D12*
G01X3008605Y-2661298D03*
G01X2928595Y-2661298D03*
G01X2848585Y-2661298D03*
G01X2768600Y-2661298D03*
G01X2688590Y-2661298D03*
G01X2608580Y-2661298D03*
G01X2528595Y-2661298D03*
G01X3008579Y-2901302D03*
G01X2928595Y-2901302D03*
G01X2848585Y-2901302D03*
G01X2768600Y-2901302D03*
G01X2688590Y-2901302D03*
G01X2608605Y-2901302D03*
G01X2528595Y-2901302D03*
G54D11*
G01X-1014705Y641998D03*
G01X-934695Y641998D03*
G01X-854685Y641998D03*
G01X-774700Y641998D03*
G01X-694690Y641998D03*
G01X-614680Y641998D03*
G01X-534695Y641998D03*
G01X-1014679Y882002D03*
G01X-934695Y882002D03*
G01X-854685Y882002D03*
G01X-774700Y882002D03*
G01X-694690Y882002D03*
G01X-614705Y882002D03*
G01X-534695Y882002D03*
G54D12*
G01X3008605Y907402D03*
G01X2928595Y907402D03*
G01X2848585Y907402D03*
G01X2768600Y907402D03*
G01X2688590Y907402D03*
G01X2608580Y907402D03*
G01X2528595Y907402D03*
G01X3008579Y667398D03*
G01X2928595Y667398D03*
G01X2848585Y667398D03*
G01X2768600Y667398D03*
G01X2688590Y667398D03*
G01X2608605Y667398D03*
G01X2528595Y667398D03*
G54D13*
G01X1222908Y-1244600D03*
G01X1113892Y-1244600D03*
G54D14*
G01X1351382Y-609600D03*
G01X1264818Y-609600D03*
G54D15*
G01X871118Y-609600D03*
G01X957682Y-609600D03*
G54D16*
G01X1351382Y-749300D03*
G01X1351382Y-835863D03*
G04 Pad End*

M02*
