G04 Layer: BottomSolderMaskLayer*
G04 EasyEDA Pro v2.1.44.1.245b18d5.fca1f9, 2024-01-18 14:01:25*
G04 Gerber Generator version 0.3*
G04 Scale: 100 percent, Rotated: No, Reflected: No*
G04 Dimensions in millimeters*
G04 Leading zeros omitted, absolute positions, 3 integers and 5 decimals*
%FSLAX35Y35*%
%MOMM*%
%AMRoundRect*1,1,$1,$2,$3*1,1,$1,$4,$5*1,1,$1,0-$2,0-$3*1,1,$1,0-$4,0-$5*20,1,$1,$2,$3,$4,$5,0*20,1,$1,$4,$5,0-$2,0-$3,0*20,1,$1,0-$2,0-$3,0-$4,0-$5,0*20,1,$1,0-$4,0-$5,$2,$3,0*4,1,4,$2,$3,$4,$5,0-$2,0-$3,0-$4,0-$5,$2,$3,0*%
%ADD10C,0.6516*%
%ADD11RoundRect,0.08981X-0.7934X0.3419X0.7934X0.3419*%
%ADD12RoundRect,0.08981X0.7934X-0.3419X-0.7934X-0.3419*%
%ADD13RoundRect,0.08333X0.20833X-0.40833X-0.20833X-0.40833*%
%ADD14RoundRect,0.08X0.16X-0.41X-0.16X-0.41*%
%ADD15RoundRect,0.08449X-0.20856X0.83356X0.20856X0.83356*%
%ADD16RoundRect,0.08771X-0.40199X0.27695X0.40199X0.27695*%
%ADD17RoundRect,0.08771X0.40199X-0.27695X-0.40199X-0.27695*%
%ADD18RoundRect,0.08771X-0.27695X-0.40199X-0.27695X0.40199*%
%ADD19RoundRect,0.0911X0.27695X0.40199X0.27695X-0.40199*%
%ADD20RoundRect,0.08771X0.27695X0.40199X0.27695X-0.40199*%
%ADD21RoundRect,0.08771X-0.27695X-0.28977X-0.27695X0.28977*%
%ADD22RoundRect,0.08771X0.27695X0.28977X0.27695X-0.28977*%
%ADD23RoundRect,0.08771X-0.28977X0.27695X0.28977X0.27695*%
G75*


G04 Pad Start*
G54D10*
G01X698500Y-508000D03*
G01X1071661Y-998842D03*
G54D11*
G01X491223Y-1208900D03*
G01X491223Y-1508900D03*
G36*
G01X317272Y-1458776D02*
G01X312819Y-1458883D01*
G01X312699Y-1458885D01*
G01X127279D01*
G01X127160Y-1458883D01*
G01X122707Y-1458776D01*
G01X122476Y-1458766D01*
G01X118033Y-1458453D01*
G01X117800Y-1458431D01*
G01X113375Y-1457910D01*
G01X113144Y-1457878D01*
G01X108750Y-1457151D01*
G01X108516Y-1457107D01*
G01X104160Y-1456172D01*
G01X103934Y-1456118D01*
G01X99629Y-1454983D01*
G01X99404Y-1454918D01*
G01X95155Y-1453582D01*
G01X94932Y-1453506D01*
G01X90751Y-1451972D01*
G01X90532Y-1451886D01*
G01X86427Y-1450156D01*
G01X86216Y-1450061D01*
G01X82195Y-1448143D01*
G01X81984Y-1448036D01*
G01X78059Y-1445931D01*
G01X77855Y-1445815D01*
G01X74032Y-1443526D01*
G01X73835Y-1443402D01*
G01X70124Y-1440938D01*
G01X69933Y-1440804D01*
G01X66341Y-1438170D01*
G01X66154Y-1438026D01*
G01X62692Y-1435227D01*
G01X62513Y-1435075D01*
G01X59183Y-1432114D01*
G01X59012Y-1431954D01*
G01X55827Y-1428843D01*
G01X55663Y-1428675D01*
G01X52626Y-1425417D01*
G01X52470Y-1425241D01*
G01X49589Y-1421845D01*
G01X49442Y-1421662D01*
G01X46724Y-1418134D01*
G01X46585Y-1417945D01*
G01X44035Y-1414293D01*
G01X43905Y-1414097D01*
G01X41530Y-1410330D01*
G01X41410Y-1410129D01*
G01X39213Y-1406253D01*
G01X39103Y-1406049D01*
G01X37089Y-1402076D01*
G01X36986Y-1401862D01*
G01X35163Y-1397798D01*
G01X35073Y-1397585D01*
G01X33440Y-1393442D01*
G01X33358Y-1393219D01*
G01X31923Y-1389003D01*
G01X31853Y-1388780D01*
G01X30616Y-1384500D01*
G01X30556Y-1384272D01*
G01X29522Y-1379939D01*
G01X29473Y-1379711D01*
G01X28642Y-1375337D01*
G01X28604Y-1375105D01*
G01X27979Y-1370693D01*
G01X27952Y-1370460D01*
G01X27535Y-1366025D01*
G01X27519Y-1365791D01*
G01X27310Y-1361344D01*
G01X27305Y-1361110D01*
G01Y-1356655D01*
G01X27310Y-1356421D01*
G01X27519Y-1351973D01*
G01X27535Y-1351739D01*
G01X27952Y-1347305D01*
G01X27979Y-1347071D01*
G01X28604Y-1342659D01*
G01X28642Y-1342427D01*
G01X29473Y-1338053D01*
G01X29522Y-1337826D01*
G01X30556Y-1333493D01*
G01X30616Y-1333265D01*
G01X31853Y-1328985D01*
G01X31923Y-1328762D01*
G01X33358Y-1324545D01*
G01X33440Y-1324323D01*
G01X35073Y-1320180D01*
G01X35163Y-1319967D01*
G01X36986Y-1315903D01*
G01X37089Y-1315688D01*
G01X39103Y-1311716D01*
G01X39213Y-1311511D01*
G01X41410Y-1307635D01*
G01X41530Y-1307434D01*
G01X43905Y-1303667D01*
G01X44035Y-1303472D01*
G01X46585Y-1299819D01*
G01X46724Y-1299630D01*
G01X49442Y-1296102D01*
G01X49589Y-1295919D01*
G01X52470Y-1292523D01*
G01X52626Y-1292348D01*
G01X55663Y-1289089D01*
G01X55827Y-1288922D01*
G01X59012Y-1285810D01*
G01X59183Y-1285651D01*
G01X62513Y-1282689D01*
G01X62692Y-1282537D01*
G01X66154Y-1279738D01*
G01X66341Y-1279594D01*
G01X69933Y-1276960D01*
G01X70124Y-1276827D01*
G01X73835Y-1274363D01*
G01X74032Y-1274238D01*
G01X77855Y-1271950D01*
G01X78059Y-1271834D01*
G01X81984Y-1269728D01*
G01X82195Y-1269621D01*
G01X86216Y-1267703D01*
G01X86427Y-1267609D01*
G01X90532Y-1265879D01*
G01X90751Y-1265793D01*
G01X94932Y-1264258D01*
G01X95155Y-1264183D01*
G01X99404Y-1262846D01*
G01X99629Y-1262782D01*
G01X103934Y-1261646D01*
G01X104160Y-1261592D01*
G01X108516Y-1260657D01*
G01X108750Y-1260613D01*
G01X113144Y-1259887D01*
G01X113375Y-1259854D01*
G01X117800Y-1259333D01*
G01X118033Y-1259311D01*
G01X122476Y-1258999D01*
G01X122707Y-1258988D01*
G01X127160Y-1258881D01*
G01X127279Y-1258880D01*
G01X312699D01*
G01X312819Y-1258881D01*
G01X317272Y-1258988D01*
G01X317503Y-1258999D01*
G01X321945Y-1259311D01*
G01X322179Y-1259333D01*
G01X326604Y-1259854D01*
G01X326835Y-1259887D01*
G01X331229Y-1260613D01*
G01X331463Y-1260657D01*
G01X335819Y-1261592D01*
G01X336045Y-1261646D01*
G01X340350Y-1262782D01*
G01X340575Y-1262846D01*
G01X344824Y-1264183D01*
G01X345047Y-1264258D01*
G01X349228Y-1265793D01*
G01X349447Y-1265879D01*
G01X353552Y-1267609D01*
G01X353763Y-1267703D01*
G01X357783Y-1269621D01*
G01X357995Y-1269728D01*
G01X361919Y-1271834D01*
G01X362124Y-1271950D01*
G01X365946Y-1274238D01*
G01X366144Y-1274363D01*
G01X369855Y-1276827D01*
G01X370046Y-1276960D01*
G01X373638Y-1279594D01*
G01X373824Y-1279738D01*
G01X377286Y-1282537D01*
G01X377466Y-1282689D01*
G01X380796Y-1285651D01*
G01X380967Y-1285810D01*
G01X384152Y-1288922D01*
G01X384315Y-1289089D01*
G01X387353Y-1292348D01*
G01X387509Y-1292523D01*
G01X390389Y-1295919D01*
G01X390537Y-1296102D01*
G01X393255Y-1299630D01*
G01X393394Y-1299819D01*
G01X395944Y-1303472D01*
G01X396074Y-1303667D01*
G01X398449Y-1307434D01*
G01X398569Y-1307635D01*
G01X400766Y-1311511D01*
G01X400876Y-1311716D01*
G01X402890Y-1315688D01*
G01X403304Y-1316830D01*
G01X404235Y-1320884D01*
G01X569986D01*
G02X574987Y-1325885I0J-5001D01*
G01Y-1391884D01*
G02X569986Y-1396886I-5001J0D01*
G01X404235D01*
G01X403304Y-1400935D01*
G01X402890Y-1402076D01*
G01X400876Y-1406049D01*
G01X400766Y-1406253D01*
G01X398569Y-1410129D01*
G01X398449Y-1410330D01*
G01X396074Y-1414097D01*
G01X395944Y-1414293D01*
G01X393394Y-1417945D01*
G01X393255Y-1418134D01*
G01X390537Y-1421662D01*
G01X390389Y-1421845D01*
G01X387509Y-1425241D01*
G01X387353Y-1425417D01*
G01X384315Y-1428675D01*
G01X384152Y-1428843D01*
G01X380967Y-1431954D01*
G01X380796Y-1432114D01*
G01X377466Y-1435075D01*
G01X377286Y-1435227D01*
G01X373824Y-1438026D01*
G01X373638Y-1438170D01*
G01X370046Y-1440804D01*
G01X369855Y-1440938D01*
G01X366144Y-1443402D01*
G01X365946Y-1443526D01*
G01X362124Y-1445815D01*
G01X361919Y-1445931D01*
G01X357995Y-1448036D01*
G01X357783Y-1448143D01*
G01X353763Y-1450061D01*
G01X353552Y-1450156D01*
G01X349447Y-1451886D01*
G01X349228Y-1451972D01*
G01X345047Y-1453506D01*
G01X344824Y-1453582D01*
G01X340575Y-1454918D01*
G01X340350Y-1454983D01*
G01X336045Y-1456118D01*
G01X335819Y-1456172D01*
G01X331463Y-1457107D01*
G01X331229Y-1457151D01*
G01X326835Y-1457878D01*
G01X326604Y-1457910D01*
G01X322179Y-1458431D01*
G01X321945Y-1458453D01*
G01X317503Y-1458766D01*
G01X317272Y-1458776D01*
G37*
G54D12*
G01X1489977Y-1521600D03*
G01X1489977Y-1221600D03*
G36*
G01X1668381Y-1471619D02*
G01X1663928Y-1471512D01*
G01X1663697Y-1471501D01*
G01X1659255Y-1471189D01*
G01X1659021Y-1471167D01*
G01X1654596Y-1470646D01*
G01X1654365Y-1470613D01*
G01X1649971Y-1469887D01*
G01X1649737Y-1469843D01*
G01X1645381Y-1468908D01*
G01X1645155Y-1468854D01*
G01X1640850Y-1467718D01*
G01X1640625Y-1467654D01*
G01X1636376Y-1466317D01*
G01X1636153Y-1466242D01*
G01X1631972Y-1464707D01*
G01X1631753Y-1464621D01*
G01X1627648Y-1462891D01*
G01X1627437Y-1462797D01*
G01X1623417Y-1460879D01*
G01X1623205Y-1460772D01*
G01X1619281Y-1458666D01*
G01X1619076Y-1458550D01*
G01X1615254Y-1456262D01*
G01X1615056Y-1456137D01*
G01X1611345Y-1453673D01*
G01X1611154Y-1453540D01*
G01X1607562Y-1450906D01*
G01X1607376Y-1450762D01*
G01X1603914Y-1447963D01*
G01X1603734Y-1447811D01*
G01X1600404Y-1444849D01*
G01X1600233Y-1444690D01*
G01X1597048Y-1441578D01*
G01X1596885Y-1441411D01*
G01X1593847Y-1438152D01*
G01X1593691Y-1437977D01*
G01X1590811Y-1434581D01*
G01X1590663Y-1434398D01*
G01X1587945Y-1430870D01*
G01X1587806Y-1430681D01*
G01X1585256Y-1427028D01*
G01X1585126Y-1426833D01*
G01X1582751Y-1423066D01*
G01X1582631Y-1422865D01*
G01X1580434Y-1418989D01*
G01X1580324Y-1418784D01*
G01X1578310Y-1414812D01*
G01X1577896Y-1413670D01*
G01X1576965Y-1409616D01*
G01X1411214D01*
G02X1406213Y-1404615I0J5001D01*
G01Y-1338616D01*
G02X1411214Y-1333614I5001J0D01*
G01X1576965D01*
G01X1577896Y-1329565D01*
G01X1578310Y-1328424D01*
G01X1580324Y-1324451D01*
G01X1580434Y-1324247D01*
G01X1582631Y-1320371D01*
G01X1582751Y-1320170D01*
G01X1585126Y-1316403D01*
G01X1585256Y-1316207D01*
G01X1587806Y-1312555D01*
G01X1587945Y-1312366D01*
G01X1590663Y-1308838D01*
G01X1590811Y-1308655D01*
G01X1593691Y-1305259D01*
G01X1593847Y-1305083D01*
G01X1596885Y-1301825D01*
G01X1597048Y-1301657D01*
G01X1600233Y-1298546D01*
G01X1600404Y-1298386D01*
G01X1603734Y-1295425D01*
G01X1603914Y-1295273D01*
G01X1607376Y-1292474D01*
G01X1607562Y-1292330D01*
G01X1611154Y-1289696D01*
G01X1611345Y-1289562D01*
G01X1615056Y-1287098D01*
G01X1615254Y-1286974D01*
G01X1619076Y-1284685D01*
G01X1619281Y-1284569D01*
G01X1623205Y-1282464D01*
G01X1623417Y-1282357D01*
G01X1627437Y-1280439D01*
G01X1627648Y-1280344D01*
G01X1631753Y-1278614D01*
G01X1631972Y-1278528D01*
G01X1636153Y-1276994D01*
G01X1636376Y-1276918D01*
G01X1640625Y-1275582D01*
G01X1640850Y-1275517D01*
G01X1645155Y-1274382D01*
G01X1645381Y-1274328D01*
G01X1649737Y-1273393D01*
G01X1649971Y-1273349D01*
G01X1654365Y-1272622D01*
G01X1654596Y-1272590D01*
G01X1659021Y-1272069D01*
G01X1659255Y-1272047D01*
G01X1663697Y-1271734D01*
G01X1663928Y-1271724D01*
G01X1668381Y-1271617D01*
G01X1668501Y-1271615D01*
G01X1853921D01*
G01X1854040Y-1271617D01*
G01X1858493Y-1271724D01*
G01X1858724Y-1271734D01*
G01X1863167Y-1272047D01*
G01X1863400Y-1272069D01*
G01X1867825Y-1272590D01*
G01X1868056Y-1272622D01*
G01X1872450Y-1273349D01*
G01X1872684Y-1273393D01*
G01X1877040Y-1274328D01*
G01X1877266Y-1274382D01*
G01X1881571Y-1275517D01*
G01X1881796Y-1275582D01*
G01X1886045Y-1276918D01*
G01X1886268Y-1276994D01*
G01X1890449Y-1278528D01*
G01X1890668Y-1278614D01*
G01X1894773Y-1280344D01*
G01X1894984Y-1280439D01*
G01X1899005Y-1282357D01*
G01X1899216Y-1282464D01*
G01X1903141Y-1284569D01*
G01X1903345Y-1284685D01*
G01X1907168Y-1286974D01*
G01X1907365Y-1287098D01*
G01X1911076Y-1289562D01*
G01X1911267Y-1289696D01*
G01X1914859Y-1292330D01*
G01X1915046Y-1292474D01*
G01X1918508Y-1295273D01*
G01X1918687Y-1295425D01*
G01X1922017Y-1298386D01*
G01X1922188Y-1298546D01*
G01X1925373Y-1301657D01*
G01X1925537Y-1301825D01*
G01X1928574Y-1305083D01*
G01X1928730Y-1305259D01*
G01X1931611Y-1308655D01*
G01X1931758Y-1308838D01*
G01X1931759D01*
G01X1934476Y-1312366D01*
G01X1934615Y-1312555D01*
G01X1937165Y-1316207D01*
G01X1937295Y-1316403D01*
G01X1939670Y-1320170D01*
G01X1939790Y-1320371D01*
G01X1941987Y-1324247D01*
G01X1942097Y-1324451D01*
G01X1944111Y-1328424D01*
G01X1944214Y-1328638D01*
G01X1946037Y-1332702D01*
G01X1946127Y-1332915D01*
G01X1947760Y-1337058D01*
G01X1947842Y-1337281D01*
G01X1949277Y-1341497D01*
G01X1949347Y-1341720D01*
G01X1950584Y-1346000D01*
G01X1950644Y-1346228D01*
G01X1951678Y-1350561D01*
G01X1951727Y-1350789D01*
G01X1952558Y-1355163D01*
G01X1952596Y-1355395D01*
G01X1953221Y-1359806D01*
G01Y-1359807D01*
G01X1953248Y-1360040D01*
G01X1953665Y-1364475D01*
G01X1953681Y-1364709D01*
G01X1953890Y-1369156D01*
G01X1953895Y-1369390D01*
G01Y-1373845D01*
G01X1953890Y-1374079D01*
G01X1953681Y-1378527D01*
G01X1953665Y-1378761D01*
G01X1953248Y-1383195D01*
G01X1953221Y-1383429D01*
G01X1952596Y-1387841D01*
G01X1952558Y-1388073D01*
G01X1951727Y-1392447D01*
G01X1951678Y-1392674D01*
G01X1950644Y-1397007D01*
G01X1950584Y-1397235D01*
G01X1949347Y-1401515D01*
G01X1949277Y-1401738D01*
G01X1947842Y-1405955D01*
G01X1947760Y-1406177D01*
G01X1946127Y-1410320D01*
G01X1946037Y-1410533D01*
G01X1944214Y-1414597D01*
G01X1944111Y-1414812D01*
G01X1942097Y-1418784D01*
G01X1941987Y-1418989D01*
G01X1939790Y-1422865D01*
G01X1939670Y-1423066D01*
G01X1937295Y-1426833D01*
G01X1937165Y-1427028D01*
G01X1934615Y-1430681D01*
G01X1934476Y-1430870D01*
G01X1931759Y-1434398D01*
G01X1931758D01*
G01X1931611Y-1434581D01*
G01X1928730Y-1437977D01*
G01X1928574Y-1438152D01*
G01X1925537Y-1441411D01*
G01X1925373Y-1441578D01*
G01X1922188Y-1444690D01*
G01X1922017Y-1444849D01*
G01X1918687Y-1447811D01*
G01X1918508Y-1447963D01*
G01X1915046Y-1450762D01*
G01X1914859Y-1450906D01*
G01X1911267Y-1453540D01*
G01X1911076Y-1453673D01*
G01X1907365Y-1456137D01*
G01X1907168Y-1456262D01*
G01X1903345Y-1458550D01*
G01X1903141Y-1458666D01*
G01X1899216Y-1460772D01*
G01X1899005Y-1460879D01*
G01X1894984Y-1462797D01*
G01X1894773Y-1462891D01*
G01X1890668Y-1464621D01*
G01X1890449Y-1464707D01*
G01X1886268Y-1466242D01*
G01X1886045Y-1466317D01*
G01X1881796Y-1467654D01*
G01X1881571Y-1467718D01*
G01X1877266Y-1468854D01*
G01X1877040Y-1468908D01*
G01X1872684Y-1469843D01*
G01X1872450Y-1469887D01*
G01X1868056Y-1470613D01*
G01X1867825Y-1470646D01*
G01X1863400Y-1471167D01*
G01X1863167Y-1471189D01*
G01X1858724Y-1471501D01*
G01X1858493Y-1471512D01*
G01X1854040Y-1471619D01*
G01X1853921Y-1471620D01*
G01X1668501D01*
G01X1668381Y-1471619D01*
G37*
G54D13*
G01X1175006Y-1890306D03*
G54D14*
G01X924994Y-1640294D03*
G01X975006Y-1640294D03*
G01X1024994Y-1640294D03*
G01X1075006Y-1640294D03*
G54D13*
G01X824994Y-1890306D03*
G54D15*
G01X1021613Y-243840D03*
G01X956615Y-243840D03*
G01X891616Y-243840D03*
G01X826618Y-243840D03*
G01X761619Y-243840D03*
G01X696620Y-243840D03*
G01X1086587Y-243840D03*
G01X1411580Y-243840D03*
G01X1346606Y-243840D03*
G01X1281608Y-243840D03*
G01X1216609Y-243840D03*
G01X1151611Y-243840D03*
G01X956615Y-848360D03*
G01X891616Y-848360D03*
G01X826618Y-848360D03*
G01X761619Y-848360D03*
G01X696620Y-848360D03*
G01X1021613Y-848360D03*
G01X1411580Y-848360D03*
G01X1346606Y-848360D03*
G01X1281608Y-848360D03*
G01X1216609Y-848360D03*
G01X1151611Y-848360D03*
G01X1086587Y-848360D03*
G54D16*
G01X333908Y-1663700D03*
G01X224892Y-1663700D03*
G54D17*
G01X224892Y-1054100D03*
G01X333908Y-1054100D03*
G01X1647292Y-1066800D03*
G01X1756308Y-1066800D03*
G54D16*
G01X1756308Y-1676400D03*
G01X1647292Y-1676400D03*
G54D18*
G01X-939800Y-2828392D03*
G01X-939800Y-2937408D03*
G01X2882900Y-2637892D03*
G01X2882900Y-2746908D03*
G54D20*
G01X-685800Y618592D03*
G01X-685800Y727608D03*
G54D18*
G01X2879192Y825500D03*
G01X2879192Y716483D03*
G01X1524000Y-478892D03*
G01X1524000Y-587908D03*
G54D21*
G01X2692400Y-2865018D03*
G01X2692400Y-2951582D03*
G01X2882900Y-2865018D03*
G01X2882900Y-2951582D03*
G01X2692400Y-2649118D03*
G01X2692400Y-2735682D03*
G54D22*
G01X-685800Y-2684882D03*
G01X-685800Y-2598318D03*
G01X-939800Y-2697582D03*
G01X-939800Y-2611018D03*
G54D21*
G01X-685800Y-2814218D03*
G01X-685800Y-2900782D03*
G54D22*
G01X-685800Y858418D03*
G01X-685800Y944982D03*
G01X-830682Y863600D03*
G01X-830682Y950163D03*
G54D21*
G01X-825500Y729082D03*
G01X-825500Y642518D03*
G54D22*
G01X2623718Y487274D03*
G01X2623718Y573837D03*
G01X2880415Y481076D03*
G01X2880415Y567639D03*
G01X2611018Y723900D03*
G01X2611018Y810463D03*
G54D21*
G01X558800Y-157582D03*
G01X558800Y-244145D03*
G54D23*
G01X1033882Y-1422400D03*
G01X947318Y-1422400D03*
G54D22*
G01X558800Y-563982D03*
G01X558800Y-477418D03*
G04 Pad End*

M02*
