G04 Layer: TopLayer*
G04 EasyEDA Pro v2.1.44.1.245b18d5.fca1f9, 2024-01-18 14:01:25*
G04 Gerber Generator version 0.3*
G04 Scale: 100 percent, Rotated: No, Reflected: No*
G04 Dimensions in millimeters*
G04 Leading zeros omitted, absolute positions, 3 integers and 5 decimals*
%FSLAX35Y35*%
%MOMM*%
%ADD8191C,0.2032*%
%ADD10C,0.254*%
%ADD11C,0.55*%
%ADD12R,0.35001X0.75001*%
%ADD13R,0.35001X0.75001*%
%ADD14R,0.79009X0.54*%
%ADD15R,0.56566X0.54*%
%ADD16R,0.56566X0.54*%
%ADD17R,0.54X0.56566*%
%ADD18C,0.6112*%
%ADD19C,0.61*%
G75*


G04 Copper Start*
G36*
G01X192786Y-1523369D02*
G01X7625Y-1708530D01*
G03X-40846Y-1674337I-58425J-31370D01*
G01X-33254Y-1666746D01*
G03X35814Y-1500000I-166746J166746D01*
G01Y-1108823D01*
G03X88900Y-1127214I53086J67423D01*
G03X174714Y-1041400I0J85814D01*
G03X112342Y-958850I-85814J0D01*
G03X174714Y-876300I-23442J82550D01*
G03X88900Y-790486I-85814J0D01*
G03X35814Y-808877I0J-85814D01*
G01Y-500000D01*
G03X-33254Y-333254I-235814J-0D01*
G03X-40034Y-327940I-25324J-25324D01*
G01X-44955Y-324961D01*
G03X-52003Y-321681I-18545J-30639D01*
G01X-667203Y288551D01*
G03X-699337Y308551I-32134J-15814D01*
G03X-704169Y308224I0J-35814D01*
G01X-704185Y308221D01*
G01X-706536Y307901D01*
G02X-768000Y303814I-61464J460099D01*
G02X-1232186Y768000I0J464186D01*
G02X-1202456Y931451I464186J0D01*
G03X-1130300Y892086I72156J46449D01*
G03X-1067994Y918892I0J85814D01*
G01Y844502D01*
G03X-1032180Y808688I35814J0D01*
G01X-997179D01*
G03X-974687Y816631I0J35814D01*
G03X-952195Y808688I22492J27871D01*
G01X-917194D01*
G03X-894690Y816641I0J35814D01*
G03X-872185Y808688I22504J27860D01*
G01X-837184D01*
G03X-814692Y816631I0J35814D01*
G03X-792201Y808688I22492J27871D01*
G01X-757199D01*
G03X-738649Y813866I0J35814D01*
G03X-728995Y800085I43959J20524D01*
G01X-707405Y778495D01*
G03X-673100Y764286I34305J34305D01*
G01X-591595D01*
G01X-542621Y715312D01*
G01X-552196D01*
G03X-574688Y707369I0J-35814D01*
G03X-597179Y715312I-22492J-27871D01*
G01X-632181D01*
G03X-654685Y707359I0J-35814D01*
G03X-677189Y715312I-22504J-27860D01*
G01X-712191D01*
G03X-734695Y707359I0J-35814D01*
G03X-757199Y715312I-22504J-27860D01*
G01X-792201D01*
G03X-814692Y707369I0J-35814D01*
G03X-837184Y715312I-22492J-27871D01*
G01X-872185D01*
G03X-894690Y707359I0J-35814D01*
G03X-917194Y715312I-22504J-27860D01*
G01X-952195D01*
G03X-974700Y707359I0J-35814D01*
G03X-997204Y715312I-22504J-27860D01*
G01X-1032205D01*
G03X-1068019Y679498I0J-35814D01*
G01Y604497D01*
G03X-1038666Y569271I35814J0D01*
G03X-1056914Y523584I48066J-45686D01*
G03X-990600Y457270I66314J0D01*
G03X-924327Y521248I0J66314D01*
G01X-900390Y545185D01*
G03X-886794Y571798I-34305J34305D01*
G03X-872185Y568683I14609J32699D01*
G01X-837184D01*
G03X-823214Y571520I0J35814D01*
G01Y509798D01*
G03X-863600Y523514I-40386J-52598D01*
G03X-929914Y457200I0J-66314D01*
G03X-880888Y393179I66314J0D01*
G01X-834405Y346695D01*
G03X-800100Y332486I34305J34305D01*
G01X-546100D01*
G03X-511795Y346695I0J48514D01*
G01X-473695Y384795D01*
G03X-459486Y419100I-34305J34305D01*
G01Y428977D01*
G01X118095Y-148605D01*
G03X152400Y-162814I34305J34305D01*
G01X970790D01*
G03X1016000Y-180614I45210J48514D01*
G03X1081362Y-125496I0J66314D01*
G03X1104900Y-129814I23538J61996D01*
G03X1171214Y-63500I0J66314D01*
G03X1165158Y-35814I-66314J0D01*
G01X1222442D01*
G03X1216386Y-63500I60258J-27686D01*
G03X1282700Y-129814I66314J0D01*
G03X1327910Y-112014I0J66314D01*
G01X1571977D01*
G01X1553086Y-130905D01*
G03X1524000Y-124186I-29086J-59595D01*
G03X1457686Y-190500I0J-66314D01*
G03X1524000Y-256814I66314J0D01*
G03X1545606Y-253196I0J66314D01*
G01X1350506Y-448295D01*
G03X1342157Y-459486I34305J-34305D01*
G01X1320800D01*
G01X1214852D01*
G03X1272814Y-393700I-8352J65786D01*
G03X1208836Y-327427I-66314J0D01*
G01X1151905Y-270495D01*
G03X1117600Y-256286I-34305J-34305D01*
G01X622300D01*
G03X587995Y-270495I0J-48514D01*
G01X206995Y-651495D01*
G03X192786Y-685800I34305J-34305D01*
G01Y-1523369D01*
G37*
G36*
G01X-1057508Y-3130841D02*
G02X-1121653Y-3068663I289508J362841D01*
G03X-1104900Y-3070314I16753J84163D01*
G03X-1046820Y-3047673I0J85814D01*
G03X-1063714Y-3098800I68920J-51127D01*
G03X-1057508Y-3130841I85814J0D01*
G37*
G36*
G01X-303814Y-2768000D02*
G02X-768000Y-3232186I-464186J0D01*
G02X-972985Y-3184473I0J464186D01*
G03X-892086Y-3098800I-4915J85673D01*
G03X-977900Y-3012986I-85814J0D01*
G03X-1035980Y-3035627I0J-85814D01*
G03X-1019086Y-2984500I-68920J51127D01*
G03X-1019657Y-2974617I-85814J0D01*
G01X-997204D01*
G03X-974700Y-2966663I0J35814D01*
G03X-952195Y-2974617I22504J27860D01*
G01X-917194D01*
G03X-894690Y-2966663I0J35814D01*
G03X-872185Y-2974617I22504J27860D01*
G01X-837184D01*
G03X-823214Y-2971780I0J35814D01*
G01Y-3091690D01*
G03X-841014Y-3136900I48514J-45210D01*
G03X-774700Y-3203214I66314J0D01*
G03X-729490Y-3185414I0J66314D01*
G01X-622300D01*
G03X-587995Y-3171205I0J48514D01*
G01X-524495Y-3107705D01*
G03X-518738Y-3100762I-34305J34305D01*
G03X-511795Y-3095005I-27362J40062D01*
G01X-410195Y-2993405D01*
G03X-395986Y-2959100I-34305J34305D01*
G01Y-2603500D01*
G03X-410195Y-2569195I-48514J0D01*
G01X-421386Y-2558005D01*
G01Y-2483895D01*
G01X696208Y-1366301D01*
G03X710417Y-1331997I-34305J34305D01*
G01Y-1269217D01*
G01X926086D01*
G01Y-1279400D01*
G03X940295Y-1313705I48514J0D01*
G01X994395Y-1367805D01*
G03X1028700Y-1382014I34305J34305D01*
G01X1134008D01*
G03X1168313Y-1367805I0J48514D01*
G01X1228703Y-1307414D01*
G01X1262413D01*
G03X1291045Y-1293114I0J35814D01*
G01X1296745D01*
G03X1356564Y-1336273I62155J23114D01*
G01X1718295Y-1698005D01*
G03X1752600Y-1712214I34305J34305D01*
G01X1935705D01*
G01X2041877Y-1818386D01*
G01X1353595D01*
G01X1266205Y-1730995D01*
G03X1231900Y-1716786I-34305J-34305D01*
G01X482600D01*
G03X448295Y-1730995I0J-48514D01*
G01X284705Y-1894586D01*
G01X273810D01*
G03X228600Y-1876786I-45210J-48514D01*
G03X162286Y-1943100I0J-66314D01*
G03X228600Y-2009414I66314J0D01*
G03X273810Y-1991614I0J66314D01*
G01X304800D01*
G03X339105Y-1977405I0J48514D01*
G01X502695Y-1813814D01*
G01X1211805D01*
G01X1299195Y-1901205D01*
G03X1333500Y-1915414I34305J34305D01*
G01X2037305D01*
G01X2595763Y-2473872D01*
G03X2590800Y-2473686I-4963J-66128D01*
G03X2524486Y-2540000I0J-66314D01*
G03X2545027Y-2587983I66314J0D01*
G01X2511095D01*
G03X2475281Y-2623797I0J-35814D01*
G01Y-2698798D01*
G03X2511095Y-2734612I35814J0D01*
G01X2521033D01*
G03X2500625Y-2782468I45906J-47856D01*
G03X2518715Y-2827988I66314J0D01*
G01X2511095D01*
G03X2475281Y-2863802I0J-35814D01*
G01Y-2938803D01*
G03X2511095Y-2974617I35814J0D01*
G01X2546096D01*
G03X2560091Y-2971769I0J35814D01*
G01Y-2972468D01*
G03X2537186Y-3022600I43409J-50132D01*
G03X2540544Y-3043435I66314J0D01*
G01X2398014Y-2900905D01*
G01Y-2870200D01*
G03X2383805Y-2835895I-48514J0D01*
G01X2372614Y-2824705D01*
G01Y-2559810D01*
G03X2390414Y-2514600I-48514J45210D01*
G03X2324100Y-2448286I-66314J0D01*
G03X2257786Y-2514600I0J-66314D01*
G03X2275586Y-2559810I66314J0D01*
G01Y-2642095D01*
G01X1666746Y-2033254D01*
G03X1500000Y-1964186I-166746J-166746D01*
G01X1499868D01*
G01X500132D01*
G01X500000D01*
G03X333254Y-2033254I0J-235814D01*
G01X-298467Y-2664975D01*
G03X-303958Y-2672051I25324J-25324D01*
G01X-303965Y-2672062D01*
G01X-304703Y-2673308D01*
G03X-309694Y-2691546I30823J-18237D01*
G03X-309300Y-2696845I35814J0D01*
G01X-308572Y-2701705D01*
G02X-303814Y-2768000I-459427J-66294D01*
G37*
G36*
G01X505664Y-860827D02*
G03X487165Y-864144I2336J-66273D01*
G01X510336Y-840973D01*
G03X574314Y-774700I-2336J66273D01*
G03X508000Y-708386I-66314J0D01*
G03X441727Y-772364I0J-66314D01*
G01X384795Y-829295D01*
G03X378714Y-836719I34305J-34305D01*
G01Y-718595D01*
G01X655095Y-442214D01*
G01X1034290D01*
G03X1071148Y-459486I45210J48514D01*
G01X933018D01*
G03X898714Y-473695I0J-48514D01*
G01X836814Y-535595D01*
G03X826568Y-550693I34305J-34305D01*
G03X807022Y-582600I16267J-31906D01*
G01Y-636600D01*
G03X822604Y-666153I35814J0D01*
G01Y-696286D01*
G01X818105Y-700786D01*
G01X736600D01*
G03X702295Y-714995I0J-48514D01*
G01X651495Y-765795D01*
G03X637286Y-800100I34305J-34305D01*
G01Y-818105D01*
G01X614905Y-840486D01*
G01X546100D01*
G03X511795Y-854695I0J-48514D01*
G01X505664Y-860827D01*
G37*
%LPC*%
G36*
G01X698500Y-571314D02*
G03X761814Y-508000I0J63314D01*
G03X698500Y-444686I-63314J0D01*
G03X635186Y-508000I0J-63314D01*
G03X698500Y-571314I63314J0D01*
G37*
%LPD*%
G36*
G01X1143000Y-412813D02*
G03X1198148Y-459486I63500J19113D01*
G01X1087852D01*
G03X1143000Y-412813I-8352J65786D01*
G37*
G54D8191*
G01X192786Y-1523369D02*
G01X7625Y-1708530D01*
G03X-40846Y-1674337I-58425J-31370D01*
G01X-33254Y-1666746D01*
G03X35814Y-1500000I-166746J166746D01*
G01Y-1108823D01*
G03X88900Y-1127214I53086J67423D01*
G03X174714Y-1041400I0J85814D01*
G03X112342Y-958850I-85814J0D01*
G03X174714Y-876300I-23442J82550D01*
G03X88900Y-790486I-85814J0D01*
G03X35814Y-808877I0J-85814D01*
G01Y-500000D01*
G03X-33254Y-333254I-235814J-0D01*
G03X-40034Y-327940I-25324J-25324D01*
G01X-44955Y-324961D01*
G03X-52003Y-321681I-18545J-30639D01*
G01X-667203Y288551D01*
G03X-699337Y308551I-32134J-15814D01*
G03X-704169Y308224I0J-35814D01*
G01X-704185Y308221D01*
G01X-706536Y307901D01*
G02X-768000Y303814I-61464J460099D01*
G02X-1232186Y768000I0J464186D01*
G02X-1202456Y931451I464186J0D01*
G03X-1130300Y892086I72156J46449D01*
G03X-1067994Y918892I0J85814D01*
G01Y844502D01*
G03X-1032180Y808688I35814J0D01*
G01X-997179D01*
G03X-974687Y816631I0J35814D01*
G03X-952195Y808688I22492J27871D01*
G01X-917194D01*
G03X-894690Y816641I0J35814D01*
G03X-872185Y808688I22504J27860D01*
G01X-837184D01*
G03X-814692Y816631I0J35814D01*
G03X-792201Y808688I22492J27871D01*
G01X-757199D01*
G03X-738649Y813866I0J35814D01*
G03X-728995Y800085I43959J20524D01*
G01X-707405Y778495D01*
G03X-673100Y764286I34305J34305D01*
G01X-591595D01*
G01X-542621Y715312D01*
G01X-552196D01*
G03X-574688Y707369I0J-35814D01*
G03X-597179Y715312I-22492J-27871D01*
G01X-632181D01*
G03X-654685Y707359I0J-35814D01*
G03X-677189Y715312I-22504J-27860D01*
G01X-712191D01*
G03X-734695Y707359I0J-35814D01*
G03X-757199Y715312I-22504J-27860D01*
G01X-792201D01*
G03X-814692Y707369I0J-35814D01*
G03X-837184Y715312I-22492J-27871D01*
G01X-872185D01*
G03X-894690Y707359I0J-35814D01*
G03X-917194Y715312I-22504J-27860D01*
G01X-952195D01*
G03X-974700Y707359I0J-35814D01*
G03X-997204Y715312I-22504J-27860D01*
G01X-1032205D01*
G03X-1068019Y679498I0J-35814D01*
G01Y604497D01*
G03X-1038666Y569271I35814J0D01*
G03X-1056914Y523584I48066J-45686D01*
G03X-990600Y457270I66314J0D01*
G03X-924327Y521248I0J66314D01*
G01X-900390Y545185D01*
G03X-886794Y571798I-34305J34305D01*
G03X-872185Y568683I14609J32699D01*
G01X-837184D01*
G03X-823214Y571520I0J35814D01*
G01Y509798D01*
G03X-863600Y523514I-40386J-52598D01*
G03X-929914Y457200I0J-66314D01*
G03X-880888Y393179I66314J0D01*
G01X-834405Y346695D01*
G03X-800100Y332486I34305J34305D01*
G01X-546100D01*
G03X-511795Y346695I0J48514D01*
G01X-473695Y384795D01*
G03X-459486Y419100I-34305J34305D01*
G01Y428977D01*
G01X118095Y-148605D01*
G03X152400Y-162814I34305J34305D01*
G01X970790D01*
G03X1016000Y-180614I45210J48514D01*
G03X1081362Y-125496I0J66314D01*
G03X1104900Y-129814I23538J61996D01*
G03X1171214Y-63500I0J66314D01*
G03X1165158Y-35814I-66314J0D01*
G01X1222442D01*
G03X1216386Y-63500I60258J-27686D01*
G03X1282700Y-129814I66314J0D01*
G03X1327910Y-112014I0J66314D01*
G01X1571977D01*
G01X1553086Y-130905D01*
G03X1524000Y-124186I-29086J-59595D01*
G03X1457686Y-190500I0J-66314D01*
G03X1524000Y-256814I66314J0D01*
G03X1545606Y-253196I0J66314D01*
G01X1350506Y-448295D01*
G03X1342157Y-459486I34305J-34305D01*
G01X1320800D01*
G01X1214852D01*
G03X1272814Y-393700I-8352J65786D01*
G03X1208836Y-327427I-66314J0D01*
G01X1151905Y-270495D01*
G03X1117600Y-256286I-34305J-34305D01*
G01X622300D01*
G03X587995Y-270495I0J-48514D01*
G01X206995Y-651495D01*
G03X192786Y-685800I34305J-34305D01*
G01Y-1523369D01*
G01X-1057508Y-3130841D02*
G02X-1121653Y-3068663I289508J362841D01*
G03X-1104900Y-3070314I16753J84163D01*
G03X-1046820Y-3047673I0J85814D01*
G03X-1063714Y-3098800I68920J-51127D01*
G03X-1057508Y-3130841I85814J0D01*
G01X-303814Y-2768000D02*
G02X-768000Y-3232186I-464186J0D01*
G02X-972985Y-3184473I0J464186D01*
G03X-892086Y-3098800I-4915J85673D01*
G03X-977900Y-3012986I-85814J0D01*
G03X-1035980Y-3035627I0J-85814D01*
G03X-1019086Y-2984500I-68920J51127D01*
G03X-1019657Y-2974617I-85814J0D01*
G01X-997204D01*
G03X-974700Y-2966663I0J35814D01*
G03X-952195Y-2974617I22504J27860D01*
G01X-917194D01*
G03X-894690Y-2966663I0J35814D01*
G03X-872185Y-2974617I22504J27860D01*
G01X-837184D01*
G03X-823214Y-2971780I0J35814D01*
G01Y-3091690D01*
G03X-841014Y-3136900I48514J-45210D01*
G03X-774700Y-3203214I66314J0D01*
G03X-729490Y-3185414I0J66314D01*
G01X-622300D01*
G03X-587995Y-3171205I0J48514D01*
G01X-524495Y-3107705D01*
G03X-518738Y-3100762I-34305J34305D01*
G03X-511795Y-3095005I-27362J40062D01*
G01X-410195Y-2993405D01*
G03X-395986Y-2959100I-34305J34305D01*
G01Y-2603500D01*
G03X-410195Y-2569195I-48514J0D01*
G01X-421386Y-2558005D01*
G01Y-2483895D01*
G01X696208Y-1366301D01*
G03X710417Y-1331997I-34305J34305D01*
G01Y-1269217D01*
G01X926086D01*
G01Y-1279400D01*
G03X940295Y-1313705I48514J0D01*
G01X994395Y-1367805D01*
G03X1028700Y-1382014I34305J34305D01*
G01X1134008D01*
G03X1168313Y-1367805I0J48514D01*
G01X1228703Y-1307414D01*
G01X1262413D01*
G03X1291045Y-1293114I0J35814D01*
G01X1296745D01*
G03X1356564Y-1336273I62155J23114D01*
G01X1718295Y-1698005D01*
G03X1752600Y-1712214I34305J34305D01*
G01X1935705D01*
G01X2041877Y-1818386D01*
G01X1353595D01*
G01X1266205Y-1730995D01*
G03X1231900Y-1716786I-34305J-34305D01*
G01X482600D01*
G03X448295Y-1730995I0J-48514D01*
G01X284705Y-1894586D01*
G01X273810D01*
G03X228600Y-1876786I-45210J-48514D01*
G03X162286Y-1943100I0J-66314D01*
G03X228600Y-2009414I66314J0D01*
G03X273810Y-1991614I0J66314D01*
G01X304800D01*
G03X339105Y-1977405I0J48514D01*
G01X502695Y-1813814D01*
G01X1211805D01*
G01X1299195Y-1901205D01*
G03X1333500Y-1915414I34305J34305D01*
G01X2037305D01*
G01X2595763Y-2473872D01*
G03X2590800Y-2473686I-4963J-66128D01*
G03X2524486Y-2540000I0J-66314D01*
G03X2545027Y-2587983I66314J0D01*
G01X2511095D01*
G03X2475281Y-2623797I0J-35814D01*
G01Y-2698798D01*
G03X2511095Y-2734612I35814J0D01*
G01X2521033D01*
G03X2500625Y-2782468I45906J-47856D01*
G03X2518715Y-2827988I66314J0D01*
G01X2511095D01*
G03X2475281Y-2863802I0J-35814D01*
G01Y-2938803D01*
G03X2511095Y-2974617I35814J0D01*
G01X2546096D01*
G03X2560091Y-2971769I0J35814D01*
G01Y-2972468D01*
G03X2537186Y-3022600I43409J-50132D01*
G03X2540544Y-3043435I66314J0D01*
G01X2398014Y-2900905D01*
G01Y-2870200D01*
G03X2383805Y-2835895I-48514J0D01*
G01X2372614Y-2824705D01*
G01Y-2559810D01*
G03X2390414Y-2514600I-48514J45210D01*
G03X2324100Y-2448286I-66314J0D01*
G03X2257786Y-2514600I0J-66314D01*
G03X2275586Y-2559810I66314J0D01*
G01Y-2642095D01*
G01X1666746Y-2033254D01*
G03X1500000Y-1964186I-166746J-166746D01*
G01X1499868D01*
G01X500132D01*
G01X500000D01*
G03X333254Y-2033254I0J-235814D01*
G01X-298467Y-2664975D01*
G03X-303958Y-2672051I25324J-25324D01*
G01X-303965Y-2672062D01*
G01X-304703Y-2673308D01*
G03X-309694Y-2691546I30823J-18237D01*
G03X-309300Y-2696845I35814J0D01*
G01X-308572Y-2701705D01*
G02X-303814Y-2768000I-459427J-66294D01*
G01X505664Y-860827D02*
G03X487165Y-864144I2336J-66273D01*
G01X510336Y-840973D01*
G03X574314Y-774700I-2336J66273D01*
G03X508000Y-708386I-66314J0D01*
G03X441727Y-772364I0J-66314D01*
G01X384795Y-829295D01*
G03X378714Y-836719I34305J-34305D01*
G01Y-718595D01*
G01X655095Y-442214D01*
G01X1034290D01*
G03X1071148Y-459486I45210J48514D01*
G01X933018D01*
G03X898714Y-473695I0J-48514D01*
G01X836814Y-535595D01*
G03X826568Y-550693I34305J-34305D01*
G03X807022Y-582600I16267J-31906D01*
G01Y-636600D01*
G03X822604Y-666153I35814J0D01*
G01Y-696286D01*
G01X818105Y-700786D01*
G01X736600D01*
G03X702295Y-714995I0J-48514D01*
G01X651495Y-765795D01*
G03X637286Y-800100I34305J-34305D01*
G01Y-818105D01*
G01X614905Y-840486D01*
G01X546100D01*
G03X511795Y-854695I0J-48514D01*
G01X505664Y-860827D01*
G01X698500Y-571314D02*
G03X761814Y-508000I0J63314D01*
G03X698500Y-444686I-63314J0D01*
G03X635186Y-508000I0J-63314D01*
G03X698500Y-571314I63314J0D01*
G01X1143000Y-412813D02*
G03X1198148Y-459486I63500J19113D01*
G01X1087852D01*
G03X1143000Y-412813I-8352J65786D01*
G54D10*
G01X698500Y-508000D02*
G01X645092Y-508000D01*
G01X698500Y-508000D02*
G01X751908Y-508000D01*
G01X698500Y-508000D02*
G01X698500Y-454592D01*
G01X698500Y-508000D02*
G01X698500Y-561408D01*
G04 Copper End*

G04 Pad Start*
G54D11*
G01X698500Y-508000D03*
G01X1071661Y-998842D03*
G54D12*
G01X759995Y-1120002D03*
G01X840005Y-1120002D03*
G01X920015Y-1120002D03*
G01X1000000Y-1120002D03*
G01X1080010Y-1120002D03*
G01X1160020Y-1120002D03*
G01X1240005Y-1120002D03*
G01X760021Y-879998D03*
G01X840005Y-879998D03*
G01X920015Y-879998D03*
G01X1000000Y-879998D03*
G01X1080010Y-879998D03*
G01X1159995Y-879998D03*
G01X1240005Y-879998D03*
G01X-1014705Y-2901302D03*
G01X-934695Y-2901302D03*
G01X-854685Y-2901302D03*
G01X-774700Y-2901302D03*
G01X-694690Y-2901302D03*
G01X-614680Y-2901302D03*
G01X-534695Y-2901302D03*
G01X-1014679Y-2661298D03*
G01X-934695Y-2661298D03*
G01X-854685Y-2661298D03*
G01X-774700Y-2661298D03*
G01X-694690Y-2661298D03*
G01X-614705Y-2661298D03*
G01X-534695Y-2661298D03*
G54D13*
G01X3008605Y-2661298D03*
G01X2928595Y-2661298D03*
G01X2848585Y-2661298D03*
G01X2768600Y-2661298D03*
G01X2688590Y-2661298D03*
G01X2608580Y-2661298D03*
G01X2528595Y-2661298D03*
G01X3008579Y-2901302D03*
G01X2928595Y-2901302D03*
G01X2848585Y-2901302D03*
G01X2768600Y-2901302D03*
G01X2688590Y-2901302D03*
G01X2608605Y-2901302D03*
G01X2528595Y-2901302D03*
G54D12*
G01X-1014705Y641998D03*
G01X-934695Y641998D03*
G01X-854685Y641998D03*
G01X-774700Y641998D03*
G01X-694690Y641998D03*
G01X-614680Y641998D03*
G01X-534695Y641998D03*
G01X-1014679Y882002D03*
G01X-934695Y882002D03*
G01X-854685Y882002D03*
G01X-774700Y882002D03*
G01X-694690Y882002D03*
G01X-614705Y882002D03*
G01X-534695Y882002D03*
G54D13*
G01X3008605Y907402D03*
G01X2928595Y907402D03*
G01X2848585Y907402D03*
G01X2768600Y907402D03*
G01X2688590Y907402D03*
G01X2608580Y907402D03*
G01X2528595Y907402D03*
G01X3008579Y667398D03*
G01X2928595Y667398D03*
G01X2848585Y667398D03*
G01X2768600Y667398D03*
G01X2688590Y667398D03*
G01X2608605Y667398D03*
G01X2528595Y667398D03*
G54D14*
G01X1222908Y-1244600D03*
G01X1113892Y-1244600D03*
G54D15*
G01X1351382Y-609600D03*
G01X1264818Y-609600D03*
G54D16*
G01X871118Y-609600D03*
G01X957682Y-609600D03*
G54D17*
G01X1351382Y-749300D03*
G01X1351382Y-835863D03*
G04 Pad End*

G04 Via Start*
G54D19*
G01X127000Y-1549400D03*
G01X1905000Y-1765300D03*
G01X1168400Y-609600D03*
G01X1079500Y-609600D03*
G01X508000Y-927100D03*
G01X1358900Y-1270000D03*
G01X-635000Y1092200D03*
G01X-736600Y1092200D03*
G01X-850900Y1092200D03*
G01X1104900Y-63500D03*
G01X1016000Y-114300D03*
G01X393700Y-266700D03*
G01X-990600Y523584D03*
G01X-711200Y444500D03*
G01X508000Y-774700D03*
G01X-596900Y444500D03*
G01X-863600Y457200D03*
G01X1282700Y-63500D03*
G01X1524000Y-190500D03*
G01X2769431Y786242D03*
G01X2349500Y508000D03*
G01X2844800Y1130300D03*
G01X2603500Y1041400D03*
G01X2768600Y1041400D03*
G01X2463800Y571500D03*
G01X2743200Y571500D03*
G01X1079500Y-393700D03*
G01X1206500Y-393700D03*
G01X-50800Y-1739900D03*
G01X-825500Y-2743200D03*
G01X-685800Y-3009900D03*
G01X-762626Y-2451726D03*
G01X-774700Y-3136900D03*
G01X-454429Y-2226175D03*
G01X-280120Y-2147531D03*
G01X2603500Y-3022600D03*
G01X2324100Y-2514600D03*
G01X2692400Y-2501900D03*
G01X2933700Y-2425700D03*
G01X2590800Y-2540000D03*
G01X2679700Y-3073400D03*
G01X2566939Y-2782468D03*
G01X2857500Y-2514600D03*
G01X2788433Y-2782458D03*
G01X-584200Y-3009900D03*
G01X1778000Y-965200D03*
G01X1905000Y-1562100D03*
G01X863600Y-1320800D03*
G01X228600Y-1943100D03*
G01X762000Y-1625600D03*
G04 Via End*

G04 Track Start*
G54D10*
G01X1168400Y-609600D02*
G01X1159995Y-618005D01*
G01Y-879998D01*
G01X1079500Y-609600D02*
G01X1080010Y-610110D01*
G01Y-879998D01*
G01X957682Y-609600D02*
G01X1079500Y-609600D01*
G01X1168400Y-609600D02*
G01X1264818Y-609600D01*
G01X840005Y-1120002D02*
G01X920015Y-1120002D01*
G01X508000Y-927100D02*
G01X551200Y-970300D01*
G01X838200Y-1118197D02*
G01X840005Y-1120002D01*
G01X508000Y-927100D02*
G01X546100Y-889000D01*
G01X635000D01*
G01X685800Y-838200D02*
G01X685800Y-800100D01*
G01X736600Y-749300D01*
G01X838200D01*
G01X871118Y-716382D02*
G01X871118Y-609600D01*
G01X838200Y-749300D02*
G01X871118Y-716382D01*
G01X635000Y-889000D02*
G01X685800Y-838200D01*
G01X871118Y-609600D02*
G01X871118Y-569900D01*
G01X933018Y-508000D01*
G01X1320800Y-508000D02*
G01X1351382Y-538582D01*
G01Y-609600D01*
G01X933018Y-508000D02*
G01X1320800Y-508000D01*
G01X1351382Y-609600D02*
G01X1351382Y-749300D01*
G01X1351382Y-835863D02*
G01X1351382Y-876846D01*
G01X1181100Y-1047128D02*
G01X1181100Y-1098922D01*
G01X1160020Y-1120002D01*
G01X1181100Y-1047128D02*
G01X1351382Y-876846D01*
G01X1000000Y-879998D02*
G01X1031461Y-911459D01*
G01Y-958642D01*
G01X1071661Y-998842D01*
G01X1080010Y-1007191D01*
G01Y-1120002D01*
G01X551200Y-970300D02*
G01X741700Y-970300D01*
G01X838200Y-1066800D01*
G01Y-1118197D01*
G01X-850900Y1092200D02*
G01X-774700Y1016000D01*
G01Y882002D01*
G01X-736600Y1092200D02*
G01X-694690Y1050290D01*
G01Y882002D01*
G01X-635000Y1092200D02*
G01X-614705Y1071905D01*
G01Y882002D01*
G01X-508000Y508000D02*
G01X-614680Y614680D01*
G01Y641998D01*
G01X-694690Y834390D02*
G01X-694690Y882002D01*
G01X-673100Y812800D02*
G01X-694690Y834390D01*
G01X1104900Y-63500D02*
G01X1092200Y-50800D01*
G01X-571500Y1092200D02*
G01X-635000Y1092200D01*
G01X-457200Y977900D02*
G01X-571500Y1092200D01*
G01X-934695Y641998D02*
G01X-854685Y641998D01*
G01X-990600Y523584D02*
G01X-934695Y579490D01*
G01Y641998D01*
G01X1000000Y-1195303D02*
G01X974600Y-1220703D01*
G01X661903D01*
G01X419100Y-977900D01*
G01Y-863600D01*
G01X508000Y-774700D01*
G01X-774700Y641998D02*
G01X-774700Y495300D01*
G01X-723900Y444500D02*
G01X-774700Y495300D01*
G01X-711200Y444500D02*
G01X-723900Y444500D01*
G01X-694690Y542290D02*
G01X-694690Y641998D01*
G01X-596900Y444500D02*
G01X-694690Y542290D01*
G01X-508000Y508000D02*
G01X-508000Y419100D01*
G01X-546100Y381000D01*
G01X-800100D01*
G01X-863600Y444500D01*
G01X1524000Y-190500D02*
G01X1562100Y-190500D01*
G01X2688590Y907402D02*
G01X2688590Y867082D01*
G01X2769431Y786242D01*
G01Y668228D01*
G01X2768600Y667398D01*
G01X2336800Y647700D02*
G01X2336800Y749300D01*
G01X2400300Y812800D01*
G01X2654300D01*
G01X2688590Y778510D01*
G01Y667398D01*
G01X2387600Y635000D02*
G01X2387600Y736600D01*
G01X2425700Y774700D01*
G01X2578100Y774700D02*
G01X2425700Y774700D01*
G01X2603500Y672503D02*
G01X2603500Y749300D01*
G01X2603500Y672503D02*
G01X2608605Y667398D01*
G01X2603500Y749300D02*
G01X2578100Y774700D01*
G01X2844800Y1130300D02*
G01X2848585Y1126515D01*
G01Y907402D01*
G01X2928595D01*
G01X1358900Y-1270000D02*
G01X1485900Y-1270000D01*
G01X1625600Y-1130300D01*
G01Y-317500D01*
G01X3124200Y609600D02*
G01X3124200Y774700D01*
G01X3060700Y838200D02*
G01X2819400Y838200D01*
G01X2768600Y889000D01*
G01Y907402D01*
G01X3124200Y774700D02*
G01X3060700Y838200D01*
G01X2882900Y368300D02*
G01X3124200Y609600D01*
G01X2603500Y1041400D02*
G01X2603500Y912482D01*
G01X2608580Y907402D01*
G01X2768600Y1041400D02*
G01X2768600Y907402D01*
G01X2688590Y667398D02*
G01X2688590Y626110D01*
G01X2743200Y571500D01*
G01X2603500Y672503D02*
G01X2603500Y596900D01*
G01X2578100Y571500D01*
G01X2463800D01*
G01X635000Y-393700D02*
G01X1079500Y-393700D01*
G01X330200Y-698500D02*
G01X635000Y-393700D01*
G01X1117600Y-304800D02*
G01X1206500Y-393700D01*
G01X622300Y-304800D02*
G01X1117600Y-304800D01*
G01X241300Y-685800D02*
G01X622300Y-304800D01*
G01X-1104637Y-2656742D02*
G01X-1013296Y-2565400D01*
G01X-838200Y-2527300D02*
G01X-1041400Y-2527300D01*
G01Y-2543158D01*
G01X-1140237Y-2641996D01*
G01Y-2707409D01*
G01X-1068846Y-2778800D01*
G01X-952500D01*
G01X-927100Y-2804200D01*
G01X-927100Y-2893708D02*
G01X-934695Y-2901302D01*
G01X-927100Y-2804200D02*
G01X-927100Y-2893708D01*
G01X-793653Y-2565400D02*
G01X-1013296Y-2565400D01*
G01X-927100Y-2893708D02*
G01X-919505Y-2901302D01*
G01X-854685D01*
G01X-1066800Y-2730500D02*
G01X-1104637Y-2692663D01*
G01Y-2656742D01*
G01X-1066800Y-2730500D02*
G01X-927100Y-2730500D01*
G01X-876300Y-2781300D02*
G01X-876300Y-2819400D01*
G01X-863600Y-2832100D01*
G01X-749300Y-2755900D02*
G01X-660400Y-2755900D01*
G01X-927100Y-2730500D02*
G01X-876300Y-2781300D01*
G01X-863600Y-2832100D02*
G01X-825500Y-2832100D01*
G01X-749300Y-2755900D01*
G01X-660400Y-2755900D02*
G01X-609600Y-2705100D01*
G01X-660146Y-2626754D02*
G01X-694690Y-2661298D01*
G01X330200Y-1537211D02*
G01X330200Y-698500D01*
G01X-660146Y-2626754D02*
G01X-660146Y-2603246D01*
G01X-825500Y-2743200D02*
G01X-774700Y-2692400D01*
G01Y-2661298D01*
G01X-694690Y-2901302D02*
G01X-685800Y-2910192D01*
G01Y-3009900D01*
G01X-50800Y-1739900D02*
G01X-762626Y-2451726D01*
G01X-762626Y-2451726D02*
G01X-838200Y-2527300D01*
G01X-469900Y-2578100D02*
G01X-444500Y-2603500D01*
G01X-454429Y-2226175D02*
G01X-793653Y-2565400D01*
G01X-280120Y-2147531D02*
G01X330200Y-1537211D01*
G01X2603500Y-3022600D02*
G01X2608605Y-3017495D01*
G01Y-2901302D01*
G01X2324100Y-2514600D02*
G01X2324100Y-2844800D01*
G01X2349500Y-2870200D01*
G01Y-2921000D01*
G01X2540000Y-3111500D02*
G01X2654300Y-3111500D01*
G01X2688590Y-3077210D01*
G01Y-2901302D01*
G01X2349500Y-2921000D02*
G01X2540000Y-3111500D01*
G01X1358900Y-1270000D02*
G01X1752600Y-1663700D01*
G01X2768600Y-2476500D02*
G01X2768600Y-2661298D01*
G01X2928595Y-2661298D02*
G01X2848585Y-2661298D01*
G01X2688590Y-2661298D02*
G01X2688590Y-2637790D01*
G01X2590800Y-2540000D01*
G01X2679700Y-3073400D02*
G01X2684780Y-3073400D01*
G01X2688590Y-3077210D01*
G01X2768600Y-2901302D02*
G01X2768600Y-2857500D01*
G01X2692400Y-2781300D02*
G01X2692400Y-2665108D01*
G01X2688590Y-2661298D01*
G01X2608580Y-2661298D02*
G01X2608580Y-2674620D01*
G01X2578100Y-2705100D01*
G01Y-2771308D01*
G01X2566939Y-2782468D01*
G01X2933700Y-2425700D02*
G01X2963164Y-2455164D01*
G01Y-2626728D01*
G01X2928595Y-2661298D01*
G01X2768600Y-2476500D02*
G01X2819400Y-2476500D01*
G01X2857500Y-2514600D01*
G01X2788433Y-2782458D02*
G01X2745199Y-2825692D01*
G01X2736792D01*
G01X2768600Y-2857500D02*
G01X2736792Y-2825692D01*
G01X2692400Y-2781300D01*
G01X-444500Y-2959100D02*
G01X-546100Y-3060700D01*
G01X-444500Y-2603500D02*
G01X-444500Y-2959100D01*
G01X-774700Y-3136900D02*
G01X-774700Y-2901302D01*
G01X-774700Y-3136900D02*
G01X-622300Y-3136900D01*
G01X-622300Y-3136900D02*
G01X-558800Y-3073400D01*
G01X-584200Y-3009900D02*
G01X-584200Y-2931782D01*
G01X-614680Y-2901302D01*
G01X1000000Y-1195303D02*
G01X1000000Y-1120002D01*
G01X1222908Y-1244600D02*
G01X1333500Y-1244600D01*
G01X1358900Y-1270000D01*
G01X1222908Y-1244600D02*
G01X1134008Y-1333500D01*
G01X1028700D01*
G01X974600Y-1279400D01*
G01Y-1220703D01*
G01X1080010Y-1120002D02*
G01X1113892Y-1153884D01*
G01Y-1244600D01*
G01X1333500Y-1866900D02*
G01X1231900Y-1765300D01*
G01X482600D01*
G01X304800Y-1943100D01*
G01X228600D01*
G01X-571500Y812800D02*
G01X-673100Y812800D01*
G01X-571500Y812800D02*
G01X-444500Y685800D01*
G01Y482600D01*
G01X152400Y-114300D01*
G01X1016000D01*
G01X-457200Y800100D02*
G01X-457200Y977900D01*
G01X-457200Y800100D02*
G01X-393700Y736600D01*
G01Y508000D01*
G01X165100Y-50800D01*
G01X1092200D01*
G01X1625600Y-317500D02*
G01X1701800Y-241300D01*
G01X1953157D01*
G01X2562757Y368300D01*
G01X2882900D01*
G01X2349500Y508000D02*
G01X2349500Y456689D01*
G01X1384811Y-508000D02*
G01X1320800Y-508000D01*
G01X1384811Y-508000D02*
G01X1384811Y-482600D01*
G01X1715011Y-152400D01*
G01X1943100D01*
G01X2400300Y304800D01*
G01X2400300Y405889D02*
G01X2349500Y456689D01*
G01X2400300Y304800D02*
G01X2400300Y405889D01*
G01X1562100Y-190500D02*
G01X1651000Y-101600D01*
G01X1917700D01*
G01X2336800Y317500D01*
G01Y406400D01*
G01X2273300Y469900D02*
G01X2273300Y520700D01*
G01X2387600Y635000D01*
G01X2273300Y469900D02*
G01X2336800Y406400D01*
G01X2273300Y330200D02*
G01X2273300Y368300D01*
G01X2209800Y431800D01*
G01X2209800Y520700D02*
G01X2336800Y647700D01*
G01X1879600Y-63500D02*
G01X1282700Y-63500D01*
G01X1879600Y-63500D02*
G01X2273300Y330200D01*
G01X2209800Y431800D02*
G01X2209800Y520700D01*
G01X241300Y-1543464D02*
G01X241300Y-685800D01*
G01X-441412Y-2226175D02*
G01X241300Y-1543464D01*
G01X-454429Y-2226175D02*
G01X-441412Y-2226175D01*
G01X-660146Y-2603246D02*
G01X-584200Y-2527300D01*
G01X-280120Y-2147531D02*
G01X-584200Y-2451611D01*
G01Y-2527300D01*
G01X-469900Y-2463800D02*
G01X-469900Y-2578100D01*
G01X1752600Y-1663700D02*
G01X1955800Y-1663700D01*
G01X2768600Y-2476500D01*
G01X1333500Y-1866900D02*
G01X2057400Y-1866900D01*
G01X2692400Y-2501900D01*
G01X661903Y-1220703D02*
G01X661903Y-1331997D01*
G01X-469900Y-2463800D01*
G01X1905000Y-1562100D02*
G01X1701800Y-1358900D01*
G01Y-1041400D01*
G01X1778000Y-965200D01*
G04 Track End*

M02*
