G04 Layer: TopSilkscreenLayer*
G04 EasyEDA Pro v2.1.44.1.245b18d5.fca1f9, 2024-01-18 14:01:25*
G04 Gerber Generator version 0.3*
G04 Scale: 100 percent, Rotated: No, Reflected: No*
G04 Dimensions in millimeters*
G04 Leading zeros omitted, absolute positions, 3 integers and 5 decimals*
%FSLAX35Y35*%
%MOMM*%
%ADD10C,0.1524*%
%ADD11C,0.2032*%
%ADD12C,0.203*%
%ADD13C,0.1016*%
%ADD14C,0.24*%
G75*


G04 Text Start*
G54D10*
G01X616966Y-1046480D02*
G01X663448Y-1046480D01*
G01X672592Y-1043432D01*
G01X678942Y-1037082D01*
G01X681990Y-1027938D01*
G01Y-1021588D01*
G01X678942Y-1012444D01*
G01X672592Y-1006348D01*
G01X663448Y-1003046D01*
G01X616966D01*
G01X632460Y-969772D02*
G01X629412Y-969772D01*
G01X623062Y-966724D01*
G01X620014Y-963676D01*
G01X616966Y-957580D01*
G01Y-945134D01*
G01X620014Y-938784D01*
G01X623062Y-935736D01*
G01X629412Y-932688D01*
G01X635508D01*
G01X641604Y-935736D01*
G01X651002Y-942086D01*
G01X681990Y-972820D01*
G01Y-929640D01*
G01X-413766Y-2725420D02*
G01X-460248Y-2725420D01*
G01X-469392Y-2728468D01*
G01X-475742Y-2734818D01*
G01X-478790Y-2743962D01*
G01Y-2750312D01*
G01X-475742Y-2759456D01*
G01X-469392Y-2765552D01*
G01X-460248Y-2768854D01*
G01X-413766D01*
G01X-413766Y-2805176D02*
G01X-413766Y-2839212D01*
G01X-438404Y-2820670D01*
G01Y-2829814D01*
G01X-441452Y-2836164D01*
G01X-444754Y-2839212D01*
G01X-453898Y-2842260D01*
G01X-460248D01*
G01X-469392Y-2839212D01*
G01X-475742Y-2833116D01*
G01X-478790Y-2823718D01*
G01Y-2814320D01*
G01X-475742Y-2805176D01*
G01X-472440Y-2802128D01*
G01X-466344Y-2799080D01*
G01X2394966Y-2849880D02*
G01X2441448Y-2849880D01*
G01X2450592Y-2846832D01*
G01X2456942Y-2840482D01*
G01X2459990Y-2831338D01*
G01Y-2824988D01*
G01X2456942Y-2815844D01*
G01X2450592Y-2809748D01*
G01X2441448Y-2806446D01*
G01X2394966D01*
G01X2394966Y-2745486D02*
G01X2438146Y-2776220D01*
G01Y-2729992D01*
G01X2394966Y-2745486D02*
G01X2459990Y-2745486D01*
G01X2394966Y718820D02*
G01X2441448Y718820D01*
G01X2450592Y721868D01*
G01X2456942Y728218D01*
G01X2459990Y737362D01*
G01Y743712D01*
G01X2456942Y752856D01*
G01X2450592Y758952D01*
G01X2441448Y762254D01*
G01X2394966D01*
G01X2404110Y829564D02*
G01X2398014Y826516D01*
G01X2394966Y817118D01*
G01Y811022D01*
G01X2398014Y801624D01*
G01X2407412Y795528D01*
G01X2422652Y792480D01*
G01X2438146D01*
G01X2450592Y795528D01*
G01X2456942Y801624D01*
G01X2459990Y811022D01*
G01Y814070D01*
G01X2456942Y823214D01*
G01X2450592Y829564D01*
G01X2441448Y832612D01*
G01X2438146D01*
G01X2429002Y829564D01*
G01X2422652Y823214D01*
G01X2419604Y814070D01*
G01Y811022D01*
G01X2422652Y801624D01*
G01X2429002Y795528D01*
G01X2438146Y792480D01*
G01X1151585Y-1318260D02*
G01X1148537Y-1311910D01*
G01X1142187Y-1305814D01*
G01X1136091Y-1302766D01*
G01X1123645D01*
G01X1117549Y-1305814D01*
G01X1111199Y-1311910D01*
G01X1108151Y-1318260D01*
G01X1105103Y-1327404D01*
G01Y-1342898D01*
G01X1108151Y-1352296D01*
G01X1111199Y-1358392D01*
G01X1117549Y-1364742D01*
G01X1123645Y-1367790D01*
G01X1136091D01*
G01X1142187Y-1364742D01*
G01X1148537Y-1358392D01*
G01X1151585Y-1352296D01*
G01X1218895Y-1302766D02*
G01X1187907Y-1302766D01*
G01X1184859Y-1330452D01*
G01X1187907Y-1327404D01*
G01X1197051Y-1324356D01*
G01X1206449D01*
G01X1215847Y-1327404D01*
G01X1221943Y-1333754D01*
G01X1224991Y-1342898D01*
G01Y-1349248D01*
G01X1221943Y-1358392D01*
G01X1215847Y-1364742D01*
G01X1206449Y-1367790D01*
G01X1197051D01*
G01X1187907Y-1364742D01*
G01X1184859Y-1361440D01*
G01X1181811Y-1355344D01*
G01X1264920Y-477266D02*
G01X1264920Y-542290D01*
G01X1264920Y-477266D02*
G01X1292860Y-477266D01*
G01X1302004Y-480314D01*
G01X1305052Y-483362D01*
G01X1308354Y-489712D01*
G01Y-495808D01*
G01X1305052Y-501904D01*
G01X1302004Y-504952D01*
G01X1292860Y-508254D01*
G01X1264920D01*
G01X1286510Y-508254D02*
G01X1308354Y-542290D01*
G01X1338580Y-489712D02*
G01X1344676Y-486410D01*
G01X1353820Y-477266D01*
G01Y-542290D01*
G01X858520Y-477266D02*
G01X858520Y-542290D01*
G01X858520Y-477266D02*
G01X886460Y-477266D01*
G01X895604Y-480314D01*
G01X898652Y-483362D01*
G01X901954Y-489712D01*
G01Y-495808D01*
G01X898652Y-501904D01*
G01X895604Y-504952D01*
G01X886460Y-508254D01*
G01X858520D01*
G01X880110Y-508254D02*
G01X901954Y-542290D01*
G01X935228Y-492760D02*
G01X935228Y-489712D01*
G01X938276Y-483362D01*
G01X941324Y-480314D01*
G01X947420Y-477266D01*
G01X959866D01*
G01X966216Y-480314D01*
G01X969264Y-483362D01*
G01X972312Y-489712D01*
G01Y-495808D01*
G01X969264Y-501904D01*
G01X962914Y-511302D01*
G01X932180Y-542290D01*
G01X975360D01*
G01X1478534Y-744220D02*
G01X1413510Y-744220D01*
G01X1478534Y-744220D02*
G01X1478534Y-772160D01*
G01X1475486Y-781304D01*
G01X1472438Y-784352D01*
G01X1466088Y-787654D01*
G01X1459992D01*
G01X1453896Y-784352D01*
G01X1450848Y-781304D01*
G01X1447546Y-772160D01*
G01Y-744220D01*
G01X1447546Y-765810D02*
G01X1413510Y-787654D01*
G01X1478534Y-823976D02*
G01X1478534Y-858012D01*
G01X1453896Y-839470D01*
G01Y-848614D01*
G01X1450848Y-854964D01*
G01X1447546Y-858012D01*
G01X1438402Y-861060D01*
G01X1432052D01*
G01X1422908Y-858012D01*
G01X1416558Y-851916D01*
G01X1413510Y-842518D01*
G01Y-833120D01*
G01X1416558Y-823976D01*
G01X1419860Y-820928D01*
G01X1425956Y-817880D01*
G01X-413766Y817880D02*
G01X-460248Y817880D01*
G01X-469392Y814832D01*
G01X-475742Y808482D01*
G01X-478790Y799338D01*
G01Y792988D01*
G01X-475742Y783844D01*
G01X-469392Y777748D01*
G01X-460248Y774446D01*
G01X-413766D01*
G01X-413766Y707136D02*
G01X-413766Y738124D01*
G01X-441452Y741172D01*
G01X-438404Y738124D01*
G01X-435356Y728980D01*
G01Y719582D01*
G01X-438404Y710184D01*
G01X-444754Y704088D01*
G01X-453898Y701040D01*
G01X-460248D01*
G01X-469392Y704088D01*
G01X-475742Y710184D01*
G01X-478790Y719582D01*
G01Y728980D01*
G01X-475742Y738124D01*
G01X-472440Y741172D01*
G01X-466344Y744220D01*
G54D11*
G01X403860Y-1563370D02*
G01X403860Y-1649984D01*
G01X403860Y-1563370D02*
G01X436880Y-1649984D01*
G01X469900Y-1563370D02*
G01X436880Y-1649984D01*
G01X469900Y-1563370D02*
G01X469900Y-1649984D01*
G01X514096Y-1592326D02*
G01X538988Y-1649984D01*
G01X563626Y-1592326D02*
G01X538988Y-1649984D01*
G01X530606Y-1666494D01*
G01X522478Y-1674876D01*
G01X514096Y-1678940D01*
G01X510032D01*
G01X603758Y-1563370D02*
G01X603758Y-1649984D01*
G01X661670Y-1563370D02*
G01X661670Y-1649984D01*
G01X603758Y-1604772D02*
G01X661670Y-1604772D01*
G01X701802Y-1563370D02*
G01X701802Y-1649984D01*
G01X701802Y-1563370D02*
G01X755396Y-1563370D01*
G01X701802Y-1604772D02*
G01X734822Y-1604772D01*
G01X701802Y-1649984D02*
G01X755396Y-1649984D01*
G01X857504Y-1583944D02*
G01X853440Y-1575816D01*
G01X845058Y-1567434D01*
G01X836930Y-1563370D01*
G01X820420D01*
G01X812038Y-1567434D01*
G01X803910Y-1575816D01*
G01X799592Y-1583944D01*
G01X795528Y-1596390D01*
G01Y-1616964D01*
G01X799592Y-1629410D01*
G01X803910Y-1637792D01*
G01X812038Y-1645920D01*
G01X820420Y-1649984D01*
G01X836930D01*
G01X845058Y-1645920D01*
G01X853440Y-1637792D01*
G01X857504Y-1629410D01*
G01Y-1616964D01*
G01X836930Y-1616964D02*
G01X857504Y-1616964D01*
G01X990092Y-1563370D02*
G01X990092Y-1649984D01*
G01X990092Y-1563370D02*
G01X1019048Y-1563370D01*
G01X1031494Y-1567434D01*
G01X1039622Y-1575816D01*
G01X1043686Y-1583944D01*
G01X1048004Y-1596390D01*
G01Y-1616964D01*
G01X1043686Y-1629410D01*
G01X1039622Y-1637792D01*
G01X1031494Y-1645920D01*
G01X1019048Y-1649984D01*
G01X990092D01*
G01X1088136Y-1616964D02*
G01X1137666Y-1616964D01*
G01Y-1608836D01*
G01X1133602Y-1600454D01*
G01X1129538Y-1596390D01*
G01X1121156Y-1592326D01*
G01X1108710D01*
G01X1100582Y-1596390D01*
G01X1092200Y-1604772D01*
G01X1088136Y-1616964D01*
G01Y-1625346D01*
G01X1092200Y-1637792D01*
G01X1100582Y-1645920D01*
G01X1108710Y-1649984D01*
G01X1121156D01*
G01X1129538Y-1645920D01*
G01X1137666Y-1637792D01*
G01X1190244Y-1563370D02*
G01X1190244Y-1633474D01*
G01X1194308Y-1645920D01*
G01X1202690Y-1649984D01*
G01X1210818D01*
G01X1177798Y-1592326D02*
G01X1206754Y-1592326D01*
G01X1250950Y-1616964D02*
G01X1300480Y-1616964D01*
G01Y-1608836D01*
G01X1296416Y-1600454D01*
G01X1292352Y-1596390D01*
G01X1283970Y-1592326D01*
G01X1271524D01*
G01X1263396Y-1596390D01*
G01X1255014Y-1604772D01*
G01X1250950Y-1616964D01*
G01Y-1625346D01*
G01X1255014Y-1637792D01*
G01X1263396Y-1645920D01*
G01X1271524Y-1649984D01*
G01X1283970D01*
G01X1292352Y-1645920D01*
G01X1300480Y-1637792D01*
G01X1390142Y-1604772D02*
G01X1382014Y-1596390D01*
G01X1373632Y-1592326D01*
G01X1361186D01*
G01X1353058Y-1596390D01*
G01X1344676Y-1604772D01*
G01X1340612Y-1616964D01*
G01Y-1625346D01*
G01X1344676Y-1637792D01*
G01X1353058Y-1645920D01*
G01X1361186Y-1649984D01*
G01X1373632D01*
G01X1382014Y-1645920D01*
G01X1390142Y-1637792D01*
G01X1442720Y-1563370D02*
G01X1442720Y-1633474D01*
G01X1446784Y-1645920D01*
G01X1455166Y-1649984D01*
G01X1463294D01*
G01X1430274Y-1592326D02*
G01X1459230Y-1592326D01*
G01X1524000Y-1592326D02*
G01X1515872Y-1596390D01*
G01X1507490Y-1604772D01*
G01X1503426Y-1616964D01*
G01Y-1625346D01*
G01X1507490Y-1637792D01*
G01X1515872Y-1645920D01*
G01X1524000Y-1649984D01*
G01X1536446D01*
G01X1544828Y-1645920D01*
G01X1552956Y-1637792D01*
G01X1557020Y-1625346D01*
G01Y-1616964D01*
G01X1552956Y-1604772D01*
G01X1544828Y-1596390D01*
G01X1536446Y-1592326D01*
G01X1524000D01*
G01X1597152Y-1592326D02*
G01X1597152Y-1649984D01*
G01X1597152Y-1616964D02*
G01X1601216Y-1604772D01*
G01X1609598Y-1596390D01*
G01X1617726Y-1592326D01*
G01X1630172D01*
G01X403860Y-1715770D02*
G01X436880Y-1802384D01*
G01X469900Y-1715770D02*
G01X436880Y-1802384D01*
G01X534924Y-1715770D02*
G01X522478Y-1719834D01*
G01X514096Y-1732280D01*
G01X510032Y-1752854D01*
G01Y-1765300D01*
G01X514096Y-1785874D01*
G01X522478Y-1798320D01*
G01X534924Y-1802384D01*
G01X543052D01*
G01X555498Y-1798320D01*
G01X563626Y-1785874D01*
G01X567944Y-1765300D01*
G01Y-1752854D01*
G01X563626Y-1732280D01*
G01X555498Y-1719834D01*
G01X543052Y-1715770D01*
G01X534924D01*
G01X637032Y-1699260D02*
G01X628650Y-1707642D01*
G01X620522Y-1719834D01*
G01X612140Y-1736344D01*
G01X608076Y-1757172D01*
G01Y-1773682D01*
G01X612140Y-1794256D01*
G01X620522Y-1810766D01*
G01X628650Y-1823212D01*
G01X637032Y-1831340D01*
G01X681228Y-1736344D02*
G01X681228Y-1732280D01*
G01X685546Y-1724152D01*
G01X689610Y-1719834D01*
G01X697738Y-1715770D01*
G01X714248D01*
G01X722630Y-1719834D01*
G01X726694Y-1724152D01*
G01X730758Y-1732280D01*
G01Y-1740662D01*
G01X726694Y-1748790D01*
G01X718566Y-1761236D01*
G01X677164Y-1802384D01*
G01X735076D01*
G01X800100Y-1715770D02*
G01X787654Y-1719834D01*
G01X779272Y-1732280D01*
G01X775208Y-1752854D01*
G01Y-1765300D01*
G01X779272Y-1785874D01*
G01X787654Y-1798320D01*
G01X800100Y-1802384D01*
G01X808228D01*
G01X820674Y-1798320D01*
G01X828802Y-1785874D01*
G01X833120Y-1765300D01*
G01Y-1752854D01*
G01X828802Y-1732280D01*
G01X820674Y-1719834D01*
G01X808228Y-1715770D01*
G01X800100D01*
G01X877316Y-1736344D02*
G01X877316Y-1732280D01*
G01X881634Y-1724152D01*
G01X885698Y-1719834D01*
G01X893826Y-1715770D01*
G01X910336D01*
G01X918718Y-1719834D01*
G01X922782Y-1724152D01*
G01X926846Y-1732280D01*
G01Y-1740662D01*
G01X922782Y-1748790D01*
G01X914654Y-1761236D01*
G01X873252Y-1802384D01*
G01X931164D01*
G01X1012698Y-1715770D02*
G01X971296Y-1773682D01*
G01X1033272D01*
G01X1012698Y-1715770D02*
G01X1012698Y-1802384D01*
G01X1077468Y-1781810D02*
G01X1073404Y-1785874D01*
G01X1077468Y-1790192D01*
G01X1081786Y-1785874D01*
G01X1077468Y-1781810D01*
G01X1121918Y-1732280D02*
G01X1130300Y-1728216D01*
G01X1142492Y-1715770D01*
G01Y-1802384D01*
G01X1186688Y-1781810D02*
G01X1182624Y-1785874D01*
G01X1186688Y-1790192D01*
G01X1191006Y-1785874D01*
G01X1186688Y-1781810D01*
G01X1231138Y-1732280D02*
G01X1239520Y-1728216D01*
G01X1251712Y-1715770D01*
G01Y-1802384D01*
G01X1312418Y-1715770D02*
G01X1300226Y-1719834D01*
G01X1295908Y-1728216D01*
G01Y-1736344D01*
G01X1300226Y-1744726D01*
G01X1308354Y-1748790D01*
G01X1324864Y-1752854D01*
G01X1337310Y-1757172D01*
G01X1345438Y-1765300D01*
G01X1349756Y-1773682D01*
G01Y-1785874D01*
G01X1345438Y-1794256D01*
G01X1341374Y-1798320D01*
G01X1328928Y-1802384D01*
G01X1312418D01*
G01X1300226Y-1798320D01*
G01X1295908Y-1794256D01*
G01X1291844Y-1785874D01*
G01Y-1773682D01*
G01X1295908Y-1765300D01*
G01X1304290Y-1757172D01*
G01X1316736Y-1752854D01*
G01X1333246Y-1748790D01*
G01X1341374Y-1744726D01*
G01X1345438Y-1736344D01*
G01Y-1728216D01*
G01X1341374Y-1719834D01*
G01X1328928Y-1715770D01*
G01X1312418D01*
G01X1389888Y-1699260D02*
G01X1398270Y-1707642D01*
G01X1406398Y-1719834D01*
G01X1414780Y-1736344D01*
G01X1418844Y-1757172D01*
G01Y-1773682D01*
G01X1414780Y-1794256D01*
G01X1406398Y-1810766D01*
G01X1398270Y-1823212D01*
G01X1389888Y-1831340D01*
G54D12*
G01X1537716Y-1202182D02*
G01X1529334Y-1210310D01*
G01X1525270Y-1222756D01*
G01Y-1239266D01*
G01X1529334Y-1251712D01*
G01X1537716Y-1259840D01*
G01X1545844D01*
G01X1554226Y-1255776D01*
G01X1558290Y-1251712D01*
G01X1562354Y-1243330D01*
G01X1570736Y-1218692D01*
G01X1574800Y-1210310D01*
G01X1578864Y-1206246D01*
G01X1587246Y-1202182D01*
G01X1599692D01*
G01X1607820Y-1210310D01*
G01X1611884Y-1222756D01*
G01Y-1239266D01*
G01X1607820Y-1251712D01*
G01X1599692Y-1259840D01*
G01X1578864Y-1162050D02*
G01X1578864Y-1112520D01*
G01X1570736D01*
G01X1562354Y-1116584D01*
G01X1558290Y-1120902D01*
G01X1554226Y-1129030D01*
G01Y-1141476D01*
G01X1558290Y-1149604D01*
G01X1566418Y-1157986D01*
G01X1578864Y-1162050D01*
G01X1587246D01*
G01X1599692Y-1157986D01*
G01X1607820Y-1149604D01*
G01X1611884Y-1141476D01*
G01Y-1129030D01*
G01X1607820Y-1120902D01*
G01X1599692Y-1112520D01*
G01X1554226Y-1072388D02*
G01X1611884Y-1072388D01*
G01X1570736Y-1072388D02*
G01X1558290Y-1059942D01*
G01X1554226Y-1051814D01*
G01Y-1039368D01*
G01X1558290Y-1031240D01*
G01X1570736Y-1026922D01*
G01X1611884D01*
G01X1566418Y-941324D02*
G01X1558290Y-945642D01*
G01X1554226Y-957834D01*
G01Y-970280D01*
G01X1558290Y-982726D01*
G01X1566418Y-986790D01*
G01X1574800Y-982726D01*
G01X1578864Y-974344D01*
G01X1583182Y-953770D01*
G01X1587246Y-945642D01*
G01X1595374Y-941324D01*
G01X1599692D01*
G01X1607820Y-945642D01*
G01X1611884Y-957834D01*
G01Y-970280D01*
G01X1607820Y-982726D01*
G01X1599692Y-986790D01*
G01X1554226Y-880618D02*
G01X1558290Y-888746D01*
G01X1566418Y-897128D01*
G01X1578864Y-901192D01*
G01X1587246D01*
G01X1599692Y-897128D01*
G01X1607820Y-888746D01*
G01X1611884Y-880618D01*
G01Y-868172D01*
G01X1607820Y-860044D01*
G01X1599692Y-851662D01*
G01X1587246Y-847598D01*
G01X1578864D01*
G01X1566418Y-851662D01*
G01X1558290Y-860044D01*
G01X1554226Y-868172D01*
G01Y-880618D01*
G01X1554226Y-807466D02*
G01X1611884Y-807466D01*
G01X1578864Y-807466D02*
G01X1566418Y-803402D01*
G01X1558290Y-795020D01*
G01X1554226Y-786892D01*
G01Y-774446D01*
G01X-426334Y291084D02*
G01X-434462Y299466D01*
G01X-446908Y303530D01*
G01X-463418D01*
G01X-475864Y299466D01*
G01X-483992Y291084D01*
G01Y282956D01*
G01X-479928Y274574D01*
G01X-475864Y270510D01*
G01X-467482Y266446D01*
G01X-442844Y258064D01*
G01X-434462Y254000D01*
G01X-430398Y249936D01*
G01X-426334Y241554D01*
G01Y229108D01*
G01X-434462Y220980D01*
G01X-446908Y216916D01*
G01X-463418D01*
G01X-475864Y220980D01*
G01X-483992Y229108D01*
G01X-365628Y274574D02*
G01X-373756Y270510D01*
G01X-382138Y262382D01*
G01X-386202Y249936D01*
G01Y241554D01*
G01X-382138Y229108D01*
G01X-373756Y220980D01*
G01X-365628Y216916D01*
G01X-353182D01*
G01X-345054Y220980D01*
G01X-336672Y229108D01*
G01X-332608Y241554D01*
G01Y249936D01*
G01X-336672Y262382D01*
G01X-345054Y270510D01*
G01X-353182Y274574D01*
G01X-365628D01*
G01X-292476Y274574D02*
G01X-292476Y233426D01*
G01X-288412Y220980D01*
G01X-280030Y216916D01*
G01X-267838D01*
G01X-259456Y220980D01*
G01X-247010Y233426D01*
G01X-247010Y274574D02*
G01X-247010Y216916D01*
G01X-206878Y274574D02*
G01X-206878Y216916D01*
G01X-206878Y249936D02*
G01X-202814Y262382D01*
G01X-194432Y270510D01*
G01X-186304Y274574D01*
G01X-173858D01*
G01X-84196Y262382D02*
G01X-92578Y270510D01*
G01X-100706Y274574D01*
G01X-113152D01*
G01X-121280Y270510D01*
G01X-129662Y262382D01*
G01X-133726Y249936D01*
G01Y241554D01*
G01X-129662Y229108D01*
G01X-121280Y220980D01*
G01X-113152Y216916D01*
G01X-100706D01*
G01X-92578Y220980D01*
G01X-84196Y229108D01*
G01X-44064Y249936D02*
G01X5466Y249936D01*
G01Y258064D01*
G01X1402Y266446D01*
G01X-2916Y270510D01*
G01X-11044Y274574D01*
G01X-23490D01*
G01X-31618Y270510D01*
G01X-40000Y262382D01*
G01X-44064Y249936D01*
G01Y241554D01*
G01X-40000Y229108D01*
G01X-31618Y220980D01*
G01X-23490Y216916D01*
G01X-11044D01*
G01X-2916Y220980D01*
G01X5466Y229108D01*
G01X2050166Y291084D02*
G01X2042038Y299466D01*
G01X2029592Y303530D01*
G01X2013082D01*
G01X2000636Y299466D01*
G01X1992508Y291084D01*
G01Y282956D01*
G01X1996572Y274574D01*
G01X2000636Y270510D01*
G01X2009018Y266446D01*
G01X2033656Y258064D01*
G01X2042038Y254000D01*
G01X2046102Y249936D01*
G01X2050166Y241554D01*
G01Y229108D01*
G01X2042038Y220980D01*
G01X2029592Y216916D01*
G01X2013082D01*
G01X2000636Y220980D01*
G01X1992508Y229108D01*
G01X2110872Y274574D02*
G01X2102744Y270510D01*
G01X2094362Y262382D01*
G01X2090298Y249936D01*
G01Y241554D01*
G01X2094362Y229108D01*
G01X2102744Y220980D01*
G01X2110872Y216916D01*
G01X2123318D01*
G01X2131446Y220980D01*
G01X2139828Y229108D01*
G01X2143892Y241554D01*
G01Y249936D01*
G01X2139828Y262382D01*
G01X2131446Y270510D01*
G01X2123318Y274574D01*
G01X2110872D01*
G01X2184024Y274574D02*
G01X2184024Y233426D01*
G01X2188088Y220980D01*
G01X2196470Y216916D01*
G01X2208662D01*
G01X2217044Y220980D01*
G01X2229490Y233426D01*
G01X2229490Y274574D02*
G01X2229490Y216916D01*
G01X2269622Y274574D02*
G01X2269622Y216916D01*
G01X2269622Y249936D02*
G01X2273686Y262382D01*
G01X2282068Y270510D01*
G01X2290196Y274574D01*
G01X2302642D01*
G01X2392304Y262382D02*
G01X2383922Y270510D01*
G01X2375794Y274574D01*
G01X2363348D01*
G01X2355220Y270510D01*
G01X2346838Y262382D01*
G01X2342774Y249936D01*
G01Y241554D01*
G01X2346838Y229108D01*
G01X2355220Y220980D01*
G01X2363348Y216916D01*
G01X2375794D01*
G01X2383922Y220980D01*
G01X2392304Y229108D01*
G01X2432436Y249936D02*
G01X2481966Y249936D01*
G01Y258064D01*
G01X2477902Y266446D01*
G01X2473584Y270510D01*
G01X2465456Y274574D01*
G01X2453010D01*
G01X2444882Y270510D01*
G01X2436500Y262382D01*
G01X2432436Y249936D01*
G01Y241554D01*
G01X2436500Y229108D01*
G01X2444882Y220980D01*
G01X2453010Y216916D01*
G01X2465456D01*
G01X2473584Y220980D01*
G01X2481966Y229108D01*
G01X-512976Y-2284758D02*
G01X-521104Y-2276376D01*
G01X-533550Y-2272312D01*
G01X-550060D01*
G01X-562506Y-2276376D01*
G01X-570634Y-2284758D01*
G01Y-2292886D01*
G01X-566570Y-2301268D01*
G01X-562506Y-2305332D01*
G01X-554124Y-2309396D01*
G01X-529486Y-2317778D01*
G01X-521104Y-2321842D01*
G01X-517040Y-2325906D01*
G01X-512976Y-2334288D01*
G01Y-2346734D01*
G01X-521104Y-2354862D01*
G01X-533550Y-2358926D01*
G01X-550060D01*
G01X-562506Y-2354862D01*
G01X-570634Y-2346734D01*
G01X-452270Y-2301268D02*
G01X-460398Y-2305332D01*
G01X-468780Y-2313460D01*
G01X-472844Y-2325906D01*
G01Y-2334288D01*
G01X-468780Y-2346734D01*
G01X-460398Y-2354862D01*
G01X-452270Y-2358926D01*
G01X-439824D01*
G01X-431696Y-2354862D01*
G01X-423314Y-2346734D01*
G01X-419250Y-2334288D01*
G01Y-2325906D01*
G01X-423314Y-2313460D01*
G01X-431696Y-2305332D01*
G01X-439824Y-2301268D01*
G01X-452270D01*
G01X-379118Y-2301268D02*
G01X-379118Y-2342416D01*
G01X-375054Y-2354862D01*
G01X-366672Y-2358926D01*
G01X-354480D01*
G01X-346098Y-2354862D01*
G01X-333652Y-2342416D01*
G01X-333652Y-2301268D02*
G01X-333652Y-2358926D01*
G01X-293520Y-2301268D02*
G01X-293520Y-2358926D01*
G01X-293520Y-2325906D02*
G01X-289456Y-2313460D01*
G01X-281074Y-2305332D01*
G01X-272946Y-2301268D01*
G01X-260500D01*
G01X-170838Y-2313460D02*
G01X-179220Y-2305332D01*
G01X-187348Y-2301268D01*
G01X-199794D01*
G01X-207922Y-2305332D01*
G01X-216304Y-2313460D01*
G01X-220368Y-2325906D01*
G01Y-2334288D01*
G01X-216304Y-2346734D01*
G01X-207922Y-2354862D01*
G01X-199794Y-2358926D01*
G01X-187348D01*
G01X-179220Y-2354862D01*
G01X-170838Y-2346734D01*
G01X-130706Y-2325906D02*
G01X-81176Y-2325906D01*
G01Y-2317778D01*
G01X-85240Y-2309396D01*
G01X-89558Y-2305332D01*
G01X-97686Y-2301268D01*
G01X-110132D01*
G01X-118260Y-2305332D01*
G01X-126642Y-2313460D01*
G01X-130706Y-2325906D01*
G01Y-2334288D01*
G01X-126642Y-2346734D01*
G01X-118260Y-2354862D01*
G01X-110132Y-2358926D01*
G01X-97686D01*
G01X-89558Y-2354862D01*
G01X-81176Y-2346734D01*
G01X2151766Y-2299716D02*
G01X2143638Y-2291334D01*
G01X2131192Y-2287270D01*
G01X2114682D01*
G01X2102236Y-2291334D01*
G01X2094108Y-2299716D01*
G01Y-2307844D01*
G01X2098172Y-2316226D01*
G01X2102236Y-2320290D01*
G01X2110618Y-2324354D01*
G01X2135256Y-2332736D01*
G01X2143638Y-2336800D01*
G01X2147702Y-2340864D01*
G01X2151766Y-2349246D01*
G01Y-2361692D01*
G01X2143638Y-2369820D01*
G01X2131192Y-2373884D01*
G01X2114682D01*
G01X2102236Y-2369820D01*
G01X2094108Y-2361692D01*
G01X2212472Y-2316226D02*
G01X2204344Y-2320290D01*
G01X2195962Y-2328418D01*
G01X2191898Y-2340864D01*
G01Y-2349246D01*
G01X2195962Y-2361692D01*
G01X2204344Y-2369820D01*
G01X2212472Y-2373884D01*
G01X2224918D01*
G01X2233046Y-2369820D01*
G01X2241428Y-2361692D01*
G01X2245492Y-2349246D01*
G01Y-2340864D01*
G01X2241428Y-2328418D01*
G01X2233046Y-2320290D01*
G01X2224918Y-2316226D01*
G01X2212472D01*
G01X2285624Y-2316226D02*
G01X2285624Y-2357374D01*
G01X2289688Y-2369820D01*
G01X2298070Y-2373884D01*
G01X2310262D01*
G01X2318644Y-2369820D01*
G01X2331090Y-2357374D01*
G01X2331090Y-2316226D02*
G01X2331090Y-2373884D01*
G01X2371222Y-2316226D02*
G01X2371222Y-2373884D01*
G01X2371222Y-2340864D02*
G01X2375286Y-2328418D01*
G01X2383668Y-2320290D01*
G01X2391796Y-2316226D01*
G01X2404242D01*
G01X2493904Y-2328418D02*
G01X2485522Y-2320290D01*
G01X2477394Y-2316226D01*
G01X2464948D01*
G01X2456820Y-2320290D01*
G01X2448438Y-2328418D01*
G01X2444374Y-2340864D01*
G01Y-2349246D01*
G01X2448438Y-2361692D01*
G01X2456820Y-2369820D01*
G01X2464948Y-2373884D01*
G01X2477394D01*
G01X2485522Y-2369820D01*
G01X2493904Y-2361692D01*
G01X2534036Y-2340864D02*
G01X2583566Y-2340864D01*
G01Y-2332736D01*
G01X2579502Y-2324354D01*
G01X2575184Y-2320290D01*
G01X2567056Y-2316226D01*
G01X2554610D01*
G01X2546482Y-2320290D01*
G01X2538100Y-2328418D01*
G01X2534036Y-2340864D01*
G01Y-2349246D01*
G01X2538100Y-2361692D01*
G01X2546482Y-2369820D01*
G01X2554610Y-2373884D01*
G01X2567056D01*
G01X2575184Y-2369820D01*
G01X2583566Y-2361692D01*
G04 Text End*

G04 PolygonModel Start*
G54D13*
G01X1284170Y-828842D02*
G01X714169Y-828842D01*
G01X714169Y-828842D02*
G01X714169Y-1168821D01*
G01X714169Y-1168821D02*
G01X1284170Y-1168821D01*
G01X1284170Y-1168821D02*
G01X1284170Y-828842D01*
G01X1201661Y-928842D02*
G01X1201661Y-1068821D01*
G01X1201661Y-1068821D02*
G01X941666Y-1068821D01*
G01X941666Y-1068821D02*
G01X941666Y-928842D01*
G01X941666Y-928842D02*
G01X1201661Y-928842D01*
G01X881669Y-928842D02*
G01X881669Y-1068821D01*
G01X881669Y-1068821D02*
G01X791654Y-1068821D01*
G01X791654Y-1068821D02*
G01X791654Y-928842D01*
G01X791654Y-928842D02*
G01X881669Y-928842D01*
G01X-490530Y-2610142D02*
G01X-1060531Y-2610142D01*
G01X-1060531Y-2610142D02*
G01X-1060531Y-2950121D01*
G01X-1060531Y-2950121D02*
G01X-490530Y-2950121D01*
G01X-490530Y-2950121D02*
G01X-490530Y-2610142D01*
G01X-573039Y-2710142D02*
G01X-573039Y-2850121D01*
G01X-573039Y-2850121D02*
G01X-833034Y-2850121D01*
G01X-833034Y-2850121D02*
G01X-833034Y-2710142D01*
G01X-833034Y-2710142D02*
G01X-573039Y-2710142D01*
G01X-893031Y-2710142D02*
G01X-893031Y-2850121D01*
G01X-893031Y-2850121D02*
G01X-983046Y-2850121D01*
G01X-983046Y-2850121D02*
G01X-983046Y-2710142D01*
G01X-983046Y-2710142D02*
G01X-893031Y-2710142D01*
G01X2484430Y-2952458D02*
G01X3054431Y-2952458D01*
G01X3054431Y-2952458D02*
G01X3054431Y-2612479D01*
G01X3054431Y-2612479D02*
G01X2484430Y-2612479D01*
G01X2484430Y-2612479D02*
G01X2484430Y-2952458D01*
G01X2566939Y-2852458D02*
G01X2566939Y-2712479D01*
G01X2566939Y-2712479D02*
G01X2826934Y-2712479D01*
G01X2826934Y-2712479D02*
G01X2826934Y-2852458D01*
G01X2826934Y-2852458D02*
G01X2566939Y-2852458D01*
G01X2886931Y-2852458D02*
G01X2886931Y-2712479D01*
G01X2886931Y-2712479D02*
G01X2976946Y-2712479D01*
G01X2976946Y-2712479D02*
G01X2976946Y-2852458D01*
G01X2976946Y-2852458D02*
G01X2886931Y-2852458D01*
G01X-490530Y933158D02*
G01X-1060531Y933158D01*
G01X-1060531Y933158D02*
G01X-1060531Y593179D01*
G01X-1060531Y593179D02*
G01X-490530Y593179D01*
G01X-490530Y593179D02*
G01X-490530Y933158D01*
G01X-573039Y833158D02*
G01X-573039Y693179D01*
G01X-573039Y693179D02*
G01X-833034Y693179D01*
G01X-833034Y693179D02*
G01X-833034Y833158D01*
G01X-833034Y833158D02*
G01X-573039Y833158D01*
G01X-893031Y833158D02*
G01X-893031Y693179D01*
G01X-893031Y693179D02*
G01X-983046Y693179D01*
G01X-983046Y693179D02*
G01X-983046Y833158D01*
G01X-983046Y833158D02*
G01X-893031Y833158D01*
G01X2484430Y616242D02*
G01X3054431Y616242D01*
G01X3054431Y616242D02*
G01X3054431Y956221D01*
G01X3054431Y956221D02*
G01X2484430Y956221D01*
G01X2484430Y956221D02*
G01X2484430Y616242D01*
G01X2566939Y716242D02*
G01X2566939Y856221D01*
G01X2566939Y856221D02*
G01X2826934Y856221D01*
G01X2826934Y856221D02*
G01X2826934Y716242D01*
G01X2826934Y716242D02*
G01X2566939Y716242D01*
G01X2886931Y716242D02*
G01X2886931Y856221D01*
G01X2886931Y856221D02*
G01X2976946Y856221D01*
G01X2976946Y856221D02*
G01X2976946Y716242D01*
G01X2976946Y716242D02*
G01X2886931Y716242D01*
G54D10*
G01X1270030Y-1194740D02*
G01X1191021Y-1194740D01*
G01X1191021Y-1294460D02*
G01X1270030Y-1294460D01*
G01X1285270Y-1279220D02*
G01X1285270Y-1209980D01*
G01X1066770Y-1194740D02*
G01X1145779Y-1194740D01*
G01X1145779Y-1294460D02*
G01X1066770Y-1294460D01*
G01X1051530Y-1279220D02*
G01X1051530Y-1209980D01*
G01X1270030Y-1294460D02*
G03X1285270Y-1279220I0J15240D01*
G01X1285270Y-1209980D02*
G03X1270030Y-1194740I-15240J0D01*
G01X1066770Y-1294460D02*
G02X1051530Y-1279220I0J15240D01*
G01X1051530Y-1209980D02*
G02X1066770Y-1194740I15240J0D01*
G01X1285479Y-659460D02*
G01X1213676Y-659460D01*
G01X1213676Y-659460D02*
G01X1213676Y-559740D01*
G01X1213676Y-559740D02*
G01X1285479Y-559740D01*
G01X1330721Y-659460D02*
G01X1402525Y-659460D01*
G01X1402525Y-659460D02*
G01X1402525Y-559740D01*
G01X1402525Y-559740D02*
G01X1330721Y-559740D01*
G01X937021Y-559740D02*
G01X1008825Y-559740D01*
G01X1008825Y-559740D02*
G01X1008825Y-659460D01*
G01X1008825Y-659460D02*
G01X937021Y-659460D01*
G01X891779Y-559740D02*
G01X819976Y-559740D01*
G01X819976Y-559740D02*
G01X819976Y-659460D01*
G01X819976Y-659460D02*
G01X891779Y-659460D01*
G01X1401242Y-815203D02*
G01X1401242Y-887006D01*
G01X1401242Y-887006D02*
G01X1301521Y-887006D01*
G01X1301521Y-887006D02*
G01X1301521Y-815203D01*
G01X1401242Y-769960D02*
G01X1401242Y-698157D01*
G01X1401242Y-698157D02*
G01X1301521Y-698157D01*
G01X1301521Y-698157D02*
G01X1301521Y-769960D01*
G04 PolygonModel End*

G04 Circle Start*
G54D14*
G01X1229311Y-784113D02*
G03X1253289Y-784113I11989J0D01*
G03X1229311I-11989J0D01*
G01X-545389Y-2565413D02*
G03X-521411Y-2565413I11989J0D01*
G03X-545389I-11989J0D01*
G01X2515311Y-2997187D02*
G03X2539289Y-2997187I11989J0D01*
G03X2515311I-11989J0D01*
G01X-545389Y977887D02*
G03X-521411Y977887I11989J0D01*
G03X-545389I-11989J0D01*
G01X2515311Y571513D02*
G03X2539289Y571513I11989J0D01*
G03X2515311I-11989J0D01*
G04 Circle End*

M02*
