G04 Layer: BottomLayer*
G04 EasyEDA Pro v2.1.44.1.245b18d5.fca1f9, 2024-01-18 14:01:25*
G04 Gerber Generator version 0.3*
G04 Scale: 100 percent, Rotated: No, Reflected: No*
G04 Dimensions in millimeters*
G04 Leading zeros omitted, absolute positions, 3 integers and 5 decimals*
%FSLAX35Y35*%
%MOMM*%
%ADD8191C,0.2032*%
%ADD10C,0.254*%
%ADD11C,0.55*%
%ADD12R,1.575X0.67201*%
%ADD13R,1.575X0.67201*%
%ADD14R,0.4X0.8*%
%ADD15R,0.3X0.8*%
%ADD16R,0.4X1.65001*%
%ADD17R,0.79009X0.54*%
%ADD18R,0.7915X0.54*%
%ADD19R,0.79009X0.54*%
%ADD20R,0.54X0.79009*%
%ADD21R,0.54X0.79009*%
%ADD22R,0.54X0.56566*%
%ADD23R,0.54X0.56566*%
%ADD24R,0.56566X0.54*%
%ADD25C,0.61*%
G75*


G04 Copper Start*
G36*
G01X909994Y-1564480D02*
G03X882717Y-1577086I0J-35814D01*
G01X807210D01*
G03X764336Y-1559327I-45210J-48514D01*
G01X679604Y-1474595D01*
G03X645300Y-1460386I-34305J-34305D01*
G01X602535D01*
G03X569973Y-1439485I-32561J-14914D01*
G01X415703D01*
G01X417665Y-1436938D01*
G01X418658Y-1435585D01*
G01X421208Y-1431932D01*
G01X422139Y-1430530D01*
G01X423924Y-1427698D01*
G01X569986D01*
G03X605800Y-1391884I0J35814D01*
G01Y-1325885D01*
G03X569986Y-1290071I-35814J0D01*
G01X423927D01*
G01X422139Y-1287234D01*
G01X421208Y-1285832D01*
G01X418658Y-1282180D01*
G01X417665Y-1280826D01*
G01X415730Y-1278315D01*
G01X569973D01*
G03X605787Y-1242501I0J35814D01*
G01Y-1175300D01*
G03X569973Y-1139486I-35814J0D01*
G01X412473D01*
G03X376659Y-1175300I0J-35814D01*
G01Y-1242501D01*
G01X376734Y-1244816D01*
G01X376488Y-1244683D01*
G01X372564Y-1242577D01*
G01X371048Y-1241810D01*
G01X367027Y-1239892D01*
G01X365518Y-1239214D01*
G01X361413Y-1237484D01*
G01X359843Y-1236866D01*
G01X355662Y-1235332D01*
G01X354066Y-1234788D01*
G01X349816Y-1233452D01*
G01X348207Y-1232987D01*
G01X343902Y-1231852D01*
G01X342283Y-1231465D01*
G01X337927Y-1230530D01*
G01X336255Y-1230213D01*
G01X331861Y-1229487D01*
G01X330205Y-1229252D01*
G01X325780Y-1228732D01*
G01X324107Y-1228574D01*
G01X319664Y-1228262D01*
G01X318010Y-1228184D01*
G01X313557Y-1228077D01*
G01X312699Y-1228067D01*
G01X273406D01*
G01Y-1115762D01*
G03X279400Y-1113620I-9009J34662D01*
G03X294404Y-1116914I15004J32520D01*
G01X373413D01*
G03X409227Y-1081100I0J35814D01*
G01Y-1027100D01*
G03X373413Y-991286I-35814J0D01*
G01X356315D01*
G01X371987Y-975614D01*
G01X462790D01*
G03X508000Y-993414I45210J48514D01*
G03X574314Y-927100I0J66314D01*
G03X508000Y-860786I-66314J0D01*
G03X462790Y-878586I0J-66314D01*
G01X351892D01*
G03X317587Y-892795I0J-48514D01*
G01X273406Y-936977D01*
G01Y-608715D01*
G01X441727Y-777036D01*
G03X508000Y-841014I66273J2336D01*
G03X574314Y-774700I0J66314D01*
G03X510336Y-708427I-66314J0D01*
G01X-643767Y445676D01*
G03X-637286Y469900I-42033J24224D01*
G01Y550455D01*
G03X-622986Y579087I-21514J28632D01*
G01Y658096D01*
G03X-626280Y673100I-35814J0D01*
G03X-622986Y688104I-32520J15004D01*
G01Y767113D01*
G03X-641780Y798624I-35814J0D01*
G03X-622986Y830136I-17020J31511D01*
G01Y886701D01*
G03X-626278Y901700I-35814J0D01*
G03X-622986Y916699I-32522J14999D01*
G01Y973264D01*
G01Y973265D01*
G03X-637286Y1001897I-35814J0D01*
G01Y1021305D01*
G01X-632664Y1025927D01*
G03X-568686Y1092200I-2336J66273D01*
G03X-635000Y1158514I-66314J0D01*
G03X-685800Y1134825I0J-66314D01*
G03X-736600Y1158514I-50800J-42625D01*
G03X-802873Y1094536I0J-66314D01*
G01X-864986Y1032423D01*
G03X-878223Y1007784I34305J-34305D01*
G03X-893496Y978446I20541J-29338D01*
G01Y921880D01*
G03X-892138Y912114I35814J0D01*
G01X-914400D01*
G03X-948705Y897905I0J-48514D01*
G01X-1024905Y821705D01*
G03X-1039114Y787400I34305J-34305D01*
G01Y568794D01*
G03X-1056914Y523584I48514J-45210D01*
G03X-1039114Y478374I66314J0D01*
G01Y457200D01*
G03X-1024905Y422895I48514J0D01*
G01X-938121Y336112D01*
G02X-1232186Y768000I170121J431888D01*
G02X-1202456Y931451I464186J0D01*
G03X-1130300Y892086I72156J46449D01*
G03X-1044486Y977900I0J85814D01*
G03X-1067127Y1035980I-85814J0D01*
G03X-1016000Y1019086I51127J68920D01*
G03X-930186Y1104900I0J85814D01*
G03X-978125Y1181903I-85814J0D01*
G02X-768000Y1232186I210125J-413903D01*
G02X-303814Y768000I0J-464186D01*
G02X-307997Y705826I-464186J0D01*
G01X-308218Y704207D01*
G01X-308220Y704196D01*
G03X-308551Y699337I35483J-4859D01*
G03X-290561Y668273I35814J0D01*
G01X333030Y33481D01*
G01X333138Y33371D01*
G01X333146Y33363D01*
G01X333254Y33254D01*
G03X500000Y-35814I166746J166746D01*
G01X613301D01*
G03X605877Y-41895I26881J-40386D01*
G01X554288Y-93485D01*
G01X531800D01*
G03X495986Y-129299I0J-35814D01*
G01Y-185864D01*
G03X499278Y-200863I35814J0D01*
G03X495986Y-215862I32522J-14999D01*
G01Y-218186D01*
G01X438910D01*
G03X393700Y-200386I-45210J-48514D01*
G03X327386Y-266700I0J-66314D01*
G03X393700Y-333014I66314J0D01*
G03X438910Y-315214I0J66314D01*
G01X536245D01*
G03X561303Y-308242I0J48514D01*
G01X585800D01*
G03X621614Y-272428I0J35814D01*
G01Y-215862D01*
G03X618322Y-200863I-35814J0D01*
G03X621614Y-185864I-32522J14999D01*
G01Y-163377D01*
G01X660277Y-124714D01*
G01X778104D01*
G01Y-125526D01*
G01X741619D01*
G03X729120Y-127778I0J-35814D01*
G03X716620Y-125526I-12499J-33562D01*
G01X676620D01*
G03X640806Y-161340I0J-35814D01*
G01Y-326340D01*
G03X676620Y-362154I35814J0D01*
G01X716620D01*
G03X729120Y-359902I0J35814D01*
G03X741619Y-362154I12499J33562D01*
G01X781619D01*
G03X794118Y-359902I0J35814D01*
G03X806618Y-362154I12499J33562D01*
G01X843102D01*
G01Y-421716D01*
G03X857312Y-456021I48514J0D01*
G01X1013227Y-611936D01*
G03X1079500Y-675914I66273J2336D01*
G03X1123950Y-658811I0J66314D01*
G03X1168400Y-675914I44450J49211D01*
G03X1234714Y-609600I0J66314D01*
G03X1185688Y-545579I-66314J0D01*
G01X1097604Y-457495D01*
G03X1143000Y-412813I-18104J63795D01*
G03X1206500Y-460014I63500J19113D01*
G03X1272814Y-393700I0J66314D01*
G03X1265123Y-362702I-66314J0D01*
G01Y-362154D01*
G01X1301608D01*
G03X1314107Y-359902I0J35814D01*
G03X1326606Y-362154I12499J33562D01*
G01X1366606D01*
G03X1379093Y-359907I0J35814D01*
G03X1391580Y-362154I12487J33567D01*
G01X1431580D01*
G03X1467394Y-326340I0J35814D01*
G01Y-225044D01*
G03X1524000Y-256814I56606J34544D01*
G03X1590314Y-190500I0J66314D01*
G03X1526336Y-124227I-66314J0D01*
G01X1482105Y-79995D01*
G03X1447800Y-65786I-34305J-34305D01*
G01X1371600D01*
G03X1348514Y-71631I0J-48514D01*
G03X1349014Y-63500I-65814J8131D01*
G03X1342958Y-35814I-66314J0D01*
G01X1500000D01*
G03X1666746Y33254I-0J235814D01*
G01X2298624Y665133D01*
G03X2309114Y690457I-25324J25324D01*
G01Y698500D01*
G03X2306170Y712719I-35814J0D01*
G02X2302206Y773158I458680J60439D01*
G02X2377186Y1025659I462645J0D01*
G01Y741174D01*
G01X2315195Y679184D01*
G03X2300986Y644879I34305J-34305D01*
G01Y553210D01*
G03X2283186Y508000I48514J-45210D01*
G03X2349500Y441686I66314J0D01*
G03X2353331Y441797I0J66314D01*
G03X2370226Y438760I16896J45477D01*
G01X2567166D01*
G03X2596718Y423177I29552J20231D01*
G01X2650719D01*
G03X2680271Y438760I0J35814D01*
G01X2820464D01*
G03X2853414Y416979I32950J14034D01*
G01X2907415D01*
G03X2943229Y452793I0J35814D01*
G01Y509359D01*
G03X2939937Y524358I-35814J0D01*
G03X2943229Y539356I-32522J14999D01*
G01Y595922D01*
G03X2907415Y631736I-35814J0D01*
G01X2853414D01*
G03X2826915Y620014I0J-35814D01*
G01X2788410D01*
G03X2743200Y637814I-45210J-48514D01*
G03X2686358Y605654I0J-66314D01*
G03X2650719Y637934I-35639J-3535D01*
G01X2596718D01*
G03X2567166Y622351I0J-35814D01*
G01X2506365D01*
G03X2463800Y637814I-42565J-50851D01*
G03X2398014Y579852I0J-66314D01*
G01Y624784D01*
G01X2445795Y672565D01*
G01X2556609D01*
G03X2584018Y659803I27409J23052D01*
G01X2638019D01*
G03X2673833Y695617I0J35814D01*
G01Y752183D01*
G03X2670541Y767182I-35814J0D01*
G03X2673833Y782180I-32522J14999D01*
G01Y838746D01*
G03X2659532Y867378I-35814J0D01*
G01Y1005933D01*
G03X2669814Y1041400I-56032J35467D01*
G03X2603500Y1107714I-66314J0D01*
G03X2537186Y1041400I0J-66314D01*
G03X2562504Y989276I66314J0D01*
G01Y867378D01*
G03X2548204Y838746I21514J-28632D01*
G01Y782180D01*
G03X2550489Y769593I35814J0D01*
G01X2474214D01*
G01Y1008605D01*
G01X2598195Y1132586D01*
G01X2778525D01*
G01X2778486Y1130300D01*
G03X2783051Y1106120I66314J0D01*
G03X2768600Y1107714I-14451J-64720D01*
G03X2702286Y1041400I0J-66314D01*
G03X2720086Y996190I66314J0D01*
G01Y936092D01*
G03X2734295Y901787I48514J0D01*
G01X2816377Y819705D01*
G01Y785995D01*
G03X2819672Y770992I35814J0D01*
G03X2816377Y755988I32520J-15004D01*
G01Y676979D01*
G03X2852191Y641165I35814J0D01*
G01X2906192D01*
G03X2942006Y676979I0J35814D01*
G01Y755988D01*
G03X2938711Y770992I-35814J0D01*
G03X2942006Y785995I-32520J15004D01*
G01Y865005D01*
G03X2906192Y900819I-35814J0D01*
G01X2872482D01*
G01X2817114Y956187D01*
G01Y996190D01*
G03X2834914Y1041400I-48514J45210D01*
G03X2830349Y1065580I-66314J0D01*
G03X2844800Y1063986I14451J64720D01*
G03X2889334Y1081165I0J66314D01*
G03X2971800Y1019086I82466J23735D01*
G03X3029880Y1041727I0J85814D01*
G03X3012986Y990600I68920J-51127D01*
G03X3098800Y904786I85814J0D01*
G03X3182577Y972015I0J85814D01*
G02X3227495Y773158I-417727J-198857D01*
G02X2764850Y310513I-462645J0D01*
G02X2717707Y312922I0J462645D01*
G03X2705100Y315214I-12607J-33522D01*
G01X2696557D01*
G03X2671233Y304724I0J-35814D01*
G01X2033254Y-333254D01*
G03X1964186Y-500000I166746J-166746D01*
G01Y-500132D01*
G01Y-814163D01*
G03X1905000Y-790486I-59186J-62137D01*
G03X1819186Y-876300I0J-85814D01*
G03X1881558Y-958850I85814J0D01*
G03X1822913Y-1016385I23442J-82550D01*
G03X1795813Y-1003986I-27100J-23414D01*
G01X1716804D01*
G03X1701800Y-1007280I0J-35814D01*
G03X1686796Y-1003986I-15004J-32520D01*
G01X1607787D01*
G03X1572514Y-1033598I0J-35814D01*
G01Y-656045D01*
G03X1586814Y-627413I-21514J28632D01*
G01Y-548404D01*
G03X1583520Y-533400I-35814J0D01*
G03X1586814Y-518396I-32520J15004D01*
G01Y-439387D01*
G03X1551000Y-403573I-35814J0D01*
G01X1497000D01*
G03X1461186Y-439387I0J-35814D01*
G01Y-518396D01*
G03X1464480Y-533400I35814J0D01*
G03X1461186Y-548404I32520J-15004D01*
G01Y-627413D01*
G03X1475486Y-656045I35814J0D01*
G01Y-1034005D01*
G01X1427705Y-1081786D01*
G01X1323803D01*
G01X1439893Y-965696D01*
G03X1467394Y-930860I-8313J34836D01*
G01Y-765860D01*
G03X1431580Y-730046I-35814J0D01*
G01X1391580D01*
G03X1379093Y-732293I0J-35814D01*
G03X1366606Y-730046I-12487J-33567D01*
G01X1326606D01*
G03X1314107Y-732298I0J-35814D01*
G03X1301608Y-730046I-12499J-33562D01*
G01X1261608D01*
G03X1249109Y-732298I0J-35814D01*
G03X1236609Y-730046I-12499J-33562D01*
G01X1196609D01*
G03X1184110Y-732298I0J-35814D01*
G03X1171611Y-730046I-12499J-33562D01*
G01X1131611D01*
G03X1119099Y-732302I0J-35814D01*
G03X1106587Y-730046I-12512J-33557D01*
G01X1066587D01*
G03X1054100Y-732293I0J-35814D01*
G03X1041613Y-730046I-12487J-33567D01*
G01X1001613D01*
G03X989114Y-732298I0J-35814D01*
G03X976615Y-730046I-12499J-33562D01*
G01X936615D01*
G03X924116Y-732298I0J-35814D01*
G03X911616Y-730046I-12499J-33562D01*
G01X874014D01*
G01Y-685800D01*
G03X859805Y-651495I-48514J0D01*
G01X847105Y-638795D01*
G03X812800Y-624586I-34305J-34305D01*
G01X716432D01*
G01Y-617118D01*
G03X702223Y-582814I-48514J0D01*
G01X690173Y-570764D01*
G03X698500Y-571314I8327J62764D01*
G03X761814Y-508000I0J63314D01*
G03X704038Y-444929I-63314J0D01*
G01X702223Y-443114D01*
G03X667918Y-428904I-34305J-34305D01*
G01X615353D01*
G03X585800Y-413321I-29552J-20231D01*
G01X531800D01*
G03X495986Y-449135I0J-35814D01*
G01Y-449136D01*
G01Y-505701D01*
G03X499278Y-520700I35814J0D01*
G03X495986Y-535699I32522J-14999D01*
G01Y-592264D01*
G03X531800Y-628078I35814J0D01*
G01X585800D01*
G03X604809Y-622618I0J35814D01*
G01X619404Y-637214D01*
G01Y-653005D01*
G01X600695Y-671714D01*
G03X586486Y-706018I34305J-34305D01*
G01Y-939800D01*
G03X600695Y-974105I48514J0D01*
G01X751586Y-1124995D01*
G01Y-1415400D01*
G03X765795Y-1449705I48514J0D01*
G01X836295Y-1520205D01*
G03X870600Y-1534414I34305J34305D01*
G01X945105D01*
G01X967486Y-1556795D01*
G01Y-1564480D01*
G01X960006D01*
G03X950000Y-1565906I0J-35814D01*
G03X939994Y-1564480I-10006J-34388D01*
G01X909994D01*
G37*
G36*
G01X-1035980Y-3035627D02*
G03X-1019086Y-2984500I-68920J51127D01*
G03X-1104900Y-2898686I-85814J0D01*
G03X-1188415Y-2964772I0J-85814D01*
G02X-1232186Y-2768000I420416J196772D01*
G02X-841594Y-2309685I464186J0D01*
G01X-974105Y-2442195D01*
G03X-988314Y-2476500I34305J-34305D01*
G01Y-2554103D01*
G03X-1002614Y-2582735I21514J-28632D01*
G01Y-2582736D01*
G01Y-2639301D01*
G03X-999322Y-2654300I35814J0D01*
G03X-1002614Y-2669299I32522J-14999D01*
G01Y-2725864D01*
G03X-983820Y-2757376I35814J0D01*
G03X-1002614Y-2788887I17020J-31511D01*
G01Y-2867896D01*
G03X-999320Y-2882900I35814J0D01*
G03X-1002614Y-2897904I32520J-15004D01*
G01Y-2976913D01*
G03X-969084Y-3012654I35814J0D01*
G01X-968203Y-3013536D01*
G03X-977900Y-3012986I-9697J-85264D01*
G03X-1035980Y-3035627I0J-85814D01*
G37*
G36*
G01X-1100779Y1091615D02*
G03X-1079173Y1046820I84779J13285D01*
G03X-1125895Y1063601I-51127J-68920D01*
G02X-1100779Y1091615I357895J-295601D01*
G37*
G36*
G01X-303814Y-2768000D02*
G02X-768000Y-3232186I-464186J0D01*
G02X-972985Y-3184473I0J464186D01*
G03X-892086Y-3098800I-4915J85673D01*
G03X-892636Y-3089103I-85814J0D01*
G01X-840897Y-3140842D01*
G03X-774700Y-3203214I66197J3942D01*
G03X-708386Y-3136900I0J66314D01*
G03X-773930Y-3070590I-66314J0D01*
G01X-876986Y-2967534D01*
G01Y-2897904D01*
G03X-880280Y-2882900I-35814J0D01*
G03X-876986Y-2867896I-32520J15004D01*
G01Y-2788887D01*
G03X-895780Y-2757376I-35814J0D01*
G03X-876986Y-2725864I-17020J31511D01*
G01Y-2715514D01*
G01X-748537D01*
G03X-734314Y-2741797I35737J2350D01*
G01Y-2757303D01*
G03X-748614Y-2785935I21514J-28632D01*
G01Y-2785936D01*
G01Y-2842501D01*
G03X-745322Y-2857500I35814J0D01*
G03X-748614Y-2872499I32522J-14999D01*
G01Y-2929064D01*
G03X-712800Y-2964878I35814J0D01*
G01X-658800D01*
G03X-639791Y-2959418I0J35814D01*
G01X-633576Y-2965633D01*
G03X-650514Y-3009900I49376J-44267D01*
G03X-584200Y-3076214I66314J0D01*
G03X-517886Y-3009900I0J66314D01*
G03X-535686Y-2964690I-66314J0D01*
G01Y-2946400D01*
G03X-549895Y-2912095I-48514J0D01*
G01X-595514Y-2866477D01*
G03X-624430Y-2852568I-34305J-34305D01*
G03X-622986Y-2842501I-34370J10067D01*
G01Y-2785936D01*
G01Y-2785935D01*
G03X-637286Y-2757303I-35814J0D01*
G01Y-2741797D01*
G03X-629247Y-2733396I-21514J28632D01*
G01X-622300D01*
G03X-587995Y-2719186I0J48514D01*
G01X-549895Y-2681086D01*
G03X-535686Y-2646782I-34305J34305D01*
G01Y-2586952D01*
G03X-549895Y-2552647I-48514J0D01*
G01X-685121Y-2417421D01*
G03X-693510Y-2410714I-34305J-34305D01*
G01X-590453D01*
G03X-556149Y-2396505I0J48514D01*
G01X-452092Y-2292448D01*
G03X-388115Y-2226175I-2336J66273D01*
G03X-395999Y-2194814I-66314J0D01*
G01X-326616D01*
G03X-280120Y-2213845I46496J47283D01*
G03X-213806Y-2147531I0J66314D01*
G03X-280120Y-2081217I-66314J0D01*
G03X-323972Y-2097786I0J-66314D01*
G01X-457200D01*
G03X-464911Y-2098403I0J-48514D01*
G01X-116363Y-1749854D01*
G03X-53136Y-1806173I65563J9954D01*
G01X118095Y-1977405D01*
G03X152400Y-1991614I34305J34305D01*
G01X183390D01*
G03X228600Y-2009414I45210J48514D01*
G03X294914Y-1943100I0J66314D01*
G03X228600Y-1876786I-66314J0D01*
G03X183390Y-1894586I0J-66314D01*
G01X172495D01*
G01X43209Y-1765300D01*
G01X85105Y-1723405D01*
G03X99314Y-1689100I-34305J34305D01*
G01Y-1609658D01*
G03X127000Y-1615714I27686J60258D01*
G03X172210Y-1597914I0J66314D01*
G01X256310D01*
G01Y-1600886D01*
G01X185387D01*
G03X149573Y-1636700I0J-35814D01*
G01Y-1690700D01*
G03X185387Y-1726514I35814J0D01*
G01X264396D01*
G03X279400Y-1723220I0J35814D01*
G03X294404Y-1726514I15004J32520D01*
G01X373413D01*
G03X409227Y-1690700I0J35814D01*
G01Y-1636700D01*
G03X397952Y-1610614I-35814J0D01*
G01X438023D01*
G03X472328Y-1596405I0J48514D01*
G01X490418Y-1578314D01*
G01X569973D01*
G03X602535Y-1557414I0J35814D01*
G01X625205D01*
G01X695727Y-1627936D01*
G03X762000Y-1691914I66273J2336D01*
G03X807210Y-1674114I0J66314D01*
G01X874180D01*
G01Y-1680294D01*
G03X909994Y-1716108I35814J0D01*
G01X939994D01*
G03X950000Y-1714682I0J35814D01*
G03X960006Y-1716108I10006J34388D01*
G01X990006D01*
G03X1000000Y-1714685I0J35814D01*
G03X1009994Y-1716108I9994J34391D01*
G01X1039994D01*
G03X1050000Y-1714682I0J35814D01*
G03X1060006Y-1716108I10006J34388D01*
G01X1090006D01*
G03X1125820Y-1680294I0J35814D01*
G01Y-1658089D01*
G01X1154450Y-1629459D01*
G01X1464295Y-1939305D01*
G03X1498600Y-1953514I34305J34305D01*
G01X1605505D01*
G01X2326386Y-2674395D01*
G01Y-2895600D01*
G03X2340595Y-2929905I48514J0D01*
G01X2480295Y-3069605D01*
G03X2514600Y-3083814I34305J34305D01*
G01X2577997D01*
G03X2603500Y-3088914I25503J61214D01*
G03X2614993Y-3087911I0J66314D01*
G03X2679700Y-3139714I64707J14511D01*
G03X2724910Y-3121914I0J66314D01*
G01X2761082D01*
G03X2795386Y-3107705I0J48514D01*
G01X2887412Y-3015678D01*
G01X2909900D01*
G03X2945714Y-2979864I0J35814D01*
G01Y-2923299D01*
G03X2944357Y-2913532I-35814J0D01*
G01X3053182D01*
G03X3065812Y-2911859I0J48514D01*
G03X3025686Y-2984500I45688J-72641D01*
G03X3048327Y-3042580I85814J0D01*
G03X2997200Y-3025686I-51127J-68920D01*
G03X2911386Y-3111500I0J-85814D01*
G03X2961933Y-3189732I85814J0D01*
G02X2768000Y-3232185I-193933J421732D01*
G02X2303814Y-2768000I0J464186D01*
G02X2309390Y-2696267I464186J0D01*
G01X2309399Y-2696211D01*
G01X2309423Y-2696059D01*
G01Y-2696058D01*
G03X2309853Y-2690524I-35384J5534D01*
G03X2294915Y-2661423I-35814J0D01*
G01X1666746Y-2033254D01*
G03X1500000Y-1964186I-166746J-166746D01*
G01X1499868D01*
G01X1206616D01*
G03X1230820Y-1930306I-11610J33880D01*
G01Y-1850306D01*
G03X1195006Y-1814492I-35814J0D01*
G01X1155006D01*
G03X1119192Y-1850306I0J-35814D01*
G01Y-1930306D01*
G03X1143396Y-1964186I35814J0D01*
G01X856604D01*
G03X880808Y-1930306I-11610J33880D01*
G01Y-1850306D01*
G03X844994Y-1814492I-35814J0D01*
G01X804994D01*
G03X769180Y-1850306I0J-35814D01*
G01Y-1930306D01*
G03X793384Y-1964186I35814J0D01*
G01X500132D01*
G01X500000D01*
G03X333254Y-2033254I0J-235814D01*
G01X-298467Y-2664975D01*
G03X-303958Y-2672051I25324J-25324D01*
G01X-303965Y-2672062D01*
G01X-304703Y-2673308D01*
G03X-309694Y-2691546I30823J-18237D01*
G03X-309300Y-2696845I35814J0D01*
G01X-308572Y-2701705D01*
G02X-303814Y-2768000I-459427J-66294D01*
G37*
G36*
G01X-777514Y444500D02*
G03X-771458Y416814I66314J0D01*
G01X-811002D01*
G03X-797286Y457200I-52598J40386D01*
G03X-815086Y502410I-66314J0D01*
G01Y578422D01*
G01X-798500D01*
G03X-762686Y614236I0J35814D01*
G01Y670801D01*
G03X-765978Y685800I-35814J0D01*
G03X-762686Y700799I-32522J14999D01*
G01Y757364D01*
G01Y757365D01*
G03X-776986Y785997I-35814J0D01*
G01Y809904D01*
G01X-742353D01*
G03X-729820Y798624I29552J20231D01*
G03X-748614Y767113I17020J-31511D01*
G01Y688104D01*
G03X-745320Y673100I35814J0D01*
G03X-748614Y658096I32520J-15004D01*
G01Y579087D01*
G03X-734314Y550455I35814J0D01*
G01Y506655D01*
G03X-777514Y444500I23114J-62155D01*
G37*
G36*
G01X1119886Y-1178277D02*
G01X1111790Y-1170180D01*
G03X1077485Y-1155971I-34305J-34305D01*
G01X1059480D01*
G01X870154Y-966645D01*
G01X871616Y-966674D01*
G01X911616D01*
G03X924116Y-964422I0J35814D01*
G03X936615Y-966674I12499J33562D01*
G01X976615D01*
G03X989114Y-964422I0J35814D01*
G03X1001613Y-966674I12499J33562D01*
G01X1017127D01*
G03X1008347Y-998842I54534J-32167D01*
G03X1071661Y-1062156I63314J0D01*
G03X1134975Y-998842I0J63314D01*
G03X1125924Y-966220I-63314J0D01*
G03X1131611Y-966674I5686J35360D01*
G01X1171611D01*
G03X1184110Y-964422I0J35814D01*
G03X1196609Y-966674I12499J33562D01*
G01X1236609D01*
G01X1238045Y-966646D01*
G01X1134095Y-1070595D01*
G03X1119886Y-1104900I34305J-34305D01*
G01Y-1178277D01*
G37*
G36*
G01X1375413Y-1487999D02*
G01X1375413Y-1551686D01*
G01X1328195D01*
G01X1293114Y-1516605D01*
G01Y-1278352D01*
G03X1356564Y-1336273I65786J8352D01*
G01X1375400Y-1355109D01*
G01Y-1404615D01*
G03X1411214Y-1440429I35814J0D01*
G01X1557273D01*
G01X1559061Y-1443266D01*
G01X1559992Y-1444668D01*
G01X1562542Y-1448320D01*
G01X1563535Y-1449674D01*
G01X1565470Y-1452185D01*
G01X1411227D01*
G03X1375413Y-1487999I0J-35814D01*
G37*
G36*
G01X1358900Y-1203686D02*
G03X1293114Y-1261648I0J-66314D01*
G01Y-1188495D01*
G01X1302795Y-1178814D01*
G01X1376611D01*
G03X1375413Y-1188000I34616J-9186D01*
G01Y-1205775D01*
G03X1358900Y-1203686I-16513J-64225D01*
G37*
G36*
G01X2603500Y-2956286D02*
G03X2547689Y-2986786I0J-66314D01*
G01X2534695D01*
G01X2423414Y-2875505D01*
G01Y-2654300D01*
G03X2409205Y-2619995I-48514J0D01*
G01X2359735Y-2570526D01*
G03X2390414Y-2514600I-35635J55926D01*
G03X2326436Y-2448327I-66314J0D01*
G01X1710705Y-1832595D01*
G03X1676400Y-1818386I-34305J-34305D01*
G01X1544095D01*
G01X1374423Y-1648714D01*
G01X1571980D01*
G01X1571973Y-1649400D01*
G01Y-1703400D01*
G03X1607787Y-1739214I35814J0D01*
G01X1686796D01*
G03X1701800Y-1735920I0J35814D01*
G03X1716804Y-1739214I15004J32520D01*
G01X1750513D01*
G01X1810904Y-1799605D01*
G03X1845208Y-1813814I34305J34305D01*
G01X1859790D01*
G03X1905000Y-1831614I45210J48514D01*
G03X1971314Y-1765300I0J66314D01*
G03X1905000Y-1698986I-66314J0D01*
G03X1862725Y-1714208I0J-66314D01*
G01X1831627Y-1683109D01*
G01Y-1649400D01*
G03X1795813Y-1613586I-35814J0D01*
G01X1762103D01*
G01X1714413Y-1565895D01*
G03X1680108Y-1551686I-34305J-34305D01*
G01X1604541D01*
G01Y-1487999D01*
G01X1604466Y-1485684D01*
G01X1604712Y-1485817D01*
G01X1608636Y-1487923D01*
G01X1610152Y-1488690D01*
G01X1614173Y-1490608D01*
G01X1615682Y-1491286D01*
G01X1619787Y-1493016D01*
G01X1621357Y-1493634D01*
G01X1625538Y-1495168D01*
G01X1627134Y-1495712D01*
G01X1631383Y-1497048D01*
G01X1631384D01*
G01X1632993Y-1497513D01*
G01X1637298Y-1498648D01*
G01X1638917Y-1499035D01*
G01X1643273Y-1499970D01*
G01X1644945Y-1500287D01*
G01X1649339Y-1501013D01*
G01X1650995Y-1501248D01*
G01X1655420Y-1501768D01*
G01X1657093Y-1501926D01*
G01X1661535Y-1502238D01*
G01X1661536D01*
G01X1663190Y-1502316D01*
G01X1667643Y-1502423D01*
G01X1668501Y-1502433D01*
G01X1853921D01*
G01X1854778Y-1502423D01*
G01X1859231Y-1502316D01*
G01X1860886Y-1502238D01*
G01X1865328Y-1501926D01*
G01X1867001Y-1501768D01*
G01X1871426Y-1501248D01*
G01X1873082Y-1501013D01*
G01X1877476Y-1500287D01*
G01X1879148Y-1499970D01*
G01X1883504Y-1499035D01*
G01X1885123Y-1498648D01*
G01X1889428Y-1497513D01*
G01X1891038Y-1497048D01*
G01X1895287Y-1495712D01*
G01X1896883Y-1495168D01*
G01X1901064Y-1493634D01*
G01X1902634Y-1493016D01*
G01X1906739Y-1491286D01*
G01X1908248Y-1490608D01*
G01X1912269Y-1488690D01*
G01X1913785Y-1487923D01*
G01X1917709Y-1485817D01*
G01X1919172Y-1484987D01*
G01X1922995Y-1482699D01*
G01X1924408Y-1481807D01*
G01X1928119Y-1479344D01*
G01X1929490Y-1478387D01*
G01X1933081Y-1475753D01*
G01X1934418Y-1474723D01*
G01X1937880Y-1471924D01*
G01X1939164Y-1470835D01*
G01X1942494Y-1467873D01*
G01X1943719Y-1466731D01*
G01X1943720D01*
G01X1946905Y-1463620D01*
G01X1948075Y-1462421D01*
G01X1951113Y-1459162D01*
G01X1952229Y-1457908D01*
G01X1955109Y-1454512D01*
G01X1956168Y-1453202D01*
G01X1958886Y-1449674D01*
G01X1959879Y-1448320D01*
G01X1962429Y-1444668D01*
G01X1963360Y-1443266D01*
G01X1964186Y-1441955D01*
G01Y-1499868D01*
G01Y-1500000D01*
G03X2033254Y-1666746I235814J0D01*
G01X2657441Y-2290933D01*
G03X2689137Y-2310073I31696J16674D01*
G03X2694732Y-2309633I0J35814D01*
G01X2696095Y-2309417D01*
G02X2768000Y-2303814I71905J-458583D01*
G02X3232185Y-2768000I0J-464186D01*
G02X3192429Y-2955959I-464186J0D01*
G03X3111500Y-2898686I-80929J-28541D01*
G03X3082339Y-2903793I0J-85814D01*
G03X3087486Y-2899323I-29158J38774D01*
G01X3145805Y-2841005D01*
G03X3160014Y-2806700I-34305J34305D01*
G01Y-2590800D01*
G03X3145805Y-2556495I-48514J0D01*
G01X2997721Y-2408412D01*
G03X2933700Y-2359386I-64021J-17288D01*
G03X2888490Y-2377186I0J-66314D01*
G01X2768600D01*
G03X2734295Y-2391395I0J-48514D01*
G01X2690064Y-2435627D01*
G03X2626086Y-2501900I2336J-66273D01*
G03X2643886Y-2547110I66314J0D01*
G01Y-2592203D01*
G03X2629586Y-2620835I21514J-28632D01*
G01Y-2620836D01*
G01Y-2677401D01*
G03X2632878Y-2692400I35814J0D01*
G03X2629586Y-2707399I32522J-14999D01*
G01Y-2729887D01*
G01X2625518Y-2733954D01*
G01X2612149D01*
G03X2566939Y-2716154I-45210J-48514D01*
G03X2500625Y-2782468I0J-66314D01*
G03X2566939Y-2848782I66314J0D01*
G03X2612149Y-2830982I0J66314D01*
G01X2630051D01*
G03X2629586Y-2836735I35349J-5753D01*
G01Y-2836736D01*
G01Y-2893301D01*
G03X2632878Y-2908300I35814J0D01*
G03X2629586Y-2923299I32522J-14999D01*
G01Y-2945787D01*
G01X2617575Y-2957797D01*
G03X2603500Y-2956286I-14075J-64803D01*
G37*
G36*
G01X1964186Y-1103537D02*
G01X1964186Y-1301280D01*
G01X1963360Y-1299970D01*
G01X1962429Y-1298568D01*
G01X1959879Y-1294915D01*
G01X1958886Y-1293562D01*
G01X1956168Y-1290034D01*
G01X1955109Y-1288724D01*
G01X1952229Y-1285328D01*
G01X1951113Y-1284073D01*
G01X1948075Y-1280814D01*
G01X1946905Y-1279616D01*
G01X1943720Y-1276505D01*
G01X1943719D01*
G01X1942494Y-1275362D01*
G01X1939164Y-1272401D01*
G01X1937880Y-1271312D01*
G01X1934418Y-1268513D01*
G01X1933081Y-1267483D01*
G01X1929490Y-1264849D01*
G01X1928119Y-1263892D01*
G01X1924408Y-1261428D01*
G01X1922995Y-1260537D01*
G01X1919172Y-1258248D01*
G01X1917709Y-1257418D01*
G01X1913785Y-1255313D01*
G01X1912269Y-1254545D01*
G01X1908248Y-1252627D01*
G01X1906739Y-1251950D01*
G01X1902634Y-1250220D01*
G01X1901064Y-1249601D01*
G01X1896883Y-1248067D01*
G01X1895287Y-1247524D01*
G01X1891038Y-1246188D01*
G01X1889428Y-1245723D01*
G01X1885123Y-1244588D01*
G01X1883504Y-1244201D01*
G01X1879148Y-1243266D01*
G01X1877476Y-1242949D01*
G01X1873082Y-1242222D01*
G01X1871426Y-1241988D01*
G01X1867001Y-1241467D01*
G01X1865328Y-1241310D01*
G01X1860886Y-1240998D01*
G01X1859231Y-1240920D01*
G01X1854778Y-1240813D01*
G01X1853921Y-1240803D01*
G01X1699022D01*
G01X1695806Y-1237586D01*
G01Y-1128462D01*
G03X1701800Y-1126320I-9009J34662D01*
G03X1716804Y-1129614I15004J32520D01*
G01X1795813D01*
G03X1831627Y-1093800I0J35814D01*
G01Y-1085902D01*
G03X1905000Y-1127214I73373J44502D01*
G03X1964186Y-1103537I0J85814D01*
G37*
G36*
G01X2401256Y549459D02*
G03X2398014Y553210I-51756J-41459D01*
G01Y563148D01*
G03X2401256Y549459I65786J8352D01*
G37*
G36*
G01X2748953Y-2816504D02*
G03X2719400Y-2800921I-29552J-20231D01*
G01X2695769D01*
G01X2696912Y-2799778D01*
G01X2719400D01*
G03X2755214Y-2763964I0J35814D01*
G01Y-2707399D01*
G03X2751922Y-2692400I-35814J0D01*
G03X2755214Y-2677401I-32522J14999D01*
G01Y-2620836D01*
G01Y-2620835D01*
G03X2740914Y-2592203I-35814J0D01*
G01Y-2547110D01*
G03X2758673Y-2504236I-48514J45210D01*
G01X2788695Y-2474214D01*
G01X2804902D01*
G03X2791186Y-2514600I52598J-40386D01*
G03X2829165Y-2574556I66314J0D01*
G03X2820086Y-2598387I26734J-23831D01*
G01Y-2677396D01*
G03X2823380Y-2692400I35814J0D01*
G03X2820086Y-2707404I32520J-15004D01*
G01Y-2786413D01*
G03X2830413Y-2811574I35814J0D01*
G03X2826347Y-2816504I25486J-25161D01*
G01X2748953D01*
G37*
G36*
G01X3062986Y-2786605D02*
G01X3033086Y-2816504D01*
G01X2939453D01*
G03X2935387Y-2811574I-29552J-20231D01*
G03X2945714Y-2786413I-25486J25161D01*
G01Y-2707404D01*
G03X2942420Y-2692400I-35814J0D01*
G03X2945714Y-2677396I-32520J15004D01*
G01Y-2598387D01*
G03X2931414Y-2569755I-35814J0D01*
G01Y-2540000D01*
G03X2923811Y-2513925I-48514J0D01*
G03X2919249Y-2490420I-66311J-675D01*
G03X2933700Y-2492014I14451J64720D01*
G03X2943393Y-2491302I0J66314D01*
G01X3062986Y-2610895D01*
G01Y-2786605D01*
G37*
G36*
G01X3040720Y1053773D02*
G03X3057614Y1104900I-68920J51127D01*
G03X3051736Y1136114I-85814J0D01*
G02X3115695Y1074734I-286886J-362956D01*
G03X3098800Y1076414I-16895J-84134D01*
G03X3040720Y1053773I0J-85814D01*
G37*
G36*
G01X3120662Y-3069823D02*
G02X3082976Y-3108966I-352662J301824D01*
G03X3060373Y-3053420I-85776J-2534D01*
G03X3111500Y-3070314I51127J68920D01*
G03X3120662Y-3069823I0J85814D01*
G37*
G54D8191*
G01X909994Y-1564480D02*
G03X882717Y-1577086I0J-35814D01*
G01X807210D01*
G03X764336Y-1559327I-45210J-48514D01*
G01X679604Y-1474595D01*
G03X645300Y-1460386I-34305J-34305D01*
G01X602535D01*
G03X569973Y-1439485I-32561J-14914D01*
G01X415703D01*
G01X417665Y-1436938D01*
G01X418658Y-1435585D01*
G01X421208Y-1431932D01*
G01X422139Y-1430530D01*
G01X423924Y-1427698D01*
G01X569986D01*
G03X605800Y-1391884I0J35814D01*
G01Y-1325885D01*
G03X569986Y-1290071I-35814J0D01*
G01X423927D01*
G01X422139Y-1287234D01*
G01X421208Y-1285832D01*
G01X418658Y-1282180D01*
G01X417665Y-1280826D01*
G01X415730Y-1278315D01*
G01X569973D01*
G03X605787Y-1242501I0J35814D01*
G01Y-1175300D01*
G03X569973Y-1139486I-35814J0D01*
G01X412473D01*
G03X376659Y-1175300I0J-35814D01*
G01Y-1242501D01*
G01X376734Y-1244816D01*
G01X376488Y-1244683D01*
G01X372564Y-1242577D01*
G01X371048Y-1241810D01*
G01X367027Y-1239892D01*
G01X365518Y-1239214D01*
G01X361413Y-1237484D01*
G01X359843Y-1236866D01*
G01X355662Y-1235332D01*
G01X354066Y-1234788D01*
G01X349816Y-1233452D01*
G01X348207Y-1232987D01*
G01X343902Y-1231852D01*
G01X342283Y-1231465D01*
G01X337927Y-1230530D01*
G01X336255Y-1230213D01*
G01X331861Y-1229487D01*
G01X330205Y-1229252D01*
G01X325780Y-1228732D01*
G01X324107Y-1228574D01*
G01X319664Y-1228262D01*
G01X318010Y-1228184D01*
G01X313557Y-1228077D01*
G01X312699Y-1228067D01*
G01X273406D01*
G01Y-1115762D01*
G03X279400Y-1113620I-9009J34662D01*
G03X294404Y-1116914I15004J32520D01*
G01X373413D01*
G03X409227Y-1081100I0J35814D01*
G01Y-1027100D01*
G03X373413Y-991286I-35814J0D01*
G01X356315D01*
G01X371987Y-975614D01*
G01X462790D01*
G03X508000Y-993414I45210J48514D01*
G03X574314Y-927100I0J66314D01*
G03X508000Y-860786I-66314J0D01*
G03X462790Y-878586I0J-66314D01*
G01X351892D01*
G03X317587Y-892795I0J-48514D01*
G01X273406Y-936977D01*
G01Y-608715D01*
G01X441727Y-777036D01*
G03X508000Y-841014I66273J2336D01*
G03X574314Y-774700I0J66314D01*
G03X510336Y-708427I-66314J0D01*
G01X-643767Y445676D01*
G03X-637286Y469900I-42033J24224D01*
G01Y550455D01*
G03X-622986Y579087I-21514J28632D01*
G01Y658096D01*
G03X-626280Y673100I-35814J0D01*
G03X-622986Y688104I-32520J15004D01*
G01Y767113D01*
G03X-641780Y798624I-35814J0D01*
G03X-622986Y830136I-17020J31511D01*
G01Y886701D01*
G03X-626278Y901700I-35814J0D01*
G03X-622986Y916699I-32522J14999D01*
G01Y973264D01*
G01Y973265D01*
G03X-637286Y1001897I-35814J0D01*
G01Y1021305D01*
G01X-632664Y1025927D01*
G03X-568686Y1092200I-2336J66273D01*
G03X-635000Y1158514I-66314J0D01*
G03X-685800Y1134825I0J-66314D01*
G03X-736600Y1158514I-50800J-42625D01*
G03X-802873Y1094536I0J-66314D01*
G01X-864986Y1032423D01*
G03X-878223Y1007784I34305J-34305D01*
G03X-893496Y978446I20541J-29338D01*
G01Y921880D01*
G03X-892138Y912114I35814J0D01*
G01X-914400D01*
G03X-948705Y897905I0J-48514D01*
G01X-1024905Y821705D01*
G03X-1039114Y787400I34305J-34305D01*
G01Y568794D01*
G03X-1056914Y523584I48514J-45210D01*
G03X-1039114Y478374I66314J0D01*
G01Y457200D01*
G03X-1024905Y422895I48514J0D01*
G01X-938121Y336112D01*
G02X-1232186Y768000I170121J431888D01*
G02X-1202456Y931451I464186J0D01*
G03X-1130300Y892086I72156J46449D01*
G03X-1044486Y977900I0J85814D01*
G03X-1067127Y1035980I-85814J0D01*
G03X-1016000Y1019086I51127J68920D01*
G03X-930186Y1104900I0J85814D01*
G03X-978125Y1181903I-85814J0D01*
G02X-768000Y1232186I210125J-413903D01*
G02X-303814Y768000I0J-464186D01*
G02X-307997Y705826I-464186J0D01*
G01X-308218Y704207D01*
G01X-308220Y704196D01*
G03X-308551Y699337I35483J-4859D01*
G03X-290561Y668273I35814J0D01*
G01X333030Y33481D01*
G01X333138Y33371D01*
G01X333146Y33363D01*
G01X333254Y33254D01*
G03X500000Y-35814I166746J166746D01*
G01X613301D01*
G03X605877Y-41895I26881J-40386D01*
G01X554288Y-93485D01*
G01X531800D01*
G03X495986Y-129299I0J-35814D01*
G01Y-185864D01*
G03X499278Y-200863I35814J0D01*
G03X495986Y-215862I32522J-14999D01*
G01Y-218186D01*
G01X438910D01*
G03X393700Y-200386I-45210J-48514D01*
G03X327386Y-266700I0J-66314D01*
G03X393700Y-333014I66314J0D01*
G03X438910Y-315214I0J66314D01*
G01X536245D01*
G03X561303Y-308242I0J48514D01*
G01X585800D01*
G03X621614Y-272428I0J35814D01*
G01Y-215862D01*
G03X618322Y-200863I-35814J0D01*
G03X621614Y-185864I-32522J14999D01*
G01Y-163377D01*
G01X660277Y-124714D01*
G01X778104D01*
G01Y-125526D01*
G01X741619D01*
G03X729120Y-127778I0J-35814D01*
G03X716620Y-125526I-12499J-33562D01*
G01X676620D01*
G03X640806Y-161340I0J-35814D01*
G01Y-326340D01*
G03X676620Y-362154I35814J0D01*
G01X716620D01*
G03X729120Y-359902I0J35814D01*
G03X741619Y-362154I12499J33562D01*
G01X781619D01*
G03X794118Y-359902I0J35814D01*
G03X806618Y-362154I12499J33562D01*
G01X843102D01*
G01Y-421716D01*
G03X857312Y-456021I48514J0D01*
G01X1013227Y-611936D01*
G03X1079500Y-675914I66273J2336D01*
G03X1123950Y-658811I0J66314D01*
G03X1168400Y-675914I44450J49211D01*
G03X1234714Y-609600I0J66314D01*
G03X1185688Y-545579I-66314J0D01*
G01X1097604Y-457495D01*
G03X1143000Y-412813I-18104J63795D01*
G03X1206500Y-460014I63500J19113D01*
G03X1272814Y-393700I0J66314D01*
G03X1265123Y-362702I-66314J0D01*
G01Y-362154D01*
G01X1301608D01*
G03X1314107Y-359902I0J35814D01*
G03X1326606Y-362154I12499J33562D01*
G01X1366606D01*
G03X1379093Y-359907I0J35814D01*
G03X1391580Y-362154I12487J33567D01*
G01X1431580D01*
G03X1467394Y-326340I0J35814D01*
G01Y-225044D01*
G03X1524000Y-256814I56606J34544D01*
G03X1590314Y-190500I0J66314D01*
G03X1526336Y-124227I-66314J0D01*
G01X1482105Y-79995D01*
G03X1447800Y-65786I-34305J-34305D01*
G01X1371600D01*
G03X1348514Y-71631I0J-48514D01*
G03X1349014Y-63500I-65814J8131D01*
G03X1342958Y-35814I-66314J0D01*
G01X1500000D01*
G03X1666746Y33254I-0J235814D01*
G01X2298624Y665133D01*
G03X2309114Y690457I-25324J25324D01*
G01Y698500D01*
G03X2306170Y712719I-35814J0D01*
G02X2302206Y773158I458680J60439D01*
G02X2377186Y1025659I462645J0D01*
G01Y741174D01*
G01X2315195Y679184D01*
G03X2300986Y644879I34305J-34305D01*
G01Y553210D01*
G03X2283186Y508000I48514J-45210D01*
G03X2349500Y441686I66314J0D01*
G03X2353331Y441797I0J66314D01*
G03X2370226Y438760I16896J45477D01*
G01X2567166D01*
G03X2596718Y423177I29552J20231D01*
G01X2650719D01*
G03X2680271Y438760I0J35814D01*
G01X2820464D01*
G03X2853414Y416979I32950J14034D01*
G01X2907415D01*
G03X2943229Y452793I0J35814D01*
G01Y509359D01*
G03X2939937Y524358I-35814J0D01*
G03X2943229Y539356I-32522J14999D01*
G01Y595922D01*
G03X2907415Y631736I-35814J0D01*
G01X2853414D01*
G03X2826915Y620014I0J-35814D01*
G01X2788410D01*
G03X2743200Y637814I-45210J-48514D01*
G03X2686358Y605654I0J-66314D01*
G03X2650719Y637934I-35639J-3535D01*
G01X2596718D01*
G03X2567166Y622351I0J-35814D01*
G01X2506365D01*
G03X2463800Y637814I-42565J-50851D01*
G03X2398014Y579852I0J-66314D01*
G01Y624784D01*
G01X2445795Y672565D01*
G01X2556609D01*
G03X2584018Y659803I27409J23052D01*
G01X2638019D01*
G03X2673833Y695617I0J35814D01*
G01Y752183D01*
G03X2670541Y767182I-35814J0D01*
G03X2673833Y782180I-32522J14999D01*
G01Y838746D01*
G03X2659532Y867378I-35814J0D01*
G01Y1005933D01*
G03X2669814Y1041400I-56032J35467D01*
G03X2603500Y1107714I-66314J0D01*
G03X2537186Y1041400I0J-66314D01*
G03X2562504Y989276I66314J0D01*
G01Y867378D01*
G03X2548204Y838746I21514J-28632D01*
G01Y782180D01*
G03X2550489Y769593I35814J0D01*
G01X2474214D01*
G01Y1008605D01*
G01X2598195Y1132586D01*
G01X2778525D01*
G01X2778486Y1130300D01*
G03X2783051Y1106120I66314J0D01*
G03X2768600Y1107714I-14451J-64720D01*
G03X2702286Y1041400I0J-66314D01*
G03X2720086Y996190I66314J0D01*
G01Y936092D01*
G03X2734295Y901787I48514J0D01*
G01X2816377Y819705D01*
G01Y785995D01*
G03X2819672Y770992I35814J0D01*
G03X2816377Y755988I32520J-15004D01*
G01Y676979D01*
G03X2852191Y641165I35814J0D01*
G01X2906192D01*
G03X2942006Y676979I0J35814D01*
G01Y755988D01*
G03X2938711Y770992I-35814J0D01*
G03X2942006Y785995I-32520J15004D01*
G01Y865005D01*
G03X2906192Y900819I-35814J0D01*
G01X2872482D01*
G01X2817114Y956187D01*
G01Y996190D01*
G03X2834914Y1041400I-48514J45210D01*
G03X2830349Y1065580I-66314J0D01*
G03X2844800Y1063986I14451J64720D01*
G03X2889334Y1081165I0J66314D01*
G03X2971800Y1019086I82466J23735D01*
G03X3029880Y1041727I0J85814D01*
G03X3012986Y990600I68920J-51127D01*
G03X3098800Y904786I85814J0D01*
G03X3182577Y972015I0J85814D01*
G02X3227495Y773158I-417727J-198857D01*
G02X2764850Y310513I-462645J0D01*
G02X2717707Y312922I0J462645D01*
G03X2705100Y315214I-12607J-33522D01*
G01X2696557D01*
G03X2671233Y304724I0J-35814D01*
G01X2033254Y-333254D01*
G03X1964186Y-500000I166746J-166746D01*
G01Y-500132D01*
G01Y-814163D01*
G03X1905000Y-790486I-59186J-62137D01*
G03X1819186Y-876300I0J-85814D01*
G03X1881558Y-958850I85814J0D01*
G03X1822913Y-1016385I23442J-82550D01*
G03X1795813Y-1003986I-27100J-23414D01*
G01X1716804D01*
G03X1701800Y-1007280I0J-35814D01*
G03X1686796Y-1003986I-15004J-32520D01*
G01X1607787D01*
G03X1572514Y-1033598I0J-35814D01*
G01Y-656045D01*
G03X1586814Y-627413I-21514J28632D01*
G01Y-548404D01*
G03X1583520Y-533400I-35814J0D01*
G03X1586814Y-518396I-32520J15004D01*
G01Y-439387D01*
G03X1551000Y-403573I-35814J0D01*
G01X1497000D01*
G03X1461186Y-439387I0J-35814D01*
G01Y-518396D01*
G03X1464480Y-533400I35814J0D01*
G03X1461186Y-548404I32520J-15004D01*
G01Y-627413D01*
G03X1475486Y-656045I35814J0D01*
G01Y-1034005D01*
G01X1427705Y-1081786D01*
G01X1323803D01*
G01X1439893Y-965696D01*
G03X1467394Y-930860I-8313J34836D01*
G01Y-765860D01*
G03X1431580Y-730046I-35814J0D01*
G01X1391580D01*
G03X1379093Y-732293I0J-35814D01*
G03X1366606Y-730046I-12487J-33567D01*
G01X1326606D01*
G03X1314107Y-732298I0J-35814D01*
G03X1301608Y-730046I-12499J-33562D01*
G01X1261608D01*
G03X1249109Y-732298I0J-35814D01*
G03X1236609Y-730046I-12499J-33562D01*
G01X1196609D01*
G03X1184110Y-732298I0J-35814D01*
G03X1171611Y-730046I-12499J-33562D01*
G01X1131611D01*
G03X1119099Y-732302I0J-35814D01*
G03X1106587Y-730046I-12512J-33557D01*
G01X1066587D01*
G03X1054100Y-732293I0J-35814D01*
G03X1041613Y-730046I-12487J-33567D01*
G01X1001613D01*
G03X989114Y-732298I0J-35814D01*
G03X976615Y-730046I-12499J-33562D01*
G01X936615D01*
G03X924116Y-732298I0J-35814D01*
G03X911616Y-730046I-12499J-33562D01*
G01X874014D01*
G01Y-685800D01*
G03X859805Y-651495I-48514J0D01*
G01X847105Y-638795D01*
G03X812800Y-624586I-34305J-34305D01*
G01X716432D01*
G01Y-617118D01*
G03X702223Y-582814I-48514J0D01*
G01X690173Y-570764D01*
G03X698500Y-571314I8327J62764D01*
G03X761814Y-508000I0J63314D01*
G03X704038Y-444929I-63314J0D01*
G01X702223Y-443114D01*
G03X667918Y-428904I-34305J-34305D01*
G01X615353D01*
G03X585800Y-413321I-29552J-20231D01*
G01X531800D01*
G03X495986Y-449135I0J-35814D01*
G01Y-449136D01*
G01Y-505701D01*
G03X499278Y-520700I35814J0D01*
G03X495986Y-535699I32522J-14999D01*
G01Y-592264D01*
G03X531800Y-628078I35814J0D01*
G01X585800D01*
G03X604809Y-622618I0J35814D01*
G01X619404Y-637214D01*
G01Y-653005D01*
G01X600695Y-671714D01*
G03X586486Y-706018I34305J-34305D01*
G01Y-939800D01*
G03X600695Y-974105I48514J0D01*
G01X751586Y-1124995D01*
G01Y-1415400D01*
G03X765795Y-1449705I48514J0D01*
G01X836295Y-1520205D01*
G03X870600Y-1534414I34305J34305D01*
G01X945105D01*
G01X967486Y-1556795D01*
G01Y-1564480D01*
G01X960006D01*
G03X950000Y-1565906I0J-35814D01*
G03X939994Y-1564480I-10006J-34388D01*
G01X909994D01*
G01X-1035980Y-3035627D02*
G03X-1019086Y-2984500I-68920J51127D01*
G03X-1104900Y-2898686I-85814J0D01*
G03X-1188415Y-2964772I0J-85814D01*
G02X-1232186Y-2768000I420416J196772D01*
G02X-841594Y-2309685I464186J0D01*
G01X-974105Y-2442195D01*
G03X-988314Y-2476500I34305J-34305D01*
G01Y-2554103D01*
G03X-1002614Y-2582735I21514J-28632D01*
G01Y-2582736D01*
G01Y-2639301D01*
G03X-999322Y-2654300I35814J0D01*
G03X-1002614Y-2669299I32522J-14999D01*
G01Y-2725864D01*
G03X-983820Y-2757376I35814J0D01*
G03X-1002614Y-2788887I17020J-31511D01*
G01Y-2867896D01*
G03X-999320Y-2882900I35814J0D01*
G03X-1002614Y-2897904I32520J-15004D01*
G01Y-2976913D01*
G03X-969084Y-3012654I35814J0D01*
G01X-968203Y-3013536D01*
G03X-977900Y-3012986I-9697J-85264D01*
G03X-1035980Y-3035627I0J-85814D01*
G01X-1100779Y1091615D02*
G03X-1079173Y1046820I84779J13285D01*
G03X-1125895Y1063601I-51127J-68920D01*
G02X-1100779Y1091615I357895J-295601D01*
G01X-303814Y-2768000D02*
G02X-768000Y-3232186I-464186J0D01*
G02X-972985Y-3184473I0J464186D01*
G03X-892086Y-3098800I-4915J85673D01*
G03X-892636Y-3089103I-85814J0D01*
G01X-840897Y-3140842D01*
G03X-774700Y-3203214I66197J3942D01*
G03X-708386Y-3136900I0J66314D01*
G03X-773930Y-3070590I-66314J0D01*
G01X-876986Y-2967534D01*
G01Y-2897904D01*
G03X-880280Y-2882900I-35814J0D01*
G03X-876986Y-2867896I-32520J15004D01*
G01Y-2788887D01*
G03X-895780Y-2757376I-35814J0D01*
G03X-876986Y-2725864I-17020J31511D01*
G01Y-2715514D01*
G01X-748537D01*
G03X-734314Y-2741797I35737J2350D01*
G01Y-2757303D01*
G03X-748614Y-2785935I21514J-28632D01*
G01Y-2785936D01*
G01Y-2842501D01*
G03X-745322Y-2857500I35814J0D01*
G03X-748614Y-2872499I32522J-14999D01*
G01Y-2929064D01*
G03X-712800Y-2964878I35814J0D01*
G01X-658800D01*
G03X-639791Y-2959418I0J35814D01*
G01X-633576Y-2965633D01*
G03X-650514Y-3009900I49376J-44267D01*
G03X-584200Y-3076214I66314J0D01*
G03X-517886Y-3009900I0J66314D01*
G03X-535686Y-2964690I-66314J0D01*
G01Y-2946400D01*
G03X-549895Y-2912095I-48514J0D01*
G01X-595514Y-2866477D01*
G03X-624430Y-2852568I-34305J-34305D01*
G03X-622986Y-2842501I-34370J10067D01*
G01Y-2785936D01*
G01Y-2785935D01*
G03X-637286Y-2757303I-35814J0D01*
G01Y-2741797D01*
G03X-629247Y-2733396I-21514J28632D01*
G01X-622300D01*
G03X-587995Y-2719186I0J48514D01*
G01X-549895Y-2681086D01*
G03X-535686Y-2646782I-34305J34305D01*
G01Y-2586952D01*
G03X-549895Y-2552647I-48514J0D01*
G01X-685121Y-2417421D01*
G03X-693510Y-2410714I-34305J-34305D01*
G01X-590453D01*
G03X-556149Y-2396505I0J48514D01*
G01X-452092Y-2292448D01*
G03X-388115Y-2226175I-2336J66273D01*
G03X-395999Y-2194814I-66314J0D01*
G01X-326616D01*
G03X-280120Y-2213845I46496J47283D01*
G03X-213806Y-2147531I0J66314D01*
G03X-280120Y-2081217I-66314J0D01*
G03X-323972Y-2097786I0J-66314D01*
G01X-457200D01*
G03X-464911Y-2098403I0J-48514D01*
G01X-116363Y-1749854D01*
G03X-53136Y-1806173I65563J9954D01*
G01X118095Y-1977405D01*
G03X152400Y-1991614I34305J34305D01*
G01X183390D01*
G03X228600Y-2009414I45210J48514D01*
G03X294914Y-1943100I0J66314D01*
G03X228600Y-1876786I-66314J0D01*
G03X183390Y-1894586I0J-66314D01*
G01X172495D01*
G01X43209Y-1765300D01*
G01X85105Y-1723405D01*
G03X99314Y-1689100I-34305J34305D01*
G01Y-1609658D01*
G03X127000Y-1615714I27686J60258D01*
G03X172210Y-1597914I0J66314D01*
G01X256310D01*
G01Y-1600886D01*
G01X185387D01*
G03X149573Y-1636700I0J-35814D01*
G01Y-1690700D01*
G03X185387Y-1726514I35814J0D01*
G01X264396D01*
G03X279400Y-1723220I0J35814D01*
G03X294404Y-1726514I15004J32520D01*
G01X373413D01*
G03X409227Y-1690700I0J35814D01*
G01Y-1636700D01*
G03X397952Y-1610614I-35814J0D01*
G01X438023D01*
G03X472328Y-1596405I0J48514D01*
G01X490418Y-1578314D01*
G01X569973D01*
G03X602535Y-1557414I0J35814D01*
G01X625205D01*
G01X695727Y-1627936D01*
G03X762000Y-1691914I66273J2336D01*
G03X807210Y-1674114I0J66314D01*
G01X874180D01*
G01Y-1680294D01*
G03X909994Y-1716108I35814J0D01*
G01X939994D01*
G03X950000Y-1714682I0J35814D01*
G03X960006Y-1716108I10006J34388D01*
G01X990006D01*
G03X1000000Y-1714685I0J35814D01*
G03X1009994Y-1716108I9994J34391D01*
G01X1039994D01*
G03X1050000Y-1714682I0J35814D01*
G03X1060006Y-1716108I10006J34388D01*
G01X1090006D01*
G03X1125820Y-1680294I0J35814D01*
G01Y-1658089D01*
G01X1154450Y-1629459D01*
G01X1464295Y-1939305D01*
G03X1498600Y-1953514I34305J34305D01*
G01X1605505D01*
G01X2326386Y-2674395D01*
G01Y-2895600D01*
G03X2340595Y-2929905I48514J0D01*
G01X2480295Y-3069605D01*
G03X2514600Y-3083814I34305J34305D01*
G01X2577997D01*
G03X2603500Y-3088914I25503J61214D01*
G03X2614993Y-3087911I0J66314D01*
G03X2679700Y-3139714I64707J14511D01*
G03X2724910Y-3121914I0J66314D01*
G01X2761082D01*
G03X2795386Y-3107705I0J48514D01*
G01X2887412Y-3015678D01*
G01X2909900D01*
G03X2945714Y-2979864I0J35814D01*
G01Y-2923299D01*
G03X2944357Y-2913532I-35814J0D01*
G01X3053182D01*
G03X3065812Y-2911859I0J48514D01*
G03X3025686Y-2984500I45688J-72641D01*
G03X3048327Y-3042580I85814J0D01*
G03X2997200Y-3025686I-51127J-68920D01*
G03X2911386Y-3111500I0J-85814D01*
G03X2961933Y-3189732I85814J0D01*
G02X2768000Y-3232185I-193933J421732D01*
G02X2303814Y-2768000I0J464186D01*
G02X2309390Y-2696267I464186J0D01*
G01X2309399Y-2696211D01*
G01X2309423Y-2696059D01*
G01Y-2696058D01*
G03X2309853Y-2690524I-35384J5534D01*
G03X2294915Y-2661423I-35814J0D01*
G01X1666746Y-2033254D01*
G03X1500000Y-1964186I-166746J-166746D01*
G01X1499868D01*
G01X1206616D01*
G03X1230820Y-1930306I-11610J33880D01*
G01Y-1850306D01*
G03X1195006Y-1814492I-35814J0D01*
G01X1155006D01*
G03X1119192Y-1850306I0J-35814D01*
G01Y-1930306D01*
G03X1143396Y-1964186I35814J0D01*
G01X856604D01*
G03X880808Y-1930306I-11610J33880D01*
G01Y-1850306D01*
G03X844994Y-1814492I-35814J0D01*
G01X804994D01*
G03X769180Y-1850306I0J-35814D01*
G01Y-1930306D01*
G03X793384Y-1964186I35814J0D01*
G01X500132D01*
G01X500000D01*
G03X333254Y-2033254I0J-235814D01*
G01X-298467Y-2664975D01*
G03X-303958Y-2672051I25324J-25324D01*
G01X-303965Y-2672062D01*
G01X-304703Y-2673308D01*
G03X-309694Y-2691546I30823J-18237D01*
G03X-309300Y-2696845I35814J0D01*
G01X-308572Y-2701705D01*
G02X-303814Y-2768000I-459427J-66294D01*
G01X-777514Y444500D02*
G03X-771458Y416814I66314J0D01*
G01X-811002D01*
G03X-797286Y457200I-52598J40386D01*
G03X-815086Y502410I-66314J0D01*
G01Y578422D01*
G01X-798500D01*
G03X-762686Y614236I0J35814D01*
G01Y670801D01*
G03X-765978Y685800I-35814J0D01*
G03X-762686Y700799I-32522J14999D01*
G01Y757364D01*
G01Y757365D01*
G03X-776986Y785997I-35814J0D01*
G01Y809904D01*
G01X-742353D01*
G03X-729820Y798624I29552J20231D01*
G03X-748614Y767113I17020J-31511D01*
G01Y688104D01*
G03X-745320Y673100I35814J0D01*
G03X-748614Y658096I32520J-15004D01*
G01Y579087D01*
G03X-734314Y550455I35814J0D01*
G01Y506655D01*
G03X-777514Y444500I23114J-62155D01*
G01X1119886Y-1178277D02*
G01X1111790Y-1170180D01*
G03X1077485Y-1155971I-34305J-34305D01*
G01X1059480D01*
G01X870154Y-966645D01*
G01X871616Y-966674D01*
G01X911616D01*
G03X924116Y-964422I0J35814D01*
G03X936615Y-966674I12499J33562D01*
G01X976615D01*
G03X989114Y-964422I0J35814D01*
G03X1001613Y-966674I12499J33562D01*
G01X1017127D01*
G03X1008347Y-998842I54534J-32167D01*
G03X1071661Y-1062156I63314J0D01*
G03X1134975Y-998842I0J63314D01*
G03X1125924Y-966220I-63314J0D01*
G03X1131611Y-966674I5686J35360D01*
G01X1171611D01*
G03X1184110Y-964422I0J35814D01*
G03X1196609Y-966674I12499J33562D01*
G01X1236609D01*
G01X1238045Y-966646D01*
G01X1134095Y-1070595D01*
G03X1119886Y-1104900I34305J-34305D01*
G01Y-1178277D01*
G01X1375413Y-1487999D02*
G01X1375413Y-1551686D01*
G01X1328195D01*
G01X1293114Y-1516605D01*
G01Y-1278352D01*
G03X1356564Y-1336273I65786J8352D01*
G01X1375400Y-1355109D01*
G01Y-1404615D01*
G03X1411214Y-1440429I35814J0D01*
G01X1557273D01*
G01X1559061Y-1443266D01*
G01X1559992Y-1444668D01*
G01X1562542Y-1448320D01*
G01X1563535Y-1449674D01*
G01X1565470Y-1452185D01*
G01X1411227D01*
G03X1375413Y-1487999I0J-35814D01*
G01X1358900Y-1203686D02*
G03X1293114Y-1261648I0J-66314D01*
G01Y-1188495D01*
G01X1302795Y-1178814D01*
G01X1376611D01*
G03X1375413Y-1188000I34616J-9186D01*
G01Y-1205775D01*
G03X1358900Y-1203686I-16513J-64225D01*
G01X2603500Y-2956286D02*
G03X2547689Y-2986786I0J-66314D01*
G01X2534695D01*
G01X2423414Y-2875505D01*
G01Y-2654300D01*
G03X2409205Y-2619995I-48514J0D01*
G01X2359735Y-2570526D01*
G03X2390414Y-2514600I-35635J55926D01*
G03X2326436Y-2448327I-66314J0D01*
G01X1710705Y-1832595D01*
G03X1676400Y-1818386I-34305J-34305D01*
G01X1544095D01*
G01X1374423Y-1648714D01*
G01X1571980D01*
G01X1571973Y-1649400D01*
G01Y-1703400D01*
G03X1607787Y-1739214I35814J0D01*
G01X1686796D01*
G03X1701800Y-1735920I0J35814D01*
G03X1716804Y-1739214I15004J32520D01*
G01X1750513D01*
G01X1810904Y-1799605D01*
G03X1845208Y-1813814I34305J34305D01*
G01X1859790D01*
G03X1905000Y-1831614I45210J48514D01*
G03X1971314Y-1765300I0J66314D01*
G03X1905000Y-1698986I-66314J0D01*
G03X1862725Y-1714208I0J-66314D01*
G01X1831627Y-1683109D01*
G01Y-1649400D01*
G03X1795813Y-1613586I-35814J0D01*
G01X1762103D01*
G01X1714413Y-1565895D01*
G03X1680108Y-1551686I-34305J-34305D01*
G01X1604541D01*
G01Y-1487999D01*
G01X1604466Y-1485684D01*
G01X1604712Y-1485817D01*
G01X1608636Y-1487923D01*
G01X1610152Y-1488690D01*
G01X1614173Y-1490608D01*
G01X1615682Y-1491286D01*
G01X1619787Y-1493016D01*
G01X1621357Y-1493634D01*
G01X1625538Y-1495168D01*
G01X1627134Y-1495712D01*
G01X1631383Y-1497048D01*
G01X1631384D01*
G01X1632993Y-1497513D01*
G01X1637298Y-1498648D01*
G01X1638917Y-1499035D01*
G01X1643273Y-1499970D01*
G01X1644945Y-1500287D01*
G01X1649339Y-1501013D01*
G01X1650995Y-1501248D01*
G01X1655420Y-1501768D01*
G01X1657093Y-1501926D01*
G01X1661535Y-1502238D01*
G01X1661536D01*
G01X1663190Y-1502316D01*
G01X1667643Y-1502423D01*
G01X1668501Y-1502433D01*
G01X1853921D01*
G01X1854778Y-1502423D01*
G01X1859231Y-1502316D01*
G01X1860886Y-1502238D01*
G01X1865328Y-1501926D01*
G01X1867001Y-1501768D01*
G01X1871426Y-1501248D01*
G01X1873082Y-1501013D01*
G01X1877476Y-1500287D01*
G01X1879148Y-1499970D01*
G01X1883504Y-1499035D01*
G01X1885123Y-1498648D01*
G01X1889428Y-1497513D01*
G01X1891038Y-1497048D01*
G01X1895287Y-1495712D01*
G01X1896883Y-1495168D01*
G01X1901064Y-1493634D01*
G01X1902634Y-1493016D01*
G01X1906739Y-1491286D01*
G01X1908248Y-1490608D01*
G01X1912269Y-1488690D01*
G01X1913785Y-1487923D01*
G01X1917709Y-1485817D01*
G01X1919172Y-1484987D01*
G01X1922995Y-1482699D01*
G01X1924408Y-1481807D01*
G01X1928119Y-1479344D01*
G01X1929490Y-1478387D01*
G01X1933081Y-1475753D01*
G01X1934418Y-1474723D01*
G01X1937880Y-1471924D01*
G01X1939164Y-1470835D01*
G01X1942494Y-1467873D01*
G01X1943719Y-1466731D01*
G01X1943720D01*
G01X1946905Y-1463620D01*
G01X1948075Y-1462421D01*
G01X1951113Y-1459162D01*
G01X1952229Y-1457908D01*
G01X1955109Y-1454512D01*
G01X1956168Y-1453202D01*
G01X1958886Y-1449674D01*
G01X1959879Y-1448320D01*
G01X1962429Y-1444668D01*
G01X1963360Y-1443266D01*
G01X1964186Y-1441955D01*
G01Y-1499868D01*
G01Y-1500000D01*
G03X2033254Y-1666746I235814J0D01*
G01X2657441Y-2290933D01*
G03X2689137Y-2310073I31696J16674D01*
G03X2694732Y-2309633I0J35814D01*
G01X2696095Y-2309417D01*
G02X2768000Y-2303814I71905J-458583D01*
G02X3232185Y-2768000I0J-464186D01*
G02X3192429Y-2955959I-464186J0D01*
G03X3111500Y-2898686I-80929J-28541D01*
G03X3082339Y-2903793I0J-85814D01*
G03X3087486Y-2899323I-29158J38774D01*
G01X3145805Y-2841005D01*
G03X3160014Y-2806700I-34305J34305D01*
G01Y-2590800D01*
G03X3145805Y-2556495I-48514J0D01*
G01X2997721Y-2408412D01*
G03X2933700Y-2359386I-64021J-17288D01*
G03X2888490Y-2377186I0J-66314D01*
G01X2768600D01*
G03X2734295Y-2391395I0J-48514D01*
G01X2690064Y-2435627D01*
G03X2626086Y-2501900I2336J-66273D01*
G03X2643886Y-2547110I66314J0D01*
G01Y-2592203D01*
G03X2629586Y-2620835I21514J-28632D01*
G01Y-2620836D01*
G01Y-2677401D01*
G03X2632878Y-2692400I35814J0D01*
G03X2629586Y-2707399I32522J-14999D01*
G01Y-2729887D01*
G01X2625518Y-2733954D01*
G01X2612149D01*
G03X2566939Y-2716154I-45210J-48514D01*
G03X2500625Y-2782468I0J-66314D01*
G03X2566939Y-2848782I66314J0D01*
G03X2612149Y-2830982I0J66314D01*
G01X2630051D01*
G03X2629586Y-2836735I35349J-5753D01*
G01Y-2836736D01*
G01Y-2893301D01*
G03X2632878Y-2908300I35814J0D01*
G03X2629586Y-2923299I32522J-14999D01*
G01Y-2945787D01*
G01X2617575Y-2957797D01*
G03X2603500Y-2956286I-14075J-64803D01*
G01X1964186Y-1103537D02*
G01X1964186Y-1301280D01*
G01X1963360Y-1299970D01*
G01X1962429Y-1298568D01*
G01X1959879Y-1294915D01*
G01X1958886Y-1293562D01*
G01X1956168Y-1290034D01*
G01X1955109Y-1288724D01*
G01X1952229Y-1285328D01*
G01X1951113Y-1284073D01*
G01X1948075Y-1280814D01*
G01X1946905Y-1279616D01*
G01X1943720Y-1276505D01*
G01X1943719D01*
G01X1942494Y-1275362D01*
G01X1939164Y-1272401D01*
G01X1937880Y-1271312D01*
G01X1934418Y-1268513D01*
G01X1933081Y-1267483D01*
G01X1929490Y-1264849D01*
G01X1928119Y-1263892D01*
G01X1924408Y-1261428D01*
G01X1922995Y-1260537D01*
G01X1919172Y-1258248D01*
G01X1917709Y-1257418D01*
G01X1913785Y-1255313D01*
G01X1912269Y-1254545D01*
G01X1908248Y-1252627D01*
G01X1906739Y-1251950D01*
G01X1902634Y-1250220D01*
G01X1901064Y-1249601D01*
G01X1896883Y-1248067D01*
G01X1895287Y-1247524D01*
G01X1891038Y-1246188D01*
G01X1889428Y-1245723D01*
G01X1885123Y-1244588D01*
G01X1883504Y-1244201D01*
G01X1879148Y-1243266D01*
G01X1877476Y-1242949D01*
G01X1873082Y-1242222D01*
G01X1871426Y-1241988D01*
G01X1867001Y-1241467D01*
G01X1865328Y-1241310D01*
G01X1860886Y-1240998D01*
G01X1859231Y-1240920D01*
G01X1854778Y-1240813D01*
G01X1853921Y-1240803D01*
G01X1699022D01*
G01X1695806Y-1237586D01*
G01Y-1128462D01*
G03X1701800Y-1126320I-9009J34662D01*
G03X1716804Y-1129614I15004J32520D01*
G01X1795813D01*
G03X1831627Y-1093800I0J35814D01*
G01Y-1085902D01*
G03X1905000Y-1127214I73373J44502D01*
G03X1964186Y-1103537I0J85814D01*
G01X2401256Y549459D02*
G03X2398014Y553210I-51756J-41459D01*
G01Y563148D01*
G03X2401256Y549459I65786J8352D01*
G01X2748953Y-2816504D02*
G03X2719400Y-2800921I-29552J-20231D01*
G01X2695769D01*
G01X2696912Y-2799778D01*
G01X2719400D01*
G03X2755214Y-2763964I0J35814D01*
G01Y-2707399D01*
G03X2751922Y-2692400I-35814J0D01*
G03X2755214Y-2677401I-32522J14999D01*
G01Y-2620836D01*
G01Y-2620835D01*
G03X2740914Y-2592203I-35814J0D01*
G01Y-2547110D01*
G03X2758673Y-2504236I-48514J45210D01*
G01X2788695Y-2474214D01*
G01X2804902D01*
G03X2791186Y-2514600I52598J-40386D01*
G03X2829165Y-2574556I66314J0D01*
G03X2820086Y-2598387I26734J-23831D01*
G01Y-2677396D01*
G03X2823380Y-2692400I35814J0D01*
G03X2820086Y-2707404I32520J-15004D01*
G01Y-2786413D01*
G03X2830413Y-2811574I35814J0D01*
G03X2826347Y-2816504I25486J-25161D01*
G01X2748953D01*
G01X3062986Y-2786605D02*
G01X3033086Y-2816504D01*
G01X2939453D01*
G03X2935387Y-2811574I-29552J-20231D01*
G03X2945714Y-2786413I-25486J25161D01*
G01Y-2707404D01*
G03X2942420Y-2692400I-35814J0D01*
G03X2945714Y-2677396I-32520J15004D01*
G01Y-2598387D01*
G03X2931414Y-2569755I-35814J0D01*
G01Y-2540000D01*
G03X2923811Y-2513925I-48514J0D01*
G03X2919249Y-2490420I-66311J-675D01*
G03X2933700Y-2492014I14451J64720D01*
G03X2943393Y-2491302I0J66314D01*
G01X3062986Y-2610895D01*
G01Y-2786605D01*
G01X3040720Y1053773D02*
G03X3057614Y1104900I-68920J51127D01*
G03X3051736Y1136114I-85814J0D01*
G02X3115695Y1074734I-286886J-362956D01*
G03X3098800Y1076414I-16895J-84134D01*
G03X3040720Y1053773I0J-85814D01*
G01X3120662Y-3069823D02*
G02X3082976Y-3108966I-352662J301824D01*
G03X3060373Y-3053420I-85776J-2534D01*
G03X3111500Y-3070314I51127J68920D01*
G03X3120662Y-3069823I0J85814D01*
G54D10*
G01X-939800Y-2828392D02*
G01X-992708Y-2828392D01*
G01X-939800Y-2828392D02*
G01X-886892Y-2828392D01*
G01X-685800Y727608D02*
G01X-632892Y727608D01*
G01X-685800Y727608D02*
G01X-738708Y727608D01*
G01X224892Y-1663700D02*
G01X159479Y-1663700D01*
G01X224892Y-1663700D02*
G01X224892Y-1610792D01*
G01X224892Y-1663700D02*
G01X224892Y-1716608D01*
G01X491223Y-1208900D02*
G01X386565Y-1208900D01*
G01X491223Y-1208900D02*
G01X595881Y-1208900D01*
G01X491223Y-1208900D02*
G01X491223Y-1149392D01*
G01X491223Y-1208900D02*
G01X491223Y-1268409D01*
G01X333908Y-1054100D02*
G01X399321Y-1054100D01*
G01X333908Y-1054100D02*
G01X333908Y-1107008D01*
G01X761619Y-243840D02*
G01X761619Y-135432D01*
G01X761619Y-243840D02*
G01X761619Y-352248D01*
G01X696620Y-243840D02*
G01X650712Y-243840D01*
G01X696620Y-243840D02*
G01X696620Y-135432D01*
G01X696620Y-243840D02*
G01X696620Y-352248D01*
G01X891616Y-848360D02*
G01X891616Y-739952D01*
G01X891616Y-848360D02*
G01X891616Y-956768D01*
G01X1411580Y-243840D02*
G01X1457488Y-243840D01*
G01X1411580Y-243840D02*
G01X1411580Y-352248D01*
G01X1524000Y-478892D02*
G01X1524000Y-413479D01*
G01X1524000Y-478892D02*
G01X1471092Y-478892D01*
G01X1524000Y-478892D02*
G01X1576908Y-478892D01*
G01X1489977Y-1521600D02*
G01X1594635Y-1521600D01*
G01X1489977Y-1521600D02*
G01X1385319Y-1521600D01*
G01X1489977Y-1521600D02*
G01X1489977Y-1462091D01*
G01X1647292Y-1676400D02*
G01X1581879Y-1676400D01*
G01X1647292Y-1676400D02*
G01X1647292Y-1729308D01*
G01X1756308Y-1066800D02*
G01X1756308Y-1119708D01*
G01X1756308Y-1066800D02*
G01X1756308Y-1013892D01*
G01X2879192Y716483D02*
G01X2879192Y651071D01*
G01X2879192Y716483D02*
G01X2826283Y716483D01*
G01X2879192Y716483D02*
G01X2932100Y716483D01*
G01X2882900Y-2746908D02*
G01X2829992Y-2746908D01*
G01X2882900Y-2746908D02*
G01X2935808Y-2746908D01*
G01X1071661Y-998842D02*
G01X1018253Y-998842D01*
G01X1071661Y-998842D02*
G01X1125069Y-998842D01*
G01X1071661Y-998842D02*
G01X1071661Y-1052250D01*
G04 Copper End*

G04 Pad Start*
G54D11*
G01X698500Y-508000D03*
G01X1071661Y-998842D03*
G54D12*
G01X491223Y-1208900D03*
G01X491223Y-1508900D03*
G36*
G01X127279Y-1453883D02*
G01X312699Y-1453883D01*
G01X317152Y-1453777D01*
G01X321594Y-1453464D01*
G01X326019Y-1452943D01*
G01X330413Y-1452217D01*
G01X334769Y-1451282D01*
G01X339075Y-1450147D01*
G01X343324Y-1448811D01*
G01X347505Y-1447277D01*
G01X351610Y-1445547D01*
G01X355630Y-1443629D01*
G01X359555Y-1441524D01*
G01X363377Y-1439235D01*
G01X367088Y-1436771D01*
G01X370680Y-1434137D01*
G01X374142Y-1431338D01*
G01X377472Y-1428377D01*
G01X380657Y-1425265D01*
G01X383695Y-1422006D01*
G01X386575Y-1418610D01*
G01X389293Y-1415082D01*
G01X391843Y-1411430D01*
G01X394218Y-1407663D01*
G01X396415Y-1403787D01*
G01X398429Y-1399814D01*
G01X400253Y-1391884D01*
G01X569986D01*
G01Y-1325885D01*
G01X400253D01*
G01X398429Y-1317950D01*
G01X396415Y-1313978D01*
G01X394218Y-1310102D01*
G01X391843Y-1306335D01*
G01X389293Y-1302682D01*
G01X386575Y-1299154D01*
G01X383695Y-1295758D01*
G01X380657Y-1292499D01*
G01X377472Y-1289388D01*
G01X374142Y-1286426D01*
G01X370680Y-1283627D01*
G01X367088Y-1280993D01*
G01X363377Y-1278529D01*
G01X359555Y-1276241D01*
G01X355630Y-1274135D01*
G01X351610Y-1272217D01*
G01X347505Y-1270488D01*
G01X343324Y-1268954D01*
G01X339075Y-1267617D01*
G01X334769Y-1266482D01*
G01X330413Y-1265547D01*
G01X326019Y-1264821D01*
G01X321594Y-1264300D01*
G01X317152Y-1263988D01*
G01X312699Y-1263881D01*
G01X127279D01*
G01X122827Y-1263988D01*
G01X118384Y-1264300D01*
G01X113960Y-1264821D01*
G01X109565Y-1265547D01*
G01X105209Y-1266482D01*
G01X100904Y-1267617D01*
G01X96655Y-1268954D01*
G01X92474Y-1270488D01*
G01X88369Y-1272217D01*
G01X84348Y-1274135D01*
G01X80424Y-1276241D01*
G01X76601Y-1278529D01*
G01X72890Y-1280993D01*
G01X69299Y-1283627D01*
G01X65837Y-1286426D01*
G01X62507Y-1289388D01*
G01X59322Y-1292499D01*
G01X56284Y-1295758D01*
G01X53404Y-1299154D01*
G01X50686Y-1302682D01*
G01X48136Y-1306335D01*
G01X45761Y-1310102D01*
G01X43564Y-1313978D01*
G01X41549Y-1317950D01*
G01X39726Y-1322014D01*
G01X38092Y-1326157D01*
G01X36657Y-1330373D01*
G01X35420Y-1334653D01*
G01X34387Y-1338986D01*
G01X33556Y-1343360D01*
G01X32931Y-1347772D01*
G01X32515Y-1352207D01*
G01X32306Y-1356655D01*
G01Y-1361110D01*
G01X32515Y-1365557D01*
G01X32931Y-1369992D01*
G01X33556Y-1374404D01*
G01X34387Y-1378778D01*
G01X35420Y-1383111D01*
G01X36657Y-1387391D01*
G01X38092Y-1391608D01*
G01X39726Y-1395750D01*
G01X41549Y-1399814D01*
G01X43564Y-1403787D01*
G01X45761Y-1407663D01*
G01X48136Y-1411430D01*
G01X50686Y-1415082D01*
G01X53404Y-1418610D01*
G01X56284Y-1422006D01*
G01X59322Y-1425265D01*
G01X62507Y-1428377D01*
G01X65837Y-1431338D01*
G01X69299Y-1434137D01*
G01X72890Y-1436771D01*
G01X76601Y-1439235D01*
G01X80424Y-1441524D01*
G01X84348Y-1443629D01*
G01X88369Y-1445547D01*
G01X92474Y-1447277D01*
G01X96655Y-1448811D01*
G01X100904Y-1450147D01*
G01X105209Y-1451282D01*
G01X109565Y-1452217D01*
G01X113960Y-1452943D01*
G01X118384Y-1453464D01*
G01X122827Y-1453777D01*
G01X127279Y-1453883D01*
G37*
G54D13*
G01X1489977Y-1521600D03*
G01X1489977Y-1221600D03*
G36*
G01X1853921Y-1276617D02*
G01X1668501Y-1276617D01*
G01X1664048Y-1276723D01*
G01X1659606Y-1277036D01*
G01X1655181Y-1277556D01*
G01X1650787Y-1278283D01*
G01X1646431Y-1279218D01*
G01X1642125Y-1280353D01*
G01X1637876Y-1281689D01*
G01X1633695Y-1283223D01*
G01X1629590Y-1284953D01*
G01X1625570Y-1286871D01*
G01X1621645Y-1288976D01*
G01X1617823Y-1291265D01*
G01X1614112Y-1293729D01*
G01X1610520Y-1296363D01*
G01X1607058Y-1299162D01*
G01X1603728Y-1302123D01*
G01X1600543Y-1305235D01*
G01X1597505Y-1308494D01*
G01X1594625Y-1311890D01*
G01X1591907Y-1315418D01*
G01X1589357Y-1319070D01*
G01X1586982Y-1322837D01*
G01X1584785Y-1326713D01*
G01X1582771Y-1330686D01*
G01X1580947Y-1338616D01*
G01X1411214D01*
G01Y-1404615D01*
G01X1580947D01*
G01X1582771Y-1412550D01*
G01X1584785Y-1416522D01*
G01X1586982Y-1420398D01*
G01X1589357Y-1424165D01*
G01X1591907Y-1427818D01*
G01X1594625Y-1431346D01*
G01X1597505Y-1434742D01*
G01X1600543Y-1438001D01*
G01X1603728Y-1441112D01*
G01X1607058Y-1444074D01*
G01X1610520Y-1446873D01*
G01X1614112Y-1449507D01*
G01X1617823Y-1451971D01*
G01X1621645Y-1454259D01*
G01X1625570Y-1456365D01*
G01X1629590Y-1458283D01*
G01X1633695Y-1460012D01*
G01X1637876Y-1461546D01*
G01X1642125Y-1462883D01*
G01X1646431Y-1464018D01*
G01X1650787Y-1464953D01*
G01X1655181Y-1465679D01*
G01X1659606Y-1466200D01*
G01X1664048Y-1466512D01*
G01X1668501Y-1466619D01*
G01X1853921D01*
G01X1858373Y-1466512D01*
G01X1862816Y-1466200D01*
G01X1867240Y-1465679D01*
G01X1871635Y-1464953D01*
G01X1875991Y-1464018D01*
G01X1880296Y-1462883D01*
G01X1884545Y-1461546D01*
G01X1888726Y-1460012D01*
G01X1892831Y-1458283D01*
G01X1896852Y-1456365D01*
G01X1900776Y-1454259D01*
G01X1904599Y-1451971D01*
G01X1908310Y-1449507D01*
G01X1911901Y-1446873D01*
G01X1915363Y-1444074D01*
G01X1918693Y-1441112D01*
G01X1921878Y-1438001D01*
G01X1924916Y-1434742D01*
G01X1927797Y-1431346D01*
G01X1930514Y-1427818D01*
G01X1933064Y-1424165D01*
G01X1935439Y-1420398D01*
G01X1937636Y-1416522D01*
G01X1939651Y-1412550D01*
G01X1941474Y-1408486D01*
G01X1943108Y-1404343D01*
G01X1944543Y-1400127D01*
G01X1945780Y-1395847D01*
G01X1946813Y-1391514D01*
G01X1947644Y-1387140D01*
G01X1948269Y-1382728D01*
G01X1948685Y-1378293D01*
G01X1948894Y-1373845D01*
G01Y-1369390D01*
G01X1948685Y-1364943D01*
G01X1948269Y-1360508D01*
G01X1947644Y-1356096D01*
G01X1946813Y-1351722D01*
G01X1945780Y-1347389D01*
G01X1944543Y-1343109D01*
G01X1943108Y-1338892D01*
G01X1941474Y-1334750D01*
G01X1939651Y-1330686D01*
G01X1937636Y-1326713D01*
G01X1935439Y-1322837D01*
G01X1933064Y-1319070D01*
G01X1930514Y-1315418D01*
G01X1927797Y-1311890D01*
G01X1924916Y-1308494D01*
G01X1921878Y-1305235D01*
G01X1918693Y-1302123D01*
G01X1915363Y-1299162D01*
G01X1911901Y-1296363D01*
G01X1908310Y-1293729D01*
G01X1904599Y-1291265D01*
G01X1900776Y-1288976D01*
G01X1896852Y-1286871D01*
G01X1892831Y-1284953D01*
G01X1888726Y-1283223D01*
G01X1884545Y-1281689D01*
G01X1880296Y-1280353D01*
G01X1875991Y-1279218D01*
G01X1871635Y-1278283D01*
G01X1867240Y-1277556D01*
G01X1862816Y-1277036D01*
G01X1858373Y-1276723D01*
G01X1853921Y-1276617D01*
G37*
G54D14*
G01X1175006Y-1890306D03*
G54D15*
G01X924994Y-1640294D03*
G01X975006Y-1640294D03*
G01X1024994Y-1640294D03*
G01X1075006Y-1640294D03*
G54D14*
G01X824994Y-1890306D03*
G54D16*
G01X1021613Y-243840D03*
G01X956615Y-243840D03*
G01X891616Y-243840D03*
G01X826618Y-243840D03*
G01X761619Y-243840D03*
G01X696620Y-243840D03*
G01X1086587Y-243840D03*
G01X1411580Y-243840D03*
G01X1346606Y-243840D03*
G01X1281608Y-243840D03*
G01X1216609Y-243840D03*
G01X1151611Y-243840D03*
G01X956615Y-848360D03*
G01X891616Y-848360D03*
G01X826618Y-848360D03*
G01X761619Y-848360D03*
G01X696620Y-848360D03*
G01X1021613Y-848360D03*
G01X1411580Y-848360D03*
G01X1346606Y-848360D03*
G01X1281608Y-848360D03*
G01X1216609Y-848360D03*
G01X1151611Y-848360D03*
G01X1086587Y-848360D03*
G54D17*
G01X333908Y-1663700D03*
G01X224892Y-1663700D03*
G54D19*
G01X224892Y-1054100D03*
G01X333908Y-1054100D03*
G01X1647292Y-1066800D03*
G01X1756308Y-1066800D03*
G54D17*
G01X1756308Y-1676400D03*
G01X1647292Y-1676400D03*
G54D20*
G01X-939800Y-2828392D03*
G01X-939800Y-2937408D03*
G01X2882900Y-2637892D03*
G01X2882900Y-2746908D03*
G54D21*
G01X-685800Y618592D03*
G01X-685800Y727608D03*
G54D20*
G01X2879192Y825500D03*
G01X2879192Y716483D03*
G01X1524000Y-478892D03*
G01X1524000Y-587908D03*
G54D22*
G01X2692400Y-2865018D03*
G01X2692400Y-2951582D03*
G01X2882900Y-2865018D03*
G01X2882900Y-2951582D03*
G01X2692400Y-2649118D03*
G01X2692400Y-2735682D03*
G54D23*
G01X-685800Y-2684882D03*
G01X-685800Y-2598318D03*
G01X-939800Y-2697582D03*
G01X-939800Y-2611018D03*
G54D22*
G01X-685800Y-2814218D03*
G01X-685800Y-2900782D03*
G54D23*
G01X-685800Y858418D03*
G01X-685800Y944982D03*
G01X-830682Y863600D03*
G01X-830682Y950163D03*
G54D22*
G01X-825500Y729082D03*
G01X-825500Y642518D03*
G54D23*
G01X2623718Y487274D03*
G01X2623718Y573837D03*
G01X2880415Y481076D03*
G01X2880415Y567639D03*
G01X2611018Y723900D03*
G01X2611018Y810463D03*
G54D22*
G01X558800Y-157582D03*
G01X558800Y-244145D03*
G54D24*
G01X1033882Y-1422400D03*
G01X947318Y-1422400D03*
G54D23*
G01X558800Y-563982D03*
G01X558800Y-477418D03*
G04 Pad End*

G04 Via Start*
G54D25*
G01X127000Y-1549400D03*
G01X1905000Y-1765300D03*
G01X1168400Y-609600D03*
G01X1079500Y-609600D03*
G01X508000Y-927100D03*
G01X1358900Y-1270000D03*
G01X-635000Y1092200D03*
G01X-736600Y1092200D03*
G01X-850900Y1092200D03*
G01X1104900Y-63500D03*
G01X1016000Y-114300D03*
G01X393700Y-266700D03*
G01X-990600Y523584D03*
G01X-711200Y444500D03*
G01X508000Y-774700D03*
G01X-596900Y444500D03*
G01X-863600Y457200D03*
G01X1282700Y-63500D03*
G01X1524000Y-190500D03*
G01X2769431Y786242D03*
G01X2349500Y508000D03*
G01X2844800Y1130300D03*
G01X2603500Y1041400D03*
G01X2768600Y1041400D03*
G01X2463800Y571500D03*
G01X2743200Y571500D03*
G01X1079500Y-393700D03*
G01X1206500Y-393700D03*
G01X-50800Y-1739900D03*
G01X-825500Y-2743200D03*
G01X-685800Y-3009900D03*
G01X-762626Y-2451726D03*
G01X-774700Y-3136900D03*
G01X-454429Y-2226175D03*
G01X-280120Y-2147531D03*
G01X2603500Y-3022600D03*
G01X2324100Y-2514600D03*
G01X2692400Y-2501900D03*
G01X2933700Y-2425700D03*
G01X2590800Y-2540000D03*
G01X2679700Y-3073400D03*
G01X2566939Y-2782468D03*
G01X2857500Y-2514600D03*
G01X2788433Y-2782458D03*
G01X-584200Y-3009900D03*
G01X1778000Y-965200D03*
G01X1905000Y-1562100D03*
G01X863600Y-1320800D03*
G01X228600Y-1943100D03*
G01X762000Y-1625600D03*
G04 Via End*

G04 Track Start*
G54D10*
G01X438023Y-1562100D02*
G01X491223Y-1508900D01*
G01X304824Y-1562100D02*
G01X304824Y-1634615D01*
G01X333908Y-1663700D01*
G01X438023Y-1562100D02*
G01X304824Y-1562100D01*
G01X127000Y-1549400D02*
G01X292124Y-1549400D01*
G01X224892Y-1054100D02*
G01X224892Y-1353972D01*
G01X219977Y-1358887D01*
G01X1905000Y-1765300D02*
G01X1845208Y-1765300D01*
G01X1756308Y-1676400D01*
G01X812800Y-673100D02*
G01X825500Y-685800D01*
G01Y-809142D01*
G01X826618Y-810260D01*
G01X826618Y-205740D02*
G01X826618Y-102718D01*
G01X800100Y-76200D01*
G01X640182D01*
G01X558800Y-157582D01*
G01X1130300Y-1585000D02*
G01X1075006Y-1640294D01*
G01X614782Y-563982D02*
G01X667918Y-617118D01*
G01X667918Y-673100D02*
G01X812800Y-673100D01*
G01X667918Y-617118D02*
G01X667918Y-673100D01*
G01X558800Y-563982D02*
G01X614782Y-563982D01*
G01X1077485Y-1204485D02*
G01X1130300Y-1257300D01*
G01X956615Y-205740D02*
G01X956615Y-385115D01*
G01X1168400Y-609600D02*
G01X1168400Y-596900D01*
G01X956615Y-385115D01*
G01X891616Y-421716D02*
G01X891616Y-205740D01*
G01X1079500Y-609600D02*
G01X891616Y-421716D01*
G01X224892Y-1054100D02*
G01X351892Y-927100D01*
G01X508000D01*
G01X1358900Y-1270000D02*
G01X1460513Y-1371613D01*
G01X1761223D01*
G01X1077485Y-1204485D02*
G01X1039385Y-1204485D01*
G01X761619Y-926719D01*
G01Y-810260D01*
G01X-736600Y1092200D02*
G01X-830682Y998118D01*
G01Y950163D01*
G01X-635000Y1092200D02*
G01X-685800Y1041400D01*
G01Y944982D01*
G01X-685800Y858418D02*
G01X-825500Y858418D01*
G01X1104900Y-63500D02*
G01X1086587Y-81813D01*
G01Y-243840D01*
G01X1016000Y-114300D02*
G01X1016000Y-238227D01*
G01X1021613Y-243840D01*
G01X558800Y-477418D02*
G01X667918Y-477418D01*
G01X698500Y-508000D01*
G01X393700Y-266700D02*
G01X536245Y-266700D01*
G01X558800Y-244145D01*
G01X-990600Y787400D02*
G01X-914400Y863600D01*
G01X-830682D01*
G01X-685800Y368300D02*
G01X-901700Y368300D01*
G01X-990600Y457200D01*
G01Y523584D01*
G01Y787400D01*
G01X-825500Y729082D02*
G01X-825500Y858418D01*
G01X-830682Y863600D01*
G01X-711200Y444500D02*
G01X-685800Y469900D01*
G01Y618592D01*
G01X-863600Y457200D02*
G01X-863600Y604418D01*
G01X-825500Y642518D01*
G01X1282700Y-63500D02*
G01X1282700Y-242748D01*
G01X1281608Y-243840D01*
G01X1346606Y-243840D02*
G01X1346606Y-139294D01*
G01X1371600Y-114300D01*
G01X1447800Y-114300D02*
G01X1371600Y-114300D01*
G01X1524000Y-190500D02*
G01X1447800Y-114300D01*
G01X2349500Y508000D02*
G01X2370226Y487274D01*
G01X2623718D01*
G01X2425700Y721079D02*
G01X2608198Y721079D01*
G01X2611018Y723900D01*
G01X2349500Y508000D02*
G01X2349500Y644879D01*
G01X2623718Y487274D02*
G01X2874217Y487274D01*
G01X2880415Y481076D01*
G01X2844800Y1130300D02*
G01X2844800Y1136987D01*
G01X2800687Y1181100D01*
G01X2578100D01*
G01X2425700Y1028700D01*
G01Y721079D01*
G01X2349500Y644879D02*
G01X2425700Y721079D01*
G01X2611018Y810463D02*
G01X2611018Y1033882D01*
G01X2603500Y1041400D01*
G01X2768600Y1041400D02*
G01X2768600Y936092D01*
G01X2879192Y825500D01*
G01X2623718Y573837D02*
G01X2466137Y573837D01*
G01X2463800Y571500D01*
G01X2743200Y571500D02*
G01X2876554Y571500D01*
G01X2880415Y567639D01*
G01X1151611Y-243840D02*
G01X1151611Y-321589D01*
G01X1079500Y-393700D01*
G01X1216609Y-243840D02*
G01X1216609Y-383591D01*
G01X1206500Y-393700D01*
G01X292124Y-1549400D02*
G01X304824Y-1562100D01*
G01X219977Y-1358887D02*
G01X50800Y-1528064D01*
G01Y-1689100D01*
G01X0Y-1739900D01*
G01X-50800D01*
G01X-685800Y-2684882D02*
G01X-685800Y-2814218D01*
G01X-685800Y-2684882D02*
G01X-703682Y-2667000D01*
G01X-909218Y-2667000D02*
G01X-939800Y-2697582D01*
G01X-703682Y-2667000D02*
G01X-909218Y-2667000D01*
G01X-762626Y-2451726D02*
G01X-719426Y-2451726D01*
G01X-622300Y-2684882D02*
G01X-685800Y-2684882D01*
G01X-719426Y-2451726D02*
G01X-584200Y-2586952D01*
G01Y-2646782D01*
G01X-622300Y-2684882D01*
G01X-454429Y-2226175D02*
G01X-590453Y-2362200D01*
G01X-762000D01*
G01X-841959Y-2442159D01*
G01Y-2478080D01*
G01X-721721Y-2598318D01*
G01X-685800D01*
G01X-939800Y-2611018D02*
G01X-939800Y-2476500D01*
G01X-635000Y-2324100D02*
G01X-457200Y-2146300D01*
G01X-279400D01*
G01X-939800Y-2476500D02*
G01X-787400Y-2324100D01*
G01X-635000D01*
G01X1346606Y-848360D02*
G01X1346606Y-926694D01*
G01X1411580Y-925400D02*
G01X1411580Y-848360D01*
G01X2374900Y-2895600D02*
G01X2514600Y-3035300D01*
G01X2590800Y-3035300D02*
G01X2603500Y-3022600D01*
G01X2514600Y-3035300D02*
G01X2590800Y-3035300D01*
G01X152400Y-1943100D02*
G01X-50800Y-1739900D01*
G01X2692400Y-2951582D02*
G01X2621382Y-3022600D01*
G01X2603500D01*
G01X2692400Y-2501900D02*
G01X2692400Y-2649118D01*
G01X2933700Y-2425700D02*
G01X2946400Y-2425700D01*
G01X3111500Y-2590800D01*
G01Y-2806700D01*
G01X3053182Y-2865018D01*
G01X2882900D01*
G01X2692400D01*
G01X2679700Y-3073400D02*
G01X2761082Y-3073400D01*
G01X2566939Y-2782468D02*
G01X2645613Y-2782468D01*
G01X2692400Y-2735682D01*
G01X2692400Y-2501900D02*
G01X2768600Y-2425700D01*
G01X2933700D01*
G01X2857500Y-2514600D02*
G01X2882900Y-2540000D01*
G01Y-2637892D01*
G01X2882900Y-2746908D02*
G01X2847350Y-2782458D01*
G01X2788433D01*
G01X-685800Y-2900782D02*
G01X-629818Y-2900782D01*
G01X-584200Y-2946400D02*
G01X-584200Y-3009900D01*
G01X-629818Y-2900782D02*
G01X-584200Y-2946400D01*
G01X1761223Y-1371613D02*
G01X1647292Y-1257681D01*
G01Y-1066800D01*
G01X1346606Y-926694D02*
G01X1168400Y-1104900D01*
G01Y-1574800D01*
G01X1498600Y-1905000D01*
G01X1524000Y-1866900D02*
G01X1206500Y-1549400D01*
G01Y-1130480D01*
G01X1411580Y-925400D01*
G01X1756308Y-1676400D02*
G01X1680108Y-1600200D01*
G01X1244600Y-1536700D02*
G01X1244600Y-1168400D01*
G01X1282700Y-1130300D01*
G01X1447800D01*
G01X1489977Y-1172477D01*
G01Y-1221600D01*
G01X1680108Y-1600200D02*
G01X1308100Y-1600200D01*
G01X1244600Y-1536700D01*
G01X1756308Y-1066800D02*
G01X1778000Y-1045108D01*
G01Y-965200D01*
G01X1905000Y-1562100D02*
G01X1864500Y-1521600D01*
G01X1489977D01*
G01X863600Y-1320800D02*
G01X863600Y-1338682D01*
G01X1033882Y-1422400D02*
G01X1129975Y-1422400D01*
G01X1130300Y-1422075D01*
G01X1130300Y-1257300D02*
G01X1130300Y-1422075D01*
G01Y-1585000D01*
G01X863600Y-1338682D02*
G01X947318Y-1422400D01*
G01X1016000Y-1536700D02*
G01X965200Y-1485900D01*
G01X1016000Y-1578600D02*
G01X1016000Y-1536700D01*
G01X1024994Y-1587594D02*
G01X1016000Y-1578600D01*
G01X1024994Y-1640294D02*
G01X1024994Y-1587594D01*
G01X228600Y-1943100D02*
G01X152400Y-1943100D01*
G01X975006Y-1640294D02*
G01X975006Y-1727200D01*
G01X924994Y-1640294D02*
G01X910300Y-1625600D01*
G01X762000D01*
G01X645300Y-1508900D01*
G01X491223D01*
G01X1524000Y-587908D02*
G01X1524000Y-1054100D01*
G01X1447800Y-1130300D01*
G01X863600Y-1320800D02*
G01X863600Y-1104900D01*
G01X696620Y-937920D01*
G01Y-848360D01*
G01X965200Y-1485900D02*
G01X870600Y-1485900D01*
G01X800100Y-1415400D01*
G01X635000Y-706018D02*
G01X667918Y-673100D01*
G01X800100Y-1415400D02*
G01X800100Y-1104900D01*
G01X635000Y-939800D01*
G01Y-706018D01*
G01X2374900Y-2654300D02*
G01X2374900Y-2895600D01*
G01X1625600Y-1905000D02*
G01X2374900Y-2654300D01*
G01X1498600Y-1905000D02*
G01X1625600Y-1905000D01*
G01X1676400Y-1866900D02*
G01X1524000Y-1866900D01*
G01X2324100Y-2514600D02*
G01X1676400Y-1866900D01*
G01X224892Y-1054100D02*
G01X224892Y-542392D01*
G01X-685800Y368300D02*
G01X224892Y-542392D01*
G01X-711200Y444500D02*
G01X508000Y-774700D01*
G01X-939800Y-2937408D02*
G01X-939800Y-2973329D01*
G01X-776229Y-3136900D01*
G01X-774700D01*
G01X2761082Y-3073400D02*
G01X2882900Y-2951582D01*
G04 Track End*

M02*
