G04 Layer: BoardOutlineLayer*
G04 EasyEDA Pro v2.1.44.1.245b18d5.fca1f9, 2024-01-18 14:01:25*
G04 Gerber Generator version 0.3*
G04 Scale: 100 percent, Rotated: No, Reflected: No*
G04 Dimensions in millimeters*
G04 Leading zeros omitted, absolute positions, 3 integers and 5 decimals*
%FSLAX35Y35*%
%MOMM*%
%ADD10C,0.254*%
G75*


G04 PolygonModel Start*
G54D10*
G01X500000Y0D02*
G01X1500000Y0D01*
G01X2000000Y-500000D02*
G01X2000000Y-1500000D01*
G01X0Y-500000D02*
G01X0Y-1500000D01*
G01X500000Y-2000000D02*
G01X1500000Y-2000000D01*
G01X358579Y58579D02*
G03X500000Y0I141421J141421D01*
G01X0Y-500000D02*
G03X-58579Y-358579I-200000J-0D01*
G01X0Y-500000D01*
G01X500000Y-2000000D02*
G03X358579Y-2058579I0J-200000D01*
G01X2000000Y-1500000D02*
G03X2058579Y-1641421I200000J0D01*
G01X2000000Y-1500000D01*
G01X-58579Y-1641421D02*
G03X0Y-1500000I-141421J141421D01*
G01X1641421Y-2058579D02*
G03X1500000Y-2000000I-141421J-141421D01*
G01X2058579Y-358579D02*
G03X2000000Y-500000I141421J-141421D01*
G01X1500000Y0D02*
G03X1641421Y58579I-0J200000D01*
G01X-701781Y272404D02*
G01X-68664Y-355600D01*
G01X-63500D01*
G01X-272509Y701003D02*
G01X358579Y65685D01*
G01Y58579D01*
G01X-272509Y701003D01*
G01X-272737Y699337D02*
G03X-699337Y272737I-495263J68663D01*
G01X1641421Y58579D02*
G01X2273300Y690457D01*
G01Y698500D01*
G01X1641421Y58579D01*
G01X2058579Y-358579D02*
G01X2696557Y279400D01*
G01X2705100D01*
G01X2058579Y-358579D01*
G01X-58579Y-1641421D02*
G01X-685800Y-2268643D01*
G01Y-2273300D01*
G01X358579Y-2058579D02*
G01X-273142Y-2690299D01*
G01Y-2696476D01*
G01X1641421Y-2058579D02*
G01X2273519Y-2690677D01*
G01X2274015D01*
G01X2058579Y-1641421D02*
G01X2689137Y-2271980D01*
G01Y-2274259D01*
G01X2696557Y279400D02*
G03X2273300Y690457I68293J493758D01*
G01X-688041Y-2274435D02*
G03X-273880Y-2691546I-79959J-493565D01*
G01X2274039Y-2690524D02*
G03X2690524Y-2274039I493961J-77476D01*
G04 PolygonModel End*

M02*
