G04 Layer: DrillDrawingLayer*
G04 EasyEDA Pro v2.1.44.1.245b18d5.fca1f9, 2024-01-18 14:01:25*
G04 Gerber Generator version 0.3*
G04 Scale: 100 percent, Rotated: No, Reflected: No*
G04 Dimensions in millimeters*
G04 Leading zeros omitted, absolute positions, 3 integers and 5 decimals*
%FSLAX35Y35*%
%MOMM*%
%ADD10C,0.254*%
G75*


G04 Image Start*
G36*
G01X678586Y-488036D02*
G01X678586Y-491693D01*
G01X682193D01*
G01X714807D01*
G01Y-524307D01*
G01X682193D01*
G01Y-491693D01*
G01X678586D01*
G01Y-527914D01*
G01X718464D01*
G01Y-488036D01*
G37*
G36*
G01X1051712Y-978916D02*
G01X1051712Y-982523D01*
G01X1055370D01*
G01X1087984D01*
G01Y-1015136D01*
G01X1055370D01*
G01Y-982523D01*
G01X1051712D01*
G01Y-1018794D01*
G01X1091590D01*
G01Y-978916D01*
G37*
G36*
G01X127000Y-1529436D02*
G01X124968Y-1529588D01*
G01X122987Y-1529842D01*
G01X121056Y-1530350D01*
G01X119228Y-1531010D01*
G01X117500Y-1531874D01*
G01X115875Y-1532890D01*
G01X114300Y-1534008D01*
G01X112878Y-1535278D01*
G01X111608Y-1536700D01*
G01X110490Y-1538275D01*
G01X109474Y-1539900D01*
G01X108610Y-1541628D01*
G01X107950Y-1543456D01*
G01X107442Y-1545387D01*
G01X107188Y-1547368D01*
G01X107086Y-1549400D01*
G01X110388D01*
G01X110490Y-1547724D01*
G01X110744Y-1546047D01*
G01X111150Y-1544472D01*
G01X111709Y-1542948D01*
G01X112370Y-1541475D01*
G01X113233Y-1540104D01*
G01X114198Y-1538834D01*
G01X115265Y-1537665D01*
G01X116434Y-1536598D01*
G01X117704Y-1535633D01*
G01X119075Y-1534770D01*
G01X120548Y-1534109D01*
G01X122072Y-1533550D01*
G01X123647Y-1533144D01*
G01X125324Y-1532890D01*
G01X127000Y-1532788D01*
G01X128676Y-1532890D01*
G01X130353Y-1533144D01*
G01X131928Y-1533550D01*
G01X133452Y-1534109D01*
G01X134925Y-1534770D01*
G01X136296Y-1535633D01*
G01X137566Y-1536598D01*
G01X138735Y-1537665D01*
G01X139802Y-1538834D01*
G01X140767Y-1540104D01*
G01X141630Y-1541475D01*
G01X142291Y-1542948D01*
G01X142850Y-1544472D01*
G01X143256Y-1546047D01*
G01X143510Y-1547724D01*
G01X143612Y-1549400D01*
G01X143510Y-1551076D01*
G01X143256Y-1552753D01*
G01X142850Y-1554328D01*
G01X142291Y-1555852D01*
G01X141630Y-1557325D01*
G01X140767Y-1558696D01*
G01X139802Y-1559966D01*
G01X138735Y-1561135D01*
G01X137566Y-1562202D01*
G01X136296Y-1563167D01*
G01X134925Y-1564030D01*
G01X133452Y-1564691D01*
G01X131928Y-1565250D01*
G01X130353Y-1565656D01*
G01X128676Y-1565910D01*
G01X127000Y-1566012D01*
G01X125324Y-1565910D01*
G01X123647Y-1565656D01*
G01X122072Y-1565250D01*
G01X120548Y-1564691D01*
G01X119075Y-1564030D01*
G01X117704Y-1563167D01*
G01X116434Y-1562202D01*
G01X115265Y-1561135D01*
G01X114198Y-1559966D01*
G01X113233Y-1558696D01*
G01X112370Y-1557325D01*
G01X111709Y-1555852D01*
G01X111150Y-1554328D01*
G01X110744Y-1552753D01*
G01X110490Y-1551076D01*
G01X110388Y-1549400D01*
G01X107086D01*
G01X107188Y-1551432D01*
G01X107442Y-1553413D01*
G01X107950Y-1555344D01*
G01X108610Y-1557172D01*
G01X109474Y-1558900D01*
G01X110490Y-1560525D01*
G01X111608Y-1562100D01*
G01X112878Y-1563522D01*
G01X114300Y-1564792D01*
G01X115875Y-1565910D01*
G01X117500Y-1566926D01*
G01X119228Y-1567790D01*
G01X121056Y-1568450D01*
G01X122987Y-1568958D01*
G01X124968Y-1569212D01*
G01X127000Y-1569314D01*
G01X129032Y-1569212D01*
G01X131013Y-1568958D01*
G01X132944Y-1568450D01*
G01X134772Y-1567790D01*
G01X136500Y-1566926D01*
G01X138125Y-1565910D01*
G01X139700Y-1564792D01*
G01X141122Y-1563522D01*
G01X142392Y-1562100D01*
G01X143510Y-1560525D01*
G01X144526Y-1558900D01*
G01X145390Y-1557172D01*
G01X146050Y-1555344D01*
G01X146558Y-1553413D01*
G01X146812Y-1551432D01*
G01X146964Y-1549400D01*
G01X146812Y-1547368D01*
G01X146558Y-1545387D01*
G01X146050Y-1543456D01*
G01X145390Y-1541628D01*
G01X144526Y-1539900D01*
G01X143510Y-1538275D01*
G01X142392Y-1536700D01*
G01X141122Y-1535278D01*
G01X139700Y-1534008D01*
G01X138125Y-1532890D01*
G01X136500Y-1531874D01*
G01X134772Y-1531010D01*
G01X132944Y-1530350D01*
G01X131013Y-1529842D01*
G01X129032Y-1529588D01*
G37*
G36*
G01X1905000Y-1745336D02*
G01X1902968Y-1745488D01*
G01X1900987Y-1745742D01*
G01X1899056Y-1746250D01*
G01X1897228Y-1746910D01*
G01X1895500Y-1747774D01*
G01X1893875Y-1748790D01*
G01X1892300Y-1749908D01*
G01X1890878Y-1751178D01*
G01X1889608Y-1752600D01*
G01X1888490Y-1754175D01*
G01X1887474Y-1755800D01*
G01X1886610Y-1757528D01*
G01X1885950Y-1759356D01*
G01X1885442Y-1761287D01*
G01X1885188Y-1763268D01*
G01X1885086Y-1765300D01*
G01X1888388D01*
G01X1888490Y-1763624D01*
G01X1888744Y-1761947D01*
G01X1889150Y-1760372D01*
G01X1889709Y-1758848D01*
G01X1890370Y-1757375D01*
G01X1891233Y-1756004D01*
G01X1892198Y-1754734D01*
G01X1893265Y-1753565D01*
G01X1894434Y-1752498D01*
G01X1895704Y-1751533D01*
G01X1897075Y-1750670D01*
G01X1898548Y-1750009D01*
G01X1900072Y-1749450D01*
G01X1901647Y-1749044D01*
G01X1903324Y-1748790D01*
G01X1905000Y-1748688D01*
G01X1906676Y-1748790D01*
G01X1908353Y-1749044D01*
G01X1909928Y-1749450D01*
G01X1911452Y-1750009D01*
G01X1912925Y-1750670D01*
G01X1914296Y-1751533D01*
G01X1915566Y-1752498D01*
G01X1916735Y-1753565D01*
G01X1917802Y-1754734D01*
G01X1918767Y-1756004D01*
G01X1919630Y-1757375D01*
G01X1920291Y-1758848D01*
G01X1920850Y-1760372D01*
G01X1921256Y-1761947D01*
G01X1921510Y-1763624D01*
G01X1921612Y-1765300D01*
G01X1921510Y-1766976D01*
G01X1921256Y-1768653D01*
G01X1920850Y-1770228D01*
G01X1920291Y-1771752D01*
G01X1919630Y-1773225D01*
G01X1918767Y-1774596D01*
G01X1917802Y-1775866D01*
G01X1916735Y-1777035D01*
G01X1915566Y-1778102D01*
G01X1914296Y-1779067D01*
G01X1912925Y-1779930D01*
G01X1911452Y-1780591D01*
G01X1909928Y-1781150D01*
G01X1908353Y-1781556D01*
G01X1906676Y-1781810D01*
G01X1905000Y-1781912D01*
G01X1903324Y-1781810D01*
G01X1901647Y-1781556D01*
G01X1900072Y-1781150D01*
G01X1898548Y-1780591D01*
G01X1897075Y-1779930D01*
G01X1895704Y-1779067D01*
G01X1894434Y-1778102D01*
G01X1893265Y-1777035D01*
G01X1892198Y-1775866D01*
G01X1891233Y-1774596D01*
G01X1890370Y-1773225D01*
G01X1889709Y-1771752D01*
G01X1889150Y-1770228D01*
G01X1888744Y-1768653D01*
G01X1888490Y-1766976D01*
G01X1888388Y-1765300D01*
G01X1885086D01*
G01X1885188Y-1767332D01*
G01X1885442Y-1769313D01*
G01X1885950Y-1771244D01*
G01X1886610Y-1773072D01*
G01X1887474Y-1774800D01*
G01X1888490Y-1776425D01*
G01X1889608Y-1778000D01*
G01X1890878Y-1779422D01*
G01X1892300Y-1780692D01*
G01X1893875Y-1781810D01*
G01X1895500Y-1782826D01*
G01X1897228Y-1783690D01*
G01X1899056Y-1784350D01*
G01X1900987Y-1784858D01*
G01X1902968Y-1785112D01*
G01X1905000Y-1785214D01*
G01X1907032Y-1785112D01*
G01X1909013Y-1784858D01*
G01X1910944Y-1784350D01*
G01X1912772Y-1783690D01*
G01X1914500Y-1782826D01*
G01X1916125Y-1781810D01*
G01X1917700Y-1780692D01*
G01X1919122Y-1779422D01*
G01X1920392Y-1778000D01*
G01X1921510Y-1776425D01*
G01X1922526Y-1774800D01*
G01X1923390Y-1773072D01*
G01X1924050Y-1771244D01*
G01X1924558Y-1769313D01*
G01X1924812Y-1767332D01*
G01X1924964Y-1765300D01*
G01X1924812Y-1763268D01*
G01X1924558Y-1761287D01*
G01X1924050Y-1759356D01*
G01X1923390Y-1757528D01*
G01X1922526Y-1755800D01*
G01X1921510Y-1754175D01*
G01X1920392Y-1752600D01*
G01X1919122Y-1751178D01*
G01X1917700Y-1749908D01*
G01X1916125Y-1748790D01*
G01X1914500Y-1747774D01*
G01X1912772Y-1746910D01*
G01X1910944Y-1746250D01*
G01X1909013Y-1745742D01*
G01X1907032Y-1745488D01*
G37*
G36*
G01X1168400Y-589636D02*
G01X1166368Y-589788D01*
G01X1164387Y-590042D01*
G01X1162456Y-590550D01*
G01X1160628Y-591210D01*
G01X1158900Y-592074D01*
G01X1157275Y-593090D01*
G01X1155700Y-594208D01*
G01X1154278Y-595478D01*
G01X1153008Y-596900D01*
G01X1151890Y-598475D01*
G01X1150874Y-600100D01*
G01X1150010Y-601828D01*
G01X1149350Y-603656D01*
G01X1148842Y-605587D01*
G01X1148588Y-607568D01*
G01X1148436Y-609600D01*
G01X1151788D01*
G01X1151890Y-607924D01*
G01X1152144Y-606247D01*
G01X1152550Y-604672D01*
G01X1153109Y-603148D01*
G01X1153770Y-601675D01*
G01X1154633Y-600304D01*
G01X1155598Y-599034D01*
G01X1156665Y-597865D01*
G01X1157834Y-596798D01*
G01X1159104Y-595833D01*
G01X1160475Y-594970D01*
G01X1161948Y-594309D01*
G01X1163472Y-593750D01*
G01X1165047Y-593344D01*
G01X1166724Y-593090D01*
G01X1168400Y-592988D01*
G01X1170076Y-593090D01*
G01X1171753Y-593344D01*
G01X1173328Y-593750D01*
G01X1174852Y-594309D01*
G01X1176325Y-594970D01*
G01X1177696Y-595833D01*
G01X1178966Y-596798D01*
G01X1180135Y-597865D01*
G01X1181202Y-599034D01*
G01X1182167Y-600304D01*
G01X1183030Y-601675D01*
G01X1183691Y-603148D01*
G01X1184250Y-604672D01*
G01X1184656Y-606247D01*
G01X1184910Y-607924D01*
G01X1185012Y-609600D01*
G01X1184910Y-611276D01*
G01X1184656Y-612953D01*
G01X1184250Y-614528D01*
G01X1183691Y-616052D01*
G01X1183030Y-617525D01*
G01X1182167Y-618896D01*
G01X1181202Y-620166D01*
G01X1180135Y-621335D01*
G01X1178966Y-622402D01*
G01X1177696Y-623367D01*
G01X1176325Y-624230D01*
G01X1174852Y-624891D01*
G01X1173328Y-625450D01*
G01X1171753Y-625856D01*
G01X1170076Y-626110D01*
G01X1168400Y-626212D01*
G01X1166724Y-626110D01*
G01X1165047Y-625856D01*
G01X1163472Y-625450D01*
G01X1161948Y-624891D01*
G01X1160475Y-624230D01*
G01X1159104Y-623367D01*
G01X1157834Y-622402D01*
G01X1156665Y-621335D01*
G01X1155598Y-620166D01*
G01X1154633Y-618896D01*
G01X1153770Y-617525D01*
G01X1153109Y-616052D01*
G01X1152550Y-614528D01*
G01X1152144Y-612953D01*
G01X1151890Y-611276D01*
G01X1151788Y-609600D01*
G01X1148436D01*
G01X1148588Y-611632D01*
G01X1148842Y-613613D01*
G01X1149350Y-615544D01*
G01X1150010Y-617372D01*
G01X1150874Y-619100D01*
G01X1151890Y-620725D01*
G01X1153008Y-622300D01*
G01X1154278Y-623722D01*
G01X1155700Y-624992D01*
G01X1157275Y-626110D01*
G01X1158900Y-627126D01*
G01X1160628Y-627990D01*
G01X1162456Y-628650D01*
G01X1164387Y-629158D01*
G01X1166368Y-629412D01*
G01X1168400Y-629514D01*
G01X1170432Y-629412D01*
G01X1172413Y-629158D01*
G01X1174344Y-628650D01*
G01X1176172Y-627990D01*
G01X1177900Y-627126D01*
G01X1179525Y-626110D01*
G01X1181100Y-624992D01*
G01X1182522Y-623722D01*
G01X1183792Y-622300D01*
G01X1184910Y-620725D01*
G01X1185926Y-619100D01*
G01X1186790Y-617372D01*
G01X1187450Y-615544D01*
G01X1187958Y-613613D01*
G01X1188212Y-611632D01*
G01X1188364Y-609600D01*
G01X1188212Y-607568D01*
G01X1187958Y-605587D01*
G01X1187450Y-603656D01*
G01X1186790Y-601828D01*
G01X1185926Y-600100D01*
G01X1184910Y-598475D01*
G01X1183792Y-596900D01*
G01X1182522Y-595478D01*
G01X1181100Y-594208D01*
G01X1179525Y-593090D01*
G01X1177900Y-592074D01*
G01X1176172Y-591210D01*
G01X1174344Y-590550D01*
G01X1172413Y-590042D01*
G01X1170432Y-589788D01*
G37*
G36*
G01X1079500Y-589636D02*
G01X1077468Y-589788D01*
G01X1075487Y-590042D01*
G01X1073556Y-590550D01*
G01X1071728Y-591210D01*
G01X1070000Y-592074D01*
G01X1068375Y-593090D01*
G01X1066800Y-594208D01*
G01X1065378Y-595478D01*
G01X1064108Y-596900D01*
G01X1062990Y-598475D01*
G01X1061974Y-600100D01*
G01X1061110Y-601828D01*
G01X1060450Y-603656D01*
G01X1059942Y-605587D01*
G01X1059688Y-607568D01*
G01X1059536Y-609600D01*
G01X1062888D01*
G01X1062990Y-607924D01*
G01X1063244Y-606247D01*
G01X1063650Y-604672D01*
G01X1064209Y-603148D01*
G01X1064870Y-601675D01*
G01X1065733Y-600304D01*
G01X1066698Y-599034D01*
G01X1067765Y-597865D01*
G01X1068934Y-596798D01*
G01X1070204Y-595833D01*
G01X1071575Y-594970D01*
G01X1073048Y-594309D01*
G01X1074572Y-593750D01*
G01X1076147Y-593344D01*
G01X1077824Y-593090D01*
G01X1079500Y-592988D01*
G01X1081176Y-593090D01*
G01X1082853Y-593344D01*
G01X1084428Y-593750D01*
G01X1085952Y-594309D01*
G01X1087425Y-594970D01*
G01X1088796Y-595833D01*
G01X1090066Y-596798D01*
G01X1091235Y-597865D01*
G01X1092302Y-599034D01*
G01X1093267Y-600304D01*
G01X1094130Y-601675D01*
G01X1094791Y-603148D01*
G01X1095350Y-604672D01*
G01X1095756Y-606247D01*
G01X1096010Y-607924D01*
G01X1096112Y-609600D01*
G01X1096010Y-611276D01*
G01X1095756Y-612953D01*
G01X1095350Y-614528D01*
G01X1094791Y-616052D01*
G01X1094130Y-617525D01*
G01X1093267Y-618896D01*
G01X1092302Y-620166D01*
G01X1091235Y-621335D01*
G01X1090066Y-622402D01*
G01X1088796Y-623367D01*
G01X1087425Y-624230D01*
G01X1085952Y-624891D01*
G01X1084428Y-625450D01*
G01X1082853Y-625856D01*
G01X1081176Y-626110D01*
G01X1079500Y-626212D01*
G01X1077824Y-626110D01*
G01X1076147Y-625856D01*
G01X1074572Y-625450D01*
G01X1073048Y-624891D01*
G01X1071575Y-624230D01*
G01X1070204Y-623367D01*
G01X1068934Y-622402D01*
G01X1067765Y-621335D01*
G01X1066698Y-620166D01*
G01X1065733Y-618896D01*
G01X1064870Y-617525D01*
G01X1064209Y-616052D01*
G01X1063650Y-614528D01*
G01X1063244Y-612953D01*
G01X1062990Y-611276D01*
G01X1062888Y-609600D01*
G01X1059536D01*
G01X1059688Y-611632D01*
G01X1059942Y-613613D01*
G01X1060450Y-615544D01*
G01X1061110Y-617372D01*
G01X1061974Y-619100D01*
G01X1062990Y-620725D01*
G01X1064108Y-622300D01*
G01X1065378Y-623722D01*
G01X1066800Y-624992D01*
G01X1068375Y-626110D01*
G01X1070000Y-627126D01*
G01X1071728Y-627990D01*
G01X1073556Y-628650D01*
G01X1075487Y-629158D01*
G01X1077468Y-629412D01*
G01X1079500Y-629514D01*
G01X1081532Y-629412D01*
G01X1083513Y-629158D01*
G01X1085444Y-628650D01*
G01X1087272Y-627990D01*
G01X1089000Y-627126D01*
G01X1090625Y-626110D01*
G01X1092200Y-624992D01*
G01X1093622Y-623722D01*
G01X1094892Y-622300D01*
G01X1096010Y-620725D01*
G01X1097026Y-619100D01*
G01X1097890Y-617372D01*
G01X1098550Y-615544D01*
G01X1099058Y-613613D01*
G01X1099312Y-611632D01*
G01X1099464Y-609600D01*
G01X1099312Y-607568D01*
G01X1099058Y-605587D01*
G01X1098550Y-603656D01*
G01X1097890Y-601828D01*
G01X1097026Y-600100D01*
G01X1096010Y-598475D01*
G01X1094892Y-596900D01*
G01X1093622Y-595478D01*
G01X1092200Y-594208D01*
G01X1090625Y-593090D01*
G01X1089000Y-592074D01*
G01X1087272Y-591210D01*
G01X1085444Y-590550D01*
G01X1083513Y-590042D01*
G01X1081532Y-589788D01*
G37*
G36*
G01X508000Y-907136D02*
G01X505968Y-907288D01*
G01X503987Y-907542D01*
G01X502056Y-908050D01*
G01X500228Y-908710D01*
G01X498500Y-909574D01*
G01X496875Y-910590D01*
G01X495300Y-911708D01*
G01X493878Y-912978D01*
G01X492608Y-914400D01*
G01X491490Y-915975D01*
G01X490474Y-917600D01*
G01X489610Y-919328D01*
G01X488950Y-921156D01*
G01X488442Y-923087D01*
G01X488188Y-925068D01*
G01X488086Y-927100D01*
G01X491388D01*
G01X491490Y-925424D01*
G01X491744Y-923747D01*
G01X492150Y-922172D01*
G01X492709Y-920648D01*
G01X493370Y-919175D01*
G01X494233Y-917804D01*
G01X495198Y-916534D01*
G01X496265Y-915365D01*
G01X497434Y-914298D01*
G01X498704Y-913333D01*
G01X500075Y-912470D01*
G01X501548Y-911809D01*
G01X503072Y-911250D01*
G01X504647Y-910844D01*
G01X506324Y-910590D01*
G01X508000Y-910488D01*
G01X509676Y-910590D01*
G01X511353Y-910844D01*
G01X512928Y-911250D01*
G01X514452Y-911809D01*
G01X515925Y-912470D01*
G01X517296Y-913333D01*
G01X518566Y-914298D01*
G01X519735Y-915365D01*
G01X520802Y-916534D01*
G01X521767Y-917804D01*
G01X522630Y-919175D01*
G01X523291Y-920648D01*
G01X523850Y-922172D01*
G01X524256Y-923747D01*
G01X524510Y-925424D01*
G01X524612Y-927100D01*
G01X524510Y-928776D01*
G01X524256Y-930453D01*
G01X523850Y-932028D01*
G01X523291Y-933552D01*
G01X522630Y-935025D01*
G01X521767Y-936396D01*
G01X520802Y-937666D01*
G01X519735Y-938835D01*
G01X518566Y-939902D01*
G01X517296Y-940867D01*
G01X515925Y-941730D01*
G01X514452Y-942391D01*
G01X512928Y-942950D01*
G01X511353Y-943356D01*
G01X509676Y-943610D01*
G01X508000Y-943712D01*
G01X506324Y-943610D01*
G01X504647Y-943356D01*
G01X503072Y-942950D01*
G01X501548Y-942391D01*
G01X500075Y-941730D01*
G01X498704Y-940867D01*
G01X497434Y-939902D01*
G01X496265Y-938835D01*
G01X495198Y-937666D01*
G01X494233Y-936396D01*
G01X493370Y-935025D01*
G01X492709Y-933552D01*
G01X492150Y-932028D01*
G01X491744Y-930453D01*
G01X491490Y-928776D01*
G01X491388Y-927100D01*
G01X488086D01*
G01X488188Y-929132D01*
G01X488442Y-931113D01*
G01X488950Y-933044D01*
G01X489610Y-934872D01*
G01X490474Y-936600D01*
G01X491490Y-938225D01*
G01X492608Y-939800D01*
G01X493878Y-941222D01*
G01X495300Y-942492D01*
G01X496875Y-943610D01*
G01X498500Y-944626D01*
G01X500228Y-945490D01*
G01X502056Y-946150D01*
G01X503987Y-946658D01*
G01X505968Y-946912D01*
G01X508000Y-947014D01*
G01X510032Y-946912D01*
G01X512013Y-946658D01*
G01X513944Y-946150D01*
G01X515772Y-945490D01*
G01X517500Y-944626D01*
G01X519125Y-943610D01*
G01X520700Y-942492D01*
G01X522122Y-941222D01*
G01X523392Y-939800D01*
G01X524510Y-938225D01*
G01X525526Y-936600D01*
G01X526390Y-934872D01*
G01X527050Y-933044D01*
G01X527558Y-931113D01*
G01X527812Y-929132D01*
G01X527964Y-927100D01*
G01X527812Y-925068D01*
G01X527558Y-923087D01*
G01X527050Y-921156D01*
G01X526390Y-919328D01*
G01X525526Y-917600D01*
G01X524510Y-915975D01*
G01X523392Y-914400D01*
G01X522122Y-912978D01*
G01X520700Y-911708D01*
G01X519125Y-910590D01*
G01X517500Y-909574D01*
G01X515772Y-908710D01*
G01X513944Y-908050D01*
G01X512013Y-907542D01*
G01X510032Y-907288D01*
G37*
G36*
G01X1358900Y-1250036D02*
G01X1356868Y-1250188D01*
G01X1354887Y-1250442D01*
G01X1352956Y-1250950D01*
G01X1351128Y-1251610D01*
G01X1349400Y-1252474D01*
G01X1347775Y-1253490D01*
G01X1346200Y-1254608D01*
G01X1344778Y-1255878D01*
G01X1343508Y-1257300D01*
G01X1342390Y-1258875D01*
G01X1341374Y-1260500D01*
G01X1340510Y-1262228D01*
G01X1339850Y-1264056D01*
G01X1339342Y-1265987D01*
G01X1339088Y-1267968D01*
G01X1338936Y-1270000D01*
G01X1342288D01*
G01X1342390Y-1268324D01*
G01X1342644Y-1266647D01*
G01X1343050Y-1265072D01*
G01X1343609Y-1263548D01*
G01X1344270Y-1262075D01*
G01X1345133Y-1260704D01*
G01X1346098Y-1259434D01*
G01X1347165Y-1258265D01*
G01X1348334Y-1257198D01*
G01X1349604Y-1256233D01*
G01X1350975Y-1255370D01*
G01X1352448Y-1254709D01*
G01X1353972Y-1254150D01*
G01X1355547Y-1253744D01*
G01X1357224Y-1253490D01*
G01X1358900Y-1253388D01*
G01X1360576Y-1253490D01*
G01X1362253Y-1253744D01*
G01X1363828Y-1254150D01*
G01X1365352Y-1254709D01*
G01X1366825Y-1255370D01*
G01X1368196Y-1256233D01*
G01X1369466Y-1257198D01*
G01X1370635Y-1258265D01*
G01X1371702Y-1259434D01*
G01X1372667Y-1260704D01*
G01X1373530Y-1262075D01*
G01X1374191Y-1263548D01*
G01X1374750Y-1265072D01*
G01X1375156Y-1266647D01*
G01X1375410Y-1268324D01*
G01X1375512Y-1270000D01*
G01X1375410Y-1271676D01*
G01X1375156Y-1273353D01*
G01X1374750Y-1274928D01*
G01X1374191Y-1276452D01*
G01X1373530Y-1277925D01*
G01X1372667Y-1279296D01*
G01X1371702Y-1280566D01*
G01X1370635Y-1281735D01*
G01X1369466Y-1282802D01*
G01X1368196Y-1283767D01*
G01X1366825Y-1284630D01*
G01X1365352Y-1285291D01*
G01X1363828Y-1285850D01*
G01X1362253Y-1286256D01*
G01X1360576Y-1286510D01*
G01X1358900Y-1286612D01*
G01X1357224Y-1286510D01*
G01X1355547Y-1286256D01*
G01X1353972Y-1285850D01*
G01X1352448Y-1285291D01*
G01X1350975Y-1284630D01*
G01X1349604Y-1283767D01*
G01X1348334Y-1282802D01*
G01X1347165Y-1281735D01*
G01X1346098Y-1280566D01*
G01X1345133Y-1279296D01*
G01X1344270Y-1277925D01*
G01X1343609Y-1276452D01*
G01X1343050Y-1274928D01*
G01X1342644Y-1273353D01*
G01X1342390Y-1271676D01*
G01X1342288Y-1270000D01*
G01X1338936D01*
G01X1339088Y-1272032D01*
G01X1339342Y-1274013D01*
G01X1339850Y-1275944D01*
G01X1340510Y-1277772D01*
G01X1341374Y-1279500D01*
G01X1342390Y-1281125D01*
G01X1343508Y-1282700D01*
G01X1344778Y-1284122D01*
G01X1346200Y-1285392D01*
G01X1347775Y-1286510D01*
G01X1349400Y-1287526D01*
G01X1351128Y-1288390D01*
G01X1352956Y-1289050D01*
G01X1354887Y-1289558D01*
G01X1356868Y-1289812D01*
G01X1358900Y-1289914D01*
G01X1360932Y-1289812D01*
G01X1362913Y-1289558D01*
G01X1364844Y-1289050D01*
G01X1366672Y-1288390D01*
G01X1368400Y-1287526D01*
G01X1370025Y-1286510D01*
G01X1371600Y-1285392D01*
G01X1373022Y-1284122D01*
G01X1374292Y-1282700D01*
G01X1375410Y-1281125D01*
G01X1376426Y-1279500D01*
G01X1377290Y-1277772D01*
G01X1377950Y-1275944D01*
G01X1378458Y-1274013D01*
G01X1378712Y-1272032D01*
G01X1378864Y-1270000D01*
G01X1378712Y-1267968D01*
G01X1378458Y-1265987D01*
G01X1377950Y-1264056D01*
G01X1377290Y-1262228D01*
G01X1376426Y-1260500D01*
G01X1375410Y-1258875D01*
G01X1374292Y-1257300D01*
G01X1373022Y-1255878D01*
G01X1371600Y-1254608D01*
G01X1370025Y-1253490D01*
G01X1368400Y-1252474D01*
G01X1366672Y-1251610D01*
G01X1364844Y-1250950D01*
G01X1362913Y-1250442D01*
G01X1360932Y-1250188D01*
G37*
G36*
G01X-635000Y1112164D02*
G01X-637032Y1112012D01*
G01X-639013Y1111758D01*
G01X-640944Y1111250D01*
G01X-642772Y1110590D01*
G01X-644500Y1109726D01*
G01X-646125Y1108710D01*
G01X-647700Y1107592D01*
G01X-649122Y1106322D01*
G01X-650392Y1104900D01*
G01X-651510Y1103325D01*
G01X-652526Y1101700D01*
G01X-653390Y1099972D01*
G01X-654050Y1098144D01*
G01X-654558Y1096213D01*
G01X-654812Y1094232D01*
G01X-654914Y1092200D01*
G01X-651612D01*
G01X-651510Y1093876D01*
G01X-651256Y1095553D01*
G01X-650850Y1097128D01*
G01X-650291Y1098652D01*
G01X-649630Y1100125D01*
G01X-648767Y1101496D01*
G01X-647802Y1102766D01*
G01X-646735Y1103935D01*
G01X-645566Y1105002D01*
G01X-644296Y1105967D01*
G01X-642925Y1106830D01*
G01X-641452Y1107491D01*
G01X-639928Y1108050D01*
G01X-638353Y1108456D01*
G01X-636676Y1108710D01*
G01X-635000Y1108812D01*
G01X-633324Y1108710D01*
G01X-631647Y1108456D01*
G01X-630072Y1108050D01*
G01X-628548Y1107491D01*
G01X-627075Y1106830D01*
G01X-625704Y1105967D01*
G01X-624434Y1105002D01*
G01X-623265Y1103935D01*
G01X-622198Y1102766D01*
G01X-621233Y1101496D01*
G01X-620370Y1100125D01*
G01X-619709Y1098652D01*
G01X-619150Y1097128D01*
G01X-618744Y1095553D01*
G01X-618490Y1093876D01*
G01X-618388Y1092200D01*
G01X-618490Y1090524D01*
G01X-618744Y1088847D01*
G01X-619150Y1087272D01*
G01X-619709Y1085748D01*
G01X-620370Y1084275D01*
G01X-621233Y1082904D01*
G01X-622198Y1081634D01*
G01X-623265Y1080465D01*
G01X-624434Y1079398D01*
G01X-625704Y1078433D01*
G01X-627075Y1077570D01*
G01X-628548Y1076909D01*
G01X-630072Y1076350D01*
G01X-631647Y1075944D01*
G01X-633324Y1075690D01*
G01X-635000Y1075588D01*
G01X-636676Y1075690D01*
G01X-638353Y1075944D01*
G01X-639928Y1076350D01*
G01X-641452Y1076909D01*
G01X-642925Y1077570D01*
G01X-644296Y1078433D01*
G01X-645566Y1079398D01*
G01X-646735Y1080465D01*
G01X-647802Y1081634D01*
G01X-648767Y1082904D01*
G01X-649630Y1084275D01*
G01X-650291Y1085748D01*
G01X-650850Y1087272D01*
G01X-651256Y1088847D01*
G01X-651510Y1090524D01*
G01X-651612Y1092200D01*
G01X-654914D01*
G01X-654812Y1090168D01*
G01X-654558Y1088187D01*
G01X-654050Y1086256D01*
G01X-653390Y1084428D01*
G01X-652526Y1082700D01*
G01X-651510Y1081075D01*
G01X-650392Y1079500D01*
G01X-649122Y1078078D01*
G01X-647700Y1076808D01*
G01X-646125Y1075690D01*
G01X-644500Y1074674D01*
G01X-642772Y1073810D01*
G01X-640944Y1073150D01*
G01X-639013Y1072642D01*
G01X-637032Y1072388D01*
G01X-635000Y1072286D01*
G01X-632968Y1072388D01*
G01X-630987Y1072642D01*
G01X-629056Y1073150D01*
G01X-627228Y1073810D01*
G01X-625500Y1074674D01*
G01X-623875Y1075690D01*
G01X-622300Y1076808D01*
G01X-620878Y1078078D01*
G01X-619608Y1079500D01*
G01X-618490Y1081075D01*
G01X-617474Y1082700D01*
G01X-616610Y1084428D01*
G01X-615950Y1086256D01*
G01X-615442Y1088187D01*
G01X-615188Y1090168D01*
G01X-615036Y1092200D01*
G01X-615188Y1094232D01*
G01X-615442Y1096213D01*
G01X-615950Y1098144D01*
G01X-616610Y1099972D01*
G01X-617474Y1101700D01*
G01X-618490Y1103325D01*
G01X-619608Y1104900D01*
G01X-620878Y1106322D01*
G01X-622300Y1107592D01*
G01X-623875Y1108710D01*
G01X-625500Y1109726D01*
G01X-627228Y1110590D01*
G01X-629056Y1111250D01*
G01X-630987Y1111758D01*
G01X-632968Y1112012D01*
G37*
G36*
G01X-736600Y1112164D02*
G01X-738632Y1112012D01*
G01X-740613Y1111758D01*
G01X-742544Y1111250D01*
G01X-744372Y1110590D01*
G01X-746100Y1109726D01*
G01X-747725Y1108710D01*
G01X-749300Y1107592D01*
G01X-750722Y1106322D01*
G01X-751992Y1104900D01*
G01X-753110Y1103325D01*
G01X-754126Y1101700D01*
G01X-754990Y1099972D01*
G01X-755650Y1098144D01*
G01X-756158Y1096213D01*
G01X-756412Y1094232D01*
G01X-756514Y1092200D01*
G01X-753212D01*
G01X-753110Y1093876D01*
G01X-752856Y1095553D01*
G01X-752450Y1097128D01*
G01X-751891Y1098652D01*
G01X-751230Y1100125D01*
G01X-750367Y1101496D01*
G01X-749402Y1102766D01*
G01X-748335Y1103935D01*
G01X-747166Y1105002D01*
G01X-745896Y1105967D01*
G01X-744525Y1106830D01*
G01X-743052Y1107491D01*
G01X-741528Y1108050D01*
G01X-739953Y1108456D01*
G01X-738276Y1108710D01*
G01X-736600Y1108812D01*
G01X-734924Y1108710D01*
G01X-733247Y1108456D01*
G01X-731672Y1108050D01*
G01X-730148Y1107491D01*
G01X-728675Y1106830D01*
G01X-727304Y1105967D01*
G01X-726034Y1105002D01*
G01X-724865Y1103935D01*
G01X-723798Y1102766D01*
G01X-722833Y1101496D01*
G01X-721970Y1100125D01*
G01X-721309Y1098652D01*
G01X-720750Y1097128D01*
G01X-720344Y1095553D01*
G01X-720090Y1093876D01*
G01X-719988Y1092200D01*
G01X-720090Y1090524D01*
G01X-720344Y1088847D01*
G01X-720750Y1087272D01*
G01X-721309Y1085748D01*
G01X-721970Y1084275D01*
G01X-722833Y1082904D01*
G01X-723798Y1081634D01*
G01X-724865Y1080465D01*
G01X-726034Y1079398D01*
G01X-727304Y1078433D01*
G01X-728675Y1077570D01*
G01X-730148Y1076909D01*
G01X-731672Y1076350D01*
G01X-733247Y1075944D01*
G01X-734924Y1075690D01*
G01X-736600Y1075588D01*
G01X-738276Y1075690D01*
G01X-739953Y1075944D01*
G01X-741528Y1076350D01*
G01X-743052Y1076909D01*
G01X-744525Y1077570D01*
G01X-745896Y1078433D01*
G01X-747166Y1079398D01*
G01X-748335Y1080465D01*
G01X-749402Y1081634D01*
G01X-750367Y1082904D01*
G01X-751230Y1084275D01*
G01X-751891Y1085748D01*
G01X-752450Y1087272D01*
G01X-752856Y1088847D01*
G01X-753110Y1090524D01*
G01X-753212Y1092200D01*
G01X-756514D01*
G01X-756412Y1090168D01*
G01X-756158Y1088187D01*
G01X-755650Y1086256D01*
G01X-754990Y1084428D01*
G01X-754126Y1082700D01*
G01X-753110Y1081075D01*
G01X-751992Y1079500D01*
G01X-750722Y1078078D01*
G01X-749300Y1076808D01*
G01X-747725Y1075690D01*
G01X-746100Y1074674D01*
G01X-744372Y1073810D01*
G01X-742544Y1073150D01*
G01X-740613Y1072642D01*
G01X-738632Y1072388D01*
G01X-736600Y1072286D01*
G01X-734568Y1072388D01*
G01X-732587Y1072642D01*
G01X-730656Y1073150D01*
G01X-728828Y1073810D01*
G01X-727100Y1074674D01*
G01X-725475Y1075690D01*
G01X-723900Y1076808D01*
G01X-722478Y1078078D01*
G01X-721208Y1079500D01*
G01X-720090Y1081075D01*
G01X-719074Y1082700D01*
G01X-718210Y1084428D01*
G01X-717550Y1086256D01*
G01X-717042Y1088187D01*
G01X-716788Y1090168D01*
G01X-716636Y1092200D01*
G01X-716788Y1094232D01*
G01X-717042Y1096213D01*
G01X-717550Y1098144D01*
G01X-718210Y1099972D01*
G01X-719074Y1101700D01*
G01X-720090Y1103325D01*
G01X-721208Y1104900D01*
G01X-722478Y1106322D01*
G01X-723900Y1107592D01*
G01X-725475Y1108710D01*
G01X-727100Y1109726D01*
G01X-728828Y1110590D01*
G01X-730656Y1111250D01*
G01X-732587Y1111758D01*
G01X-734568Y1112012D01*
G37*
G36*
G01X-850900Y1112164D02*
G01X-852932Y1112012D01*
G01X-854913Y1111758D01*
G01X-856844Y1111250D01*
G01X-858672Y1110590D01*
G01X-860400Y1109726D01*
G01X-862025Y1108710D01*
G01X-863600Y1107592D01*
G01X-865022Y1106322D01*
G01X-866292Y1104900D01*
G01X-867410Y1103325D01*
G01X-868426Y1101700D01*
G01X-869290Y1099972D01*
G01X-869950Y1098144D01*
G01X-870458Y1096213D01*
G01X-870712Y1094232D01*
G01X-870864Y1092200D01*
G01X-867512D01*
G01X-867410Y1093876D01*
G01X-867156Y1095553D01*
G01X-866750Y1097128D01*
G01X-866191Y1098652D01*
G01X-865530Y1100125D01*
G01X-864667Y1101496D01*
G01X-863702Y1102766D01*
G01X-862635Y1103935D01*
G01X-861466Y1105002D01*
G01X-860196Y1105967D01*
G01X-858825Y1106830D01*
G01X-857352Y1107491D01*
G01X-855828Y1108050D01*
G01X-854253Y1108456D01*
G01X-852576Y1108710D01*
G01X-850900Y1108812D01*
G01X-849224Y1108710D01*
G01X-847547Y1108456D01*
G01X-845972Y1108050D01*
G01X-844448Y1107491D01*
G01X-842975Y1106830D01*
G01X-841604Y1105967D01*
G01X-840334Y1105002D01*
G01X-839165Y1103935D01*
G01X-838098Y1102766D01*
G01X-837133Y1101496D01*
G01X-836270Y1100125D01*
G01X-835609Y1098652D01*
G01X-835050Y1097128D01*
G01X-834644Y1095553D01*
G01X-834390Y1093876D01*
G01X-834288Y1092200D01*
G01X-834390Y1090524D01*
G01X-834644Y1088847D01*
G01X-835050Y1087272D01*
G01X-835609Y1085748D01*
G01X-836270Y1084275D01*
G01X-837133Y1082904D01*
G01X-838098Y1081634D01*
G01X-839165Y1080465D01*
G01X-840334Y1079398D01*
G01X-841604Y1078433D01*
G01X-842975Y1077570D01*
G01X-844448Y1076909D01*
G01X-845972Y1076350D01*
G01X-847547Y1075944D01*
G01X-849224Y1075690D01*
G01X-850900Y1075588D01*
G01X-852576Y1075690D01*
G01X-854253Y1075944D01*
G01X-855828Y1076350D01*
G01X-857352Y1076909D01*
G01X-858825Y1077570D01*
G01X-860196Y1078433D01*
G01X-861466Y1079398D01*
G01X-862635Y1080465D01*
G01X-863702Y1081634D01*
G01X-864667Y1082904D01*
G01X-865530Y1084275D01*
G01X-866191Y1085748D01*
G01X-866750Y1087272D01*
G01X-867156Y1088847D01*
G01X-867410Y1090524D01*
G01X-867512Y1092200D01*
G01X-870864D01*
G01X-870712Y1090168D01*
G01X-870458Y1088187D01*
G01X-869950Y1086256D01*
G01X-869290Y1084428D01*
G01X-868426Y1082700D01*
G01X-867410Y1081075D01*
G01X-866292Y1079500D01*
G01X-865022Y1078078D01*
G01X-863600Y1076808D01*
G01X-862025Y1075690D01*
G01X-860400Y1074674D01*
G01X-858672Y1073810D01*
G01X-856844Y1073150D01*
G01X-854913Y1072642D01*
G01X-852932Y1072388D01*
G01X-850900Y1072286D01*
G01X-848868Y1072388D01*
G01X-846887Y1072642D01*
G01X-844956Y1073150D01*
G01X-843128Y1073810D01*
G01X-841400Y1074674D01*
G01X-839775Y1075690D01*
G01X-838200Y1076808D01*
G01X-836778Y1078078D01*
G01X-835508Y1079500D01*
G01X-834390Y1081075D01*
G01X-833374Y1082700D01*
G01X-832510Y1084428D01*
G01X-831850Y1086256D01*
G01X-831342Y1088187D01*
G01X-831088Y1090168D01*
G01X-830986Y1092200D01*
G01X-831088Y1094232D01*
G01X-831342Y1096213D01*
G01X-831850Y1098144D01*
G01X-832510Y1099972D01*
G01X-833374Y1101700D01*
G01X-834390Y1103325D01*
G01X-835508Y1104900D01*
G01X-836778Y1106322D01*
G01X-838200Y1107592D01*
G01X-839775Y1108710D01*
G01X-841400Y1109726D01*
G01X-843128Y1110590D01*
G01X-844956Y1111250D01*
G01X-846887Y1111758D01*
G01X-848868Y1112012D01*
G37*
G36*
G01X1104900Y-43536D02*
G01X1102868Y-43688D01*
G01X1100887Y-43942D01*
G01X1098956Y-44450D01*
G01X1097128Y-45110D01*
G01X1095400Y-45974D01*
G01X1093775Y-46990D01*
G01X1092200Y-48108D01*
G01X1090778Y-49378D01*
G01X1089508Y-50800D01*
G01X1088390Y-52375D01*
G01X1087374Y-54000D01*
G01X1086510Y-55728D01*
G01X1085850Y-57556D01*
G01X1085342Y-59487D01*
G01X1085088Y-61468D01*
G01X1084936Y-63500D01*
G01X1088288D01*
G01X1088390Y-61824D01*
G01X1088644Y-60147D01*
G01X1089050Y-58572D01*
G01X1089609Y-57048D01*
G01X1090270Y-55575D01*
G01X1091133Y-54204D01*
G01X1092098Y-52934D01*
G01X1093165Y-51765D01*
G01X1094334Y-50698D01*
G01X1095604Y-49733D01*
G01X1096975Y-48870D01*
G01X1098448Y-48209D01*
G01X1099972Y-47650D01*
G01X1101547Y-47244D01*
G01X1103224Y-46990D01*
G01X1104900Y-46888D01*
G01X1106576Y-46990D01*
G01X1108253Y-47244D01*
G01X1109828Y-47650D01*
G01X1111352Y-48209D01*
G01X1112825Y-48870D01*
G01X1114196Y-49733D01*
G01X1115466Y-50698D01*
G01X1116635Y-51765D01*
G01X1117702Y-52934D01*
G01X1118667Y-54204D01*
G01X1119530Y-55575D01*
G01X1120191Y-57048D01*
G01X1120750Y-58572D01*
G01X1121156Y-60147D01*
G01X1121410Y-61824D01*
G01X1121512Y-63500D01*
G01X1121410Y-65176D01*
G01X1121156Y-66853D01*
G01X1120750Y-68428D01*
G01X1120191Y-69952D01*
G01X1119530Y-71425D01*
G01X1118667Y-72796D01*
G01X1117702Y-74066D01*
G01X1116635Y-75235D01*
G01X1115466Y-76302D01*
G01X1114196Y-77267D01*
G01X1112825Y-78130D01*
G01X1111352Y-78791D01*
G01X1109828Y-79350D01*
G01X1108253Y-79756D01*
G01X1106576Y-80010D01*
G01X1104900Y-80112D01*
G01X1103224Y-80010D01*
G01X1101547Y-79756D01*
G01X1099972Y-79350D01*
G01X1098448Y-78791D01*
G01X1096975Y-78130D01*
G01X1095604Y-77267D01*
G01X1094334Y-76302D01*
G01X1093165Y-75235D01*
G01X1092098Y-74066D01*
G01X1091133Y-72796D01*
G01X1090270Y-71425D01*
G01X1089609Y-69952D01*
G01X1089050Y-68428D01*
G01X1088644Y-66853D01*
G01X1088390Y-65176D01*
G01X1088288Y-63500D01*
G01X1084936D01*
G01X1085088Y-65532D01*
G01X1085342Y-67513D01*
G01X1085850Y-69444D01*
G01X1086510Y-71272D01*
G01X1087374Y-73000D01*
G01X1088390Y-74625D01*
G01X1089508Y-76200D01*
G01X1090778Y-77622D01*
G01X1092200Y-78892D01*
G01X1093775Y-80010D01*
G01X1095400Y-81026D01*
G01X1097128Y-81890D01*
G01X1098956Y-82550D01*
G01X1100887Y-83058D01*
G01X1102868Y-83312D01*
G01X1104900Y-83414D01*
G01X1106932Y-83312D01*
G01X1108913Y-83058D01*
G01X1110844Y-82550D01*
G01X1112672Y-81890D01*
G01X1114400Y-81026D01*
G01X1116025Y-80010D01*
G01X1117600Y-78892D01*
G01X1119022Y-77622D01*
G01X1120292Y-76200D01*
G01X1121410Y-74625D01*
G01X1122426Y-73000D01*
G01X1123290Y-71272D01*
G01X1123950Y-69444D01*
G01X1124458Y-67513D01*
G01X1124712Y-65532D01*
G01X1124864Y-63500D01*
G01X1124712Y-61468D01*
G01X1124458Y-59487D01*
G01X1123950Y-57556D01*
G01X1123290Y-55728D01*
G01X1122426Y-54000D01*
G01X1121410Y-52375D01*
G01X1120292Y-50800D01*
G01X1119022Y-49378D01*
G01X1117600Y-48108D01*
G01X1116025Y-46990D01*
G01X1114400Y-45974D01*
G01X1112672Y-45110D01*
G01X1110844Y-44450D01*
G01X1108913Y-43942D01*
G01X1106932Y-43688D01*
G37*
G36*
G01X1016000Y-94336D02*
G01X1013968Y-94488D01*
G01X1011987Y-94742D01*
G01X1010056Y-95250D01*
G01X1008228Y-95910D01*
G01X1006500Y-96774D01*
G01X1004875Y-97790D01*
G01X1003300Y-98908D01*
G01X1001878Y-100178D01*
G01X1000608Y-101600D01*
G01X999490Y-103175D01*
G01X998474Y-104800D01*
G01X997610Y-106528D01*
G01X996950Y-108356D01*
G01X996442Y-110287D01*
G01X996188Y-112268D01*
G01X996036Y-114300D01*
G01X999388D01*
G01X999490Y-112624D01*
G01X999744Y-110947D01*
G01X1000150Y-109372D01*
G01X1000709Y-107848D01*
G01X1001370Y-106375D01*
G01X1002233Y-105004D01*
G01X1003198Y-103734D01*
G01X1004265Y-102565D01*
G01X1005434Y-101498D01*
G01X1006704Y-100533D01*
G01X1008075Y-99670D01*
G01X1009548Y-99009D01*
G01X1011072Y-98450D01*
G01X1012647Y-98044D01*
G01X1014324Y-97790D01*
G01X1016000Y-97688D01*
G01X1017676Y-97790D01*
G01X1019353Y-98044D01*
G01X1020928Y-98450D01*
G01X1022452Y-99009D01*
G01X1023925Y-99670D01*
G01X1025296Y-100533D01*
G01X1026566Y-101498D01*
G01X1027735Y-102565D01*
G01X1028802Y-103734D01*
G01X1029767Y-105004D01*
G01X1030630Y-106375D01*
G01X1031291Y-107848D01*
G01X1031850Y-109372D01*
G01X1032256Y-110947D01*
G01X1032510Y-112624D01*
G01X1032612Y-114300D01*
G01X1032510Y-115976D01*
G01X1032256Y-117653D01*
G01X1031850Y-119228D01*
G01X1031291Y-120752D01*
G01X1030630Y-122225D01*
G01X1029767Y-123596D01*
G01X1028802Y-124866D01*
G01X1027735Y-126035D01*
G01X1026566Y-127102D01*
G01X1025296Y-128067D01*
G01X1023925Y-128930D01*
G01X1022452Y-129591D01*
G01X1020928Y-130150D01*
G01X1019353Y-130556D01*
G01X1017676Y-130810D01*
G01X1016000Y-130912D01*
G01X1014324Y-130810D01*
G01X1012647Y-130556D01*
G01X1011072Y-130150D01*
G01X1009548Y-129591D01*
G01X1008075Y-128930D01*
G01X1006704Y-128067D01*
G01X1005434Y-127102D01*
G01X1004265Y-126035D01*
G01X1003198Y-124866D01*
G01X1002233Y-123596D01*
G01X1001370Y-122225D01*
G01X1000709Y-120752D01*
G01X1000150Y-119228D01*
G01X999744Y-117653D01*
G01X999490Y-115976D01*
G01X999388Y-114300D01*
G01X996036D01*
G01X996188Y-116332D01*
G01X996442Y-118313D01*
G01X996950Y-120244D01*
G01X997610Y-122072D01*
G01X998474Y-123800D01*
G01X999490Y-125425D01*
G01X1000608Y-127000D01*
G01X1001878Y-128422D01*
G01X1003300Y-129692D01*
G01X1004875Y-130810D01*
G01X1006500Y-131826D01*
G01X1008228Y-132690D01*
G01X1010056Y-133350D01*
G01X1011987Y-133858D01*
G01X1013968Y-134112D01*
G01X1016000Y-134214D01*
G01X1018032Y-134112D01*
G01X1020013Y-133858D01*
G01X1021944Y-133350D01*
G01X1023772Y-132690D01*
G01X1025500Y-131826D01*
G01X1027125Y-130810D01*
G01X1028700Y-129692D01*
G01X1030122Y-128422D01*
G01X1031392Y-127000D01*
G01X1032510Y-125425D01*
G01X1033526Y-123800D01*
G01X1034390Y-122072D01*
G01X1035050Y-120244D01*
G01X1035558Y-118313D01*
G01X1035812Y-116332D01*
G01X1035964Y-114300D01*
G01X1035812Y-112268D01*
G01X1035558Y-110287D01*
G01X1035050Y-108356D01*
G01X1034390Y-106528D01*
G01X1033526Y-104800D01*
G01X1032510Y-103175D01*
G01X1031392Y-101600D01*
G01X1030122Y-100178D01*
G01X1028700Y-98908D01*
G01X1027125Y-97790D01*
G01X1025500Y-96774D01*
G01X1023772Y-95910D01*
G01X1021944Y-95250D01*
G01X1020013Y-94742D01*
G01X1018032Y-94488D01*
G37*
G36*
G01X393700Y-246736D02*
G01X391668Y-246888D01*
G01X389687Y-247142D01*
G01X387756Y-247650D01*
G01X385928Y-248310D01*
G01X384200Y-249174D01*
G01X382575Y-250190D01*
G01X381000Y-251308D01*
G01X379578Y-252578D01*
G01X378308Y-254000D01*
G01X377190Y-255575D01*
G01X376174Y-257200D01*
G01X375310Y-258928D01*
G01X374650Y-260756D01*
G01X374142Y-262687D01*
G01X373888Y-264668D01*
G01X373786Y-266700D01*
G01X377088D01*
G01X377190Y-265024D01*
G01X377444Y-263347D01*
G01X377850Y-261772D01*
G01X378409Y-260248D01*
G01X379070Y-258775D01*
G01X379933Y-257404D01*
G01X380898Y-256134D01*
G01X381965Y-254965D01*
G01X383134Y-253898D01*
G01X384404Y-252933D01*
G01X385775Y-252070D01*
G01X387248Y-251409D01*
G01X388772Y-250850D01*
G01X390347Y-250444D01*
G01X392024Y-250190D01*
G01X393700Y-250088D01*
G01X395376Y-250190D01*
G01X397053Y-250444D01*
G01X398628Y-250850D01*
G01X400152Y-251409D01*
G01X401625Y-252070D01*
G01X402996Y-252933D01*
G01X404266Y-253898D01*
G01X405435Y-254965D01*
G01X406502Y-256134D01*
G01X407467Y-257404D01*
G01X408330Y-258775D01*
G01X408991Y-260248D01*
G01X409550Y-261772D01*
G01X409956Y-263347D01*
G01X410210Y-265024D01*
G01X410312Y-266700D01*
G01X410210Y-268376D01*
G01X409956Y-270053D01*
G01X409550Y-271628D01*
G01X408991Y-273152D01*
G01X408330Y-274625D01*
G01X407467Y-275996D01*
G01X406502Y-277266D01*
G01X405435Y-278435D01*
G01X404266Y-279502D01*
G01X402996Y-280467D01*
G01X401625Y-281330D01*
G01X400152Y-281991D01*
G01X398628Y-282550D01*
G01X397053Y-282956D01*
G01X395376Y-283210D01*
G01X393700Y-283312D01*
G01X392024Y-283210D01*
G01X390347Y-282956D01*
G01X388772Y-282550D01*
G01X387248Y-281991D01*
G01X385775Y-281330D01*
G01X384404Y-280467D01*
G01X383134Y-279502D01*
G01X381965Y-278435D01*
G01X380898Y-277266D01*
G01X379933Y-275996D01*
G01X379070Y-274625D01*
G01X378409Y-273152D01*
G01X377850Y-271628D01*
G01X377444Y-270053D01*
G01X377190Y-268376D01*
G01X377088Y-266700D01*
G01X373786D01*
G01X373888Y-268732D01*
G01X374142Y-270713D01*
G01X374650Y-272644D01*
G01X375310Y-274472D01*
G01X376174Y-276200D01*
G01X377190Y-277825D01*
G01X378308Y-279400D01*
G01X379578Y-280822D01*
G01X381000Y-282092D01*
G01X382575Y-283210D01*
G01X384200Y-284226D01*
G01X385928Y-285090D01*
G01X387756Y-285750D01*
G01X389687Y-286258D01*
G01X391668Y-286512D01*
G01X393700Y-286614D01*
G01X395732Y-286512D01*
G01X397713Y-286258D01*
G01X399644Y-285750D01*
G01X401472Y-285090D01*
G01X403200Y-284226D01*
G01X404825Y-283210D01*
G01X406400Y-282092D01*
G01X407822Y-280822D01*
G01X409092Y-279400D01*
G01X410210Y-277825D01*
G01X411226Y-276200D01*
G01X412090Y-274472D01*
G01X412750Y-272644D01*
G01X413258Y-270713D01*
G01X413512Y-268732D01*
G01X413664Y-266700D01*
G01X413512Y-264668D01*
G01X413258Y-262687D01*
G01X412750Y-260756D01*
G01X412090Y-258928D01*
G01X411226Y-257200D01*
G01X410210Y-255575D01*
G01X409092Y-254000D01*
G01X407822Y-252578D01*
G01X406400Y-251308D01*
G01X404825Y-250190D01*
G01X403200Y-249174D01*
G01X401472Y-248310D01*
G01X399644Y-247650D01*
G01X397713Y-247142D01*
G01X395732Y-246888D01*
G37*
G36*
G01X-990600Y543509D02*
G01X-992632Y543408D01*
G01X-994613Y543103D01*
G01X-996544Y542646D01*
G01X-998372Y541934D01*
G01X-1000100Y541122D01*
G01X-1001725Y540106D01*
G01X-1003300Y538988D01*
G01X-1004722Y537667D01*
G01X-1005992Y536245D01*
G01X-1007110Y534721D01*
G01X-1008126Y533095D01*
G01X-1008990Y531368D01*
G01X-1009650Y529539D01*
G01X-1010158Y527609D01*
G01X-1010412Y525628D01*
G01X-1010564Y523596D01*
G01X-1007212D01*
G01X-1007110Y525272D01*
G01X-1006856Y526948D01*
G01X-1006450Y528523D01*
G01X-1005891Y530047D01*
G01X-1005230Y531520D01*
G01X-1004367Y532892D01*
G01X-1003402Y534162D01*
G01X-1002335Y535330D01*
G01X-1001166Y536397D01*
G01X-999896Y537362D01*
G01X-998525Y538175D01*
G01X-997052Y538886D01*
G01X-995528Y539445D01*
G01X-993953Y539852D01*
G01X-992276Y540106D01*
G01X-990600Y540207D01*
G01X-988924Y540106D01*
G01X-987247Y539852D01*
G01X-985672Y539445D01*
G01X-984148Y538886D01*
G01X-982675Y538175D01*
G01X-981304Y537362D01*
G01X-980034Y536397D01*
G01X-978865Y535330D01*
G01X-977798Y534162D01*
G01X-976833Y532892D01*
G01X-975970Y531520D01*
G01X-975309Y530047D01*
G01X-974750Y528523D01*
G01X-974344Y526948D01*
G01X-974090Y525272D01*
G01X-973988Y523596D01*
G01X-974090Y521868D01*
G01X-974344Y520243D01*
G01X-974750Y518668D01*
G01X-975309Y517144D01*
G01X-975970Y515671D01*
G01X-976833Y514299D01*
G01X-977798Y513029D01*
G01X-978865Y511861D01*
G01X-980034Y510743D01*
G01X-981304Y509829D01*
G01X-982675Y508965D01*
G01X-984148Y508254D01*
G01X-985672Y507695D01*
G01X-987247Y507289D01*
G01X-988924Y507035D01*
G01X-990600Y506984D01*
G01X-992276Y507035D01*
G01X-993953Y507289D01*
G01X-995528Y507695D01*
G01X-997052Y508254D01*
G01X-998525Y508965D01*
G01X-999896Y509829D01*
G01X-1001166Y510743D01*
G01X-1002335Y511861D01*
G01X-1003402Y513029D01*
G01X-1004367Y514299D01*
G01X-1005230Y515671D01*
G01X-1005891Y517144D01*
G01X-1006450Y518668D01*
G01X-1006856Y520243D01*
G01X-1007110Y521868D01*
G01X-1007212Y523596D01*
G01X-1010564D01*
G01X-1010412Y521564D01*
G01X-1010158Y519582D01*
G01X-1009650Y517652D01*
G01X-1008990Y515823D01*
G01X-1008126Y514096D01*
G01X-1007110Y512420D01*
G01X-1005992Y510896D01*
G01X-1004722Y509473D01*
G01X-1003300Y508203D01*
G01X-1001725Y507035D01*
G01X-1000100Y506070D01*
G01X-998372Y505206D01*
G01X-996544Y504546D01*
G01X-994613Y504038D01*
G01X-992632Y503733D01*
G01X-990600Y503631D01*
G01X-988568Y503733D01*
G01X-986587Y504038D01*
G01X-984656Y504546D01*
G01X-982828Y505206D01*
G01X-981100Y506070D01*
G01X-979475Y507035D01*
G01X-977900Y508203D01*
G01X-976478Y509473D01*
G01X-975208Y510896D01*
G01X-974090Y512420D01*
G01X-973074Y514096D01*
G01X-972210Y515823D01*
G01X-971550Y517652D01*
G01X-971042Y519582D01*
G01X-970788Y521564D01*
G01X-970636Y523596D01*
G01X-970788Y525628D01*
G01X-971042Y527609D01*
G01X-971550Y529539D01*
G01X-972210Y531368D01*
G01X-973074Y533095D01*
G01X-974090Y534721D01*
G01X-975208Y536245D01*
G01X-976478Y537667D01*
G01X-977900Y538988D01*
G01X-979475Y540106D01*
G01X-981100Y541122D01*
G01X-982828Y541934D01*
G01X-984656Y542646D01*
G01X-986587Y543103D01*
G01X-988568Y543408D01*
G37*
G36*
G01X-711200Y464464D02*
G01X-713232Y464312D01*
G01X-715213Y464058D01*
G01X-717144Y463550D01*
G01X-718972Y462890D01*
G01X-720700Y462026D01*
G01X-722325Y461010D01*
G01X-723900Y459892D01*
G01X-725322Y458622D01*
G01X-726592Y457200D01*
G01X-727710Y455625D01*
G01X-728726Y454000D01*
G01X-729590Y452272D01*
G01X-730250Y450444D01*
G01X-730758Y448513D01*
G01X-731012Y446532D01*
G01X-731114Y444500D01*
G01X-727812D01*
G01X-727710Y446176D01*
G01X-727456Y447853D01*
G01X-727050Y449428D01*
G01X-726491Y450952D01*
G01X-725830Y452425D01*
G01X-724967Y453796D01*
G01X-724002Y455066D01*
G01X-722935Y456235D01*
G01X-721766Y457302D01*
G01X-720496Y458267D01*
G01X-719125Y459130D01*
G01X-717652Y459791D01*
G01X-716128Y460350D01*
G01X-714553Y460756D01*
G01X-712876Y461010D01*
G01X-711200Y461112D01*
G01X-709524Y461010D01*
G01X-707847Y460756D01*
G01X-706272Y460350D01*
G01X-704748Y459791D01*
G01X-703275Y459130D01*
G01X-701904Y458267D01*
G01X-700634Y457302D01*
G01X-699465Y456235D01*
G01X-698398Y455066D01*
G01X-697433Y453796D01*
G01X-696570Y452425D01*
G01X-695909Y450952D01*
G01X-695350Y449428D01*
G01X-694944Y447853D01*
G01X-694690Y446176D01*
G01X-694588Y444500D01*
G01X-694690Y442824D01*
G01X-694944Y441147D01*
G01X-695350Y439572D01*
G01X-695909Y438048D01*
G01X-696570Y436575D01*
G01X-697433Y435204D01*
G01X-698398Y433934D01*
G01X-699465Y432765D01*
G01X-700634Y431698D01*
G01X-701904Y430733D01*
G01X-703275Y429870D01*
G01X-704748Y429209D01*
G01X-706272Y428650D01*
G01X-707847Y428244D01*
G01X-709524Y427990D01*
G01X-711200Y427888D01*
G01X-712876Y427990D01*
G01X-714553Y428244D01*
G01X-716128Y428650D01*
G01X-717652Y429209D01*
G01X-719125Y429870D01*
G01X-720496Y430733D01*
G01X-721766Y431698D01*
G01X-722935Y432765D01*
G01X-724002Y433934D01*
G01X-724967Y435204D01*
G01X-725830Y436575D01*
G01X-726491Y438048D01*
G01X-727050Y439572D01*
G01X-727456Y441147D01*
G01X-727710Y442824D01*
G01X-727812Y444500D01*
G01X-731114D01*
G01X-731012Y442468D01*
G01X-730758Y440487D01*
G01X-730250Y438556D01*
G01X-729590Y436728D01*
G01X-728726Y435000D01*
G01X-727710Y433375D01*
G01X-726592Y431800D01*
G01X-725322Y430378D01*
G01X-723900Y429108D01*
G01X-722325Y427990D01*
G01X-720700Y426974D01*
G01X-718972Y426110D01*
G01X-717144Y425450D01*
G01X-715213Y424942D01*
G01X-713232Y424688D01*
G01X-711200Y424586D01*
G01X-709168Y424688D01*
G01X-707187Y424942D01*
G01X-705256Y425450D01*
G01X-703428Y426110D01*
G01X-701700Y426974D01*
G01X-700075Y427990D01*
G01X-698500Y429108D01*
G01X-697078Y430378D01*
G01X-695808Y431800D01*
G01X-694690Y433375D01*
G01X-693674Y435000D01*
G01X-692810Y436728D01*
G01X-692150Y438556D01*
G01X-691642Y440487D01*
G01X-691388Y442468D01*
G01X-691236Y444500D01*
G01X-691388Y446532D01*
G01X-691642Y448513D01*
G01X-692150Y450444D01*
G01X-692810Y452272D01*
G01X-693674Y454000D01*
G01X-694690Y455625D01*
G01X-695808Y457200D01*
G01X-697078Y458622D01*
G01X-698500Y459892D01*
G01X-700075Y461010D01*
G01X-701700Y462026D01*
G01X-703428Y462890D01*
G01X-705256Y463550D01*
G01X-707187Y464058D01*
G01X-709168Y464312D01*
G37*
G36*
G01X508000Y-754736D02*
G01X505968Y-754888D01*
G01X503987Y-755142D01*
G01X502056Y-755650D01*
G01X500228Y-756310D01*
G01X498500Y-757174D01*
G01X496875Y-758190D01*
G01X495300Y-759308D01*
G01X493878Y-760578D01*
G01X492608Y-762000D01*
G01X491490Y-763575D01*
G01X490474Y-765200D01*
G01X489610Y-766928D01*
G01X488950Y-768756D01*
G01X488442Y-770687D01*
G01X488188Y-772668D01*
G01X488086Y-774700D01*
G01X491388D01*
G01X491490Y-773024D01*
G01X491744Y-771347D01*
G01X492150Y-769772D01*
G01X492709Y-768248D01*
G01X493370Y-766775D01*
G01X494233Y-765404D01*
G01X495198Y-764134D01*
G01X496265Y-762965D01*
G01X497434Y-761898D01*
G01X498704Y-760933D01*
G01X500075Y-760070D01*
G01X501548Y-759409D01*
G01X503072Y-758850D01*
G01X504647Y-758444D01*
G01X506324Y-758190D01*
G01X508000Y-758088D01*
G01X509676Y-758190D01*
G01X511353Y-758444D01*
G01X512928Y-758850D01*
G01X514452Y-759409D01*
G01X515925Y-760070D01*
G01X517296Y-760933D01*
G01X518566Y-761898D01*
G01X519735Y-762965D01*
G01X520802Y-764134D01*
G01X521767Y-765404D01*
G01X522630Y-766775D01*
G01X523291Y-768248D01*
G01X523850Y-769772D01*
G01X524256Y-771347D01*
G01X524510Y-773024D01*
G01X524612Y-774700D01*
G01X524510Y-776376D01*
G01X524256Y-778053D01*
G01X523850Y-779628D01*
G01X523291Y-781152D01*
G01X522630Y-782625D01*
G01X521767Y-783996D01*
G01X520802Y-785266D01*
G01X519735Y-786435D01*
G01X518566Y-787502D01*
G01X517296Y-788467D01*
G01X515925Y-789330D01*
G01X514452Y-789991D01*
G01X512928Y-790550D01*
G01X511353Y-790956D01*
G01X509676Y-791210D01*
G01X508000Y-791312D01*
G01X506324Y-791210D01*
G01X504647Y-790956D01*
G01X503072Y-790550D01*
G01X501548Y-789991D01*
G01X500075Y-789330D01*
G01X498704Y-788467D01*
G01X497434Y-787502D01*
G01X496265Y-786435D01*
G01X495198Y-785266D01*
G01X494233Y-783996D01*
G01X493370Y-782625D01*
G01X492709Y-781152D01*
G01X492150Y-779628D01*
G01X491744Y-778053D01*
G01X491490Y-776376D01*
G01X491388Y-774700D01*
G01X488086D01*
G01X488188Y-776732D01*
G01X488442Y-778713D01*
G01X488950Y-780644D01*
G01X489610Y-782472D01*
G01X490474Y-784200D01*
G01X491490Y-785825D01*
G01X492608Y-787400D01*
G01X493878Y-788822D01*
G01X495300Y-790092D01*
G01X496875Y-791210D01*
G01X498500Y-792226D01*
G01X500228Y-793090D01*
G01X502056Y-793750D01*
G01X503987Y-794258D01*
G01X505968Y-794512D01*
G01X508000Y-794614D01*
G01X510032Y-794512D01*
G01X512013Y-794258D01*
G01X513944Y-793750D01*
G01X515772Y-793090D01*
G01X517500Y-792226D01*
G01X519125Y-791210D01*
G01X520700Y-790092D01*
G01X522122Y-788822D01*
G01X523392Y-787400D01*
G01X524510Y-785825D01*
G01X525526Y-784200D01*
G01X526390Y-782472D01*
G01X527050Y-780644D01*
G01X527558Y-778713D01*
G01X527812Y-776732D01*
G01X527964Y-774700D01*
G01X527812Y-772668D01*
G01X527558Y-770687D01*
G01X527050Y-768756D01*
G01X526390Y-766928D01*
G01X525526Y-765200D01*
G01X524510Y-763575D01*
G01X523392Y-762000D01*
G01X522122Y-760578D01*
G01X520700Y-759308D01*
G01X519125Y-758190D01*
G01X517500Y-757174D01*
G01X515772Y-756310D01*
G01X513944Y-755650D01*
G01X512013Y-755142D01*
G01X510032Y-754888D01*
G37*
G36*
G01X-596900Y464464D02*
G01X-598932Y464312D01*
G01X-600913Y464058D01*
G01X-602844Y463550D01*
G01X-604672Y462890D01*
G01X-606400Y462026D01*
G01X-608025Y461010D01*
G01X-609600Y459892D01*
G01X-611022Y458622D01*
G01X-612292Y457200D01*
G01X-613410Y455625D01*
G01X-614426Y454000D01*
G01X-615290Y452272D01*
G01X-615950Y450444D01*
G01X-616458Y448513D01*
G01X-616712Y446532D01*
G01X-616814Y444500D01*
G01X-613512D01*
G01X-613410Y446176D01*
G01X-613156Y447853D01*
G01X-612750Y449428D01*
G01X-612191Y450952D01*
G01X-611530Y452425D01*
G01X-610667Y453796D01*
G01X-609702Y455066D01*
G01X-608635Y456235D01*
G01X-607466Y457302D01*
G01X-606196Y458267D01*
G01X-604825Y459130D01*
G01X-603352Y459791D01*
G01X-601828Y460350D01*
G01X-600253Y460756D01*
G01X-598576Y461010D01*
G01X-596900Y461112D01*
G01X-595224Y461010D01*
G01X-593547Y460756D01*
G01X-591972Y460350D01*
G01X-590448Y459791D01*
G01X-588975Y459130D01*
G01X-587604Y458267D01*
G01X-586334Y457302D01*
G01X-585165Y456235D01*
G01X-584098Y455066D01*
G01X-583133Y453796D01*
G01X-582270Y452425D01*
G01X-581609Y450952D01*
G01X-581050Y449428D01*
G01X-580644Y447853D01*
G01X-580390Y446176D01*
G01X-580288Y444500D01*
G01X-580390Y442824D01*
G01X-580644Y441147D01*
G01X-581050Y439572D01*
G01X-581609Y438048D01*
G01X-582270Y436575D01*
G01X-583133Y435204D01*
G01X-584098Y433934D01*
G01X-585165Y432765D01*
G01X-586334Y431698D01*
G01X-587604Y430733D01*
G01X-588975Y429870D01*
G01X-590448Y429209D01*
G01X-591972Y428650D01*
G01X-593547Y428244D01*
G01X-595224Y427990D01*
G01X-596900Y427888D01*
G01X-598576Y427990D01*
G01X-600253Y428244D01*
G01X-601828Y428650D01*
G01X-603352Y429209D01*
G01X-604825Y429870D01*
G01X-606196Y430733D01*
G01X-607466Y431698D01*
G01X-608635Y432765D01*
G01X-609702Y433934D01*
G01X-610667Y435204D01*
G01X-611530Y436575D01*
G01X-612191Y438048D01*
G01X-612750Y439572D01*
G01X-613156Y441147D01*
G01X-613410Y442824D01*
G01X-613512Y444500D01*
G01X-616814D01*
G01X-616712Y442468D01*
G01X-616458Y440487D01*
G01X-615950Y438556D01*
G01X-615290Y436728D01*
G01X-614426Y435000D01*
G01X-613410Y433375D01*
G01X-612292Y431800D01*
G01X-611022Y430378D01*
G01X-609600Y429108D01*
G01X-608025Y427990D01*
G01X-606400Y426974D01*
G01X-604672Y426110D01*
G01X-602844Y425450D01*
G01X-600913Y424942D01*
G01X-598932Y424688D01*
G01X-596900Y424586D01*
G01X-594868Y424688D01*
G01X-592887Y424942D01*
G01X-590956Y425450D01*
G01X-589128Y426110D01*
G01X-587400Y426974D01*
G01X-585775Y427990D01*
G01X-584200Y429108D01*
G01X-582778Y430378D01*
G01X-581508Y431800D01*
G01X-580390Y433375D01*
G01X-579374Y435000D01*
G01X-578510Y436728D01*
G01X-577850Y438556D01*
G01X-577342Y440487D01*
G01X-577088Y442468D01*
G01X-576936Y444500D01*
G01X-577088Y446532D01*
G01X-577342Y448513D01*
G01X-577850Y450444D01*
G01X-578510Y452272D01*
G01X-579374Y454000D01*
G01X-580390Y455625D01*
G01X-581508Y457200D01*
G01X-582778Y458622D01*
G01X-584200Y459892D01*
G01X-585775Y461010D01*
G01X-587400Y462026D01*
G01X-589128Y462890D01*
G01X-590956Y463550D01*
G01X-592887Y464058D01*
G01X-594868Y464312D01*
G37*
G36*
G01X-863600Y477164D02*
G01X-865632Y477012D01*
G01X-867613Y476758D01*
G01X-869544Y476250D01*
G01X-871372Y475590D01*
G01X-873100Y474726D01*
G01X-874725Y473710D01*
G01X-876300Y472592D01*
G01X-877722Y471322D01*
G01X-878992Y469900D01*
G01X-880110Y468325D01*
G01X-881126Y466700D01*
G01X-881990Y464972D01*
G01X-882650Y463144D01*
G01X-883158Y461213D01*
G01X-883412Y459232D01*
G01X-883564Y457200D01*
G01X-880212D01*
G01X-880110Y458876D01*
G01X-879856Y460553D01*
G01X-879450Y462128D01*
G01X-878891Y463652D01*
G01X-878230Y465125D01*
G01X-877367Y466496D01*
G01X-876402Y467766D01*
G01X-875335Y468935D01*
G01X-874166Y470002D01*
G01X-872896Y470967D01*
G01X-871525Y471830D01*
G01X-870052Y472491D01*
G01X-868528Y473050D01*
G01X-866953Y473456D01*
G01X-865276Y473710D01*
G01X-863600Y473812D01*
G01X-861924Y473710D01*
G01X-860247Y473456D01*
G01X-858672Y473050D01*
G01X-857148Y472491D01*
G01X-855675Y471830D01*
G01X-854304Y470967D01*
G01X-853034Y470002D01*
G01X-851865Y468935D01*
G01X-850798Y467766D01*
G01X-849833Y466496D01*
G01X-848970Y465125D01*
G01X-848309Y463652D01*
G01X-847750Y462128D01*
G01X-847344Y460553D01*
G01X-847090Y458876D01*
G01X-846988Y457200D01*
G01X-847090Y455524D01*
G01X-847344Y453847D01*
G01X-847750Y452272D01*
G01X-848309Y450748D01*
G01X-848970Y449275D01*
G01X-849833Y447904D01*
G01X-850798Y446634D01*
G01X-851865Y445465D01*
G01X-853034Y444398D01*
G01X-854304Y443433D01*
G01X-855675Y442570D01*
G01X-857148Y441909D01*
G01X-858672Y441350D01*
G01X-860247Y440944D01*
G01X-861924Y440690D01*
G01X-863600Y440588D01*
G01X-865276Y440690D01*
G01X-866953Y440944D01*
G01X-868528Y441350D01*
G01X-870052Y441909D01*
G01X-871525Y442570D01*
G01X-872896Y443433D01*
G01X-874166Y444398D01*
G01X-875335Y445465D01*
G01X-876402Y446634D01*
G01X-877367Y447904D01*
G01X-878230Y449275D01*
G01X-878891Y450748D01*
G01X-879450Y452272D01*
G01X-879856Y453847D01*
G01X-880110Y455524D01*
G01X-880212Y457200D01*
G01X-883564D01*
G01X-883412Y455168D01*
G01X-883158Y453187D01*
G01X-882650Y451256D01*
G01X-881990Y449428D01*
G01X-881126Y447700D01*
G01X-880110Y446075D01*
G01X-878992Y444500D01*
G01X-877722Y443078D01*
G01X-876300Y441808D01*
G01X-874725Y440690D01*
G01X-873100Y439674D01*
G01X-871372Y438810D01*
G01X-869544Y438150D01*
G01X-867613Y437642D01*
G01X-865632Y437388D01*
G01X-863600Y437286D01*
G01X-861568Y437388D01*
G01X-859587Y437642D01*
G01X-857656Y438150D01*
G01X-855828Y438810D01*
G01X-854100Y439674D01*
G01X-852475Y440690D01*
G01X-850900Y441808D01*
G01X-849478Y443078D01*
G01X-848208Y444500D01*
G01X-847090Y446075D01*
G01X-846074Y447700D01*
G01X-845210Y449428D01*
G01X-844550Y451256D01*
G01X-844042Y453187D01*
G01X-843788Y455168D01*
G01X-843636Y457200D01*
G01X-843788Y459232D01*
G01X-844042Y461213D01*
G01X-844550Y463144D01*
G01X-845210Y464972D01*
G01X-846074Y466700D01*
G01X-847090Y468325D01*
G01X-848208Y469900D01*
G01X-849478Y471322D01*
G01X-850900Y472592D01*
G01X-852475Y473710D01*
G01X-854100Y474726D01*
G01X-855828Y475590D01*
G01X-857656Y476250D01*
G01X-859587Y476758D01*
G01X-861568Y477012D01*
G37*
G36*
G01X1282700Y-43536D02*
G01X1280668Y-43688D01*
G01X1278687Y-43942D01*
G01X1276756Y-44450D01*
G01X1274928Y-45110D01*
G01X1273200Y-45974D01*
G01X1271575Y-46990D01*
G01X1270000Y-48108D01*
G01X1268578Y-49378D01*
G01X1267308Y-50800D01*
G01X1266190Y-52375D01*
G01X1265174Y-54000D01*
G01X1264310Y-55728D01*
G01X1263650Y-57556D01*
G01X1263142Y-59487D01*
G01X1262888Y-61468D01*
G01X1262736Y-63500D01*
G01X1266088D01*
G01X1266190Y-61824D01*
G01X1266444Y-60147D01*
G01X1266850Y-58572D01*
G01X1267409Y-57048D01*
G01X1268070Y-55575D01*
G01X1268933Y-54204D01*
G01X1269898Y-52934D01*
G01X1270965Y-51765D01*
G01X1272134Y-50698D01*
G01X1273404Y-49733D01*
G01X1274775Y-48870D01*
G01X1276248Y-48209D01*
G01X1277772Y-47650D01*
G01X1279347Y-47244D01*
G01X1281024Y-46990D01*
G01X1282700Y-46888D01*
G01X1284376Y-46990D01*
G01X1286053Y-47244D01*
G01X1287628Y-47650D01*
G01X1289152Y-48209D01*
G01X1290625Y-48870D01*
G01X1291996Y-49733D01*
G01X1293266Y-50698D01*
G01X1294435Y-51765D01*
G01X1295502Y-52934D01*
G01X1296467Y-54204D01*
G01X1297330Y-55575D01*
G01X1297991Y-57048D01*
G01X1298550Y-58572D01*
G01X1298956Y-60147D01*
G01X1299210Y-61824D01*
G01X1299312Y-63500D01*
G01X1299210Y-65176D01*
G01X1298956Y-66853D01*
G01X1298550Y-68428D01*
G01X1297991Y-69952D01*
G01X1297330Y-71425D01*
G01X1296467Y-72796D01*
G01X1295502Y-74066D01*
G01X1294435Y-75235D01*
G01X1293266Y-76302D01*
G01X1291996Y-77267D01*
G01X1290625Y-78130D01*
G01X1289152Y-78791D01*
G01X1287628Y-79350D01*
G01X1286053Y-79756D01*
G01X1284376Y-80010D01*
G01X1282700Y-80112D01*
G01X1281024Y-80010D01*
G01X1279347Y-79756D01*
G01X1277772Y-79350D01*
G01X1276248Y-78791D01*
G01X1274775Y-78130D01*
G01X1273404Y-77267D01*
G01X1272134Y-76302D01*
G01X1270965Y-75235D01*
G01X1269898Y-74066D01*
G01X1268933Y-72796D01*
G01X1268070Y-71425D01*
G01X1267409Y-69952D01*
G01X1266850Y-68428D01*
G01X1266444Y-66853D01*
G01X1266190Y-65176D01*
G01X1266088Y-63500D01*
G01X1262736D01*
G01X1262888Y-65532D01*
G01X1263142Y-67513D01*
G01X1263650Y-69444D01*
G01X1264310Y-71272D01*
G01X1265174Y-73000D01*
G01X1266190Y-74625D01*
G01X1267308Y-76200D01*
G01X1268578Y-77622D01*
G01X1270000Y-78892D01*
G01X1271575Y-80010D01*
G01X1273200Y-81026D01*
G01X1274928Y-81890D01*
G01X1276756Y-82550D01*
G01X1278687Y-83058D01*
G01X1280668Y-83312D01*
G01X1282700Y-83414D01*
G01X1284732Y-83312D01*
G01X1286713Y-83058D01*
G01X1288644Y-82550D01*
G01X1290472Y-81890D01*
G01X1292200Y-81026D01*
G01X1293825Y-80010D01*
G01X1295400Y-78892D01*
G01X1296822Y-77622D01*
G01X1298092Y-76200D01*
G01X1299210Y-74625D01*
G01X1300226Y-73000D01*
G01X1301090Y-71272D01*
G01X1301750Y-69444D01*
G01X1302258Y-67513D01*
G01X1302512Y-65532D01*
G01X1302664Y-63500D01*
G01X1302512Y-61468D01*
G01X1302258Y-59487D01*
G01X1301750Y-57556D01*
G01X1301090Y-55728D01*
G01X1300226Y-54000D01*
G01X1299210Y-52375D01*
G01X1298092Y-50800D01*
G01X1296822Y-49378D01*
G01X1295400Y-48108D01*
G01X1293825Y-46990D01*
G01X1292200Y-45974D01*
G01X1290472Y-45110D01*
G01X1288644Y-44450D01*
G01X1286713Y-43942D01*
G01X1284732Y-43688D01*
G37*
G36*
G01X1524000Y-170536D02*
G01X1521968Y-170688D01*
G01X1519987Y-170942D01*
G01X1518056Y-171450D01*
G01X1516228Y-172110D01*
G01X1514500Y-172974D01*
G01X1512875Y-173990D01*
G01X1511300Y-175108D01*
G01X1509878Y-176378D01*
G01X1508608Y-177800D01*
G01X1507490Y-179375D01*
G01X1506474Y-181000D01*
G01X1505610Y-182728D01*
G01X1504950Y-184556D01*
G01X1504442Y-186487D01*
G01X1504188Y-188468D01*
G01X1504036Y-190500D01*
G01X1507388D01*
G01X1507490Y-188824D01*
G01X1507744Y-187147D01*
G01X1508150Y-185572D01*
G01X1508709Y-184048D01*
G01X1509370Y-182575D01*
G01X1510233Y-181204D01*
G01X1511198Y-179934D01*
G01X1512265Y-178765D01*
G01X1513434Y-177698D01*
G01X1514704Y-176733D01*
G01X1516075Y-175870D01*
G01X1517548Y-175209D01*
G01X1519072Y-174650D01*
G01X1520647Y-174244D01*
G01X1522324Y-173990D01*
G01X1524000Y-173888D01*
G01X1525676Y-173990D01*
G01X1527353Y-174244D01*
G01X1528928Y-174650D01*
G01X1530452Y-175209D01*
G01X1531925Y-175870D01*
G01X1533296Y-176733D01*
G01X1534566Y-177698D01*
G01X1535735Y-178765D01*
G01X1536802Y-179934D01*
G01X1537767Y-181204D01*
G01X1538630Y-182575D01*
G01X1539291Y-184048D01*
G01X1539850Y-185572D01*
G01X1540256Y-187147D01*
G01X1540510Y-188824D01*
G01X1540612Y-190500D01*
G01X1540510Y-192176D01*
G01X1540256Y-193853D01*
G01X1539850Y-195428D01*
G01X1539291Y-196952D01*
G01X1538630Y-198425D01*
G01X1537767Y-199796D01*
G01X1536802Y-201066D01*
G01X1535735Y-202235D01*
G01X1534566Y-203302D01*
G01X1533296Y-204267D01*
G01X1531925Y-205130D01*
G01X1530452Y-205791D01*
G01X1528928Y-206350D01*
G01X1527353Y-206756D01*
G01X1525676Y-207010D01*
G01X1524000Y-207112D01*
G01X1522324Y-207010D01*
G01X1520647Y-206756D01*
G01X1519072Y-206350D01*
G01X1517548Y-205791D01*
G01X1516075Y-205130D01*
G01X1514704Y-204267D01*
G01X1513434Y-203302D01*
G01X1512265Y-202235D01*
G01X1511198Y-201066D01*
G01X1510233Y-199796D01*
G01X1509370Y-198425D01*
G01X1508709Y-196952D01*
G01X1508150Y-195428D01*
G01X1507744Y-193853D01*
G01X1507490Y-192176D01*
G01X1507388Y-190500D01*
G01X1504036D01*
G01X1504188Y-192532D01*
G01X1504442Y-194513D01*
G01X1504950Y-196444D01*
G01X1505610Y-198272D01*
G01X1506474Y-200000D01*
G01X1507490Y-201625D01*
G01X1508608Y-203200D01*
G01X1509878Y-204622D01*
G01X1511300Y-205892D01*
G01X1512875Y-207010D01*
G01X1514500Y-208026D01*
G01X1516228Y-208890D01*
G01X1518056Y-209550D01*
G01X1519987Y-210058D01*
G01X1521968Y-210312D01*
G01X1524000Y-210414D01*
G01X1526032Y-210312D01*
G01X1528013Y-210058D01*
G01X1529944Y-209550D01*
G01X1531772Y-208890D01*
G01X1533500Y-208026D01*
G01X1535125Y-207010D01*
G01X1536700Y-205892D01*
G01X1538122Y-204622D01*
G01X1539392Y-203200D01*
G01X1540510Y-201625D01*
G01X1541526Y-200000D01*
G01X1542390Y-198272D01*
G01X1543050Y-196444D01*
G01X1543558Y-194513D01*
G01X1543812Y-192532D01*
G01X1543964Y-190500D01*
G01X1543812Y-188468D01*
G01X1543558Y-186487D01*
G01X1543050Y-184556D01*
G01X1542390Y-182728D01*
G01X1541526Y-181000D01*
G01X1540510Y-179375D01*
G01X1539392Y-177800D01*
G01X1538122Y-176378D01*
G01X1536700Y-175108D01*
G01X1535125Y-173990D01*
G01X1533500Y-172974D01*
G01X1531772Y-172110D01*
G01X1529944Y-171450D01*
G01X1528013Y-170942D01*
G01X1526032Y-170688D01*
G37*
G36*
G01X2769413Y806196D02*
G01X2767381Y806094D01*
G01X2765400Y805790D01*
G01X2763520Y805282D01*
G01X2761691Y804621D01*
G01X2759913Y803758D01*
G01X2758288Y802792D01*
G01X2756764Y801624D01*
G01X2755341Y800354D01*
G01X2754020Y798932D01*
G01X2752903Y797408D01*
G01X2751887Y795731D01*
G01X2751074Y794004D01*
G01X2750363Y792175D01*
G01X2749906Y790245D01*
G01X2749601Y788264D01*
G01X2749499Y786232D01*
G01X2752801D01*
G01X2752903Y787959D01*
G01X2753157Y789584D01*
G01X2753563Y791159D01*
G01X2754122Y792683D01*
G01X2754833Y794156D01*
G01X2755646Y795528D01*
G01X2756611Y796798D01*
G01X2757678Y797966D01*
G01X2758846Y799033D01*
G01X2760167Y799998D01*
G01X2761539Y800862D01*
G01X2762961Y801573D01*
G01X2764485Y802132D01*
G01X2766111Y802538D01*
G01X2767736Y802792D01*
G01X2769413Y802843D01*
G01X2771140Y802792D01*
G01X2772766Y802538D01*
G01X2774391Y802132D01*
G01X2775915Y801573D01*
G01X2777338Y800862D01*
G01X2778709Y799998D01*
G01X2779979Y799033D01*
G01X2781198Y797966D01*
G01X2782265Y796798D01*
G01X2783180Y795528D01*
G01X2784043Y794156D01*
G01X2784754Y792683D01*
G01X2785313Y791159D01*
G01X2785720Y789584D01*
G01X2785974Y787959D01*
G01X2786024Y786232D01*
G01X2785974Y784555D01*
G01X2785720Y782879D01*
G01X2785313Y781304D01*
G01X2784754Y779780D01*
G01X2784043Y778307D01*
G01X2783180Y776935D01*
G01X2782265Y775665D01*
G01X2781198Y774497D01*
G01X2779979Y773430D01*
G01X2778709Y772465D01*
G01X2777338Y771652D01*
G01X2775915Y770941D01*
G01X2774391Y770382D01*
G01X2772766Y769976D01*
G01X2771140Y769722D01*
G01X2769413Y769620D01*
G01X2767736Y769722D01*
G01X2766111Y769976D01*
G01X2764485Y770382D01*
G01X2762961Y770941D01*
G01X2761539Y771652D01*
G01X2760167Y772465D01*
G01X2758846Y773430D01*
G01X2757678Y774497D01*
G01X2756611Y775665D01*
G01X2755646Y776935D01*
G01X2754833Y778307D01*
G01X2754122Y779780D01*
G01X2753563Y781304D01*
G01X2753157Y782879D01*
G01X2752903Y784555D01*
G01X2752801Y786232D01*
G01X2749499D01*
G01X2749601Y784200D01*
G01X2749906Y782218D01*
G01X2750363Y780288D01*
G01X2751074Y778459D01*
G01X2751887Y776732D01*
G01X2752903Y775106D01*
G01X2754020Y773582D01*
G01X2755341Y772160D01*
G01X2756764Y770839D01*
G01X2758288Y769722D01*
G01X2759913Y768706D01*
G01X2761691Y767893D01*
G01X2763520Y767182D01*
G01X2765400Y766724D01*
G01X2767381Y766420D01*
G01X2769413Y766318D01*
G01X2771445Y766420D01*
G01X2773426Y766724D01*
G01X2775356Y767182D01*
G01X2777185Y767893D01*
G01X2778912Y768706D01*
G01X2780589Y769722D01*
G01X2782113Y770839D01*
G01X2783535Y772160D01*
G01X2784805Y773582D01*
G01X2785974Y775106D01*
G01X2786939Y776732D01*
G01X2787802Y778459D01*
G01X2788463Y780288D01*
G01X2788971Y782218D01*
G01X2789276Y784200D01*
G01X2789377Y786232D01*
G01X2789276Y788264D01*
G01X2788971Y790245D01*
G01X2788463Y792175D01*
G01X2787802Y794004D01*
G01X2786939Y795731D01*
G01X2785974Y797408D01*
G01X2784805Y798932D01*
G01X2783535Y800354D01*
G01X2782113Y801624D01*
G01X2780589Y802792D01*
G01X2778912Y803758D01*
G01X2777185Y804621D01*
G01X2775356Y805282D01*
G01X2773426Y805790D01*
G01X2771445Y806094D01*
G37*
G36*
G01X2349500Y527964D02*
G01X2347468Y527812D01*
G01X2345487Y527558D01*
G01X2343556Y527050D01*
G01X2341728Y526390D01*
G01X2340000Y525526D01*
G01X2338375Y524510D01*
G01X2336800Y523392D01*
G01X2335378Y522122D01*
G01X2334108Y520700D01*
G01X2332990Y519125D01*
G01X2331974Y517500D01*
G01X2331110Y515772D01*
G01X2330450Y513944D01*
G01X2329942Y512013D01*
G01X2329688Y510032D01*
G01X2329586Y508000D01*
G01X2332888D01*
G01X2332990Y509676D01*
G01X2333244Y511353D01*
G01X2333650Y512928D01*
G01X2334209Y514452D01*
G01X2334870Y515925D01*
G01X2335733Y517296D01*
G01X2336698Y518566D01*
G01X2337765Y519735D01*
G01X2338934Y520802D01*
G01X2340204Y521767D01*
G01X2341575Y522630D01*
G01X2343048Y523291D01*
G01X2344572Y523850D01*
G01X2346147Y524256D01*
G01X2347824Y524510D01*
G01X2349500Y524612D01*
G01X2351176Y524510D01*
G01X2352853Y524256D01*
G01X2354428Y523850D01*
G01X2355952Y523291D01*
G01X2357425Y522630D01*
G01X2358796Y521767D01*
G01X2360066Y520802D01*
G01X2361235Y519735D01*
G01X2362302Y518566D01*
G01X2363267Y517296D01*
G01X2364130Y515925D01*
G01X2364791Y514452D01*
G01X2365350Y512928D01*
G01X2365756Y511353D01*
G01X2366010Y509676D01*
G01X2366112Y508000D01*
G01X2366010Y506324D01*
G01X2365756Y504647D01*
G01X2365350Y503072D01*
G01X2364791Y501548D01*
G01X2364130Y500075D01*
G01X2363267Y498704D01*
G01X2362302Y497434D01*
G01X2361235Y496265D01*
G01X2360066Y495198D01*
G01X2358796Y494233D01*
G01X2357425Y493370D01*
G01X2355952Y492709D01*
G01X2354428Y492150D01*
G01X2352853Y491744D01*
G01X2351176Y491490D01*
G01X2349500Y491388D01*
G01X2347824Y491490D01*
G01X2346147Y491744D01*
G01X2344572Y492150D01*
G01X2343048Y492709D01*
G01X2341575Y493370D01*
G01X2340204Y494233D01*
G01X2338934Y495198D01*
G01X2337765Y496265D01*
G01X2336698Y497434D01*
G01X2335733Y498704D01*
G01X2334870Y500075D01*
G01X2334209Y501548D01*
G01X2333650Y503072D01*
G01X2333244Y504647D01*
G01X2332990Y506324D01*
G01X2332888Y508000D01*
G01X2329586D01*
G01X2329688Y505968D01*
G01X2329942Y503987D01*
G01X2330450Y502056D01*
G01X2331110Y500228D01*
G01X2331974Y498500D01*
G01X2332990Y496875D01*
G01X2334108Y495300D01*
G01X2335378Y493878D01*
G01X2336800Y492608D01*
G01X2338375Y491490D01*
G01X2340000Y490474D01*
G01X2341728Y489610D01*
G01X2343556Y488950D01*
G01X2345487Y488442D01*
G01X2347468Y488188D01*
G01X2349500Y488086D01*
G01X2351532Y488188D01*
G01X2353513Y488442D01*
G01X2355444Y488950D01*
G01X2357272Y489610D01*
G01X2359000Y490474D01*
G01X2360625Y491490D01*
G01X2362200Y492608D01*
G01X2363622Y493878D01*
G01X2364892Y495300D01*
G01X2366010Y496875D01*
G01X2367026Y498500D01*
G01X2367890Y500228D01*
G01X2368550Y502056D01*
G01X2369058Y503987D01*
G01X2369312Y505968D01*
G01X2369464Y508000D01*
G01X2369312Y510032D01*
G01X2369058Y512013D01*
G01X2368550Y513944D01*
G01X2367890Y515772D01*
G01X2367026Y517500D01*
G01X2366010Y519125D01*
G01X2364892Y520700D01*
G01X2363622Y522122D01*
G01X2362200Y523392D01*
G01X2360625Y524510D01*
G01X2359000Y525526D01*
G01X2357272Y526390D01*
G01X2355444Y527050D01*
G01X2353513Y527558D01*
G01X2351532Y527812D01*
G37*
G36*
G01X2844800Y1150264D02*
G01X2842768Y1150112D01*
G01X2840787Y1149858D01*
G01X2838856Y1149350D01*
G01X2837028Y1148690D01*
G01X2835300Y1147826D01*
G01X2833675Y1146810D01*
G01X2832100Y1145692D01*
G01X2830678Y1144422D01*
G01X2829408Y1143000D01*
G01X2828290Y1141425D01*
G01X2827274Y1139800D01*
G01X2826410Y1138072D01*
G01X2825750Y1136244D01*
G01X2825242Y1134313D01*
G01X2824988Y1132332D01*
G01X2824886Y1130300D01*
G01X2828188D01*
G01X2828290Y1131976D01*
G01X2828544Y1133653D01*
G01X2828950Y1135228D01*
G01X2829509Y1136752D01*
G01X2830170Y1138225D01*
G01X2831033Y1139596D01*
G01X2831998Y1140866D01*
G01X2833065Y1142035D01*
G01X2834234Y1143102D01*
G01X2835504Y1144067D01*
G01X2836875Y1144930D01*
G01X2838348Y1145591D01*
G01X2839872Y1146150D01*
G01X2841447Y1146556D01*
G01X2843124Y1146810D01*
G01X2844800Y1146912D01*
G01X2846476Y1146810D01*
G01X2848153Y1146556D01*
G01X2849728Y1146150D01*
G01X2851252Y1145591D01*
G01X2852725Y1144930D01*
G01X2854096Y1144067D01*
G01X2855366Y1143102D01*
G01X2856535Y1142035D01*
G01X2857602Y1140866D01*
G01X2858567Y1139596D01*
G01X2859430Y1138225D01*
G01X2860091Y1136752D01*
G01X2860650Y1135228D01*
G01X2861056Y1133653D01*
G01X2861310Y1131976D01*
G01X2861412Y1130300D01*
G01X2861310Y1128624D01*
G01X2861056Y1126947D01*
G01X2860650Y1125372D01*
G01X2860091Y1123848D01*
G01X2859430Y1122375D01*
G01X2858567Y1121004D01*
G01X2857602Y1119734D01*
G01X2856535Y1118565D01*
G01X2855366Y1117498D01*
G01X2854096Y1116533D01*
G01X2852725Y1115670D01*
G01X2851252Y1115009D01*
G01X2849728Y1114450D01*
G01X2848153Y1114044D01*
G01X2846476Y1113790D01*
G01X2844800Y1113688D01*
G01X2843124Y1113790D01*
G01X2841447Y1114044D01*
G01X2839872Y1114450D01*
G01X2838348Y1115009D01*
G01X2836875Y1115670D01*
G01X2835504Y1116533D01*
G01X2834234Y1117498D01*
G01X2833065Y1118565D01*
G01X2831998Y1119734D01*
G01X2831033Y1121004D01*
G01X2830170Y1122375D01*
G01X2829509Y1123848D01*
G01X2828950Y1125372D01*
G01X2828544Y1126947D01*
G01X2828290Y1128624D01*
G01X2828188Y1130300D01*
G01X2824886D01*
G01X2824988Y1128268D01*
G01X2825242Y1126287D01*
G01X2825750Y1124356D01*
G01X2826410Y1122528D01*
G01X2827274Y1120800D01*
G01X2828290Y1119175D01*
G01X2829408Y1117600D01*
G01X2830678Y1116178D01*
G01X2832100Y1114908D01*
G01X2833675Y1113790D01*
G01X2835300Y1112774D01*
G01X2837028Y1111910D01*
G01X2838856Y1111250D01*
G01X2840787Y1110742D01*
G01X2842768Y1110488D01*
G01X2844800Y1110386D01*
G01X2846832Y1110488D01*
G01X2848813Y1110742D01*
G01X2850744Y1111250D01*
G01X2852572Y1111910D01*
G01X2854300Y1112774D01*
G01X2855925Y1113790D01*
G01X2857500Y1114908D01*
G01X2858922Y1116178D01*
G01X2860192Y1117600D01*
G01X2861310Y1119175D01*
G01X2862326Y1120800D01*
G01X2863190Y1122528D01*
G01X2863850Y1124356D01*
G01X2864358Y1126287D01*
G01X2864612Y1128268D01*
G01X2864764Y1130300D01*
G01X2864612Y1132332D01*
G01X2864358Y1134313D01*
G01X2863850Y1136244D01*
G01X2863190Y1138072D01*
G01X2862326Y1139800D01*
G01X2861310Y1141425D01*
G01X2860192Y1143000D01*
G01X2858922Y1144422D01*
G01X2857500Y1145692D01*
G01X2855925Y1146810D01*
G01X2854300Y1147826D01*
G01X2852572Y1148690D01*
G01X2850744Y1149350D01*
G01X2848813Y1149858D01*
G01X2846832Y1150112D01*
G37*
G36*
G01X2603500Y1061364D02*
G01X2601468Y1061212D01*
G01X2599487Y1060958D01*
G01X2597556Y1060450D01*
G01X2595728Y1059790D01*
G01X2594000Y1058926D01*
G01X2592375Y1057910D01*
G01X2590800Y1056792D01*
G01X2589378Y1055522D01*
G01X2588108Y1054100D01*
G01X2586990Y1052525D01*
G01X2585974Y1050900D01*
G01X2585110Y1049172D01*
G01X2584450Y1047344D01*
G01X2583942Y1045413D01*
G01X2583688Y1043432D01*
G01X2583586Y1041400D01*
G01X2586888D01*
G01X2586990Y1043076D01*
G01X2587244Y1044753D01*
G01X2587650Y1046328D01*
G01X2588209Y1047852D01*
G01X2588870Y1049325D01*
G01X2589733Y1050696D01*
G01X2590698Y1051966D01*
G01X2591765Y1053135D01*
G01X2592934Y1054202D01*
G01X2594204Y1055167D01*
G01X2595575Y1056030D01*
G01X2597048Y1056691D01*
G01X2598572Y1057250D01*
G01X2600147Y1057656D01*
G01X2601824Y1057910D01*
G01X2603500Y1058012D01*
G01X2605176Y1057910D01*
G01X2606853Y1057656D01*
G01X2608428Y1057250D01*
G01X2609952Y1056691D01*
G01X2611425Y1056030D01*
G01X2612796Y1055167D01*
G01X2614066Y1054202D01*
G01X2615235Y1053135D01*
G01X2616302Y1051966D01*
G01X2617267Y1050696D01*
G01X2618130Y1049325D01*
G01X2618791Y1047852D01*
G01X2619350Y1046328D01*
G01X2619756Y1044753D01*
G01X2620010Y1043076D01*
G01X2620112Y1041400D01*
G01X2620010Y1039724D01*
G01X2619756Y1038047D01*
G01X2619350Y1036472D01*
G01X2618791Y1034948D01*
G01X2618130Y1033475D01*
G01X2617267Y1032104D01*
G01X2616302Y1030834D01*
G01X2615235Y1029665D01*
G01X2614066Y1028598D01*
G01X2612796Y1027633D01*
G01X2611425Y1026770D01*
G01X2609952Y1026109D01*
G01X2608428Y1025550D01*
G01X2606853Y1025144D01*
G01X2605176Y1024890D01*
G01X2603500Y1024788D01*
G01X2601824Y1024890D01*
G01X2600147Y1025144D01*
G01X2598572Y1025550D01*
G01X2597048Y1026109D01*
G01X2595575Y1026770D01*
G01X2594204Y1027633D01*
G01X2592934Y1028598D01*
G01X2591765Y1029665D01*
G01X2590698Y1030834D01*
G01X2589733Y1032104D01*
G01X2588870Y1033475D01*
G01X2588209Y1034948D01*
G01X2587650Y1036472D01*
G01X2587244Y1038047D01*
G01X2586990Y1039724D01*
G01X2586888Y1041400D01*
G01X2583586D01*
G01X2583688Y1039368D01*
G01X2583942Y1037387D01*
G01X2584450Y1035456D01*
G01X2585110Y1033628D01*
G01X2585974Y1031900D01*
G01X2586990Y1030275D01*
G01X2588108Y1028700D01*
G01X2589378Y1027278D01*
G01X2590800Y1026008D01*
G01X2592375Y1024890D01*
G01X2594000Y1023874D01*
G01X2595728Y1023010D01*
G01X2597556Y1022350D01*
G01X2599487Y1021842D01*
G01X2601468Y1021588D01*
G01X2603500Y1021486D01*
G01X2605532Y1021588D01*
G01X2607513Y1021842D01*
G01X2609444Y1022350D01*
G01X2611272Y1023010D01*
G01X2613000Y1023874D01*
G01X2614625Y1024890D01*
G01X2616200Y1026008D01*
G01X2617622Y1027278D01*
G01X2618892Y1028700D01*
G01X2620010Y1030275D01*
G01X2621026Y1031900D01*
G01X2621890Y1033628D01*
G01X2622550Y1035456D01*
G01X2623058Y1037387D01*
G01X2623312Y1039368D01*
G01X2623464Y1041400D01*
G01X2623312Y1043432D01*
G01X2623058Y1045413D01*
G01X2622550Y1047344D01*
G01X2621890Y1049172D01*
G01X2621026Y1050900D01*
G01X2620010Y1052525D01*
G01X2618892Y1054100D01*
G01X2617622Y1055522D01*
G01X2616200Y1056792D01*
G01X2614625Y1057910D01*
G01X2613000Y1058926D01*
G01X2611272Y1059790D01*
G01X2609444Y1060450D01*
G01X2607513Y1060958D01*
G01X2605532Y1061212D01*
G37*
G36*
G01X2768600Y1061364D02*
G01X2766568Y1061212D01*
G01X2764587Y1060958D01*
G01X2762656Y1060450D01*
G01X2760828Y1059790D01*
G01X2759100Y1058926D01*
G01X2757475Y1057910D01*
G01X2755900Y1056792D01*
G01X2754478Y1055522D01*
G01X2753208Y1054100D01*
G01X2752090Y1052525D01*
G01X2751074Y1050900D01*
G01X2750210Y1049172D01*
G01X2749550Y1047344D01*
G01X2749042Y1045413D01*
G01X2748788Y1043432D01*
G01X2748686Y1041400D01*
G01X2751988D01*
G01X2752090Y1043076D01*
G01X2752344Y1044753D01*
G01X2752750Y1046328D01*
G01X2753309Y1047852D01*
G01X2753970Y1049325D01*
G01X2754833Y1050696D01*
G01X2755798Y1051966D01*
G01X2756865Y1053135D01*
G01X2758034Y1054202D01*
G01X2759304Y1055167D01*
G01X2760675Y1056030D01*
G01X2762148Y1056691D01*
G01X2763672Y1057250D01*
G01X2765247Y1057656D01*
G01X2766924Y1057910D01*
G01X2768600Y1058012D01*
G01X2770276Y1057910D01*
G01X2771953Y1057656D01*
G01X2773528Y1057250D01*
G01X2775052Y1056691D01*
G01X2776525Y1056030D01*
G01X2777896Y1055167D01*
G01X2779166Y1054202D01*
G01X2780335Y1053135D01*
G01X2781402Y1051966D01*
G01X2782367Y1050696D01*
G01X2783230Y1049325D01*
G01X2783891Y1047852D01*
G01X2784450Y1046328D01*
G01X2784856Y1044753D01*
G01X2785110Y1043076D01*
G01X2785212Y1041400D01*
G01X2785110Y1039724D01*
G01X2784856Y1038047D01*
G01X2784450Y1036472D01*
G01X2783891Y1034948D01*
G01X2783230Y1033475D01*
G01X2782367Y1032104D01*
G01X2781402Y1030834D01*
G01X2780335Y1029665D01*
G01X2779166Y1028598D01*
G01X2777896Y1027633D01*
G01X2776525Y1026770D01*
G01X2775052Y1026109D01*
G01X2773528Y1025550D01*
G01X2771953Y1025144D01*
G01X2770276Y1024890D01*
G01X2768600Y1024788D01*
G01X2766924Y1024890D01*
G01X2765247Y1025144D01*
G01X2763672Y1025550D01*
G01X2762148Y1026109D01*
G01X2760675Y1026770D01*
G01X2759304Y1027633D01*
G01X2758034Y1028598D01*
G01X2756865Y1029665D01*
G01X2755798Y1030834D01*
G01X2754833Y1032104D01*
G01X2753970Y1033475D01*
G01X2753309Y1034948D01*
G01X2752750Y1036472D01*
G01X2752344Y1038047D01*
G01X2752090Y1039724D01*
G01X2751988Y1041400D01*
G01X2748686D01*
G01X2748788Y1039368D01*
G01X2749042Y1037387D01*
G01X2749550Y1035456D01*
G01X2750210Y1033628D01*
G01X2751074Y1031900D01*
G01X2752090Y1030275D01*
G01X2753208Y1028700D01*
G01X2754478Y1027278D01*
G01X2755900Y1026008D01*
G01X2757475Y1024890D01*
G01X2759100Y1023874D01*
G01X2760828Y1023010D01*
G01X2762656Y1022350D01*
G01X2764587Y1021842D01*
G01X2766568Y1021588D01*
G01X2768600Y1021486D01*
G01X2770632Y1021588D01*
G01X2772613Y1021842D01*
G01X2774544Y1022350D01*
G01X2776372Y1023010D01*
G01X2778100Y1023874D01*
G01X2779725Y1024890D01*
G01X2781300Y1026008D01*
G01X2782722Y1027278D01*
G01X2783992Y1028700D01*
G01X2785110Y1030275D01*
G01X2786126Y1031900D01*
G01X2786990Y1033628D01*
G01X2787650Y1035456D01*
G01X2788158Y1037387D01*
G01X2788412Y1039368D01*
G01X2788564Y1041400D01*
G01X2788412Y1043432D01*
G01X2788158Y1045413D01*
G01X2787650Y1047344D01*
G01X2786990Y1049172D01*
G01X2786126Y1050900D01*
G01X2785110Y1052525D01*
G01X2783992Y1054100D01*
G01X2782722Y1055522D01*
G01X2781300Y1056792D01*
G01X2779725Y1057910D01*
G01X2778100Y1058926D01*
G01X2776372Y1059790D01*
G01X2774544Y1060450D01*
G01X2772613Y1060958D01*
G01X2770632Y1061212D01*
G37*
G36*
G01X2463800Y591464D02*
G01X2461768Y591312D01*
G01X2459787Y591058D01*
G01X2457856Y590550D01*
G01X2456028Y589890D01*
G01X2454300Y589026D01*
G01X2452675Y588010D01*
G01X2451100Y586892D01*
G01X2449678Y585622D01*
G01X2448408Y584200D01*
G01X2447290Y582625D01*
G01X2446274Y581000D01*
G01X2445410Y579272D01*
G01X2444750Y577444D01*
G01X2444242Y575513D01*
G01X2443988Y573532D01*
G01X2443886Y571500D01*
G01X2447188D01*
G01X2447290Y573176D01*
G01X2447544Y574853D01*
G01X2447950Y576428D01*
G01X2448509Y577952D01*
G01X2449170Y579425D01*
G01X2450033Y580796D01*
G01X2450998Y582066D01*
G01X2452065Y583235D01*
G01X2453234Y584302D01*
G01X2454504Y585267D01*
G01X2455875Y586130D01*
G01X2457348Y586791D01*
G01X2458872Y587350D01*
G01X2460447Y587756D01*
G01X2462124Y588010D01*
G01X2463800Y588112D01*
G01X2465476Y588010D01*
G01X2467153Y587756D01*
G01X2468728Y587350D01*
G01X2470252Y586791D01*
G01X2471725Y586130D01*
G01X2473096Y585267D01*
G01X2474366Y584302D01*
G01X2475535Y583235D01*
G01X2476602Y582066D01*
G01X2477567Y580796D01*
G01X2478430Y579425D01*
G01X2479091Y577952D01*
G01X2479650Y576428D01*
G01X2480056Y574853D01*
G01X2480310Y573176D01*
G01X2480412Y571500D01*
G01X2480310Y569824D01*
G01X2480056Y568147D01*
G01X2479650Y566572D01*
G01X2479091Y565048D01*
G01X2478430Y563575D01*
G01X2477567Y562204D01*
G01X2476602Y560934D01*
G01X2475535Y559765D01*
G01X2474366Y558698D01*
G01X2473096Y557733D01*
G01X2471725Y556870D01*
G01X2470252Y556209D01*
G01X2468728Y555650D01*
G01X2467153Y555244D01*
G01X2465476Y554990D01*
G01X2463800Y554888D01*
G01X2462124Y554990D01*
G01X2460447Y555244D01*
G01X2458872Y555650D01*
G01X2457348Y556209D01*
G01X2455875Y556870D01*
G01X2454504Y557733D01*
G01X2453234Y558698D01*
G01X2452065Y559765D01*
G01X2450998Y560934D01*
G01X2450033Y562204D01*
G01X2449170Y563575D01*
G01X2448509Y565048D01*
G01X2447950Y566572D01*
G01X2447544Y568147D01*
G01X2447290Y569824D01*
G01X2447188Y571500D01*
G01X2443886D01*
G01X2443988Y569468D01*
G01X2444242Y567487D01*
G01X2444750Y565556D01*
G01X2445410Y563728D01*
G01X2446274Y562000D01*
G01X2447290Y560375D01*
G01X2448408Y558800D01*
G01X2449678Y557378D01*
G01X2451100Y556108D01*
G01X2452675Y554990D01*
G01X2454300Y553974D01*
G01X2456028Y553110D01*
G01X2457856Y552450D01*
G01X2459787Y551942D01*
G01X2461768Y551688D01*
G01X2463800Y551586D01*
G01X2465832Y551688D01*
G01X2467813Y551942D01*
G01X2469744Y552450D01*
G01X2471572Y553110D01*
G01X2473300Y553974D01*
G01X2474925Y554990D01*
G01X2476500Y556108D01*
G01X2477922Y557378D01*
G01X2479192Y558800D01*
G01X2480310Y560375D01*
G01X2481326Y562000D01*
G01X2482190Y563728D01*
G01X2482850Y565556D01*
G01X2483358Y567487D01*
G01X2483612Y569468D01*
G01X2483764Y571500D01*
G01X2483612Y573532D01*
G01X2483358Y575513D01*
G01X2482850Y577444D01*
G01X2482190Y579272D01*
G01X2481326Y581000D01*
G01X2480310Y582625D01*
G01X2479192Y584200D01*
G01X2477922Y585622D01*
G01X2476500Y586892D01*
G01X2474925Y588010D01*
G01X2473300Y589026D01*
G01X2471572Y589890D01*
G01X2469744Y590550D01*
G01X2467813Y591058D01*
G01X2465832Y591312D01*
G37*
G36*
G01X2743200Y591464D02*
G01X2741168Y591312D01*
G01X2739187Y591058D01*
G01X2737256Y590550D01*
G01X2735428Y589890D01*
G01X2733700Y589026D01*
G01X2732075Y588010D01*
G01X2730500Y586892D01*
G01X2729078Y585622D01*
G01X2727808Y584200D01*
G01X2726690Y582625D01*
G01X2725674Y581000D01*
G01X2724810Y579272D01*
G01X2724150Y577444D01*
G01X2723642Y575513D01*
G01X2723388Y573532D01*
G01X2723286Y571500D01*
G01X2726588D01*
G01X2726690Y573176D01*
G01X2726944Y574853D01*
G01X2727350Y576428D01*
G01X2727909Y577952D01*
G01X2728570Y579425D01*
G01X2729433Y580796D01*
G01X2730398Y582066D01*
G01X2731465Y583235D01*
G01X2732634Y584302D01*
G01X2733904Y585267D01*
G01X2735275Y586130D01*
G01X2736748Y586791D01*
G01X2738272Y587350D01*
G01X2739847Y587756D01*
G01X2741524Y588010D01*
G01X2743200Y588112D01*
G01X2744876Y588010D01*
G01X2746553Y587756D01*
G01X2748128Y587350D01*
G01X2749652Y586791D01*
G01X2751125Y586130D01*
G01X2752496Y585267D01*
G01X2753766Y584302D01*
G01X2754935Y583235D01*
G01X2756002Y582066D01*
G01X2756967Y580796D01*
G01X2757830Y579425D01*
G01X2758491Y577952D01*
G01X2759050Y576428D01*
G01X2759456Y574853D01*
G01X2759710Y573176D01*
G01X2759812Y571500D01*
G01X2759710Y569824D01*
G01X2759456Y568147D01*
G01X2759050Y566572D01*
G01X2758491Y565048D01*
G01X2757830Y563575D01*
G01X2756967Y562204D01*
G01X2756002Y560934D01*
G01X2754935Y559765D01*
G01X2753766Y558698D01*
G01X2752496Y557733D01*
G01X2751125Y556870D01*
G01X2749652Y556209D01*
G01X2748128Y555650D01*
G01X2746553Y555244D01*
G01X2744876Y554990D01*
G01X2743200Y554888D01*
G01X2741524Y554990D01*
G01X2739847Y555244D01*
G01X2738272Y555650D01*
G01X2736748Y556209D01*
G01X2735275Y556870D01*
G01X2733904Y557733D01*
G01X2732634Y558698D01*
G01X2731465Y559765D01*
G01X2730398Y560934D01*
G01X2729433Y562204D01*
G01X2728570Y563575D01*
G01X2727909Y565048D01*
G01X2727350Y566572D01*
G01X2726944Y568147D01*
G01X2726690Y569824D01*
G01X2726588Y571500D01*
G01X2723286D01*
G01X2723388Y569468D01*
G01X2723642Y567487D01*
G01X2724150Y565556D01*
G01X2724810Y563728D01*
G01X2725674Y562000D01*
G01X2726690Y560375D01*
G01X2727808Y558800D01*
G01X2729078Y557378D01*
G01X2730500Y556108D01*
G01X2732075Y554990D01*
G01X2733700Y553974D01*
G01X2735428Y553110D01*
G01X2737256Y552450D01*
G01X2739187Y551942D01*
G01X2741168Y551688D01*
G01X2743200Y551586D01*
G01X2745232Y551688D01*
G01X2747213Y551942D01*
G01X2749144Y552450D01*
G01X2750972Y553110D01*
G01X2752700Y553974D01*
G01X2754325Y554990D01*
G01X2755900Y556108D01*
G01X2757322Y557378D01*
G01X2758592Y558800D01*
G01X2759710Y560375D01*
G01X2760726Y562000D01*
G01X2761590Y563728D01*
G01X2762250Y565556D01*
G01X2762758Y567487D01*
G01X2763012Y569468D01*
G01X2763164Y571500D01*
G01X2763012Y573532D01*
G01X2762758Y575513D01*
G01X2762250Y577444D01*
G01X2761590Y579272D01*
G01X2760726Y581000D01*
G01X2759710Y582625D01*
G01X2758592Y584200D01*
G01X2757322Y585622D01*
G01X2755900Y586892D01*
G01X2754325Y588010D01*
G01X2752700Y589026D01*
G01X2750972Y589890D01*
G01X2749144Y590550D01*
G01X2747213Y591058D01*
G01X2745232Y591312D01*
G37*
G36*
G01X1079500Y-373736D02*
G01X1077468Y-373888D01*
G01X1075487Y-374142D01*
G01X1073556Y-374650D01*
G01X1071728Y-375310D01*
G01X1070000Y-376174D01*
G01X1068375Y-377190D01*
G01X1066800Y-378308D01*
G01X1065378Y-379578D01*
G01X1064108Y-381000D01*
G01X1062990Y-382575D01*
G01X1061974Y-384200D01*
G01X1061110Y-385928D01*
G01X1060450Y-387756D01*
G01X1059942Y-389687D01*
G01X1059688Y-391668D01*
G01X1059536Y-393700D01*
G01X1062888D01*
G01X1062990Y-392024D01*
G01X1063244Y-390347D01*
G01X1063650Y-388772D01*
G01X1064209Y-387248D01*
G01X1064870Y-385775D01*
G01X1065733Y-384404D01*
G01X1066698Y-383134D01*
G01X1067765Y-381965D01*
G01X1068934Y-380898D01*
G01X1070204Y-379933D01*
G01X1071575Y-379070D01*
G01X1073048Y-378409D01*
G01X1074572Y-377850D01*
G01X1076147Y-377444D01*
G01X1077824Y-377190D01*
G01X1079500Y-377088D01*
G01X1081176Y-377190D01*
G01X1082853Y-377444D01*
G01X1084428Y-377850D01*
G01X1085952Y-378409D01*
G01X1087425Y-379070D01*
G01X1088796Y-379933D01*
G01X1090066Y-380898D01*
G01X1091235Y-381965D01*
G01X1092302Y-383134D01*
G01X1093267Y-384404D01*
G01X1094130Y-385775D01*
G01X1094791Y-387248D01*
G01X1095350Y-388772D01*
G01X1095756Y-390347D01*
G01X1096010Y-392024D01*
G01X1096112Y-393700D01*
G01X1096010Y-395376D01*
G01X1095756Y-397053D01*
G01X1095350Y-398628D01*
G01X1094791Y-400152D01*
G01X1094130Y-401625D01*
G01X1093267Y-402996D01*
G01X1092302Y-404266D01*
G01X1091235Y-405435D01*
G01X1090066Y-406502D01*
G01X1088796Y-407467D01*
G01X1087425Y-408330D01*
G01X1085952Y-408991D01*
G01X1084428Y-409550D01*
G01X1082853Y-409956D01*
G01X1081176Y-410210D01*
G01X1079500Y-410312D01*
G01X1077824Y-410210D01*
G01X1076147Y-409956D01*
G01X1074572Y-409550D01*
G01X1073048Y-408991D01*
G01X1071575Y-408330D01*
G01X1070204Y-407467D01*
G01X1068934Y-406502D01*
G01X1067765Y-405435D01*
G01X1066698Y-404266D01*
G01X1065733Y-402996D01*
G01X1064870Y-401625D01*
G01X1064209Y-400152D01*
G01X1063650Y-398628D01*
G01X1063244Y-397053D01*
G01X1062990Y-395376D01*
G01X1062888Y-393700D01*
G01X1059536D01*
G01X1059688Y-395732D01*
G01X1059942Y-397713D01*
G01X1060450Y-399644D01*
G01X1061110Y-401472D01*
G01X1061974Y-403200D01*
G01X1062990Y-404825D01*
G01X1064108Y-406400D01*
G01X1065378Y-407822D01*
G01X1066800Y-409092D01*
G01X1068375Y-410210D01*
G01X1070000Y-411226D01*
G01X1071728Y-412090D01*
G01X1073556Y-412750D01*
G01X1075487Y-413258D01*
G01X1077468Y-413512D01*
G01X1079500Y-413614D01*
G01X1081532Y-413512D01*
G01X1083513Y-413258D01*
G01X1085444Y-412750D01*
G01X1087272Y-412090D01*
G01X1089000Y-411226D01*
G01X1090625Y-410210D01*
G01X1092200Y-409092D01*
G01X1093622Y-407822D01*
G01X1094892Y-406400D01*
G01X1096010Y-404825D01*
G01X1097026Y-403200D01*
G01X1097890Y-401472D01*
G01X1098550Y-399644D01*
G01X1099058Y-397713D01*
G01X1099312Y-395732D01*
G01X1099464Y-393700D01*
G01X1099312Y-391668D01*
G01X1099058Y-389687D01*
G01X1098550Y-387756D01*
G01X1097890Y-385928D01*
G01X1097026Y-384200D01*
G01X1096010Y-382575D01*
G01X1094892Y-381000D01*
G01X1093622Y-379578D01*
G01X1092200Y-378308D01*
G01X1090625Y-377190D01*
G01X1089000Y-376174D01*
G01X1087272Y-375310D01*
G01X1085444Y-374650D01*
G01X1083513Y-374142D01*
G01X1081532Y-373888D01*
G37*
G36*
G01X1206500Y-373736D02*
G01X1204468Y-373888D01*
G01X1202487Y-374142D01*
G01X1200556Y-374650D01*
G01X1198728Y-375310D01*
G01X1197000Y-376174D01*
G01X1195375Y-377190D01*
G01X1193800Y-378308D01*
G01X1192378Y-379578D01*
G01X1191108Y-381000D01*
G01X1189990Y-382575D01*
G01X1188974Y-384200D01*
G01X1188110Y-385928D01*
G01X1187450Y-387756D01*
G01X1186942Y-389687D01*
G01X1186688Y-391668D01*
G01X1186536Y-393700D01*
G01X1189888D01*
G01X1189990Y-392024D01*
G01X1190244Y-390347D01*
G01X1190650Y-388772D01*
G01X1191209Y-387248D01*
G01X1191870Y-385775D01*
G01X1192733Y-384404D01*
G01X1193698Y-383134D01*
G01X1194765Y-381965D01*
G01X1195934Y-380898D01*
G01X1197204Y-379933D01*
G01X1198575Y-379070D01*
G01X1200048Y-378409D01*
G01X1201572Y-377850D01*
G01X1203147Y-377444D01*
G01X1204824Y-377190D01*
G01X1206500Y-377088D01*
G01X1208176Y-377190D01*
G01X1209853Y-377444D01*
G01X1211428Y-377850D01*
G01X1212952Y-378409D01*
G01X1214425Y-379070D01*
G01X1215796Y-379933D01*
G01X1217066Y-380898D01*
G01X1218235Y-381965D01*
G01X1219302Y-383134D01*
G01X1220267Y-384404D01*
G01X1221130Y-385775D01*
G01X1221791Y-387248D01*
G01X1222350Y-388772D01*
G01X1222756Y-390347D01*
G01X1223010Y-392024D01*
G01X1223112Y-393700D01*
G01X1223010Y-395376D01*
G01X1222756Y-397053D01*
G01X1222350Y-398628D01*
G01X1221791Y-400152D01*
G01X1221130Y-401625D01*
G01X1220267Y-402996D01*
G01X1219302Y-404266D01*
G01X1218235Y-405435D01*
G01X1217066Y-406502D01*
G01X1215796Y-407467D01*
G01X1214425Y-408330D01*
G01X1212952Y-408991D01*
G01X1211428Y-409550D01*
G01X1209853Y-409956D01*
G01X1208176Y-410210D01*
G01X1206500Y-410312D01*
G01X1204824Y-410210D01*
G01X1203147Y-409956D01*
G01X1201572Y-409550D01*
G01X1200048Y-408991D01*
G01X1198575Y-408330D01*
G01X1197204Y-407467D01*
G01X1195934Y-406502D01*
G01X1194765Y-405435D01*
G01X1193698Y-404266D01*
G01X1192733Y-402996D01*
G01X1191870Y-401625D01*
G01X1191209Y-400152D01*
G01X1190650Y-398628D01*
G01X1190244Y-397053D01*
G01X1189990Y-395376D01*
G01X1189888Y-393700D01*
G01X1186536D01*
G01X1186688Y-395732D01*
G01X1186942Y-397713D01*
G01X1187450Y-399644D01*
G01X1188110Y-401472D01*
G01X1188974Y-403200D01*
G01X1189990Y-404825D01*
G01X1191108Y-406400D01*
G01X1192378Y-407822D01*
G01X1193800Y-409092D01*
G01X1195375Y-410210D01*
G01X1197000Y-411226D01*
G01X1198728Y-412090D01*
G01X1200556Y-412750D01*
G01X1202487Y-413258D01*
G01X1204468Y-413512D01*
G01X1206500Y-413614D01*
G01X1208532Y-413512D01*
G01X1210513Y-413258D01*
G01X1212444Y-412750D01*
G01X1214272Y-412090D01*
G01X1216000Y-411226D01*
G01X1217625Y-410210D01*
G01X1219200Y-409092D01*
G01X1220622Y-407822D01*
G01X1221892Y-406400D01*
G01X1223010Y-404825D01*
G01X1224026Y-403200D01*
G01X1224890Y-401472D01*
G01X1225550Y-399644D01*
G01X1226058Y-397713D01*
G01X1226312Y-395732D01*
G01X1226464Y-393700D01*
G01X1226312Y-391668D01*
G01X1226058Y-389687D01*
G01X1225550Y-387756D01*
G01X1224890Y-385928D01*
G01X1224026Y-384200D01*
G01X1223010Y-382575D01*
G01X1221892Y-381000D01*
G01X1220622Y-379578D01*
G01X1219200Y-378308D01*
G01X1217625Y-377190D01*
G01X1216000Y-376174D01*
G01X1214272Y-375310D01*
G01X1212444Y-374650D01*
G01X1210513Y-374142D01*
G01X1208532Y-373888D01*
G37*
G36*
G01X-50800Y-1719936D02*
G01X-52832Y-1720088D01*
G01X-54813Y-1720342D01*
G01X-56744Y-1720850D01*
G01X-58572Y-1721510D01*
G01X-60300Y-1722374D01*
G01X-61925Y-1723390D01*
G01X-63500Y-1724508D01*
G01X-64922Y-1725778D01*
G01X-66192Y-1727200D01*
G01X-67310Y-1728775D01*
G01X-68326Y-1730400D01*
G01X-69190Y-1732128D01*
G01X-69850Y-1733956D01*
G01X-70358Y-1735887D01*
G01X-70612Y-1737868D01*
G01X-70714Y-1739900D01*
G01X-67412D01*
G01X-67310Y-1738224D01*
G01X-67056Y-1736547D01*
G01X-66650Y-1734972D01*
G01X-66091Y-1733448D01*
G01X-65430Y-1731975D01*
G01X-64567Y-1730604D01*
G01X-63602Y-1729334D01*
G01X-62535Y-1728165D01*
G01X-61366Y-1727098D01*
G01X-60096Y-1726133D01*
G01X-58725Y-1725270D01*
G01X-57252Y-1724609D01*
G01X-55728Y-1724050D01*
G01X-54153Y-1723644D01*
G01X-52476Y-1723390D01*
G01X-50800Y-1723288D01*
G01X-49124Y-1723390D01*
G01X-47447Y-1723644D01*
G01X-45872Y-1724050D01*
G01X-44348Y-1724609D01*
G01X-42875Y-1725270D01*
G01X-41504Y-1726133D01*
G01X-40234Y-1727098D01*
G01X-39065Y-1728165D01*
G01X-37998Y-1729334D01*
G01X-37033Y-1730604D01*
G01X-36170Y-1731975D01*
G01X-35509Y-1733448D01*
G01X-34950Y-1734972D01*
G01X-34544Y-1736547D01*
G01X-34290Y-1738224D01*
G01X-34188Y-1739900D01*
G01X-34290Y-1741576D01*
G01X-34544Y-1743253D01*
G01X-34950Y-1744828D01*
G01X-35509Y-1746352D01*
G01X-36170Y-1747825D01*
G01X-37033Y-1749196D01*
G01X-37998Y-1750466D01*
G01X-39065Y-1751635D01*
G01X-40234Y-1752702D01*
G01X-41504Y-1753667D01*
G01X-42875Y-1754530D01*
G01X-44348Y-1755191D01*
G01X-45872Y-1755750D01*
G01X-47447Y-1756156D01*
G01X-49124Y-1756410D01*
G01X-50800Y-1756512D01*
G01X-52476Y-1756410D01*
G01X-54153Y-1756156D01*
G01X-55728Y-1755750D01*
G01X-57252Y-1755191D01*
G01X-58725Y-1754530D01*
G01X-60096Y-1753667D01*
G01X-61366Y-1752702D01*
G01X-62535Y-1751635D01*
G01X-63602Y-1750466D01*
G01X-64567Y-1749196D01*
G01X-65430Y-1747825D01*
G01X-66091Y-1746352D01*
G01X-66650Y-1744828D01*
G01X-67056Y-1743253D01*
G01X-67310Y-1741576D01*
G01X-67412Y-1739900D01*
G01X-70714D01*
G01X-70612Y-1741932D01*
G01X-70358Y-1743913D01*
G01X-69850Y-1745844D01*
G01X-69190Y-1747672D01*
G01X-68326Y-1749400D01*
G01X-67310Y-1751025D01*
G01X-66192Y-1752600D01*
G01X-64922Y-1754022D01*
G01X-63500Y-1755292D01*
G01X-61925Y-1756410D01*
G01X-60300Y-1757426D01*
G01X-58572Y-1758290D01*
G01X-56744Y-1758950D01*
G01X-54813Y-1759458D01*
G01X-52832Y-1759712D01*
G01X-50800Y-1759814D01*
G01X-48768Y-1759712D01*
G01X-46787Y-1759458D01*
G01X-44856Y-1758950D01*
G01X-43028Y-1758290D01*
G01X-41300Y-1757426D01*
G01X-39675Y-1756410D01*
G01X-38100Y-1755292D01*
G01X-36678Y-1754022D01*
G01X-35408Y-1752600D01*
G01X-34290Y-1751025D01*
G01X-33274Y-1749400D01*
G01X-32410Y-1747672D01*
G01X-31750Y-1745844D01*
G01X-31242Y-1743913D01*
G01X-30988Y-1741932D01*
G01X-30886Y-1739900D01*
G01X-30988Y-1737868D01*
G01X-31242Y-1735887D01*
G01X-31750Y-1733956D01*
G01X-32410Y-1732128D01*
G01X-33274Y-1730400D01*
G01X-34290Y-1728775D01*
G01X-35408Y-1727200D01*
G01X-36678Y-1725778D01*
G01X-38100Y-1724508D01*
G01X-39675Y-1723390D01*
G01X-41300Y-1722374D01*
G01X-43028Y-1721510D01*
G01X-44856Y-1720850D01*
G01X-46787Y-1720342D01*
G01X-48768Y-1720088D01*
G37*
G36*
G01X-825500Y-2723236D02*
G01X-827532Y-2723388D01*
G01X-829513Y-2723642D01*
G01X-831444Y-2724150D01*
G01X-833272Y-2724810D01*
G01X-835000Y-2725674D01*
G01X-836625Y-2726690D01*
G01X-838200Y-2727808D01*
G01X-839622Y-2729078D01*
G01X-840892Y-2730500D01*
G01X-842010Y-2732075D01*
G01X-843026Y-2733700D01*
G01X-843890Y-2735428D01*
G01X-844550Y-2737256D01*
G01X-845058Y-2739187D01*
G01X-845312Y-2741168D01*
G01X-845464Y-2743200D01*
G01X-842112D01*
G01X-842010Y-2741524D01*
G01X-841756Y-2739847D01*
G01X-841350Y-2738272D01*
G01X-840791Y-2736748D01*
G01X-840130Y-2735275D01*
G01X-839267Y-2733904D01*
G01X-838302Y-2732634D01*
G01X-837235Y-2731465D01*
G01X-836066Y-2730398D01*
G01X-834796Y-2729433D01*
G01X-833425Y-2728570D01*
G01X-831952Y-2727909D01*
G01X-830428Y-2727350D01*
G01X-828853Y-2726944D01*
G01X-827176Y-2726690D01*
G01X-825500Y-2726588D01*
G01X-823824Y-2726690D01*
G01X-822147Y-2726944D01*
G01X-820572Y-2727350D01*
G01X-819048Y-2727909D01*
G01X-817575Y-2728570D01*
G01X-816204Y-2729433D01*
G01X-814934Y-2730398D01*
G01X-813765Y-2731465D01*
G01X-812698Y-2732634D01*
G01X-811733Y-2733904D01*
G01X-810870Y-2735275D01*
G01X-810209Y-2736748D01*
G01X-809650Y-2738272D01*
G01X-809244Y-2739847D01*
G01X-808990Y-2741524D01*
G01X-808888Y-2743200D01*
G01X-808990Y-2744876D01*
G01X-809244Y-2746553D01*
G01X-809650Y-2748128D01*
G01X-810209Y-2749652D01*
G01X-810870Y-2751125D01*
G01X-811733Y-2752496D01*
G01X-812698Y-2753766D01*
G01X-813765Y-2754935D01*
G01X-814934Y-2756002D01*
G01X-816204Y-2756967D01*
G01X-817575Y-2757830D01*
G01X-819048Y-2758491D01*
G01X-820572Y-2759050D01*
G01X-822147Y-2759456D01*
G01X-823824Y-2759710D01*
G01X-825500Y-2759812D01*
G01X-827176Y-2759710D01*
G01X-828853Y-2759456D01*
G01X-830428Y-2759050D01*
G01X-831952Y-2758491D01*
G01X-833425Y-2757830D01*
G01X-834796Y-2756967D01*
G01X-836066Y-2756002D01*
G01X-837235Y-2754935D01*
G01X-838302Y-2753766D01*
G01X-839267Y-2752496D01*
G01X-840130Y-2751125D01*
G01X-840791Y-2749652D01*
G01X-841350Y-2748128D01*
G01X-841756Y-2746553D01*
G01X-842010Y-2744876D01*
G01X-842112Y-2743200D01*
G01X-845464D01*
G01X-845312Y-2745232D01*
G01X-845058Y-2747213D01*
G01X-844550Y-2749144D01*
G01X-843890Y-2750972D01*
G01X-843026Y-2752700D01*
G01X-842010Y-2754325D01*
G01X-840892Y-2755900D01*
G01X-839622Y-2757322D01*
G01X-838200Y-2758592D01*
G01X-836625Y-2759710D01*
G01X-835000Y-2760726D01*
G01X-833272Y-2761590D01*
G01X-831444Y-2762250D01*
G01X-829513Y-2762758D01*
G01X-827532Y-2763012D01*
G01X-825500Y-2763114D01*
G01X-823468Y-2763012D01*
G01X-821487Y-2762758D01*
G01X-819556Y-2762250D01*
G01X-817728Y-2761590D01*
G01X-816000Y-2760726D01*
G01X-814375Y-2759710D01*
G01X-812800Y-2758592D01*
G01X-811378Y-2757322D01*
G01X-810108Y-2755900D01*
G01X-808990Y-2754325D01*
G01X-807974Y-2752700D01*
G01X-807110Y-2750972D01*
G01X-806450Y-2749144D01*
G01X-805942Y-2747213D01*
G01X-805688Y-2745232D01*
G01X-805536Y-2743200D01*
G01X-805688Y-2741168D01*
G01X-805942Y-2739187D01*
G01X-806450Y-2737256D01*
G01X-807110Y-2735428D01*
G01X-807974Y-2733700D01*
G01X-808990Y-2732075D01*
G01X-810108Y-2730500D01*
G01X-811378Y-2729078D01*
G01X-812800Y-2727808D01*
G01X-814375Y-2726690D01*
G01X-816000Y-2725674D01*
G01X-817728Y-2724810D01*
G01X-819556Y-2724150D01*
G01X-821487Y-2723642D01*
G01X-823468Y-2723388D01*
G37*
G36*
G01X-685800Y-2989936D02*
G01X-687832Y-2990088D01*
G01X-689813Y-2990342D01*
G01X-691744Y-2990850D01*
G01X-693572Y-2991510D01*
G01X-695300Y-2992374D01*
G01X-696925Y-2993390D01*
G01X-698500Y-2994508D01*
G01X-699922Y-2995778D01*
G01X-701192Y-2997200D01*
G01X-702310Y-2998775D01*
G01X-703326Y-3000400D01*
G01X-704190Y-3002128D01*
G01X-704850Y-3003956D01*
G01X-705358Y-3005887D01*
G01X-705612Y-3007868D01*
G01X-705714Y-3009900D01*
G01X-702412D01*
G01X-702310Y-3008224D01*
G01X-702056Y-3006547D01*
G01X-701650Y-3004972D01*
G01X-701091Y-3003448D01*
G01X-700430Y-3001975D01*
G01X-699567Y-3000604D01*
G01X-698602Y-2999334D01*
G01X-697535Y-2998165D01*
G01X-696366Y-2997098D01*
G01X-695096Y-2996133D01*
G01X-693725Y-2995270D01*
G01X-692252Y-2994609D01*
G01X-690728Y-2994050D01*
G01X-689153Y-2993644D01*
G01X-687476Y-2993390D01*
G01X-685800Y-2993288D01*
G01X-684124Y-2993390D01*
G01X-682447Y-2993644D01*
G01X-680872Y-2994050D01*
G01X-679348Y-2994609D01*
G01X-677875Y-2995270D01*
G01X-676504Y-2996133D01*
G01X-675234Y-2997098D01*
G01X-674065Y-2998165D01*
G01X-672998Y-2999334D01*
G01X-672033Y-3000604D01*
G01X-671170Y-3001975D01*
G01X-670509Y-3003448D01*
G01X-669950Y-3004972D01*
G01X-669544Y-3006547D01*
G01X-669290Y-3008224D01*
G01X-669188Y-3009900D01*
G01X-669290Y-3011576D01*
G01X-669544Y-3013253D01*
G01X-669950Y-3014828D01*
G01X-670509Y-3016352D01*
G01X-671170Y-3017825D01*
G01X-672033Y-3019196D01*
G01X-672998Y-3020466D01*
G01X-674065Y-3021635D01*
G01X-675234Y-3022702D01*
G01X-676504Y-3023667D01*
G01X-677875Y-3024530D01*
G01X-679348Y-3025191D01*
G01X-680872Y-3025750D01*
G01X-682447Y-3026156D01*
G01X-684124Y-3026410D01*
G01X-685800Y-3026512D01*
G01X-687476Y-3026410D01*
G01X-689153Y-3026156D01*
G01X-690728Y-3025750D01*
G01X-692252Y-3025191D01*
G01X-693725Y-3024530D01*
G01X-695096Y-3023667D01*
G01X-696366Y-3022702D01*
G01X-697535Y-3021635D01*
G01X-698602Y-3020466D01*
G01X-699567Y-3019196D01*
G01X-700430Y-3017825D01*
G01X-701091Y-3016352D01*
G01X-701650Y-3014828D01*
G01X-702056Y-3013253D01*
G01X-702310Y-3011576D01*
G01X-702412Y-3009900D01*
G01X-705714D01*
G01X-705612Y-3011932D01*
G01X-705358Y-3013913D01*
G01X-704850Y-3015844D01*
G01X-704190Y-3017672D01*
G01X-703326Y-3019400D01*
G01X-702310Y-3021025D01*
G01X-701192Y-3022600D01*
G01X-699922Y-3024022D01*
G01X-698500Y-3025292D01*
G01X-696925Y-3026410D01*
G01X-695300Y-3027426D01*
G01X-693572Y-3028290D01*
G01X-691744Y-3028950D01*
G01X-689813Y-3029458D01*
G01X-687832Y-3029712D01*
G01X-685800Y-3029814D01*
G01X-683768Y-3029712D01*
G01X-681787Y-3029458D01*
G01X-679856Y-3028950D01*
G01X-678028Y-3028290D01*
G01X-676300Y-3027426D01*
G01X-674675Y-3026410D01*
G01X-673100Y-3025292D01*
G01X-671678Y-3024022D01*
G01X-670408Y-3022600D01*
G01X-669290Y-3021025D01*
G01X-668274Y-3019400D01*
G01X-667410Y-3017672D01*
G01X-666750Y-3015844D01*
G01X-666242Y-3013913D01*
G01X-665988Y-3011932D01*
G01X-665836Y-3009900D01*
G01X-665988Y-3007868D01*
G01X-666242Y-3005887D01*
G01X-666750Y-3003956D01*
G01X-667410Y-3002128D01*
G01X-668274Y-3000400D01*
G01X-669290Y-2998775D01*
G01X-670408Y-2997200D01*
G01X-671678Y-2995778D01*
G01X-673100Y-2994508D01*
G01X-674675Y-2993390D01*
G01X-676300Y-2992374D01*
G01X-678028Y-2991510D01*
G01X-679856Y-2990850D01*
G01X-681787Y-2990342D01*
G01X-683768Y-2990088D01*
G37*
G36*
G01X-762610Y-2431796D02*
G01X-764642Y-2431898D01*
G01X-766623Y-2432202D01*
G01X-768553Y-2432660D01*
G01X-770382Y-2433371D01*
G01X-772109Y-2434184D01*
G01X-773786Y-2435200D01*
G01X-775310Y-2436317D01*
G01X-776732Y-2437638D01*
G01X-778002Y-2439060D01*
G01X-779170Y-2440584D01*
G01X-780136Y-2442210D01*
G01X-780999Y-2443988D01*
G01X-781660Y-2445817D01*
G01X-782168Y-2447696D01*
G01X-782472Y-2449678D01*
G01X-782574Y-2451710D01*
G01X-779221D01*
G01X-779170Y-2450033D01*
G01X-778916Y-2448357D01*
G01X-778510Y-2446782D01*
G01X-777951Y-2445258D01*
G01X-777240Y-2443836D01*
G01X-776376Y-2442464D01*
G01X-775462Y-2441143D01*
G01X-774344Y-2439975D01*
G01X-773176Y-2438908D01*
G01X-771906Y-2437943D01*
G01X-770534Y-2437130D01*
G01X-769112Y-2436419D01*
G01X-767537Y-2435860D01*
G01X-765962Y-2435454D01*
G01X-764337Y-2435200D01*
G01X-762610Y-2435098D01*
G01X-760933Y-2435200D01*
G01X-759257Y-2435454D01*
G01X-757682Y-2435860D01*
G01X-756158Y-2436419D01*
G01X-754736Y-2437130D01*
G01X-753364Y-2437943D01*
G01X-752043Y-2438908D01*
G01X-750875Y-2439975D01*
G01X-749808Y-2441143D01*
G01X-748843Y-2442464D01*
G01X-748030Y-2443836D01*
G01X-747319Y-2445258D01*
G01X-746760Y-2446782D01*
G01X-746354Y-2448357D01*
G01X-746100Y-2450033D01*
G01X-745998Y-2451710D01*
G01X-746100Y-2453437D01*
G01X-746354Y-2455062D01*
G01X-746760Y-2456637D01*
G01X-747319Y-2458212D01*
G01X-748030Y-2459634D01*
G01X-748843Y-2461006D01*
G01X-749808Y-2462276D01*
G01X-750875Y-2463444D01*
G01X-752043Y-2464562D01*
G01X-753364Y-2465476D01*
G01X-754736Y-2466340D01*
G01X-756158Y-2467051D01*
G01X-757682Y-2467610D01*
G01X-759257Y-2468016D01*
G01X-760933Y-2468270D01*
G01X-762610Y-2468321D01*
G01X-764337Y-2468270D01*
G01X-765962Y-2468016D01*
G01X-767537Y-2467610D01*
G01X-769112Y-2467051D01*
G01X-770534Y-2466340D01*
G01X-771906Y-2465476D01*
G01X-773176Y-2464562D01*
G01X-774344Y-2463444D01*
G01X-775462Y-2462276D01*
G01X-776376Y-2461006D01*
G01X-777240Y-2459634D01*
G01X-777951Y-2458212D01*
G01X-778510Y-2456637D01*
G01X-778916Y-2455062D01*
G01X-779170Y-2453437D01*
G01X-779221Y-2451710D01*
G01X-782574D01*
G01X-782472Y-2453742D01*
G01X-782168Y-2455723D01*
G01X-781660Y-2457653D01*
G01X-780999Y-2459482D01*
G01X-780136Y-2461209D01*
G01X-779170Y-2462886D01*
G01X-778002Y-2464410D01*
G01X-776732Y-2465832D01*
G01X-775310Y-2467102D01*
G01X-773786Y-2468270D01*
G01X-772109Y-2469236D01*
G01X-770382Y-2470099D01*
G01X-768553Y-2470760D01*
G01X-766623Y-2471268D01*
G01X-764642Y-2471572D01*
G01X-762610Y-2471674D01*
G01X-760578Y-2471572D01*
G01X-758596Y-2471268D01*
G01X-756717Y-2470760D01*
G01X-754888Y-2470099D01*
G01X-753110Y-2469236D01*
G01X-751484Y-2468270D01*
G01X-749960Y-2467102D01*
G01X-748538Y-2465832D01*
G01X-747217Y-2464410D01*
G01X-746100Y-2462886D01*
G01X-745084Y-2461209D01*
G01X-744271Y-2459482D01*
G01X-743560Y-2457653D01*
G01X-743102Y-2455723D01*
G01X-742798Y-2453742D01*
G01X-742696Y-2451710D01*
G01X-742798Y-2449678D01*
G01X-743102Y-2447696D01*
G01X-743560Y-2445817D01*
G01X-744271Y-2443988D01*
G01X-745084Y-2442210D01*
G01X-746100Y-2440584D01*
G01X-747217Y-2439060D01*
G01X-748538Y-2437638D01*
G01X-749960Y-2436317D01*
G01X-751484Y-2435200D01*
G01X-753110Y-2434184D01*
G01X-754888Y-2433371D01*
G01X-756717Y-2432660D01*
G01X-758596Y-2432202D01*
G01X-760578Y-2431898D01*
G37*
G36*
G01X-774700Y-3116936D02*
G01X-776732Y-3117088D01*
G01X-778713Y-3117342D01*
G01X-780644Y-3117850D01*
G01X-782472Y-3118510D01*
G01X-784200Y-3119374D01*
G01X-785825Y-3120390D01*
G01X-787400Y-3121508D01*
G01X-788822Y-3122778D01*
G01X-790092Y-3124200D01*
G01X-791210Y-3125775D01*
G01X-792226Y-3127400D01*
G01X-793090Y-3129128D01*
G01X-793750Y-3130956D01*
G01X-794258Y-3132887D01*
G01X-794512Y-3134868D01*
G01X-794614Y-3136900D01*
G01X-791312D01*
G01X-791210Y-3135224D01*
G01X-790956Y-3133547D01*
G01X-790550Y-3131972D01*
G01X-789991Y-3130448D01*
G01X-789330Y-3128975D01*
G01X-788467Y-3127604D01*
G01X-787502Y-3126334D01*
G01X-786435Y-3125165D01*
G01X-785266Y-3124098D01*
G01X-783996Y-3123133D01*
G01X-782625Y-3122270D01*
G01X-781152Y-3121609D01*
G01X-779628Y-3121050D01*
G01X-778053Y-3120644D01*
G01X-776376Y-3120390D01*
G01X-774700Y-3120288D01*
G01X-773024Y-3120390D01*
G01X-771347Y-3120644D01*
G01X-769772Y-3121050D01*
G01X-768248Y-3121609D01*
G01X-766775Y-3122270D01*
G01X-765404Y-3123133D01*
G01X-764134Y-3124098D01*
G01X-762965Y-3125165D01*
G01X-761898Y-3126334D01*
G01X-760933Y-3127604D01*
G01X-760070Y-3128975D01*
G01X-759409Y-3130448D01*
G01X-758850Y-3131972D01*
G01X-758444Y-3133547D01*
G01X-758190Y-3135224D01*
G01X-758088Y-3136900D01*
G01X-758190Y-3138576D01*
G01X-758444Y-3140253D01*
G01X-758850Y-3141828D01*
G01X-759409Y-3143352D01*
G01X-760070Y-3144825D01*
G01X-760933Y-3146196D01*
G01X-761898Y-3147466D01*
G01X-762965Y-3148635D01*
G01X-764134Y-3149702D01*
G01X-765404Y-3150667D01*
G01X-766775Y-3151530D01*
G01X-768248Y-3152191D01*
G01X-769772Y-3152750D01*
G01X-771347Y-3153156D01*
G01X-773024Y-3153410D01*
G01X-774700Y-3153512D01*
G01X-776376Y-3153410D01*
G01X-778053Y-3153156D01*
G01X-779628Y-3152750D01*
G01X-781152Y-3152191D01*
G01X-782625Y-3151530D01*
G01X-783996Y-3150667D01*
G01X-785266Y-3149702D01*
G01X-786435Y-3148635D01*
G01X-787502Y-3147466D01*
G01X-788467Y-3146196D01*
G01X-789330Y-3144825D01*
G01X-789991Y-3143352D01*
G01X-790550Y-3141828D01*
G01X-790956Y-3140253D01*
G01X-791210Y-3138576D01*
G01X-791312Y-3136900D01*
G01X-794614D01*
G01X-794512Y-3138932D01*
G01X-794258Y-3140913D01*
G01X-793750Y-3142844D01*
G01X-793090Y-3144672D01*
G01X-792226Y-3146400D01*
G01X-791210Y-3148025D01*
G01X-790092Y-3149600D01*
G01X-788822Y-3151022D01*
G01X-787400Y-3152292D01*
G01X-785825Y-3153410D01*
G01X-784200Y-3154426D01*
G01X-782472Y-3155290D01*
G01X-780644Y-3155950D01*
G01X-778713Y-3156458D01*
G01X-776732Y-3156712D01*
G01X-774700Y-3156814D01*
G01X-772668Y-3156712D01*
G01X-770687Y-3156458D01*
G01X-768756Y-3155950D01*
G01X-766928Y-3155290D01*
G01X-765200Y-3154426D01*
G01X-763575Y-3153410D01*
G01X-762000Y-3152292D01*
G01X-760578Y-3151022D01*
G01X-759308Y-3149600D01*
G01X-758190Y-3148025D01*
G01X-757174Y-3146400D01*
G01X-756310Y-3144672D01*
G01X-755650Y-3142844D01*
G01X-755142Y-3140913D01*
G01X-754888Y-3138932D01*
G01X-754736Y-3136900D01*
G01X-754888Y-3134868D01*
G01X-755142Y-3132887D01*
G01X-755650Y-3130956D01*
G01X-756310Y-3129128D01*
G01X-757174Y-3127400D01*
G01X-758190Y-3125775D01*
G01X-759308Y-3124200D01*
G01X-760578Y-3122778D01*
G01X-762000Y-3121508D01*
G01X-763575Y-3120390D01*
G01X-765200Y-3119374D01*
G01X-766928Y-3118510D01*
G01X-768756Y-3117850D01*
G01X-770687Y-3117342D01*
G01X-772668Y-3117088D01*
G37*
G36*
G01X-454406Y-2206244D02*
G01X-456489Y-2206346D01*
G01X-458470Y-2206650D01*
G01X-460350Y-2207108D01*
G01X-462178Y-2207819D01*
G01X-463956Y-2208632D01*
G01X-465582Y-2209648D01*
G01X-467106Y-2210765D01*
G01X-468528Y-2212086D01*
G01X-469798Y-2213508D01*
G01X-470967Y-2215032D01*
G01X-471983Y-2216658D01*
G01X-472796Y-2218436D01*
G01X-473456Y-2220265D01*
G01X-473964Y-2222144D01*
G01X-474269Y-2224126D01*
G01X-474370Y-2226158D01*
G01X-471068D01*
G01X-470967Y-2224481D01*
G01X-470713Y-2222856D01*
G01X-470306Y-2221230D01*
G01X-469748Y-2219706D01*
G01X-469036Y-2218284D01*
G01X-468224Y-2216912D01*
G01X-467258Y-2215591D01*
G01X-466192Y-2214423D01*
G01X-464972Y-2213356D01*
G01X-463702Y-2212391D01*
G01X-462331Y-2211578D01*
G01X-460908Y-2210867D01*
G01X-459384Y-2210308D01*
G01X-457759Y-2209902D01*
G01X-456133Y-2209648D01*
G01X-454406Y-2209546D01*
G01X-452730Y-2209648D01*
G01X-451104Y-2209902D01*
G01X-449478Y-2210308D01*
G01X-447954Y-2210867D01*
G01X-446532Y-2211578D01*
G01X-445160Y-2212391D01*
G01X-443890Y-2213356D01*
G01X-442671Y-2214423D01*
G01X-441604Y-2215591D01*
G01X-440639Y-2216912D01*
G01X-439826Y-2218284D01*
G01X-439115Y-2219706D01*
G01X-438556Y-2221230D01*
G01X-438150Y-2222856D01*
G01X-437896Y-2224481D01*
G01X-437794Y-2226158D01*
G01X-437896Y-2227885D01*
G01X-438150Y-2229510D01*
G01X-438556Y-2231136D01*
G01X-439115Y-2232660D01*
G01X-439826Y-2234082D01*
G01X-440639Y-2235454D01*
G01X-441604Y-2236724D01*
G01X-442671Y-2237943D01*
G01X-443890Y-2239010D01*
G01X-445160Y-2239924D01*
G01X-446532Y-2240788D01*
G01X-447954Y-2241499D01*
G01X-449478Y-2242058D01*
G01X-451104Y-2242464D01*
G01X-452730Y-2242718D01*
G01X-454406Y-2242769D01*
G01X-456133Y-2242718D01*
G01X-457759Y-2242464D01*
G01X-459384Y-2242058D01*
G01X-460908Y-2241499D01*
G01X-462331Y-2240788D01*
G01X-463702Y-2239924D01*
G01X-464972Y-2239010D01*
G01X-466192Y-2237943D01*
G01X-467258Y-2236724D01*
G01X-468224Y-2235454D01*
G01X-469036Y-2234082D01*
G01X-469748Y-2232660D01*
G01X-470306Y-2231136D01*
G01X-470713Y-2229510D01*
G01X-470967Y-2227885D01*
G01X-471068Y-2226158D01*
G01X-474370D01*
G01X-474269Y-2228190D01*
G01X-473964Y-2230171D01*
G01X-473456Y-2232101D01*
G01X-472796Y-2233930D01*
G01X-471983Y-2235657D01*
G01X-470967Y-2237334D01*
G01X-469798Y-2238858D01*
G01X-468528Y-2240280D01*
G01X-467106Y-2241550D01*
G01X-465582Y-2242718D01*
G01X-463956Y-2243684D01*
G01X-462178Y-2244547D01*
G01X-460350Y-2245208D01*
G01X-458470Y-2245716D01*
G01X-456489Y-2246020D01*
G01X-454406Y-2246122D01*
G01X-452374Y-2246020D01*
G01X-450393Y-2245716D01*
G01X-448513Y-2245208D01*
G01X-446684Y-2244547D01*
G01X-444906Y-2243684D01*
G01X-443281Y-2242718D01*
G01X-441757Y-2241550D01*
G01X-440334Y-2240280D01*
G01X-439064Y-2238858D01*
G01X-437896Y-2237334D01*
G01X-436880Y-2235657D01*
G01X-436067Y-2233930D01*
G01X-435407Y-2232101D01*
G01X-434899Y-2230171D01*
G01X-434594Y-2228190D01*
G01X-434492Y-2226158D01*
G01X-434594Y-2224126D01*
G01X-434899Y-2222144D01*
G01X-435407Y-2220265D01*
G01X-436067Y-2218436D01*
G01X-436880Y-2216658D01*
G01X-437896Y-2215032D01*
G01X-439064Y-2213508D01*
G01X-440334Y-2212086D01*
G01X-441757Y-2210765D01*
G01X-443281Y-2209648D01*
G01X-444906Y-2208632D01*
G01X-446684Y-2207819D01*
G01X-448513Y-2207108D01*
G01X-450393Y-2206650D01*
G01X-452374Y-2206346D01*
G37*
G36*
G01X-280111Y-2127606D02*
G01X-282143Y-2127707D01*
G01X-284124Y-2128012D01*
G01X-286055Y-2128469D01*
G01X-287884Y-2129180D01*
G01X-289611Y-2129993D01*
G01X-291287Y-2131009D01*
G01X-292811Y-2132127D01*
G01X-294234Y-2133448D01*
G01X-295504Y-2134870D01*
G01X-296672Y-2136394D01*
G01X-297637Y-2138020D01*
G01X-298501Y-2139747D01*
G01X-299161Y-2141626D01*
G01X-299669Y-2143506D01*
G01X-299974Y-2145487D01*
G01X-300076Y-2147519D01*
G01X-296723D01*
G01X-296672Y-2145843D01*
G01X-296418Y-2144166D01*
G01X-296012Y-2142592D01*
G01X-295453Y-2141068D01*
G01X-294742Y-2139594D01*
G01X-293878Y-2138223D01*
G01X-292913Y-2136953D01*
G01X-291846Y-2135784D01*
G01X-290678Y-2134718D01*
G01X-289408Y-2133752D01*
G01X-288036Y-2132940D01*
G01X-286563Y-2132228D01*
G01X-285039Y-2131670D01*
G01X-283464Y-2131263D01*
G01X-281838Y-2131009D01*
G01X-280111Y-2130908D01*
G01X-278435Y-2131009D01*
G01X-276758Y-2131263D01*
G01X-275184Y-2131670D01*
G01X-273660Y-2132228D01*
G01X-272186Y-2132940D01*
G01X-270815Y-2133752D01*
G01X-269545Y-2134718D01*
G01X-268376Y-2135784D01*
G01X-267310Y-2136953D01*
G01X-266344Y-2138223D01*
G01X-265532Y-2139594D01*
G01X-264820Y-2141068D01*
G01X-264262Y-2142592D01*
G01X-263855Y-2144166D01*
G01X-263601Y-2145843D01*
G01X-263500Y-2147519D01*
G01X-263601Y-2149246D01*
G01X-263855Y-2150872D01*
G01X-264262Y-2152447D01*
G01X-264820Y-2153971D01*
G01X-265532Y-2155444D01*
G01X-266344Y-2156816D01*
G01X-267310Y-2158086D01*
G01X-268376Y-2159254D01*
G01X-269545Y-2160372D01*
G01X-270815Y-2161286D01*
G01X-272186Y-2162150D01*
G01X-273660Y-2162861D01*
G01X-275184Y-2163420D01*
G01X-276758Y-2163826D01*
G01X-278435Y-2164080D01*
G01X-280111Y-2164131D01*
G01X-281838Y-2164080D01*
G01X-283464Y-2163826D01*
G01X-285039Y-2163420D01*
G01X-286563Y-2162861D01*
G01X-288036Y-2162150D01*
G01X-289408Y-2161286D01*
G01X-290678Y-2160372D01*
G01X-291846Y-2159254D01*
G01X-292913Y-2158086D01*
G01X-293878Y-2156816D01*
G01X-294742Y-2155444D01*
G01X-295453Y-2153971D01*
G01X-296012Y-2152447D01*
G01X-296418Y-2150872D01*
G01X-296672Y-2149246D01*
G01X-296723Y-2147519D01*
G01X-300076D01*
G01X-299974Y-2149551D01*
G01X-299669Y-2151532D01*
G01X-299161Y-2153463D01*
G01X-298501Y-2155292D01*
G01X-297637Y-2157019D01*
G01X-296672Y-2158695D01*
G01X-295504Y-2160219D01*
G01X-294234Y-2161642D01*
G01X-292811Y-2162912D01*
G01X-291287Y-2164080D01*
G01X-289611Y-2165045D01*
G01X-287884Y-2165909D01*
G01X-286055Y-2166569D01*
G01X-284124Y-2167077D01*
G01X-282143Y-2167382D01*
G01X-280111Y-2167484D01*
G01X-278079Y-2167382D01*
G01X-276098Y-2167077D01*
G01X-274168Y-2166569D01*
G01X-272339Y-2165909D01*
G01X-270612Y-2165045D01*
G01X-268986Y-2164080D01*
G01X-267462Y-2162912D01*
G01X-266040Y-2161642D01*
G01X-264719Y-2160219D01*
G01X-263601Y-2158695D01*
G01X-262585Y-2157019D01*
G01X-261772Y-2155292D01*
G01X-261061Y-2153463D01*
G01X-260604Y-2151532D01*
G01X-260299Y-2149551D01*
G01X-260198Y-2147519D01*
G01X-260299Y-2145487D01*
G01X-260604Y-2143506D01*
G01X-261061Y-2141626D01*
G01X-261772Y-2139747D01*
G01X-262585Y-2138020D01*
G01X-263601Y-2136394D01*
G01X-264719Y-2134870D01*
G01X-266040Y-2133448D01*
G01X-267462Y-2132127D01*
G01X-268986Y-2131009D01*
G01X-270612Y-2129993D01*
G01X-272339Y-2129180D01*
G01X-274168Y-2128469D01*
G01X-276098Y-2128012D01*
G01X-278079Y-2127707D01*
G37*
G36*
G01X2603500Y-3002636D02*
G01X2601468Y-3002788D01*
G01X2599487Y-3003042D01*
G01X2597556Y-3003550D01*
G01X2595728Y-3004210D01*
G01X2594000Y-3005074D01*
G01X2592375Y-3006090D01*
G01X2590800Y-3007208D01*
G01X2589378Y-3008478D01*
G01X2588108Y-3009900D01*
G01X2586990Y-3011475D01*
G01X2585974Y-3013100D01*
G01X2585110Y-3014828D01*
G01X2584450Y-3016656D01*
G01X2583942Y-3018587D01*
G01X2583688Y-3020568D01*
G01X2583586Y-3022600D01*
G01X2586888D01*
G01X2586990Y-3020924D01*
G01X2587244Y-3019247D01*
G01X2587650Y-3017672D01*
G01X2588209Y-3016148D01*
G01X2588870Y-3014675D01*
G01X2589733Y-3013304D01*
G01X2590698Y-3012034D01*
G01X2591765Y-3010865D01*
G01X2592934Y-3009798D01*
G01X2594204Y-3008833D01*
G01X2595575Y-3007970D01*
G01X2597048Y-3007309D01*
G01X2598572Y-3006750D01*
G01X2600147Y-3006344D01*
G01X2601824Y-3006090D01*
G01X2603500Y-3005988D01*
G01X2605176Y-3006090D01*
G01X2606853Y-3006344D01*
G01X2608428Y-3006750D01*
G01X2609952Y-3007309D01*
G01X2611425Y-3007970D01*
G01X2612796Y-3008833D01*
G01X2614066Y-3009798D01*
G01X2615235Y-3010865D01*
G01X2616302Y-3012034D01*
G01X2617267Y-3013304D01*
G01X2618130Y-3014675D01*
G01X2618791Y-3016148D01*
G01X2619350Y-3017672D01*
G01X2619756Y-3019247D01*
G01X2620010Y-3020924D01*
G01X2620112Y-3022600D01*
G01X2620010Y-3024276D01*
G01X2619756Y-3025953D01*
G01X2619350Y-3027528D01*
G01X2618791Y-3029052D01*
G01X2618130Y-3030525D01*
G01X2617267Y-3031896D01*
G01X2616302Y-3033166D01*
G01X2615235Y-3034335D01*
G01X2614066Y-3035402D01*
G01X2612796Y-3036367D01*
G01X2611425Y-3037230D01*
G01X2609952Y-3037891D01*
G01X2608428Y-3038450D01*
G01X2606853Y-3038856D01*
G01X2605176Y-3039110D01*
G01X2603500Y-3039212D01*
G01X2601824Y-3039110D01*
G01X2600147Y-3038856D01*
G01X2598572Y-3038450D01*
G01X2597048Y-3037891D01*
G01X2595575Y-3037230D01*
G01X2594204Y-3036367D01*
G01X2592934Y-3035402D01*
G01X2591765Y-3034335D01*
G01X2590698Y-3033166D01*
G01X2589733Y-3031896D01*
G01X2588870Y-3030525D01*
G01X2588209Y-3029052D01*
G01X2587650Y-3027528D01*
G01X2587244Y-3025953D01*
G01X2586990Y-3024276D01*
G01X2586888Y-3022600D01*
G01X2583586D01*
G01X2583688Y-3024632D01*
G01X2583942Y-3026613D01*
G01X2584450Y-3028544D01*
G01X2585110Y-3030372D01*
G01X2585974Y-3032100D01*
G01X2586990Y-3033725D01*
G01X2588108Y-3035300D01*
G01X2589378Y-3036722D01*
G01X2590800Y-3037992D01*
G01X2592375Y-3039110D01*
G01X2594000Y-3040126D01*
G01X2595728Y-3040990D01*
G01X2597556Y-3041650D01*
G01X2599487Y-3042158D01*
G01X2601468Y-3042412D01*
G01X2603500Y-3042514D01*
G01X2605532Y-3042412D01*
G01X2607513Y-3042158D01*
G01X2609444Y-3041650D01*
G01X2611272Y-3040990D01*
G01X2613000Y-3040126D01*
G01X2614625Y-3039110D01*
G01X2616200Y-3037992D01*
G01X2617622Y-3036722D01*
G01X2618892Y-3035300D01*
G01X2620010Y-3033725D01*
G01X2621026Y-3032100D01*
G01X2621890Y-3030372D01*
G01X2622550Y-3028544D01*
G01X2623058Y-3026613D01*
G01X2623312Y-3024632D01*
G01X2623464Y-3022600D01*
G01X2623312Y-3020568D01*
G01X2623058Y-3018587D01*
G01X2622550Y-3016656D01*
G01X2621890Y-3014828D01*
G01X2621026Y-3013100D01*
G01X2620010Y-3011475D01*
G01X2618892Y-3009900D01*
G01X2617622Y-3008478D01*
G01X2616200Y-3007208D01*
G01X2614625Y-3006090D01*
G01X2613000Y-3005074D01*
G01X2611272Y-3004210D01*
G01X2609444Y-3003550D01*
G01X2607513Y-3003042D01*
G01X2605532Y-3002788D01*
G37*
G36*
G01X2324100Y-2494636D02*
G01X2322068Y-2494788D01*
G01X2320087Y-2495042D01*
G01X2318156Y-2495550D01*
G01X2316328Y-2496210D01*
G01X2314600Y-2497074D01*
G01X2312975Y-2498090D01*
G01X2311400Y-2499208D01*
G01X2309978Y-2500478D01*
G01X2308708Y-2501900D01*
G01X2307590Y-2503475D01*
G01X2306574Y-2505100D01*
G01X2305710Y-2506828D01*
G01X2305050Y-2508656D01*
G01X2304542Y-2510587D01*
G01X2304288Y-2512568D01*
G01X2304186Y-2514600D01*
G01X2307488D01*
G01X2307590Y-2512924D01*
G01X2307844Y-2511247D01*
G01X2308250Y-2509672D01*
G01X2308809Y-2508148D01*
G01X2309470Y-2506675D01*
G01X2310333Y-2505304D01*
G01X2311298Y-2504034D01*
G01X2312365Y-2502865D01*
G01X2313534Y-2501798D01*
G01X2314804Y-2500833D01*
G01X2316175Y-2499970D01*
G01X2317648Y-2499309D01*
G01X2319172Y-2498750D01*
G01X2320747Y-2498344D01*
G01X2322424Y-2498090D01*
G01X2324100Y-2497988D01*
G01X2325776Y-2498090D01*
G01X2327453Y-2498344D01*
G01X2329028Y-2498750D01*
G01X2330552Y-2499309D01*
G01X2332025Y-2499970D01*
G01X2333396Y-2500833D01*
G01X2334666Y-2501798D01*
G01X2335835Y-2502865D01*
G01X2336902Y-2504034D01*
G01X2337867Y-2505304D01*
G01X2338730Y-2506675D01*
G01X2339391Y-2508148D01*
G01X2339950Y-2509672D01*
G01X2340356Y-2511247D01*
G01X2340610Y-2512924D01*
G01X2340712Y-2514600D01*
G01X2340610Y-2516276D01*
G01X2340356Y-2517953D01*
G01X2339950Y-2519528D01*
G01X2339391Y-2521052D01*
G01X2338730Y-2522525D01*
G01X2337867Y-2523896D01*
G01X2336902Y-2525166D01*
G01X2335835Y-2526335D01*
G01X2334666Y-2527402D01*
G01X2333396Y-2528367D01*
G01X2332025Y-2529230D01*
G01X2330552Y-2529891D01*
G01X2329028Y-2530450D01*
G01X2327453Y-2530856D01*
G01X2325776Y-2531110D01*
G01X2324100Y-2531212D01*
G01X2322424Y-2531110D01*
G01X2320747Y-2530856D01*
G01X2319172Y-2530450D01*
G01X2317648Y-2529891D01*
G01X2316175Y-2529230D01*
G01X2314804Y-2528367D01*
G01X2313534Y-2527402D01*
G01X2312365Y-2526335D01*
G01X2311298Y-2525166D01*
G01X2310333Y-2523896D01*
G01X2309470Y-2522525D01*
G01X2308809Y-2521052D01*
G01X2308250Y-2519528D01*
G01X2307844Y-2517953D01*
G01X2307590Y-2516276D01*
G01X2307488Y-2514600D01*
G01X2304186D01*
G01X2304288Y-2516632D01*
G01X2304542Y-2518613D01*
G01X2305050Y-2520544D01*
G01X2305710Y-2522372D01*
G01X2306574Y-2524100D01*
G01X2307590Y-2525725D01*
G01X2308708Y-2527300D01*
G01X2309978Y-2528722D01*
G01X2311400Y-2529992D01*
G01X2312975Y-2531110D01*
G01X2314600Y-2532126D01*
G01X2316328Y-2532990D01*
G01X2318156Y-2533650D01*
G01X2320087Y-2534158D01*
G01X2322068Y-2534412D01*
G01X2324100Y-2534514D01*
G01X2326132Y-2534412D01*
G01X2328113Y-2534158D01*
G01X2330044Y-2533650D01*
G01X2331872Y-2532990D01*
G01X2333600Y-2532126D01*
G01X2335225Y-2531110D01*
G01X2336800Y-2529992D01*
G01X2338222Y-2528722D01*
G01X2339492Y-2527300D01*
G01X2340610Y-2525725D01*
G01X2341626Y-2524100D01*
G01X2342490Y-2522372D01*
G01X2343150Y-2520544D01*
G01X2343658Y-2518613D01*
G01X2343912Y-2516632D01*
G01X2344064Y-2514600D01*
G01X2343912Y-2512568D01*
G01X2343658Y-2510587D01*
G01X2343150Y-2508656D01*
G01X2342490Y-2506828D01*
G01X2341626Y-2505100D01*
G01X2340610Y-2503475D01*
G01X2339492Y-2501900D01*
G01X2338222Y-2500478D01*
G01X2336800Y-2499208D01*
G01X2335225Y-2498090D01*
G01X2333600Y-2497074D01*
G01X2331872Y-2496210D01*
G01X2330044Y-2495550D01*
G01X2328113Y-2495042D01*
G01X2326132Y-2494788D01*
G37*
G36*
G01X2692400Y-2481936D02*
G01X2690368Y-2482088D01*
G01X2688387Y-2482342D01*
G01X2686456Y-2482850D01*
G01X2684628Y-2483510D01*
G01X2682900Y-2484374D01*
G01X2681275Y-2485390D01*
G01X2679700Y-2486508D01*
G01X2678278Y-2487778D01*
G01X2677008Y-2489200D01*
G01X2675890Y-2490775D01*
G01X2674874Y-2492400D01*
G01X2674010Y-2494128D01*
G01X2673350Y-2495956D01*
G01X2672842Y-2497887D01*
G01X2672588Y-2499868D01*
G01X2672486Y-2501900D01*
G01X2675788D01*
G01X2675890Y-2500224D01*
G01X2676144Y-2498547D01*
G01X2676550Y-2496972D01*
G01X2677109Y-2495448D01*
G01X2677770Y-2493975D01*
G01X2678633Y-2492604D01*
G01X2679598Y-2491334D01*
G01X2680665Y-2490165D01*
G01X2681834Y-2489098D01*
G01X2683104Y-2488133D01*
G01X2684475Y-2487270D01*
G01X2685948Y-2486609D01*
G01X2687472Y-2486050D01*
G01X2689047Y-2485644D01*
G01X2690724Y-2485390D01*
G01X2692400Y-2485288D01*
G01X2694076Y-2485390D01*
G01X2695753Y-2485644D01*
G01X2697328Y-2486050D01*
G01X2698852Y-2486609D01*
G01X2700325Y-2487270D01*
G01X2701696Y-2488133D01*
G01X2702966Y-2489098D01*
G01X2704135Y-2490165D01*
G01X2705202Y-2491334D01*
G01X2706167Y-2492604D01*
G01X2707030Y-2493975D01*
G01X2707691Y-2495448D01*
G01X2708250Y-2496972D01*
G01X2708656Y-2498547D01*
G01X2708910Y-2500224D01*
G01X2709012Y-2501900D01*
G01X2708910Y-2503576D01*
G01X2708656Y-2505253D01*
G01X2708250Y-2506828D01*
G01X2707691Y-2508352D01*
G01X2707030Y-2509825D01*
G01X2706167Y-2511196D01*
G01X2705202Y-2512466D01*
G01X2704135Y-2513635D01*
G01X2702966Y-2514702D01*
G01X2701696Y-2515667D01*
G01X2700325Y-2516530D01*
G01X2698852Y-2517191D01*
G01X2697328Y-2517750D01*
G01X2695753Y-2518156D01*
G01X2694076Y-2518410D01*
G01X2692400Y-2518512D01*
G01X2690724Y-2518410D01*
G01X2689047Y-2518156D01*
G01X2687472Y-2517750D01*
G01X2685948Y-2517191D01*
G01X2684475Y-2516530D01*
G01X2683104Y-2515667D01*
G01X2681834Y-2514702D01*
G01X2680665Y-2513635D01*
G01X2679598Y-2512466D01*
G01X2678633Y-2511196D01*
G01X2677770Y-2509825D01*
G01X2677109Y-2508352D01*
G01X2676550Y-2506828D01*
G01X2676144Y-2505253D01*
G01X2675890Y-2503576D01*
G01X2675788Y-2501900D01*
G01X2672486D01*
G01X2672588Y-2503932D01*
G01X2672842Y-2505913D01*
G01X2673350Y-2507844D01*
G01X2674010Y-2509672D01*
G01X2674874Y-2511400D01*
G01X2675890Y-2513025D01*
G01X2677008Y-2514600D01*
G01X2678278Y-2516022D01*
G01X2679700Y-2517292D01*
G01X2681275Y-2518410D01*
G01X2682900Y-2519426D01*
G01X2684628Y-2520290D01*
G01X2686456Y-2520950D01*
G01X2688387Y-2521458D01*
G01X2690368Y-2521712D01*
G01X2692400Y-2521814D01*
G01X2694432Y-2521712D01*
G01X2696413Y-2521458D01*
G01X2698344Y-2520950D01*
G01X2700172Y-2520290D01*
G01X2701900Y-2519426D01*
G01X2703525Y-2518410D01*
G01X2705100Y-2517292D01*
G01X2706522Y-2516022D01*
G01X2707792Y-2514600D01*
G01X2708910Y-2513025D01*
G01X2709926Y-2511400D01*
G01X2710790Y-2509672D01*
G01X2711450Y-2507844D01*
G01X2711958Y-2505913D01*
G01X2712212Y-2503932D01*
G01X2712364Y-2501900D01*
G01X2712212Y-2499868D01*
G01X2711958Y-2497887D01*
G01X2711450Y-2495956D01*
G01X2710790Y-2494128D01*
G01X2709926Y-2492400D01*
G01X2708910Y-2490775D01*
G01X2707792Y-2489200D01*
G01X2706522Y-2487778D01*
G01X2705100Y-2486508D01*
G01X2703525Y-2485390D01*
G01X2701900Y-2484374D01*
G01X2700172Y-2483510D01*
G01X2698344Y-2482850D01*
G01X2696413Y-2482342D01*
G01X2694432Y-2482088D01*
G37*
G36*
G01X2933700Y-2405736D02*
G01X2931668Y-2405888D01*
G01X2929687Y-2406142D01*
G01X2927756Y-2406650D01*
G01X2925928Y-2407310D01*
G01X2924200Y-2408174D01*
G01X2922575Y-2409190D01*
G01X2921000Y-2410308D01*
G01X2919578Y-2411578D01*
G01X2918308Y-2413000D01*
G01X2917190Y-2414575D01*
G01X2916174Y-2416200D01*
G01X2915310Y-2417928D01*
G01X2914650Y-2419756D01*
G01X2914142Y-2421687D01*
G01X2913888Y-2423668D01*
G01X2913786Y-2425700D01*
G01X2917088D01*
G01X2917190Y-2424024D01*
G01X2917444Y-2422347D01*
G01X2917850Y-2420772D01*
G01X2918409Y-2419248D01*
G01X2919070Y-2417775D01*
G01X2919933Y-2416404D01*
G01X2920898Y-2415134D01*
G01X2921965Y-2413965D01*
G01X2923134Y-2412898D01*
G01X2924404Y-2411933D01*
G01X2925775Y-2411070D01*
G01X2927248Y-2410409D01*
G01X2928772Y-2409850D01*
G01X2930347Y-2409444D01*
G01X2932024Y-2409190D01*
G01X2933700Y-2409088D01*
G01X2935376Y-2409190D01*
G01X2937053Y-2409444D01*
G01X2938628Y-2409850D01*
G01X2940152Y-2410409D01*
G01X2941625Y-2411070D01*
G01X2942996Y-2411933D01*
G01X2944266Y-2412898D01*
G01X2945435Y-2413965D01*
G01X2946502Y-2415134D01*
G01X2947467Y-2416404D01*
G01X2948330Y-2417775D01*
G01X2948991Y-2419248D01*
G01X2949550Y-2420772D01*
G01X2949956Y-2422347D01*
G01X2950210Y-2424024D01*
G01X2950312Y-2425700D01*
G01X2950210Y-2427376D01*
G01X2949956Y-2429053D01*
G01X2949550Y-2430628D01*
G01X2948991Y-2432152D01*
G01X2948330Y-2433625D01*
G01X2947467Y-2434996D01*
G01X2946502Y-2436266D01*
G01X2945435Y-2437435D01*
G01X2944266Y-2438502D01*
G01X2942996Y-2439467D01*
G01X2941625Y-2440330D01*
G01X2940152Y-2440991D01*
G01X2938628Y-2441550D01*
G01X2937053Y-2441956D01*
G01X2935376Y-2442210D01*
G01X2933700Y-2442312D01*
G01X2932024Y-2442210D01*
G01X2930347Y-2441956D01*
G01X2928772Y-2441550D01*
G01X2927248Y-2440991D01*
G01X2925775Y-2440330D01*
G01X2924404Y-2439467D01*
G01X2923134Y-2438502D01*
G01X2921965Y-2437435D01*
G01X2920898Y-2436266D01*
G01X2919933Y-2434996D01*
G01X2919070Y-2433625D01*
G01X2918409Y-2432152D01*
G01X2917850Y-2430628D01*
G01X2917444Y-2429053D01*
G01X2917190Y-2427376D01*
G01X2917088Y-2425700D01*
G01X2913786D01*
G01X2913888Y-2427732D01*
G01X2914142Y-2429713D01*
G01X2914650Y-2431644D01*
G01X2915310Y-2433472D01*
G01X2916174Y-2435200D01*
G01X2917190Y-2436825D01*
G01X2918308Y-2438400D01*
G01X2919578Y-2439822D01*
G01X2921000Y-2441092D01*
G01X2922575Y-2442210D01*
G01X2924200Y-2443226D01*
G01X2925928Y-2444090D01*
G01X2927756Y-2444750D01*
G01X2929687Y-2445258D01*
G01X2931668Y-2445512D01*
G01X2933700Y-2445614D01*
G01X2935732Y-2445512D01*
G01X2937713Y-2445258D01*
G01X2939644Y-2444750D01*
G01X2941472Y-2444090D01*
G01X2943200Y-2443226D01*
G01X2944825Y-2442210D01*
G01X2946400Y-2441092D01*
G01X2947822Y-2439822D01*
G01X2949092Y-2438400D01*
G01X2950210Y-2436825D01*
G01X2951226Y-2435200D01*
G01X2952090Y-2433472D01*
G01X2952750Y-2431644D01*
G01X2953258Y-2429713D01*
G01X2953512Y-2427732D01*
G01X2953664Y-2425700D01*
G01X2953512Y-2423668D01*
G01X2953258Y-2421687D01*
G01X2952750Y-2419756D01*
G01X2952090Y-2417928D01*
G01X2951226Y-2416200D01*
G01X2950210Y-2414575D01*
G01X2949092Y-2413000D01*
G01X2947822Y-2411578D01*
G01X2946400Y-2410308D01*
G01X2944825Y-2409190D01*
G01X2943200Y-2408174D01*
G01X2941472Y-2407310D01*
G01X2939644Y-2406650D01*
G01X2937713Y-2406142D01*
G01X2935732Y-2405888D01*
G37*
G36*
G01X2590800Y-2520036D02*
G01X2588768Y-2520188D01*
G01X2586787Y-2520442D01*
G01X2584856Y-2520950D01*
G01X2583028Y-2521610D01*
G01X2581300Y-2522474D01*
G01X2579675Y-2523490D01*
G01X2578100Y-2524608D01*
G01X2576678Y-2525878D01*
G01X2575408Y-2527300D01*
G01X2574290Y-2528875D01*
G01X2573274Y-2530500D01*
G01X2572410Y-2532228D01*
G01X2571750Y-2534056D01*
G01X2571242Y-2535987D01*
G01X2570988Y-2537968D01*
G01X2570886Y-2540000D01*
G01X2574188D01*
G01X2574290Y-2538324D01*
G01X2574544Y-2536647D01*
G01X2574950Y-2535072D01*
G01X2575509Y-2533548D01*
G01X2576170Y-2532075D01*
G01X2577033Y-2530704D01*
G01X2577998Y-2529434D01*
G01X2579065Y-2528265D01*
G01X2580234Y-2527198D01*
G01X2581504Y-2526233D01*
G01X2582875Y-2525370D01*
G01X2584348Y-2524709D01*
G01X2585872Y-2524150D01*
G01X2587447Y-2523744D01*
G01X2589124Y-2523490D01*
G01X2590800Y-2523388D01*
G01X2592476Y-2523490D01*
G01X2594153Y-2523744D01*
G01X2595728Y-2524150D01*
G01X2597252Y-2524709D01*
G01X2598725Y-2525370D01*
G01X2600096Y-2526233D01*
G01X2601366Y-2527198D01*
G01X2602535Y-2528265D01*
G01X2603602Y-2529434D01*
G01X2604567Y-2530704D01*
G01X2605430Y-2532075D01*
G01X2606091Y-2533548D01*
G01X2606650Y-2535072D01*
G01X2607056Y-2536647D01*
G01X2607310Y-2538324D01*
G01X2607412Y-2540000D01*
G01X2607310Y-2541676D01*
G01X2607056Y-2543353D01*
G01X2606650Y-2544928D01*
G01X2606091Y-2546452D01*
G01X2605430Y-2547925D01*
G01X2604567Y-2549296D01*
G01X2603602Y-2550566D01*
G01X2602535Y-2551735D01*
G01X2601366Y-2552802D01*
G01X2600096Y-2553767D01*
G01X2598725Y-2554630D01*
G01X2597252Y-2555291D01*
G01X2595728Y-2555850D01*
G01X2594153Y-2556256D01*
G01X2592476Y-2556510D01*
G01X2590800Y-2556612D01*
G01X2589124Y-2556510D01*
G01X2587447Y-2556256D01*
G01X2585872Y-2555850D01*
G01X2584348Y-2555291D01*
G01X2582875Y-2554630D01*
G01X2581504Y-2553767D01*
G01X2580234Y-2552802D01*
G01X2579065Y-2551735D01*
G01X2577998Y-2550566D01*
G01X2577033Y-2549296D01*
G01X2576170Y-2547925D01*
G01X2575509Y-2546452D01*
G01X2574950Y-2544928D01*
G01X2574544Y-2543353D01*
G01X2574290Y-2541676D01*
G01X2574188Y-2540000D01*
G01X2570886D01*
G01X2570988Y-2542032D01*
G01X2571242Y-2544013D01*
G01X2571750Y-2545944D01*
G01X2572410Y-2547772D01*
G01X2573274Y-2549500D01*
G01X2574290Y-2551125D01*
G01X2575408Y-2552700D01*
G01X2576678Y-2554122D01*
G01X2578100Y-2555392D01*
G01X2579675Y-2556510D01*
G01X2581300Y-2557526D01*
G01X2583028Y-2558390D01*
G01X2584856Y-2559050D01*
G01X2586787Y-2559558D01*
G01X2588768Y-2559812D01*
G01X2590800Y-2559914D01*
G01X2592832Y-2559812D01*
G01X2594813Y-2559558D01*
G01X2596744Y-2559050D01*
G01X2598572Y-2558390D01*
G01X2600300Y-2557526D01*
G01X2601925Y-2556510D01*
G01X2603500Y-2555392D01*
G01X2604922Y-2554122D01*
G01X2606192Y-2552700D01*
G01X2607310Y-2551125D01*
G01X2608326Y-2549500D01*
G01X2609190Y-2547772D01*
G01X2609850Y-2545944D01*
G01X2610358Y-2544013D01*
G01X2610612Y-2542032D01*
G01X2610764Y-2540000D01*
G01X2610612Y-2537968D01*
G01X2610358Y-2535987D01*
G01X2609850Y-2534056D01*
G01X2609190Y-2532228D01*
G01X2608326Y-2530500D01*
G01X2607310Y-2528875D01*
G01X2606192Y-2527300D01*
G01X2604922Y-2525878D01*
G01X2603500Y-2524608D01*
G01X2601925Y-2523490D01*
G01X2600300Y-2522474D01*
G01X2598572Y-2521610D01*
G01X2596744Y-2520950D01*
G01X2594813Y-2520442D01*
G01X2592832Y-2520188D01*
G37*
G36*
G01X2679700Y-3053436D02*
G01X2677668Y-3053588D01*
G01X2675687Y-3053842D01*
G01X2673756Y-3054350D01*
G01X2671928Y-3055010D01*
G01X2670200Y-3055874D01*
G01X2668575Y-3056890D01*
G01X2667000Y-3058008D01*
G01X2665578Y-3059278D01*
G01X2664308Y-3060700D01*
G01X2663190Y-3062275D01*
G01X2662174Y-3063900D01*
G01X2661310Y-3065628D01*
G01X2660650Y-3067456D01*
G01X2660142Y-3069387D01*
G01X2659888Y-3071368D01*
G01X2659786Y-3073400D01*
G01X2663088D01*
G01X2663190Y-3071724D01*
G01X2663444Y-3070047D01*
G01X2663850Y-3068472D01*
G01X2664409Y-3066948D01*
G01X2665070Y-3065475D01*
G01X2665933Y-3064104D01*
G01X2666898Y-3062834D01*
G01X2667965Y-3061665D01*
G01X2669134Y-3060598D01*
G01X2670404Y-3059633D01*
G01X2671775Y-3058770D01*
G01X2673248Y-3058109D01*
G01X2674772Y-3057550D01*
G01X2676347Y-3057144D01*
G01X2678024Y-3056890D01*
G01X2679700Y-3056788D01*
G01X2681376Y-3056890D01*
G01X2683053Y-3057144D01*
G01X2684628Y-3057550D01*
G01X2686152Y-3058109D01*
G01X2687625Y-3058770D01*
G01X2688996Y-3059633D01*
G01X2690266Y-3060598D01*
G01X2691435Y-3061665D01*
G01X2692502Y-3062834D01*
G01X2693467Y-3064104D01*
G01X2694330Y-3065475D01*
G01X2694991Y-3066948D01*
G01X2695550Y-3068472D01*
G01X2695956Y-3070047D01*
G01X2696210Y-3071724D01*
G01X2696312Y-3073400D01*
G01X2696210Y-3075076D01*
G01X2695956Y-3076753D01*
G01X2695550Y-3078328D01*
G01X2694991Y-3079852D01*
G01X2694330Y-3081325D01*
G01X2693467Y-3082696D01*
G01X2692502Y-3083966D01*
G01X2691435Y-3085135D01*
G01X2690266Y-3086202D01*
G01X2688996Y-3087167D01*
G01X2687625Y-3088030D01*
G01X2686152Y-3088691D01*
G01X2684628Y-3089250D01*
G01X2683053Y-3089656D01*
G01X2681376Y-3089910D01*
G01X2679700Y-3090012D01*
G01X2678024Y-3089910D01*
G01X2676347Y-3089656D01*
G01X2674772Y-3089250D01*
G01X2673248Y-3088691D01*
G01X2671775Y-3088030D01*
G01X2670404Y-3087167D01*
G01X2669134Y-3086202D01*
G01X2667965Y-3085135D01*
G01X2666898Y-3083966D01*
G01X2665933Y-3082696D01*
G01X2665070Y-3081325D01*
G01X2664409Y-3079852D01*
G01X2663850Y-3078328D01*
G01X2663444Y-3076753D01*
G01X2663190Y-3075076D01*
G01X2663088Y-3073400D01*
G01X2659786D01*
G01X2659888Y-3075432D01*
G01X2660142Y-3077413D01*
G01X2660650Y-3079344D01*
G01X2661310Y-3081172D01*
G01X2662174Y-3082900D01*
G01X2663190Y-3084525D01*
G01X2664308Y-3086100D01*
G01X2665578Y-3087522D01*
G01X2667000Y-3088792D01*
G01X2668575Y-3089910D01*
G01X2670200Y-3090926D01*
G01X2671928Y-3091790D01*
G01X2673756Y-3092450D01*
G01X2675687Y-3092958D01*
G01X2677668Y-3093212D01*
G01X2679700Y-3093314D01*
G01X2681732Y-3093212D01*
G01X2683713Y-3092958D01*
G01X2685644Y-3092450D01*
G01X2687472Y-3091790D01*
G01X2689200Y-3090926D01*
G01X2690825Y-3089910D01*
G01X2692400Y-3088792D01*
G01X2693822Y-3087522D01*
G01X2695092Y-3086100D01*
G01X2696210Y-3084525D01*
G01X2697226Y-3082900D01*
G01X2698090Y-3081172D01*
G01X2698750Y-3079344D01*
G01X2699258Y-3077413D01*
G01X2699512Y-3075432D01*
G01X2699664Y-3073400D01*
G01X2699512Y-3071368D01*
G01X2699258Y-3069387D01*
G01X2698750Y-3067456D01*
G01X2698090Y-3065628D01*
G01X2697226Y-3063900D01*
G01X2696210Y-3062275D01*
G01X2695092Y-3060700D01*
G01X2693822Y-3059278D01*
G01X2692400Y-3058008D01*
G01X2690825Y-3056890D01*
G01X2689200Y-3055874D01*
G01X2687472Y-3055010D01*
G01X2685644Y-3054350D01*
G01X2683713Y-3053842D01*
G01X2681732Y-3053588D01*
G37*
G36*
G01X2566924Y-2762504D02*
G01X2564892Y-2762656D01*
G01X2562911Y-2762910D01*
G01X2561031Y-2763418D01*
G01X2559202Y-2764079D01*
G01X2557424Y-2764942D01*
G01X2555799Y-2765958D01*
G01X2554275Y-2767076D01*
G01X2552852Y-2768346D01*
G01X2551532Y-2769768D01*
G01X2550414Y-2771343D01*
G01X2549398Y-2772969D01*
G01X2548585Y-2774696D01*
G01X2547874Y-2776525D01*
G01X2547417Y-2778455D01*
G01X2547112Y-2780436D01*
G01X2547010Y-2782468D01*
G01X2550312D01*
G01X2550414Y-2780792D01*
G01X2550668Y-2779116D01*
G01X2551074Y-2777541D01*
G01X2551633Y-2776017D01*
G01X2552344Y-2774544D01*
G01X2553157Y-2773172D01*
G01X2554122Y-2771902D01*
G01X2555189Y-2770734D01*
G01X2556358Y-2769667D01*
G01X2557678Y-2768702D01*
G01X2559050Y-2767838D01*
G01X2560472Y-2767178D01*
G01X2561996Y-2766619D01*
G01X2563571Y-2766212D01*
G01X2565248Y-2765958D01*
G01X2566924Y-2765857D01*
G01X2568651Y-2765958D01*
G01X2570277Y-2766212D01*
G01X2571852Y-2766619D01*
G01X2573376Y-2767178D01*
G01X2574849Y-2767838D01*
G01X2576220Y-2768702D01*
G01X2577490Y-2769667D01*
G01X2578659Y-2770734D01*
G01X2579776Y-2771902D01*
G01X2580691Y-2773172D01*
G01X2581554Y-2774544D01*
G01X2582266Y-2776017D01*
G01X2582824Y-2777541D01*
G01X2583231Y-2779116D01*
G01X2583485Y-2780792D01*
G01X2583536Y-2782468D01*
G01X2583485Y-2784145D01*
G01X2583231Y-2785821D01*
G01X2582824Y-2787396D01*
G01X2582266Y-2788920D01*
G01X2581554Y-2790393D01*
G01X2580691Y-2791765D01*
G01X2579776Y-2793035D01*
G01X2578659Y-2794203D01*
G01X2577490Y-2795270D01*
G01X2576220Y-2796235D01*
G01X2574849Y-2797099D01*
G01X2573376Y-2797759D01*
G01X2571852Y-2798318D01*
G01X2570277Y-2798724D01*
G01X2568651Y-2798978D01*
G01X2566924Y-2799080D01*
G01X2565248Y-2798978D01*
G01X2563571Y-2798724D01*
G01X2561996Y-2798318D01*
G01X2560472Y-2797759D01*
G01X2559050Y-2797099D01*
G01X2557678Y-2796235D01*
G01X2556358Y-2795270D01*
G01X2555189Y-2794203D01*
G01X2554122Y-2793035D01*
G01X2553157Y-2791765D01*
G01X2552344Y-2790393D01*
G01X2551633Y-2788920D01*
G01X2551074Y-2787396D01*
G01X2550668Y-2785821D01*
G01X2550414Y-2784145D01*
G01X2550312Y-2782468D01*
G01X2547010D01*
G01X2547112Y-2784500D01*
G01X2547417Y-2786482D01*
G01X2547874Y-2788412D01*
G01X2548585Y-2790241D01*
G01X2549398Y-2791968D01*
G01X2550414Y-2793594D01*
G01X2551532Y-2795168D01*
G01X2552852Y-2796591D01*
G01X2554275Y-2797861D01*
G01X2555799Y-2798978D01*
G01X2557424Y-2799994D01*
G01X2559202Y-2800858D01*
G01X2561031Y-2801518D01*
G01X2562911Y-2802026D01*
G01X2564892Y-2802280D01*
G01X2566924Y-2802382D01*
G01X2568956Y-2802280D01*
G01X2570937Y-2802026D01*
G01X2572868Y-2801518D01*
G01X2574696Y-2800858D01*
G01X2576424Y-2799994D01*
G01X2578100Y-2798978D01*
G01X2579624Y-2797861D01*
G01X2581046Y-2796591D01*
G01X2582316Y-2795168D01*
G01X2583485Y-2793594D01*
G01X2584450Y-2791968D01*
G01X2585314Y-2790241D01*
G01X2585974Y-2788412D01*
G01X2586482Y-2786482D01*
G01X2586787Y-2784500D01*
G01X2586888Y-2782468D01*
G01X2586787Y-2780436D01*
G01X2586482Y-2778455D01*
G01X2585974Y-2776525D01*
G01X2585314Y-2774696D01*
G01X2584450Y-2772969D01*
G01X2583485Y-2771343D01*
G01X2582316Y-2769768D01*
G01X2581046Y-2768346D01*
G01X2579624Y-2767076D01*
G01X2578100Y-2765958D01*
G01X2576424Y-2764942D01*
G01X2574696Y-2764079D01*
G01X2572868Y-2763418D01*
G01X2570937Y-2762910D01*
G01X2568956Y-2762656D01*
G37*
G36*
G01X2857500Y-2494636D02*
G01X2855468Y-2494788D01*
G01X2853487Y-2495042D01*
G01X2851556Y-2495550D01*
G01X2849728Y-2496210D01*
G01X2848000Y-2497074D01*
G01X2846375Y-2498090D01*
G01X2844800Y-2499208D01*
G01X2843378Y-2500478D01*
G01X2842108Y-2501900D01*
G01X2840990Y-2503475D01*
G01X2839974Y-2505100D01*
G01X2839110Y-2506828D01*
G01X2838450Y-2508656D01*
G01X2837942Y-2510587D01*
G01X2837688Y-2512568D01*
G01X2837586Y-2514600D01*
G01X2840888D01*
G01X2840990Y-2512924D01*
G01X2841244Y-2511247D01*
G01X2841650Y-2509672D01*
G01X2842209Y-2508148D01*
G01X2842870Y-2506675D01*
G01X2843733Y-2505304D01*
G01X2844698Y-2504034D01*
G01X2845765Y-2502865D01*
G01X2846934Y-2501798D01*
G01X2848204Y-2500833D01*
G01X2849575Y-2499970D01*
G01X2851048Y-2499309D01*
G01X2852572Y-2498750D01*
G01X2854147Y-2498344D01*
G01X2855824Y-2498090D01*
G01X2857500Y-2497988D01*
G01X2859176Y-2498090D01*
G01X2860853Y-2498344D01*
G01X2862428Y-2498750D01*
G01X2863952Y-2499309D01*
G01X2865425Y-2499970D01*
G01X2866796Y-2500833D01*
G01X2868066Y-2501798D01*
G01X2869235Y-2502865D01*
G01X2870302Y-2504034D01*
G01X2871267Y-2505304D01*
G01X2872130Y-2506675D01*
G01X2872791Y-2508148D01*
G01X2873350Y-2509672D01*
G01X2873756Y-2511247D01*
G01X2874010Y-2512924D01*
G01X2874112Y-2514600D01*
G01X2874010Y-2516276D01*
G01X2873756Y-2517953D01*
G01X2873350Y-2519528D01*
G01X2872791Y-2521052D01*
G01X2872130Y-2522525D01*
G01X2871267Y-2523896D01*
G01X2870302Y-2525166D01*
G01X2869235Y-2526335D01*
G01X2868066Y-2527402D01*
G01X2866796Y-2528367D01*
G01X2865425Y-2529230D01*
G01X2863952Y-2529891D01*
G01X2862428Y-2530450D01*
G01X2860853Y-2530856D01*
G01X2859176Y-2531110D01*
G01X2857500Y-2531212D01*
G01X2855824Y-2531110D01*
G01X2854147Y-2530856D01*
G01X2852572Y-2530450D01*
G01X2851048Y-2529891D01*
G01X2849575Y-2529230D01*
G01X2848204Y-2528367D01*
G01X2846934Y-2527402D01*
G01X2845765Y-2526335D01*
G01X2844698Y-2525166D01*
G01X2843733Y-2523896D01*
G01X2842870Y-2522525D01*
G01X2842209Y-2521052D01*
G01X2841650Y-2519528D01*
G01X2841244Y-2517953D01*
G01X2840990Y-2516276D01*
G01X2840888Y-2514600D01*
G01X2837586D01*
G01X2837688Y-2516632D01*
G01X2837942Y-2518613D01*
G01X2838450Y-2520544D01*
G01X2839110Y-2522372D01*
G01X2839974Y-2524100D01*
G01X2840990Y-2525725D01*
G01X2842108Y-2527300D01*
G01X2843378Y-2528722D01*
G01X2844800Y-2529992D01*
G01X2846375Y-2531110D01*
G01X2848000Y-2532126D01*
G01X2849728Y-2532990D01*
G01X2851556Y-2533650D01*
G01X2853487Y-2534158D01*
G01X2855468Y-2534412D01*
G01X2857500Y-2534514D01*
G01X2859532Y-2534412D01*
G01X2861513Y-2534158D01*
G01X2863444Y-2533650D01*
G01X2865272Y-2532990D01*
G01X2867000Y-2532126D01*
G01X2868625Y-2531110D01*
G01X2870200Y-2529992D01*
G01X2871622Y-2528722D01*
G01X2872892Y-2527300D01*
G01X2874010Y-2525725D01*
G01X2875026Y-2524100D01*
G01X2875890Y-2522372D01*
G01X2876550Y-2520544D01*
G01X2877058Y-2518613D01*
G01X2877312Y-2516632D01*
G01X2877464Y-2514600D01*
G01X2877312Y-2512568D01*
G01X2877058Y-2510587D01*
G01X2876550Y-2508656D01*
G01X2875890Y-2506828D01*
G01X2875026Y-2505100D01*
G01X2874010Y-2503475D01*
G01X2872892Y-2501900D01*
G01X2871622Y-2500478D01*
G01X2870200Y-2499208D01*
G01X2868625Y-2498090D01*
G01X2867000Y-2497074D01*
G01X2865272Y-2496210D01*
G01X2863444Y-2495550D01*
G01X2861513Y-2495042D01*
G01X2859532Y-2494788D01*
G37*
G36*
G01X2788412Y-2762504D02*
G01X2786380Y-2762606D01*
G01X2784399Y-2762910D01*
G01X2782519Y-2763418D01*
G01X2780690Y-2764079D01*
G01X2778912Y-2764942D01*
G01X2777287Y-2765908D01*
G01X2775763Y-2767076D01*
G01X2774340Y-2768346D01*
G01X2773070Y-2769768D01*
G01X2771902Y-2771292D01*
G01X2770886Y-2772969D01*
G01X2770073Y-2774696D01*
G01X2769413Y-2776525D01*
G01X2768905Y-2778455D01*
G01X2768600Y-2780436D01*
G01X2768498Y-2782468D01*
G01X2771800D01*
G01X2771902Y-2780741D01*
G01X2772156Y-2779116D01*
G01X2772562Y-2777541D01*
G01X2773121Y-2776017D01*
G01X2773832Y-2774544D01*
G01X2774645Y-2773172D01*
G01X2775610Y-2771902D01*
G01X2776677Y-2770734D01*
G01X2777846Y-2769667D01*
G01X2779166Y-2768702D01*
G01X2780538Y-2767838D01*
G01X2781960Y-2767127D01*
G01X2783484Y-2766568D01*
G01X2785110Y-2766162D01*
G01X2786736Y-2765908D01*
G01X2788412Y-2765857D01*
G01X2790139Y-2765908D01*
G01X2791765Y-2766162D01*
G01X2793390Y-2766568D01*
G01X2794914Y-2767127D01*
G01X2796337Y-2767838D01*
G01X2797708Y-2768702D01*
G01X2798978Y-2769667D01*
G01X2800198Y-2770734D01*
G01X2801264Y-2771902D01*
G01X2802230Y-2773172D01*
G01X2803042Y-2774544D01*
G01X2803754Y-2776017D01*
G01X2804312Y-2777541D01*
G01X2804719Y-2779116D01*
G01X2804973Y-2780741D01*
G01X2805074Y-2782468D01*
G01X2804973Y-2784145D01*
G01X2804719Y-2785821D01*
G01X2804312Y-2787396D01*
G01X2803754Y-2788920D01*
G01X2803042Y-2790393D01*
G01X2802230Y-2791765D01*
G01X2801264Y-2793035D01*
G01X2800198Y-2794203D01*
G01X2798978Y-2795270D01*
G01X2797708Y-2796235D01*
G01X2796337Y-2797048D01*
G01X2794914Y-2797759D01*
G01X2793390Y-2798318D01*
G01X2791765Y-2798724D01*
G01X2790139Y-2798978D01*
G01X2788412Y-2799080D01*
G01X2786736Y-2798978D01*
G01X2785110Y-2798724D01*
G01X2783484Y-2798318D01*
G01X2781960Y-2797759D01*
G01X2780538Y-2797048D01*
G01X2779166Y-2796235D01*
G01X2777846Y-2795270D01*
G01X2776677Y-2794203D01*
G01X2775610Y-2793035D01*
G01X2774645Y-2791765D01*
G01X2773832Y-2790393D01*
G01X2773121Y-2788920D01*
G01X2772562Y-2787396D01*
G01X2772156Y-2785821D01*
G01X2771902Y-2784145D01*
G01X2771800Y-2782468D01*
G01X2768498D01*
G01X2768600Y-2784500D01*
G01X2768905Y-2786482D01*
G01X2769413Y-2788412D01*
G01X2770073Y-2790241D01*
G01X2770886Y-2791968D01*
G01X2771902Y-2793594D01*
G01X2773070Y-2795118D01*
G01X2774340Y-2796540D01*
G01X2775763Y-2797861D01*
G01X2777287Y-2798978D01*
G01X2778912Y-2799994D01*
G01X2780690Y-2800807D01*
G01X2782519Y-2801518D01*
G01X2784399Y-2801976D01*
G01X2786380Y-2802280D01*
G01X2788412Y-2802382D01*
G01X2790495Y-2802280D01*
G01X2792476Y-2801976D01*
G01X2794356Y-2801518D01*
G01X2796184Y-2800807D01*
G01X2797962Y-2799994D01*
G01X2799588Y-2798978D01*
G01X2801112Y-2797861D01*
G01X2802534Y-2796540D01*
G01X2803804Y-2795118D01*
G01X2804973Y-2793594D01*
G01X2805989Y-2791968D01*
G01X2806802Y-2790241D01*
G01X2807462Y-2788412D01*
G01X2807970Y-2786482D01*
G01X2808275Y-2784500D01*
G01X2808376Y-2782468D01*
G01X2808275Y-2780436D01*
G01X2807970Y-2778455D01*
G01X2807462Y-2776525D01*
G01X2806802Y-2774696D01*
G01X2805989Y-2772969D01*
G01X2804973Y-2771292D01*
G01X2803804Y-2769768D01*
G01X2802534Y-2768346D01*
G01X2801112Y-2767076D01*
G01X2799588Y-2765908D01*
G01X2797962Y-2764942D01*
G01X2796184Y-2764079D01*
G01X2794356Y-2763418D01*
G01X2792476Y-2762910D01*
G01X2790495Y-2762606D01*
G37*
G36*
G01X-584200Y-2989936D02*
G01X-586232Y-2990088D01*
G01X-588213Y-2990342D01*
G01X-590144Y-2990850D01*
G01X-591972Y-2991510D01*
G01X-593700Y-2992374D01*
G01X-595325Y-2993390D01*
G01X-596900Y-2994508D01*
G01X-598322Y-2995778D01*
G01X-599592Y-2997200D01*
G01X-600710Y-2998775D01*
G01X-601726Y-3000400D01*
G01X-602590Y-3002128D01*
G01X-603250Y-3003956D01*
G01X-603758Y-3005887D01*
G01X-604012Y-3007868D01*
G01X-604114Y-3009900D01*
G01X-600812D01*
G01X-600710Y-3008224D01*
G01X-600456Y-3006547D01*
G01X-600050Y-3004972D01*
G01X-599491Y-3003448D01*
G01X-598830Y-3001975D01*
G01X-597967Y-3000604D01*
G01X-597002Y-2999334D01*
G01X-595935Y-2998165D01*
G01X-594766Y-2997098D01*
G01X-593496Y-2996133D01*
G01X-592125Y-2995270D01*
G01X-590652Y-2994609D01*
G01X-589128Y-2994050D01*
G01X-587553Y-2993644D01*
G01X-585876Y-2993390D01*
G01X-584200Y-2993288D01*
G01X-582524Y-2993390D01*
G01X-580847Y-2993644D01*
G01X-579272Y-2994050D01*
G01X-577748Y-2994609D01*
G01X-576275Y-2995270D01*
G01X-574904Y-2996133D01*
G01X-573634Y-2997098D01*
G01X-572465Y-2998165D01*
G01X-571398Y-2999334D01*
G01X-570433Y-3000604D01*
G01X-569570Y-3001975D01*
G01X-568909Y-3003448D01*
G01X-568350Y-3004972D01*
G01X-567944Y-3006547D01*
G01X-567690Y-3008224D01*
G01X-567588Y-3009900D01*
G01X-567690Y-3011576D01*
G01X-567944Y-3013253D01*
G01X-568350Y-3014828D01*
G01X-568909Y-3016352D01*
G01X-569570Y-3017825D01*
G01X-570433Y-3019196D01*
G01X-571398Y-3020466D01*
G01X-572465Y-3021635D01*
G01X-573634Y-3022702D01*
G01X-574904Y-3023667D01*
G01X-576275Y-3024530D01*
G01X-577748Y-3025191D01*
G01X-579272Y-3025750D01*
G01X-580847Y-3026156D01*
G01X-582524Y-3026410D01*
G01X-584200Y-3026512D01*
G01X-585876Y-3026410D01*
G01X-587553Y-3026156D01*
G01X-589128Y-3025750D01*
G01X-590652Y-3025191D01*
G01X-592125Y-3024530D01*
G01X-593496Y-3023667D01*
G01X-594766Y-3022702D01*
G01X-595935Y-3021635D01*
G01X-597002Y-3020466D01*
G01X-597967Y-3019196D01*
G01X-598830Y-3017825D01*
G01X-599491Y-3016352D01*
G01X-600050Y-3014828D01*
G01X-600456Y-3013253D01*
G01X-600710Y-3011576D01*
G01X-600812Y-3009900D01*
G01X-604114D01*
G01X-604012Y-3011932D01*
G01X-603758Y-3013913D01*
G01X-603250Y-3015844D01*
G01X-602590Y-3017672D01*
G01X-601726Y-3019400D01*
G01X-600710Y-3021025D01*
G01X-599592Y-3022600D01*
G01X-598322Y-3024022D01*
G01X-596900Y-3025292D01*
G01X-595325Y-3026410D01*
G01X-593700Y-3027426D01*
G01X-591972Y-3028290D01*
G01X-590144Y-3028950D01*
G01X-588213Y-3029458D01*
G01X-586232Y-3029712D01*
G01X-584200Y-3029814D01*
G01X-582168Y-3029712D01*
G01X-580187Y-3029458D01*
G01X-578256Y-3028950D01*
G01X-576428Y-3028290D01*
G01X-574700Y-3027426D01*
G01X-573075Y-3026410D01*
G01X-571500Y-3025292D01*
G01X-570078Y-3024022D01*
G01X-568808Y-3022600D01*
G01X-567690Y-3021025D01*
G01X-566674Y-3019400D01*
G01X-565810Y-3017672D01*
G01X-565150Y-3015844D01*
G01X-564642Y-3013913D01*
G01X-564388Y-3011932D01*
G01X-564236Y-3009900D01*
G01X-564388Y-3007868D01*
G01X-564642Y-3005887D01*
G01X-565150Y-3003956D01*
G01X-565810Y-3002128D01*
G01X-566674Y-3000400D01*
G01X-567690Y-2998775D01*
G01X-568808Y-2997200D01*
G01X-570078Y-2995778D01*
G01X-571500Y-2994508D01*
G01X-573075Y-2993390D01*
G01X-574700Y-2992374D01*
G01X-576428Y-2991510D01*
G01X-578256Y-2990850D01*
G01X-580187Y-2990342D01*
G01X-582168Y-2990088D01*
G37*
G36*
G01X1778000Y-945236D02*
G01X1775968Y-945388D01*
G01X1773987Y-945642D01*
G01X1772056Y-946150D01*
G01X1770228Y-946810D01*
G01X1768500Y-947674D01*
G01X1766875Y-948690D01*
G01X1765300Y-949808D01*
G01X1763878Y-951078D01*
G01X1762608Y-952500D01*
G01X1761490Y-954075D01*
G01X1760474Y-955700D01*
G01X1759610Y-957428D01*
G01X1758950Y-959256D01*
G01X1758442Y-961187D01*
G01X1758188Y-963168D01*
G01X1758086Y-965200D01*
G01X1761388D01*
G01X1761490Y-963524D01*
G01X1761744Y-961847D01*
G01X1762150Y-960272D01*
G01X1762709Y-958748D01*
G01X1763370Y-957275D01*
G01X1764233Y-955904D01*
G01X1765198Y-954634D01*
G01X1766265Y-953465D01*
G01X1767434Y-952398D01*
G01X1768704Y-951433D01*
G01X1770075Y-950570D01*
G01X1771548Y-949909D01*
G01X1773072Y-949350D01*
G01X1774647Y-948944D01*
G01X1776324Y-948690D01*
G01X1778000Y-948588D01*
G01X1779676Y-948690D01*
G01X1781353Y-948944D01*
G01X1782928Y-949350D01*
G01X1784452Y-949909D01*
G01X1785925Y-950570D01*
G01X1787296Y-951433D01*
G01X1788566Y-952398D01*
G01X1789735Y-953465D01*
G01X1790802Y-954634D01*
G01X1791767Y-955904D01*
G01X1792630Y-957275D01*
G01X1793291Y-958748D01*
G01X1793850Y-960272D01*
G01X1794256Y-961847D01*
G01X1794510Y-963524D01*
G01X1794612Y-965200D01*
G01X1794510Y-966876D01*
G01X1794256Y-968553D01*
G01X1793850Y-970128D01*
G01X1793291Y-971652D01*
G01X1792630Y-973125D01*
G01X1791767Y-974496D01*
G01X1790802Y-975766D01*
G01X1789735Y-976935D01*
G01X1788566Y-978002D01*
G01X1787296Y-978967D01*
G01X1785925Y-979830D01*
G01X1784452Y-980491D01*
G01X1782928Y-981050D01*
G01X1781353Y-981456D01*
G01X1779676Y-981710D01*
G01X1778000Y-981812D01*
G01X1776324Y-981710D01*
G01X1774647Y-981456D01*
G01X1773072Y-981050D01*
G01X1771548Y-980491D01*
G01X1770075Y-979830D01*
G01X1768704Y-978967D01*
G01X1767434Y-978002D01*
G01X1766265Y-976935D01*
G01X1765198Y-975766D01*
G01X1764233Y-974496D01*
G01X1763370Y-973125D01*
G01X1762709Y-971652D01*
G01X1762150Y-970128D01*
G01X1761744Y-968553D01*
G01X1761490Y-966876D01*
G01X1761388Y-965200D01*
G01X1758086D01*
G01X1758188Y-967232D01*
G01X1758442Y-969213D01*
G01X1758950Y-971144D01*
G01X1759610Y-972972D01*
G01X1760474Y-974700D01*
G01X1761490Y-976325D01*
G01X1762608Y-977900D01*
G01X1763878Y-979322D01*
G01X1765300Y-980592D01*
G01X1766875Y-981710D01*
G01X1768500Y-982726D01*
G01X1770228Y-983590D01*
G01X1772056Y-984250D01*
G01X1773987Y-984758D01*
G01X1775968Y-985012D01*
G01X1778000Y-985114D01*
G01X1780032Y-985012D01*
G01X1782013Y-984758D01*
G01X1783944Y-984250D01*
G01X1785772Y-983590D01*
G01X1787500Y-982726D01*
G01X1789125Y-981710D01*
G01X1790700Y-980592D01*
G01X1792122Y-979322D01*
G01X1793392Y-977900D01*
G01X1794510Y-976325D01*
G01X1795526Y-974700D01*
G01X1796390Y-972972D01*
G01X1797050Y-971144D01*
G01X1797558Y-969213D01*
G01X1797812Y-967232D01*
G01X1797964Y-965200D01*
G01X1797812Y-963168D01*
G01X1797558Y-961187D01*
G01X1797050Y-959256D01*
G01X1796390Y-957428D01*
G01X1795526Y-955700D01*
G01X1794510Y-954075D01*
G01X1793392Y-952500D01*
G01X1792122Y-951078D01*
G01X1790700Y-949808D01*
G01X1789125Y-948690D01*
G01X1787500Y-947674D01*
G01X1785772Y-946810D01*
G01X1783944Y-946150D01*
G01X1782013Y-945642D01*
G01X1780032Y-945388D01*
G37*
G36*
G01X1905000Y-1542136D02*
G01X1902968Y-1542288D01*
G01X1900987Y-1542542D01*
G01X1899056Y-1543050D01*
G01X1897228Y-1543710D01*
G01X1895500Y-1544574D01*
G01X1893875Y-1545590D01*
G01X1892300Y-1546708D01*
G01X1890878Y-1547978D01*
G01X1889608Y-1549400D01*
G01X1888490Y-1550975D01*
G01X1887474Y-1552600D01*
G01X1886610Y-1554328D01*
G01X1885950Y-1556156D01*
G01X1885442Y-1558087D01*
G01X1885188Y-1560068D01*
G01X1885086Y-1562100D01*
G01X1888388D01*
G01X1888490Y-1560424D01*
G01X1888744Y-1558747D01*
G01X1889150Y-1557172D01*
G01X1889709Y-1555648D01*
G01X1890370Y-1554175D01*
G01X1891233Y-1552804D01*
G01X1892198Y-1551534D01*
G01X1893265Y-1550365D01*
G01X1894434Y-1549298D01*
G01X1895704Y-1548333D01*
G01X1897075Y-1547470D01*
G01X1898548Y-1546809D01*
G01X1900072Y-1546250D01*
G01X1901647Y-1545844D01*
G01X1903324Y-1545590D01*
G01X1905000Y-1545488D01*
G01X1906676Y-1545590D01*
G01X1908353Y-1545844D01*
G01X1909928Y-1546250D01*
G01X1911452Y-1546809D01*
G01X1912925Y-1547470D01*
G01X1914296Y-1548333D01*
G01X1915566Y-1549298D01*
G01X1916735Y-1550365D01*
G01X1917802Y-1551534D01*
G01X1918767Y-1552804D01*
G01X1919630Y-1554175D01*
G01X1920291Y-1555648D01*
G01X1920850Y-1557172D01*
G01X1921256Y-1558747D01*
G01X1921510Y-1560424D01*
G01X1921612Y-1562100D01*
G01X1921510Y-1563776D01*
G01X1921256Y-1565453D01*
G01X1920850Y-1567028D01*
G01X1920291Y-1568552D01*
G01X1919630Y-1570025D01*
G01X1918767Y-1571396D01*
G01X1917802Y-1572666D01*
G01X1916735Y-1573835D01*
G01X1915566Y-1574902D01*
G01X1914296Y-1575867D01*
G01X1912925Y-1576730D01*
G01X1911452Y-1577391D01*
G01X1909928Y-1577950D01*
G01X1908353Y-1578356D01*
G01X1906676Y-1578610D01*
G01X1905000Y-1578712D01*
G01X1903324Y-1578610D01*
G01X1901647Y-1578356D01*
G01X1900072Y-1577950D01*
G01X1898548Y-1577391D01*
G01X1897075Y-1576730D01*
G01X1895704Y-1575867D01*
G01X1894434Y-1574902D01*
G01X1893265Y-1573835D01*
G01X1892198Y-1572666D01*
G01X1891233Y-1571396D01*
G01X1890370Y-1570025D01*
G01X1889709Y-1568552D01*
G01X1889150Y-1567028D01*
G01X1888744Y-1565453D01*
G01X1888490Y-1563776D01*
G01X1888388Y-1562100D01*
G01X1885086D01*
G01X1885188Y-1564132D01*
G01X1885442Y-1566113D01*
G01X1885950Y-1568044D01*
G01X1886610Y-1569872D01*
G01X1887474Y-1571600D01*
G01X1888490Y-1573225D01*
G01X1889608Y-1574800D01*
G01X1890878Y-1576222D01*
G01X1892300Y-1577492D01*
G01X1893875Y-1578610D01*
G01X1895500Y-1579626D01*
G01X1897228Y-1580490D01*
G01X1899056Y-1581150D01*
G01X1900987Y-1581658D01*
G01X1902968Y-1581912D01*
G01X1905000Y-1582014D01*
G01X1907032Y-1581912D01*
G01X1909013Y-1581658D01*
G01X1910944Y-1581150D01*
G01X1912772Y-1580490D01*
G01X1914500Y-1579626D01*
G01X1916125Y-1578610D01*
G01X1917700Y-1577492D01*
G01X1919122Y-1576222D01*
G01X1920392Y-1574800D01*
G01X1921510Y-1573225D01*
G01X1922526Y-1571600D01*
G01X1923390Y-1569872D01*
G01X1924050Y-1568044D01*
G01X1924558Y-1566113D01*
G01X1924812Y-1564132D01*
G01X1924964Y-1562100D01*
G01X1924812Y-1560068D01*
G01X1924558Y-1558087D01*
G01X1924050Y-1556156D01*
G01X1923390Y-1554328D01*
G01X1922526Y-1552600D01*
G01X1921510Y-1550975D01*
G01X1920392Y-1549400D01*
G01X1919122Y-1547978D01*
G01X1917700Y-1546708D01*
G01X1916125Y-1545590D01*
G01X1914500Y-1544574D01*
G01X1912772Y-1543710D01*
G01X1910944Y-1543050D01*
G01X1909013Y-1542542D01*
G01X1907032Y-1542288D01*
G37*
G36*
G01X863600Y-1300836D02*
G01X861568Y-1300988D01*
G01X859587Y-1301242D01*
G01X857656Y-1301750D01*
G01X855828Y-1302410D01*
G01X854100Y-1303274D01*
G01X852475Y-1304290D01*
G01X850900Y-1305408D01*
G01X849478Y-1306678D01*
G01X848208Y-1308100D01*
G01X847090Y-1309675D01*
G01X846074Y-1311300D01*
G01X845210Y-1313028D01*
G01X844550Y-1314856D01*
G01X844042Y-1316787D01*
G01X843788Y-1318768D01*
G01X843636Y-1320800D01*
G01X846988D01*
G01X847090Y-1319124D01*
G01X847344Y-1317447D01*
G01X847750Y-1315872D01*
G01X848309Y-1314348D01*
G01X848970Y-1312875D01*
G01X849833Y-1311504D01*
G01X850798Y-1310234D01*
G01X851865Y-1309065D01*
G01X853034Y-1307998D01*
G01X854304Y-1307033D01*
G01X855675Y-1306170D01*
G01X857148Y-1305509D01*
G01X858672Y-1304950D01*
G01X860247Y-1304544D01*
G01X861924Y-1304290D01*
G01X863600Y-1304188D01*
G01X865276Y-1304290D01*
G01X866953Y-1304544D01*
G01X868528Y-1304950D01*
G01X870052Y-1305509D01*
G01X871525Y-1306170D01*
G01X872896Y-1307033D01*
G01X874166Y-1307998D01*
G01X875335Y-1309065D01*
G01X876402Y-1310234D01*
G01X877367Y-1311504D01*
G01X878230Y-1312875D01*
G01X878891Y-1314348D01*
G01X879450Y-1315872D01*
G01X879856Y-1317447D01*
G01X880110Y-1319124D01*
G01X880212Y-1320800D01*
G01X880110Y-1322476D01*
G01X879856Y-1324153D01*
G01X879450Y-1325728D01*
G01X878891Y-1327252D01*
G01X878230Y-1328725D01*
G01X877367Y-1330096D01*
G01X876402Y-1331366D01*
G01X875335Y-1332535D01*
G01X874166Y-1333602D01*
G01X872896Y-1334567D01*
G01X871525Y-1335430D01*
G01X870052Y-1336091D01*
G01X868528Y-1336650D01*
G01X866953Y-1337056D01*
G01X865276Y-1337310D01*
G01X863600Y-1337412D01*
G01X861924Y-1337310D01*
G01X860247Y-1337056D01*
G01X858672Y-1336650D01*
G01X857148Y-1336091D01*
G01X855675Y-1335430D01*
G01X854304Y-1334567D01*
G01X853034Y-1333602D01*
G01X851865Y-1332535D01*
G01X850798Y-1331366D01*
G01X849833Y-1330096D01*
G01X848970Y-1328725D01*
G01X848309Y-1327252D01*
G01X847750Y-1325728D01*
G01X847344Y-1324153D01*
G01X847090Y-1322476D01*
G01X846988Y-1320800D01*
G01X843636D01*
G01X843788Y-1322832D01*
G01X844042Y-1324813D01*
G01X844550Y-1326744D01*
G01X845210Y-1328572D01*
G01X846074Y-1330300D01*
G01X847090Y-1331925D01*
G01X848208Y-1333500D01*
G01X849478Y-1334922D01*
G01X850900Y-1336192D01*
G01X852475Y-1337310D01*
G01X854100Y-1338326D01*
G01X855828Y-1339190D01*
G01X857656Y-1339850D01*
G01X859587Y-1340358D01*
G01X861568Y-1340612D01*
G01X863600Y-1340714D01*
G01X865632Y-1340612D01*
G01X867613Y-1340358D01*
G01X869544Y-1339850D01*
G01X871372Y-1339190D01*
G01X873100Y-1338326D01*
G01X874725Y-1337310D01*
G01X876300Y-1336192D01*
G01X877722Y-1334922D01*
G01X878992Y-1333500D01*
G01X880110Y-1331925D01*
G01X881126Y-1330300D01*
G01X881990Y-1328572D01*
G01X882650Y-1326744D01*
G01X883158Y-1324813D01*
G01X883412Y-1322832D01*
G01X883564Y-1320800D01*
G01X883412Y-1318768D01*
G01X883158Y-1316787D01*
G01X882650Y-1314856D01*
G01X881990Y-1313028D01*
G01X881126Y-1311300D01*
G01X880110Y-1309675D01*
G01X878992Y-1308100D01*
G01X877722Y-1306678D01*
G01X876300Y-1305408D01*
G01X874725Y-1304290D01*
G01X873100Y-1303274D01*
G01X871372Y-1302410D01*
G01X869544Y-1301750D01*
G01X867613Y-1301242D01*
G01X865632Y-1300988D01*
G37*
G36*
G01X228600Y-1923136D02*
G01X226568Y-1923288D01*
G01X224587Y-1923542D01*
G01X222656Y-1924050D01*
G01X220828Y-1924710D01*
G01X219100Y-1925574D01*
G01X217475Y-1926590D01*
G01X215900Y-1927708D01*
G01X214478Y-1928978D01*
G01X213208Y-1930400D01*
G01X212090Y-1931975D01*
G01X211074Y-1933600D01*
G01X210210Y-1935328D01*
G01X209550Y-1937156D01*
G01X209042Y-1939087D01*
G01X208788Y-1941068D01*
G01X208686Y-1943100D01*
G01X211988D01*
G01X212090Y-1941424D01*
G01X212344Y-1939747D01*
G01X212750Y-1938172D01*
G01X213309Y-1936648D01*
G01X213970Y-1935175D01*
G01X214833Y-1933804D01*
G01X215798Y-1932534D01*
G01X216865Y-1931365D01*
G01X218034Y-1930298D01*
G01X219304Y-1929333D01*
G01X220675Y-1928470D01*
G01X222148Y-1927809D01*
G01X223672Y-1927250D01*
G01X225247Y-1926844D01*
G01X226924Y-1926590D01*
G01X228600Y-1926488D01*
G01X230276Y-1926590D01*
G01X231953Y-1926844D01*
G01X233528Y-1927250D01*
G01X235052Y-1927809D01*
G01X236525Y-1928470D01*
G01X237896Y-1929333D01*
G01X239166Y-1930298D01*
G01X240335Y-1931365D01*
G01X241402Y-1932534D01*
G01X242367Y-1933804D01*
G01X243230Y-1935175D01*
G01X243891Y-1936648D01*
G01X244450Y-1938172D01*
G01X244856Y-1939747D01*
G01X245110Y-1941424D01*
G01X245212Y-1943100D01*
G01X245110Y-1944776D01*
G01X244856Y-1946453D01*
G01X244450Y-1948028D01*
G01X243891Y-1949552D01*
G01X243230Y-1951025D01*
G01X242367Y-1952396D01*
G01X241402Y-1953666D01*
G01X240335Y-1954835D01*
G01X239166Y-1955902D01*
G01X237896Y-1956867D01*
G01X236525Y-1957730D01*
G01X235052Y-1958391D01*
G01X233528Y-1958950D01*
G01X231953Y-1959356D01*
G01X230276Y-1959610D01*
G01X228600Y-1959712D01*
G01X226924Y-1959610D01*
G01X225247Y-1959356D01*
G01X223672Y-1958950D01*
G01X222148Y-1958391D01*
G01X220675Y-1957730D01*
G01X219304Y-1956867D01*
G01X218034Y-1955902D01*
G01X216865Y-1954835D01*
G01X215798Y-1953666D01*
G01X214833Y-1952396D01*
G01X213970Y-1951025D01*
G01X213309Y-1949552D01*
G01X212750Y-1948028D01*
G01X212344Y-1946453D01*
G01X212090Y-1944776D01*
G01X211988Y-1943100D01*
G01X208686D01*
G01X208788Y-1945132D01*
G01X209042Y-1947113D01*
G01X209550Y-1949044D01*
G01X210210Y-1950872D01*
G01X211074Y-1952600D01*
G01X212090Y-1954225D01*
G01X213208Y-1955800D01*
G01X214478Y-1957222D01*
G01X215900Y-1958492D01*
G01X217475Y-1959610D01*
G01X219100Y-1960626D01*
G01X220828Y-1961490D01*
G01X222656Y-1962150D01*
G01X224587Y-1962658D01*
G01X226568Y-1962912D01*
G01X228600Y-1963014D01*
G01X230632Y-1962912D01*
G01X232613Y-1962658D01*
G01X234544Y-1962150D01*
G01X236372Y-1961490D01*
G01X238100Y-1960626D01*
G01X239725Y-1959610D01*
G01X241300Y-1958492D01*
G01X242722Y-1957222D01*
G01X243992Y-1955800D01*
G01X245110Y-1954225D01*
G01X246126Y-1952600D01*
G01X246990Y-1950872D01*
G01X247650Y-1949044D01*
G01X248158Y-1947113D01*
G01X248412Y-1945132D01*
G01X248564Y-1943100D01*
G01X248412Y-1941068D01*
G01X248158Y-1939087D01*
G01X247650Y-1937156D01*
G01X246990Y-1935328D01*
G01X246126Y-1933600D01*
G01X245110Y-1931975D01*
G01X243992Y-1930400D01*
G01X242722Y-1928978D01*
G01X241300Y-1927708D01*
G01X239725Y-1926590D01*
G01X238100Y-1925574D01*
G01X236372Y-1924710D01*
G01X234544Y-1924050D01*
G01X232613Y-1923542D01*
G01X230632Y-1923288D01*
G37*
G36*
G01X762000Y-1605636D02*
G01X759968Y-1605788D01*
G01X757987Y-1606042D01*
G01X756056Y-1606550D01*
G01X754228Y-1607210D01*
G01X752500Y-1608074D01*
G01X750875Y-1609090D01*
G01X749300Y-1610208D01*
G01X747878Y-1611478D01*
G01X746608Y-1612900D01*
G01X745490Y-1614475D01*
G01X744474Y-1616100D01*
G01X743610Y-1617828D01*
G01X742950Y-1619656D01*
G01X742442Y-1621587D01*
G01X742188Y-1623568D01*
G01X742086Y-1625600D01*
G01X745388D01*
G01X745490Y-1623924D01*
G01X745744Y-1622247D01*
G01X746150Y-1620672D01*
G01X746709Y-1619148D01*
G01X747370Y-1617675D01*
G01X748233Y-1616304D01*
G01X749198Y-1615034D01*
G01X750265Y-1613865D01*
G01X751434Y-1612798D01*
G01X752704Y-1611833D01*
G01X754075Y-1610970D01*
G01X755548Y-1610309D01*
G01X757072Y-1609750D01*
G01X758647Y-1609344D01*
G01X760324Y-1609090D01*
G01X762000Y-1608988D01*
G01X763676Y-1609090D01*
G01X765353Y-1609344D01*
G01X766928Y-1609750D01*
G01X768452Y-1610309D01*
G01X769925Y-1610970D01*
G01X771296Y-1611833D01*
G01X772566Y-1612798D01*
G01X773735Y-1613865D01*
G01X774802Y-1615034D01*
G01X775767Y-1616304D01*
G01X776630Y-1617675D01*
G01X777291Y-1619148D01*
G01X777850Y-1620672D01*
G01X778256Y-1622247D01*
G01X778510Y-1623924D01*
G01X778612Y-1625600D01*
G01X778510Y-1627276D01*
G01X778256Y-1628953D01*
G01X777850Y-1630528D01*
G01X777291Y-1632052D01*
G01X776630Y-1633525D01*
G01X775767Y-1634896D01*
G01X774802Y-1636166D01*
G01X773735Y-1637335D01*
G01X772566Y-1638402D01*
G01X771296Y-1639367D01*
G01X769925Y-1640230D01*
G01X768452Y-1640891D01*
G01X766928Y-1641450D01*
G01X765353Y-1641856D01*
G01X763676Y-1642110D01*
G01X762000Y-1642212D01*
G01X760324Y-1642110D01*
G01X758647Y-1641856D01*
G01X757072Y-1641450D01*
G01X755548Y-1640891D01*
G01X754075Y-1640230D01*
G01X752704Y-1639367D01*
G01X751434Y-1638402D01*
G01X750265Y-1637335D01*
G01X749198Y-1636166D01*
G01X748233Y-1634896D01*
G01X747370Y-1633525D01*
G01X746709Y-1632052D01*
G01X746150Y-1630528D01*
G01X745744Y-1628953D01*
G01X745490Y-1627276D01*
G01X745388Y-1625600D01*
G01X742086D01*
G01X742188Y-1627632D01*
G01X742442Y-1629613D01*
G01X742950Y-1631544D01*
G01X743610Y-1633372D01*
G01X744474Y-1635100D01*
G01X745490Y-1636725D01*
G01X746608Y-1638300D01*
G01X747878Y-1639722D01*
G01X749300Y-1640992D01*
G01X750875Y-1642110D01*
G01X752500Y-1643126D01*
G01X754228Y-1643990D01*
G01X756056Y-1644650D01*
G01X757987Y-1645158D01*
G01X759968Y-1645412D01*
G01X762000Y-1645514D01*
G01X764032Y-1645412D01*
G01X766013Y-1645158D01*
G01X767944Y-1644650D01*
G01X769772Y-1643990D01*
G01X771500Y-1643126D01*
G01X773125Y-1642110D01*
G01X774700Y-1640992D01*
G01X776122Y-1639722D01*
G01X777392Y-1638300D01*
G01X778510Y-1636725D01*
G01X779526Y-1635100D01*
G01X780390Y-1633372D01*
G01X781050Y-1631544D01*
G01X781558Y-1629613D01*
G01X781812Y-1627632D01*
G01X781964Y-1625600D01*
G01X781812Y-1623568D01*
G01X781558Y-1621587D01*
G01X781050Y-1619656D01*
G01X780390Y-1617828D01*
G01X779526Y-1616100D01*
G01X778510Y-1614475D01*
G01X777392Y-1612900D01*
G01X776122Y-1611478D01*
G01X774700Y-1610208D01*
G01X773125Y-1609090D01*
G01X771500Y-1608074D01*
G01X769772Y-1607210D01*
G01X767944Y-1606550D01*
G01X766013Y-1606042D01*
G01X764032Y-1605788D01*
G37*
G04 Image End*
G54D10*

M02*
