G04 Layer: BottomSilkscreenLayer*
G04 EasyEDA Pro v2.1.44.1.245b18d5.fca1f9, 2024-01-18 14:01:25*
G04 Gerber Generator version 0.3*
G04 Scale: 100 percent, Rotated: No, Reflected: No*
G04 Dimensions in millimeters*
G04 Leading zeros omitted, absolute positions, 3 integers and 5 decimals*
%FSLAX35Y35*%
%MOMM*%
%ADD10C,0.1524*%
%ADD11C,0.254*%
%ADD12C,0.2*%
G75*


G04 Text Start*
G54D10*
G01X58166Y-1156462D02*
G01X61214Y-1150366D01*
G01X67310Y-1144016D01*
G01X73660Y-1140968D01*
G01X82804Y-1137920D01*
G01X98298D01*
G01X107696Y-1140968D01*
G01X113792Y-1144016D01*
G01X120142Y-1150366D01*
G01X123190Y-1156462D01*
G01Y-1168908D01*
G01X120142Y-1175004D01*
G01X113792Y-1181354D01*
G01X107696Y-1184402D01*
G01X98298Y-1187450D01*
G01X82804D01*
G01X73660Y-1184402D01*
G01X67310Y-1181354D01*
G01X61214Y-1175004D01*
G01X58166Y-1168908D01*
G01Y-1156462D01*
G01X110744Y-1165860D02*
G01X129286Y-1184402D01*
G01X70612Y-1217676D02*
G01X67310Y-1223772D01*
G01X58166Y-1232916D01*
G01X123190D01*
G01X1910334Y-1249680D02*
G01X1863852Y-1249680D01*
G01X1854708Y-1246632D01*
G01X1848358Y-1240282D01*
G01X1845310Y-1231138D01*
G01Y-1224788D01*
G01X1848358Y-1215644D01*
G01X1854708Y-1209548D01*
G01X1863852Y-1206246D01*
G01X1910334D01*
G01X1897888Y-1176020D02*
G01X1901190Y-1169924D01*
G01X1910334Y-1160780D01*
G01X1845310D01*
G01X880620Y-1808734D02*
G01X880620Y-1743710D01*
G01X880620Y-1808734D02*
G01X920752Y-1808734D01*
G01X880620Y-1777746D02*
G01X905512Y-1777746D01*
G01X950978Y-1808734D02*
G01X950978Y-1743710D01*
G01X950978Y-1808734D02*
G01X978664Y-1808734D01*
G01X988062Y-1805686D01*
G01X991110Y-1802638D01*
G01X994158Y-1796288D01*
G01Y-1787144D01*
G01X991110Y-1781048D01*
G01X988062Y-1777746D01*
G01X978664Y-1774698D01*
G01X950978D01*
G01X1070612Y-1793240D02*
G01X1067564Y-1799590D01*
G01X1061468Y-1805686D01*
G01X1055118Y-1808734D01*
G01X1042926D01*
G01X1036576Y-1805686D01*
G01X1030480Y-1799590D01*
G01X1027432Y-1793240D01*
G01X1024384Y-1784096D01*
G01Y-1768602D01*
G01X1027432Y-1759204D01*
G01X1030480Y-1753108D01*
G01X1036576Y-1746758D01*
G01X1042926Y-1743710D01*
G01X1055118D01*
G01X1061468Y-1746758D01*
G01X1067564Y-1753108D01*
G01X1070612Y-1759204D01*
G01X1100838Y-1796288D02*
G01X1106934Y-1799590D01*
G01X1116078Y-1808734D01*
G01Y-1743710D01*
G01X1010666Y-490220D02*
G01X1057148Y-490220D01*
G01X1066292Y-493268D01*
G01X1072642Y-499618D01*
G01X1075690Y-508762D01*
G01Y-515112D01*
G01X1072642Y-524256D01*
G01X1066292Y-530352D01*
G01X1057148Y-533654D01*
G01X1010666D01*
G01X1010666Y-607060D02*
G01X1075690Y-576072D01*
G01X1010666Y-563880D02*
G01X1010666Y-607060D01*
G01X459740Y-1685798D02*
G01X466090Y-1688846D01*
G01X472186Y-1695196D01*
G01X475234Y-1701292D01*
G01Y-1713738D01*
G01X472186Y-1719834D01*
G01X466090Y-1726184D01*
G01X459740Y-1729232D01*
G01X450596Y-1732280D01*
G01X435102D01*
G01X425704Y-1729232D01*
G01X419608Y-1726184D01*
G01X413258Y-1719834D01*
G01X410210Y-1713738D01*
G01Y-1701292D01*
G01X413258Y-1695196D01*
G01X419608Y-1688846D01*
G01X425704Y-1685798D01*
G01X459740Y-1652524D02*
G01X462788Y-1652524D01*
G01X469138Y-1649476D01*
G01X472186Y-1646428D01*
G01X475234Y-1640332D01*
G01Y-1627886D01*
G01X472186Y-1621536D01*
G01X469138Y-1618488D01*
G01X462788Y-1615440D01*
G01X456692D01*
G01X450596Y-1618488D01*
G01X441198Y-1624838D01*
G01X410210Y-1655572D01*
G01Y-1612392D01*
G01X459740Y-1050798D02*
G01X466090Y-1053846D01*
G01X472186Y-1060196D01*
G01X475234Y-1066292D01*
G01Y-1078738D01*
G01X472186Y-1084834D01*
G01X466090Y-1091184D01*
G01X459740Y-1094232D01*
G01X450596Y-1097280D01*
G01X435102D01*
G01X425704Y-1094232D01*
G01X419608Y-1091184D01*
G01X413258Y-1084834D01*
G01X410210Y-1078738D01*
G01Y-1066292D01*
G01X413258Y-1060196D01*
G01X419608Y-1053846D01*
G01X425704Y-1050798D01*
G01X462788Y-1020572D02*
G01X466090Y-1014476D01*
G01X475234Y-1005332D01*
G01X410210D01*
G01X1521460Y-1667002D02*
G01X1515110Y-1663954D01*
G01X1509014Y-1657604D01*
G01X1505966Y-1651508D01*
G01Y-1639062D01*
G01X1509014Y-1632966D01*
G01X1515110Y-1626616D01*
G01X1521460Y-1623568D01*
G01X1530604Y-1620520D01*
G01X1546098D01*
G01X1555496Y-1623568D01*
G01X1561592Y-1626616D01*
G01X1567942Y-1632966D01*
G01X1570990Y-1639062D01*
G01Y-1651508D01*
G01X1567942Y-1657604D01*
G01X1561592Y-1663954D01*
G01X1555496Y-1667002D01*
G01X1505966Y-1727962D02*
G01X1549146Y-1697228D01*
G01Y-1743456D01*
G01X1505966Y-1727962D02*
G01X1570990Y-1727962D01*
G01X-1056640Y-2873502D02*
G01X-1062990Y-2870454D01*
G01X-1069086Y-2864104D01*
G01X-1072134Y-2858008D01*
G01Y-2845562D01*
G01X-1069086Y-2839466D01*
G01X-1062990Y-2833116D01*
G01X-1056640Y-2830068D01*
G01X-1047496Y-2827020D01*
G01X-1032002D01*
G01X-1022604Y-2830068D01*
G01X-1016508Y-2833116D01*
G01X-1010158Y-2839466D01*
G01X-1007110Y-2845562D01*
G01Y-2858008D01*
G01X-1010158Y-2864104D01*
G01X-1016508Y-2870454D01*
G01X-1022604Y-2873502D01*
G01X-1062990Y-2940812D02*
G01X-1069086Y-2937764D01*
G01X-1072134Y-2928366D01*
G01Y-2922270D01*
G01X-1069086Y-2912872D01*
G01X-1059688Y-2906776D01*
G01X-1044448Y-2903728D01*
G01X-1028954D01*
G01X-1016508Y-2906776D01*
G01X-1010158Y-2912872D01*
G01X-1007110Y-2922270D01*
G01Y-2925318D01*
G01X-1010158Y-2934462D01*
G01X-1016508Y-2940812D01*
G01X-1025652Y-2943860D01*
G01X-1028954D01*
G01X-1038098Y-2940812D01*
G01X-1044448Y-2934462D01*
G01X-1047496Y-2925318D01*
G01Y-2922270D01*
G01X-1044448Y-2912872D01*
G01X-1038098Y-2906776D01*
G01X-1028954Y-2903728D01*
G01X2987040Y-2701798D02*
G01X2993390Y-2704846D01*
G01X2999486Y-2711196D01*
G01X3002534Y-2717292D01*
G01Y-2729738D01*
G01X2999486Y-2735834D01*
G01X2993390Y-2742184D01*
G01X2987040Y-2745232D01*
G01X2977896Y-2748280D01*
G01X2962402D01*
G01X2953004Y-2745232D01*
G01X2946908Y-2742184D01*
G01X2940558Y-2735834D01*
G01X2937510Y-2729738D01*
G01Y-2717292D01*
G01X2940558Y-2711196D01*
G01X2946908Y-2704846D01*
G01X2953004Y-2701798D01*
G01X3002534Y-2628392D02*
G01X2937510Y-2659380D01*
G01X3002534Y-2671572D02*
G01X3002534Y-2628392D01*
G01X-599440Y695198D02*
G01X-605790Y698246D01*
G01X-611886Y704596D01*
G01X-614934Y710692D01*
G01Y723138D01*
G01X-611886Y729234D01*
G01X-605790Y735584D01*
G01X-599440Y738632D01*
G01X-590296Y741680D01*
G01X-574802D01*
G01X-565404Y738632D01*
G01X-559308Y735584D01*
G01X-552958Y729234D01*
G01X-549910Y723138D01*
G01Y710692D01*
G01X-552958Y704596D01*
G01X-559308Y698246D01*
G01X-565404Y695198D01*
G01X-614934Y649732D02*
G01X-611886Y658876D01*
G01X-605790Y661924D01*
G01X-599440D01*
G01X-593344Y658876D01*
G01X-590296Y652780D01*
G01X-587248Y640334D01*
G01X-583946Y630936D01*
G01X-577850Y624840D01*
G01X-571754Y621792D01*
G01X-562356D01*
G01X-556260Y624840D01*
G01X-552958Y627888D01*
G01X-549910Y637286D01*
G01Y649732D01*
G01X-552958Y658876D01*
G01X-556260Y661924D01*
G01X-562356Y664972D01*
G01X-571754D01*
G01X-577850Y661924D01*
G01X-583946Y655828D01*
G01X-587248Y646430D01*
G01X-590296Y634238D01*
G01X-593344Y627888D01*
G01X-599440Y624840D01*
G01X-605790D01*
G01X-611886Y627888D01*
G01X-614934Y637286D01*
G01Y649732D01*
G01X2956560Y784098D02*
G01X2950210Y787146D01*
G01X2944114Y793496D01*
G01X2941066Y799592D01*
G01Y812038D01*
G01X2944114Y818134D01*
G01X2950210Y824484D01*
G01X2956560Y827532D01*
G01X2965704Y830580D01*
G01X2981198D01*
G01X2990596Y827532D01*
G01X2996692Y824484D01*
G01X3003042Y818134D01*
G01X3006090Y812038D01*
G01Y799592D01*
G01X3003042Y793496D01*
G01X2996692Y787146D01*
G01X2990596Y784098D01*
G01X2962656Y713740D02*
G01X2972054Y716788D01*
G01X2978150Y723138D01*
G01X2981198Y732282D01*
G01Y735330D01*
G01X2978150Y744728D01*
G01X2972054Y750824D01*
G01X2962656Y753872D01*
G01X2959608D01*
G01X2950210Y750824D01*
G01X2944114Y744728D01*
G01X2941066Y735330D01*
G01Y732282D01*
G01X2944114Y723138D01*
G01X2950210Y716788D01*
G01X2962656Y713740D01*
G01X2978150D01*
G01X2993644Y716788D01*
G01X3003042Y723138D01*
G01X3006090Y732282D01*
G01Y738632D01*
G01X3003042Y747776D01*
G01X2996692Y750824D01*
G01X1640840Y-575615D02*
G01X1647190Y-578663D01*
G01X1653286Y-585013D01*
G01X1656334Y-591109D01*
G01Y-603555D01*
G01X1653286Y-609651D01*
G01X1647190Y-616001D01*
G01X1640840Y-619049D01*
G01X1631696Y-622097D01*
G01X1616202D01*
G01X1606804Y-619049D01*
G01X1600708Y-616001D01*
G01X1594358Y-609651D01*
G01X1591310Y-603555D01*
G01Y-591109D01*
G01X1594358Y-585013D01*
G01X1600708Y-578663D01*
G01X1606804Y-575615D01*
G01X1643888Y-545389D02*
G01X1647190Y-539293D01*
G01X1656334Y-530149D01*
G01X1591310D01*
G01X1656334Y-481381D02*
G01X1653286Y-490779D01*
G01X1643888Y-496875D01*
G01X1628648Y-499923D01*
G01X1619250D01*
G01X1603756Y-496875D01*
G01X1594358Y-490779D01*
G01X1591310Y-481381D01*
G01Y-475285D01*
G01X1594358Y-465887D01*
G01X1603756Y-459791D01*
G01X1619250Y-456743D01*
G01X1628648D01*
G01X1643888Y-459791D01*
G01X1653286Y-465887D01*
G01X1656334Y-475285D01*
G01Y-481381D01*
G01X2812034Y-2964180D02*
G01X2747010Y-2964180D01*
G01X2812034Y-2964180D02*
G01X2812034Y-2936240D01*
G01X2808986Y-2927096D01*
G01X2805938Y-2924048D01*
G01X2799588Y-2920746D01*
G01X2793492D01*
G01X2787396Y-2924048D01*
G01X2784348Y-2927096D01*
G01X2781046Y-2936240D01*
G01Y-2964180D01*
G01X2781046Y-2942590D02*
G01X2747010Y-2920746D01*
G01X2812034Y-2847340D02*
G01X2747010Y-2878328D01*
G01X2812034Y-2890520D02*
G01X2812034Y-2847340D01*
G01X3002534Y-2964180D02*
G01X2937510Y-2964180D01*
G01X3002534Y-2964180D02*
G01X3002534Y-2936240D01*
G01X2999486Y-2927096D01*
G01X2996438Y-2924048D01*
G01X2990088Y-2920746D01*
G01X2983992D01*
G01X2977896Y-2924048D01*
G01X2974848Y-2927096D01*
G01X2971546Y-2936240D01*
G01Y-2964180D01*
G01X2971546Y-2942590D02*
G01X2937510Y-2920746D01*
G01X3002534Y-2875280D02*
G01X2999486Y-2884424D01*
G01X2993390Y-2887472D01*
G01X2987040D01*
G01X2980944Y-2884424D01*
G01X2977896Y-2878328D01*
G01X2974848Y-2865882D01*
G01X2971546Y-2856484D01*
G01X2965450Y-2850388D01*
G01X2959354Y-2847340D01*
G01X2949956D01*
G01X2943860Y-2850388D01*
G01X2940558Y-2853436D01*
G01X2937510Y-2862834D01*
G01Y-2875280D01*
G01X2940558Y-2884424D01*
G01X2943860Y-2887472D01*
G01X2949956Y-2890520D01*
G01X2959354D01*
G01X2965450Y-2887472D01*
G01X2971546Y-2881376D01*
G01X2974848Y-2871978D01*
G01X2977896Y-2859786D01*
G01X2980944Y-2853436D01*
G01X2987040Y-2850388D01*
G01X2993390D01*
G01X2999486Y-2853436D01*
G01X3002534Y-2862834D01*
G01Y-2875280D01*
G01X2812034Y-2748280D02*
G01X2747010Y-2748280D01*
G01X2812034Y-2748280D02*
G01X2812034Y-2720340D01*
G01X2808986Y-2711196D01*
G01X2805938Y-2708148D01*
G01X2799588Y-2704846D01*
G01X2793492D01*
G01X2787396Y-2708148D01*
G01X2784348Y-2711196D01*
G01X2781046Y-2720340D01*
G01Y-2748280D01*
G01X2781046Y-2726690D02*
G01X2747010Y-2704846D01*
G01X2790444Y-2634488D02*
G01X2781046Y-2637536D01*
G01X2774950Y-2643886D01*
G01X2771902Y-2653030D01*
G01Y-2656078D01*
G01X2774950Y-2665476D01*
G01X2781046Y-2671572D01*
G01X2790444Y-2674620D01*
G01X2793492D01*
G01X2802890Y-2671572D01*
G01X2808986Y-2665476D01*
G01X2812034Y-2656078D01*
G01Y-2653030D01*
G01X2808986Y-2643886D01*
G01X2802890Y-2637536D01*
G01X2790444Y-2634488D01*
G01X2774950D01*
G01X2759456Y-2637536D01*
G01X2750058Y-2643886D01*
G01X2747010Y-2653030D01*
G01Y-2659380D01*
G01X2750058Y-2668524D01*
G01X2756408Y-2671572D01*
G01X-566166Y-2697480D02*
G01X-631190Y-2697480D01*
G01X-566166Y-2697480D02*
G01X-566166Y-2669540D01*
G01X-569214Y-2660396D01*
G01X-572262Y-2657348D01*
G01X-578612Y-2654046D01*
G01X-584708D01*
G01X-590804Y-2657348D01*
G01X-593852Y-2660396D01*
G01X-597154Y-2669540D01*
G01Y-2697480D01*
G01X-597154Y-2675890D02*
G01X-631190Y-2654046D01*
G01X-566166Y-2593086D02*
G01X-609346Y-2623820D01*
G01Y-2577592D01*
G01X-566166Y-2593086D02*
G01X-631190Y-2593086D01*
G01X-1072134Y-2598420D02*
G01X-1007110Y-2598420D01*
G01X-1072134Y-2598420D02*
G01X-1072134Y-2626360D01*
G01X-1069086Y-2635504D01*
G01X-1066038Y-2638552D01*
G01X-1059688Y-2641854D01*
G01X-1053592D01*
G01X-1047496Y-2638552D01*
G01X-1044448Y-2635504D01*
G01X-1041146Y-2626360D01*
G01Y-2598420D01*
G01X-1041146Y-2620010D02*
G01X-1007110Y-2641854D01*
G01X-1072134Y-2709164D02*
G01X-1072134Y-2678176D01*
G01X-1044448Y-2675128D01*
G01X-1047496Y-2678176D01*
G01X-1050544Y-2687320D01*
G01Y-2696718D01*
G01X-1047496Y-2706116D01*
G01X-1041146Y-2712212D01*
G01X-1032002Y-2715260D01*
G01X-1025652D01*
G01X-1016508Y-2712212D01*
G01X-1010158Y-2706116D01*
G01X-1007110Y-2696718D01*
G01Y-2687320D01*
G01X-1010158Y-2678176D01*
G01X-1013460Y-2675128D01*
G01X-1019556Y-2672080D01*
G01X-553466Y-2913380D02*
G01X-618490Y-2913380D01*
G01X-553466Y-2913380D02*
G01X-553466Y-2885440D01*
G01X-556514Y-2876296D01*
G01X-559562Y-2873248D01*
G01X-565912Y-2869946D01*
G01X-572008D01*
G01X-578104Y-2873248D01*
G01X-581152Y-2876296D01*
G01X-584454Y-2885440D01*
G01Y-2913380D01*
G01X-584454Y-2891790D02*
G01X-618490Y-2869946D01*
G01X-562610Y-2802636D02*
G01X-556514Y-2805684D01*
G01X-553466Y-2815082D01*
G01Y-2821178D01*
G01X-556514Y-2830576D01*
G01X-565912Y-2836672D01*
G01X-581152Y-2839720D01*
G01X-596646D01*
G01X-609092Y-2836672D01*
G01X-615442Y-2830576D01*
G01X-618490Y-2821178D01*
G01Y-2818130D01*
G01X-615442Y-2808986D01*
G01X-609092Y-2802636D01*
G01X-599948Y-2799588D01*
G01X-596646D01*
G01X-587502Y-2802636D01*
G01X-581152Y-2808986D01*
G01X-578104Y-2818130D01*
G01Y-2821178D01*
G01X-581152Y-2830576D01*
G01X-587502Y-2836672D01*
G01X-596646Y-2839720D01*
G01X-602234Y982980D02*
G01X-537210Y982980D01*
G01X-602234Y982980D02*
G01X-602234Y955040D01*
G01X-599186Y945896D01*
G01X-596138Y942848D01*
G01X-589788Y939546D01*
G01X-583692D01*
G01X-577596Y942848D01*
G01X-574548Y945896D01*
G01X-571246Y955040D01*
G01Y982980D01*
G01X-571246Y961390D02*
G01X-537210Y939546D01*
G01X-589788Y909320D02*
G01X-593090Y903224D01*
G01X-602234Y894080D01*
G01X-537210D01*
G01X-602234Y845312D02*
G01X-599186Y854710D01*
G01X-589788Y860806D01*
G01X-574548Y863854D01*
G01X-565150D01*
G01X-549656Y860806D01*
G01X-540258Y854710D01*
G01X-537210Y845312D01*
G01Y839216D01*
G01X-540258Y829818D01*
G01X-549656Y823722D01*
G01X-565150Y820674D01*
G01X-574548D01*
G01X-589788Y823722D01*
G01X-599186Y829818D01*
G01X-602234Y839216D01*
G01Y845312D01*
G01X-970534Y970280D02*
G01X-905510Y970280D01*
G01X-970534Y970280D02*
G01X-970534Y942340D01*
G01X-967486Y933196D01*
G01X-964438Y930148D01*
G01X-958088Y926846D01*
G01X-951992D01*
G01X-945896Y930148D01*
G01X-942848Y933196D01*
G01X-939546Y942340D01*
G01Y970280D01*
G01X-939546Y948690D02*
G01X-905510Y926846D01*
G01X-958088Y896620D02*
G01X-961390Y890524D01*
G01X-970534Y881380D01*
G01X-905510D01*
G01X-958088Y851154D02*
G01X-961390Y845058D01*
G01X-970534Y835914D01*
G01X-905510D01*
G01X-983234Y767080D02*
G01X-918210Y767080D01*
G01X-983234Y767080D02*
G01X-983234Y739140D01*
G01X-980186Y729996D01*
G01X-977138Y726948D01*
G01X-970788Y723646D01*
G01X-964692D01*
G01X-958596Y726948D01*
G01X-955548Y729996D01*
G01X-952246Y739140D01*
G01Y767080D01*
G01X-952246Y745490D02*
G01X-918210Y723646D01*
G01X-970788Y693420D02*
G01X-974090Y687324D01*
G01X-983234Y678180D01*
G01X-918210D01*
G01X-967740Y644906D02*
G01X-970788Y644906D01*
G01X-977138Y641858D01*
G01X-980186Y638810D01*
G01X-983234Y632714D01*
G01Y620268D01*
G01X-980186Y613918D01*
G01X-977138Y610870D01*
G01X-970788Y607822D01*
G01X-964692D01*
G01X-958596Y610870D01*
G01X-949198Y617220D01*
G01X-918210Y647954D01*
G01Y604774D01*
G01X2496566Y601980D02*
G01X2561590Y601980D01*
G01X2496566Y601980D02*
G01X2496566Y574040D01*
G01X2499614Y564896D01*
G01X2502662Y561848D01*
G01X2509012Y558546D01*
G01X2515108D01*
G01X2521204Y561848D01*
G01X2524252Y564896D01*
G01X2527554Y574040D01*
G01Y601980D01*
G01X2527554Y580390D02*
G01X2561590Y558546D01*
G01X2509012Y528320D02*
G01X2505710Y522224D01*
G01X2496566Y513080D01*
G01X2561590D01*
G01X2496566Y476758D02*
G01X2496566Y442722D01*
G01X2521204Y461264D01*
G01Y452120D01*
G01X2524252Y445770D01*
G01X2527554Y442722D01*
G01X2536698Y439674D01*
G01X2543048D01*
G01X2552192Y442722D01*
G01X2558542Y448818D01*
G01X2561590Y458216D01*
G01Y467614D01*
G01X2558542Y476758D01*
G01X2555240Y479806D01*
G01X2549144Y482854D01*
G01X2941066Y614680D02*
G01X3006090Y614680D01*
G01X2941066Y614680D02*
G01X2941066Y586740D01*
G01X2944114Y577596D01*
G01X2947162Y574548D01*
G01X2953512Y571246D01*
G01X2959608D01*
G01X2965704Y574548D01*
G01X2968752Y577596D01*
G01X2972054Y586740D01*
G01Y614680D01*
G01X2972054Y593090D02*
G01X3006090Y571246D01*
G01X2953512Y541020D02*
G01X2950210Y534924D01*
G01X2941066Y525780D01*
G01X3006090D01*
G01X2941066Y464820D02*
G01X2984246Y495554D01*
G01Y449326D01*
G01X2941066Y464820D02*
G01X3006090Y464820D01*
G01X2483866Y843280D02*
G01X2548890Y843280D01*
G01X2483866Y843280D02*
G01X2483866Y815340D01*
G01X2486914Y806196D01*
G01X2489962Y803148D01*
G01X2496312Y799846D01*
G01X2502408D01*
G01X2508504Y803148D01*
G01X2511552Y806196D01*
G01X2514854Y815340D01*
G01Y843280D01*
G01X2514854Y821690D02*
G01X2548890Y799846D01*
G01X2496312Y769620D02*
G01X2493010Y763524D01*
G01X2483866Y754380D01*
G01X2548890D01*
G01X2483866Y687070D02*
G01X2483866Y718058D01*
G01X2511552Y721106D01*
G01X2508504Y718058D01*
G01X2505456Y708914D01*
G01Y699516D01*
G01X2508504Y690118D01*
G01X2514854Y684022D01*
G01X2523998Y680974D01*
G01X2530348D01*
G01X2539492Y684022D01*
G01X2545842Y690118D01*
G01X2548890Y699516D01*
G01Y708914D01*
G01X2545842Y718058D01*
G01X2542540Y721106D01*
G01X2536444Y724154D01*
G01X426466Y-121920D02*
G01X491490Y-121920D01*
G01X426466Y-121920D02*
G01X426466Y-149860D01*
G01X429514Y-159004D01*
G01X432562Y-162052D01*
G01X438912Y-165354D01*
G01X445008D01*
G01X451104Y-162052D01*
G01X454152Y-159004D01*
G01X457454Y-149860D01*
G01Y-121920D01*
G01X457454Y-143510D02*
G01X491490Y-165354D01*
G01X438912Y-195580D02*
G01X435610Y-201676D01*
G01X426466Y-210820D01*
G01X491490D01*
G01X435610Y-278130D02*
G01X429514Y-275082D01*
G01X426466Y-265684D01*
G01Y-259588D01*
G01X429514Y-250190D01*
G01X438912Y-244094D01*
G01X454152Y-241046D01*
G01X469646D01*
G01X482092Y-244094D01*
G01X488442Y-250190D01*
G01X491490Y-259588D01*
G01Y-262636D01*
G01X488442Y-271780D01*
G01X482092Y-278130D01*
G01X472948Y-281178D01*
G01X469646D01*
G01X460502Y-278130D01*
G01X454152Y-271780D01*
G01X451104Y-262636D01*
G01Y-259588D01*
G01X454152Y-250190D01*
G01X460502Y-244094D01*
G01X469646Y-241046D01*
G01X909320Y-1364234D02*
G01X909320Y-1299210D01*
G01X909320Y-1364234D02*
G01X937260Y-1364234D01*
G01X946404Y-1361186D01*
G01X949452Y-1358138D01*
G01X952754Y-1351788D01*
G01Y-1345692D01*
G01X949452Y-1339596D01*
G01X946404Y-1336548D01*
G01X937260Y-1333246D01*
G01X909320D01*
G01X930910Y-1333246D02*
G01X952754Y-1299210D01*
G01X982980Y-1351788D02*
G01X989076Y-1355090D01*
G01X998220Y-1364234D01*
G01Y-1299210D01*
G01X1071626Y-1364234D02*
G01X1040638Y-1299210D01*
G01X1028446Y-1364234D02*
G01X1071626Y-1364234D01*
G01X421498Y-449288D02*
G01X486522Y-449288D01*
G01X421498Y-449288D02*
G01X421498Y-477228D01*
G01X424546Y-486372D01*
G01X427594Y-489420D01*
G01X433944Y-492722D01*
G01X440040D01*
G01X446136Y-489420D01*
G01X449184Y-486372D01*
G01X452486Y-477228D01*
G01Y-449288D01*
G01X452486Y-470878D02*
G01X486522Y-492722D01*
G01X433944Y-522948D02*
G01X430642Y-529044D01*
G01X421498Y-538188D01*
G01X486522D01*
G01X421498Y-583654D02*
G01X424546Y-574510D01*
G01X430642Y-571462D01*
G01X436992D01*
G01X443088Y-574510D01*
G01X446136Y-580606D01*
G01X449184Y-593052D01*
G01X452486Y-602450D01*
G01X458582Y-608546D01*
G01X464678Y-611594D01*
G01X474076D01*
G01X480172Y-608546D01*
G01X483474Y-605498D01*
G01X486522Y-596100D01*
G01Y-583654D01*
G01X483474Y-574510D01*
G01X480172Y-571462D01*
G01X474076Y-568414D01*
G01X464678D01*
G01X458582Y-571462D01*
G01X452486Y-577558D01*
G01X449184Y-586956D01*
G01X446136Y-599148D01*
G01X443088Y-605498D01*
G01X436992Y-608546D01*
G01X430642D01*
G01X424546Y-605498D01*
G01X421498Y-596100D01*
G01Y-583654D01*
G01X1521460Y-1057402D02*
G01X1515110Y-1054354D01*
G01X1509014Y-1048004D01*
G01X1505966Y-1041908D01*
G01Y-1029462D01*
G01X1509014Y-1023366D01*
G01X1515110Y-1017016D01*
G01X1521460Y-1013968D01*
G01X1530604Y-1010920D01*
G01X1546098D01*
G01X1555496Y-1013968D01*
G01X1561592Y-1017016D01*
G01X1567942Y-1023366D01*
G01X1570990Y-1029462D01*
G01Y-1041908D01*
G01X1567942Y-1048004D01*
G01X1561592Y-1054354D01*
G01X1555496Y-1057402D01*
G01X1505966Y-1093724D02*
G01X1505966Y-1127760D01*
G01X1530604Y-1109218D01*
G01Y-1118362D01*
G01X1533652Y-1124712D01*
G01X1536954Y-1127760D01*
G01X1546098Y-1130808D01*
G01X1552448D01*
G01X1561592Y-1127760D01*
G01X1567942Y-1121664D01*
G01X1570990Y-1112266D01*
G01Y-1102868D01*
G01X1567942Y-1093724D01*
G01X1564640Y-1090676D01*
G01X1558544Y-1087628D01*
G04 Text End*

G04 PolygonModel Start*
G01X425849Y-1591531D02*
G01X160612Y-1591531D01*
G01X160612Y-1591531D02*
G01X160612Y-1476649D01*
G01X425849Y-1126294D02*
G01X160612Y-1126294D01*
G01X160612Y-1126294D02*
G01X160612Y-1241176D01*
G01X1555351Y-1138969D02*
G01X1820588Y-1138969D01*
G01X1820588Y-1138969D02*
G01X1820588Y-1253851D01*
G01X1555351Y-1604206D02*
G01X1820588Y-1604206D01*
G01X1820588Y-1604206D02*
G01X1820588Y-1489324D01*
G54D11*
G01X849998Y-1655298D02*
G01X849998Y-1585300D01*
G01X849998Y-1585300D02*
G01X1150000Y-1585300D01*
G01X1150000Y-1585300D02*
G01X1150000Y-1655298D01*
G01X1200094Y-1955800D02*
G01X800000Y-1955800D01*
G01X849998Y-1655298D02*
G01X886884Y-1655298D01*
G01X849998Y-1655298D02*
G01X799998Y-1655298D01*
G01X799998Y-1655298D02*
G01X799998Y-1827733D01*
G01X1113111Y-1655298D02*
G01X1200094Y-1655298D01*
G01X1200094Y-1655298D02*
G01X1200094Y-1827759D01*
G36*
G01X1123896Y-1600195D02*
G01X1136596Y-1625595D01*
G01X1111196D01*
G01X1123896Y-1600195D01*
G37*
G01X665480Y-594360D02*
G01X665480Y-721360D01*
G01X665480Y-370840D02*
G01X665480Y-497840D01*
G01X1447800Y-746846D02*
G01X1447800Y-345354D01*
G01X665480Y-591820D02*
G03X665480Y-497840I0J46990D01*
G54D10*
G01X381030Y-1713560D02*
G01X302021Y-1713560D01*
G01X302021Y-1613840D02*
G01X381030Y-1613840D01*
G01X396270Y-1629080D02*
G01X396270Y-1698320D01*
G01X177770Y-1713560D02*
G01X256779Y-1713560D01*
G01X256779Y-1613840D02*
G01X177770Y-1613840D01*
G01X162530Y-1629080D02*
G01X162530Y-1698320D01*
G01X381030Y-1613840D02*
G02X396270Y-1629080I0J-15240D01*
G01X396270Y-1698320D02*
G02X381030Y-1713560I-15240J0D01*
G01X177770Y-1613840D02*
G03X162530Y-1629080I0J-15240D01*
G01X162530Y-1698320D02*
G03X177770Y-1713560I15240J0D01*
G01X177770Y-1004240D02*
G01X256779Y-1004240D01*
G01X256779Y-1103960D02*
G01X177770Y-1103960D01*
G01X162530Y-1088720D02*
G01X162530Y-1019480D01*
G01X381030Y-1004240D02*
G01X302021Y-1004240D01*
G01X302021Y-1103960D02*
G01X381030Y-1103960D01*
G01X396270Y-1088720D02*
G01X396270Y-1019480D01*
G01X177770Y-1103960D02*
G02X162530Y-1088720I0J15240D01*
G01X162530Y-1019480D02*
G02X177770Y-1004240I15240J0D01*
G01X381030Y-1103960D02*
G03X396270Y-1088720I0J15240D01*
G01X396270Y-1019480D02*
G03X381030Y-1004240I-15240J0D01*
G01X1600170Y-1016940D02*
G01X1679179Y-1016940D01*
G01X1679179Y-1116660D02*
G01X1600170Y-1116660D01*
G01X1584930Y-1101420D02*
G01X1584930Y-1032180D01*
G01X1803430Y-1016940D02*
G01X1724421Y-1016940D01*
G01X1724421Y-1116660D02*
G01X1803430Y-1116660D01*
G01X1818670Y-1101420D02*
G01X1818670Y-1032180D01*
G01X1600170Y-1116660D02*
G02X1584930Y-1101420I0J15240D01*
G01X1584930Y-1032180D02*
G02X1600170Y-1016940I15240J0D01*
G01X1803430Y-1116660D02*
G03X1818670Y-1101420I0J15240D01*
G01X1818670Y-1032180D02*
G03X1803430Y-1016940I-15240J0D01*
G01X1803430Y-1726260D02*
G01X1724421Y-1726260D01*
G01X1724421Y-1626540D02*
G01X1803430Y-1626540D01*
G01X1818670Y-1641780D02*
G01X1818670Y-1711020D01*
G01X1600170Y-1726260D02*
G01X1679179Y-1726260D01*
G01X1679179Y-1626540D02*
G01X1600170Y-1626540D01*
G01X1584930Y-1641780D02*
G01X1584930Y-1711020D01*
G01X1803430Y-1626540D02*
G02X1818670Y-1641780I0J-15240D01*
G01X1818670Y-1711020D02*
G02X1803430Y-1726260I-15240J0D01*
G01X1600170Y-1626540D02*
G03X1584930Y-1641780I0J-15240D01*
G01X1584930Y-1711020D02*
G03X1600170Y-1726260I15240J0D01*
G01X-889940Y-2781270D02*
G01X-889940Y-2860279D01*
G01X-989660Y-2860279D02*
G01X-989660Y-2781270D01*
G01X-974420Y-2766030D02*
G01X-905180Y-2766030D01*
G01X-889940Y-2984530D02*
G01X-889940Y-2905521D01*
G01X-989660Y-2905521D02*
G01X-989660Y-2984530D01*
G01X-974420Y-2999770D02*
G01X-905180Y-2999770D01*
G01X-989660Y-2781270D02*
G02X-974420Y-2766030I15240J0D01*
G01X-905180Y-2766030D02*
G02X-889940Y-2781270I0J-15240D01*
G01X-989660Y-2984530D02*
G03X-974420Y-2999770I15240J0D01*
G01X-905180Y-2999770D02*
G03X-889940Y-2984530I0J15240D01*
G01X2932760Y-2590770D02*
G01X2932760Y-2669779D01*
G01X2833040Y-2669779D02*
G01X2833040Y-2590770D01*
G01X2848280Y-2575530D02*
G01X2917520Y-2575530D01*
G01X2932760Y-2794030D02*
G01X2932760Y-2715021D01*
G01X2833040Y-2715021D02*
G01X2833040Y-2794030D01*
G01X2848280Y-2809270D02*
G01X2917520Y-2809270D01*
G01X2833040Y-2590770D02*
G02X2848280Y-2575530I15240J0D01*
G01X2917520Y-2575530D02*
G02X2932760Y-2590770I0J-15240D01*
G01X2833040Y-2794030D02*
G03X2848280Y-2809270I15240J0D01*
G01X2917520Y-2809270D02*
G03X2932760Y-2794030I0J15240D01*
G01X-735660Y571470D02*
G01X-735660Y650479D01*
G01X-635940Y650479D02*
G01X-635940Y571470D01*
G01X-651180Y556230D02*
G01X-720420Y556230D01*
G01X-735660Y774730D02*
G01X-735660Y695721D01*
G01X-635940Y695721D02*
G01X-635940Y774730D01*
G01X-651180Y789970D02*
G01X-720420Y789970D01*
G01X-635940Y571470D02*
G02X-651180Y556230I-15240J0D01*
G01X-720420Y556230D02*
G02X-735660Y571470I0J15240D01*
G01X-635940Y774730D02*
G03X-651180Y789970I-15240J0D01*
G01X-720420Y789970D02*
G03X-735660Y774730I0J-15240D01*
G01X2929052Y872622D02*
G01X2929052Y793613D01*
G01X2829331Y793613D02*
G01X2829331Y872622D01*
G01X2844571Y887862D02*
G01X2913812Y887862D01*
G01X2929052Y669361D02*
G01X2929052Y748370D01*
G01X2829331Y748370D02*
G01X2829331Y669361D01*
G01X2844571Y654121D02*
G01X2913812Y654121D01*
G01X2829331Y872622D02*
G02X2844571Y887862I15240J0D01*
G01X2913812Y887862D02*
G02X2929052Y872622I0J-15240D01*
G01X2829331Y669361D02*
G03X2844571Y654121I15240J0D01*
G01X2913812Y654121D02*
G03X2929052Y669361I0J15240D01*
G01X1573860Y-431770D02*
G01X1573860Y-510779D01*
G01X1474140Y-510779D02*
G01X1474140Y-431770D01*
G01X1489380Y-416530D02*
G01X1558620Y-416530D01*
G01X1573860Y-635030D02*
G01X1573860Y-556021D01*
G01X1474140Y-556021D02*
G01X1474140Y-635030D01*
G01X1489380Y-650270D02*
G01X1558620Y-650270D01*
G01X1474140Y-431770D02*
G02X1489380Y-416530I15240J0D01*
G01X1558620Y-416530D02*
G02X1573860Y-431770I0J-15240D01*
G01X1474140Y-635030D02*
G03X1489380Y-650270I15240J0D01*
G01X1558620Y-650270D02*
G03X1573860Y-635030I0J15240D01*
G01X2642540Y-2930921D02*
G01X2642540Y-3002724D01*
G01X2642540Y-3002724D02*
G01X2742260Y-3002724D01*
G01X2742260Y-3002724D02*
G01X2742260Y-2930921D01*
G01X2642540Y-2885679D02*
G01X2642540Y-2813875D01*
G01X2642540Y-2813875D02*
G01X2742260Y-2813875D01*
G01X2742260Y-2813875D02*
G01X2742260Y-2885679D01*
G01X2833040Y-2930921D02*
G01X2833040Y-3002724D01*
G01X2833040Y-3002724D02*
G01X2932760Y-3002724D01*
G01X2932760Y-3002724D02*
G01X2932760Y-2930921D01*
G01X2833040Y-2885679D02*
G01X2833040Y-2813875D01*
G01X2833040Y-2813875D02*
G01X2932760Y-2813875D01*
G01X2932760Y-2813875D02*
G01X2932760Y-2885679D01*
G01X2642540Y-2715021D02*
G01X2642540Y-2786824D01*
G01X2642540Y-2786824D02*
G01X2742260Y-2786824D01*
G01X2742260Y-2786824D02*
G01X2742260Y-2715021D01*
G01X2642540Y-2669779D02*
G01X2642540Y-2597975D01*
G01X2642540Y-2597975D02*
G01X2742260Y-2597975D01*
G01X2742260Y-2597975D02*
G01X2742260Y-2669779D01*
G01X-635940Y-2618979D02*
G01X-635940Y-2547175D01*
G01X-635940Y-2547175D02*
G01X-735660Y-2547175D01*
G01X-735660Y-2547175D02*
G01X-735660Y-2618979D01*
G01X-635940Y-2664221D02*
G01X-635940Y-2736024D01*
G01X-635940Y-2736024D02*
G01X-735660Y-2736024D01*
G01X-735660Y-2736024D02*
G01X-735660Y-2664221D01*
G01X-889940Y-2631679D02*
G01X-889940Y-2559875D01*
G01X-889940Y-2559875D02*
G01X-989660Y-2559875D01*
G01X-989660Y-2559875D02*
G01X-989660Y-2631679D01*
G01X-889940Y-2676921D02*
G01X-889940Y-2748724D01*
G01X-889940Y-2748724D02*
G01X-989660Y-2748724D01*
G01X-989660Y-2748724D02*
G01X-989660Y-2676921D01*
G01X-735660Y-2880121D02*
G01X-735660Y-2951924D01*
G01X-735660Y-2951924D02*
G01X-635940Y-2951924D01*
G01X-635940Y-2951924D02*
G01X-635940Y-2880121D01*
G01X-735660Y-2834879D02*
G01X-735660Y-2763075D01*
G01X-735660Y-2763075D02*
G01X-635940Y-2763075D01*
G01X-635940Y-2763075D02*
G01X-635940Y-2834879D01*
G01X-635940Y924321D02*
G01X-635940Y996125D01*
G01X-635940Y996125D02*
G01X-735660Y996125D01*
G01X-735660Y996125D02*
G01X-735660Y924321D01*
G01X-635940Y879079D02*
G01X-635940Y807276D01*
G01X-635940Y807276D02*
G01X-735660Y807276D01*
G01X-735660Y807276D02*
G01X-735660Y879079D01*
G01X-780821Y929503D02*
G01X-780821Y1001306D01*
G01X-780821Y1001306D02*
G01X-880542Y1001306D01*
G01X-880542Y1001306D02*
G01X-880542Y929503D01*
G01X-780821Y884260D02*
G01X-780821Y812457D01*
G01X-780821Y812457D02*
G01X-880542Y812457D01*
G01X-880542Y812457D02*
G01X-880542Y884260D01*
G01X-875360Y663179D02*
G01X-875360Y591376D01*
G01X-875360Y591376D02*
G01X-775640Y591376D01*
G01X-775640Y591376D02*
G01X-775640Y663179D01*
G01X-875360Y708421D02*
G01X-875360Y780225D01*
G01X-875360Y780225D02*
G01X-775640Y780225D01*
G01X-775640Y780225D02*
G01X-775640Y708421D01*
G01X2673579Y553176D02*
G01X2673579Y624980D01*
G01X2673579Y624980D02*
G01X2573858Y624980D01*
G01X2573858Y624980D02*
G01X2573858Y553176D01*
G01X2673579Y507934D02*
G01X2673579Y436131D01*
G01X2673579Y436131D02*
G01X2573858Y436131D01*
G01X2573858Y436131D02*
G01X2573858Y507934D01*
G01X2930275Y546979D02*
G01X2930275Y618782D01*
G01X2930275Y618782D02*
G01X2830554Y618782D01*
G01X2830554Y618782D02*
G01X2830554Y546979D01*
G01X2930275Y501736D02*
G01X2930275Y429933D01*
G01X2930275Y429933D02*
G01X2830554Y429933D01*
G01X2830554Y429933D02*
G01X2830554Y501736D01*
G01X2660879Y789803D02*
G01X2660879Y861606D01*
G01X2660879Y861606D02*
G01X2561158Y861606D01*
G01X2561158Y861606D02*
G01X2561158Y789803D01*
G01X2660879Y744560D02*
G01X2660879Y672757D01*
G01X2660879Y672757D02*
G01X2561158Y672757D01*
G01X2561158Y672757D02*
G01X2561158Y744560D01*
G01X508940Y-223484D02*
G01X508940Y-295288D01*
G01X508940Y-295288D02*
G01X608660Y-295288D01*
G01X608660Y-295288D02*
G01X608660Y-223484D01*
G01X508940Y-178242D02*
G01X508940Y-106439D01*
G01X508940Y-106439D02*
G01X608660Y-106439D01*
G01X608660Y-106439D02*
G01X608660Y-178242D01*
G01X967979Y-1372540D02*
G01X896176Y-1372540D01*
G01X896176Y-1372540D02*
G01X896176Y-1472260D01*
G01X896176Y-1472260D02*
G01X967979Y-1472260D01*
G01X1013221Y-1372540D02*
G01X1085025Y-1372540D01*
G01X1085025Y-1372540D02*
G01X1085025Y-1472260D01*
G01X1085025Y-1472260D02*
G01X1013221Y-1472260D01*
G01X608660Y-498079D02*
G01X608660Y-426275D01*
G01X608660Y-426275D02*
G01X508940Y-426275D01*
G01X508940Y-426275D02*
G01X508940Y-498079D01*
G01X608660Y-543321D02*
G01X608660Y-615124D01*
G01X608660Y-615124D02*
G01X508940Y-615124D01*
G01X508940Y-615124D02*
G01X508940Y-543321D01*
G04 PolygonModel End*

G04 Circle Start*
G54D12*
G01X630072Y-241300D02*
G03X650088Y-241300I10008J0D01*
G03X630072I-10008J0D01*
G04 Circle End*

M02*
